<mxfile host="app.diagrams.net" agent="Mozilla/5.0 (Windows NT 10.0; Win64; x64) AppleWebKit/537.36 (KHTML, like Gecko) Chrome/135.0.0.0 Safari/537.36" version="26.2.9">
  <diagram name="第 1 页" id="VtgEGV8RqVr0ST0ItIJX">
    <mxGraphModel dx="788" dy="417" grid="1" gridSize="10" guides="1" tooltips="1" connect="1" arrows="1" fold="1" page="1" pageScale="1" pageWidth="827" pageHeight="1169" math="0" shadow="0">
      <root>
        <mxCell id="0" />
        <mxCell id="1" parent="0" />
        <mxCell id="00UijC455V-xWasnX84c-2" style="edgeStyle=orthogonalEdgeStyle;rounded=0;orthogonalLoop=1;jettySize=auto;html=1;" parent="1" source="00UijC455V-xWasnX84c-1" edge="1">
          <mxGeometry relative="1" as="geometry">
            <mxPoint x="360" y="120" as="targetPoint" />
          </mxGeometry>
        </mxCell>
        <mxCell id="00UijC455V-xWasnX84c-1" value="" style="shape=cylinder3;whiteSpace=wrap;html=1;boundedLbl=1;backgroundOutline=1;size=15;" parent="1" vertex="1">
          <mxGeometry x="30" y="80" width="60" height="80" as="geometry" />
        </mxCell>
        <mxCell id="00UijC455V-xWasnX84c-3" value="提交库存扣减异步执行(AOP都行)执行本地方法，&lt;div&gt;然后提交到ConcurrentHashMap&lt;div&gt;key为sku_id，value为次数 LongAdder&lt;/div&gt;&lt;div&gt;本地scheduledexecutorservice定时上报到Redis&lt;/div&gt;&lt;/div&gt;" style="text;html=1;align=left;verticalAlign=middle;resizable=0;points=[];autosize=1;strokeColor=none;fillColor=none;" parent="1" vertex="1">
          <mxGeometry x="90" y="55" width="280" height="70" as="geometry" />
        </mxCell>
        <mxCell id="00UijC455V-xWasnX84c-4" value="lua脚本提交&lt;div&gt;redis.call(get)&lt;/div&gt;" style="shape=note;whiteSpace=wrap;html=1;backgroundOutline=1;fontColor=#000000;darkOpacity=0.05;fillColor=#FFF9B2;strokeColor=none;fillStyle=solid;direction=west;gradientDirection=north;gradientColor=#FFF2A1;shadow=1;size=20;pointerEvents=1;" parent="1" vertex="1">
          <mxGeometry x="370" y="40" width="140" height="160" as="geometry" />
        </mxCell>
        <mxCell id="00UijC455V-xWasnX84c-6" style="edgeStyle=orthogonalEdgeStyle;rounded=0;orthogonalLoop=1;jettySize=auto;html=1;" parent="1" source="00UijC455V-xWasnX84c-5" edge="1">
          <mxGeometry relative="1" as="geometry">
            <mxPoint x="150" y="175" as="targetPoint" />
          </mxGeometry>
        </mxCell>
        <mxCell id="00UijC455V-xWasnX84c-5" value="" style="shape=image;verticalLabelPosition=bottom;labelBackgroundColor=default;verticalAlign=top;aspect=fixed;imageAspect=0;image=data:image/png,iVBORw0KGgoAAAANSUhEUgAAArEAAAIiCAIAAABQSgeXAAAgAElEQVR4AeydiVsTV/fHf39GREdQWSaELYRNQDYB2REFggHDGgUBkcXIDhFBiorgAqiIUEWrqAhS0ALWrdpaa22tVlvcai07gqi48OKv6fW9vZ1JYkTsq3h88vCce+bcc+98Zsz95s6dmf+bP1+k7PPy5f+N46MsG/iBABAAAkAACACB95bAZ58d+r/3tnPQMSAABIAAEAACQOBfIwCaQOkcyb92DKAhIAAEgAAQAALvAwHQBKAJgAAQAAJAAAgAATkB0ARwHgABIAAEgAAQAAJyAqAJ4DwAAkAACAABIAAE5ARAE8B5AASAABAAAkAACMgJgCaA8wAIAAEgAASAABCQEwBNAOcBEAACQAAIAAEgICcg1wQcioYPEAACQAAIAAEg8JETWF+8BTQBSCIgAASAABAAAkCABk0AJwEQAAJAAAgAASAgJwCaAM4DIAAEgAAQAAJAQE4ANAGcB0AACAABIAAEgICcAGgCOA+AABAAAkAACAABOQHQBHAeAAEgAASAABAAAnICoAngPAACQAAIAAEgAATkBEATwHkABIAAEAACQAAIyAmAJoDzAAgAASAABIAAEJATAE0A5wEQAAJAAAgAASAgJwCaAM4DIAAEgAAQAAJAQE4ANAGcB0AACAABIAAEgICcAGiC9+48sPUIiZZVSrLK+XO8X/s2DnfRcvWDX5sNAj5yApEJhZgAaWOnMgMFK6yi0KksD/iBABD43xJQSxO4CmPTK1rSK1qkWxpmuy2awB7Pdlsk3dKAkrsKY1Vnrqqu7ei45bswWHXYu97Kt3CQRK+wc/JEDbl5BSyLT7Fz8vQXhsUlSPFnWXyKm5d/5NLlIaFLcZdwMIei+RYOeQXravcdXBafggM4FO0Zkrhqa5NvZKoe3570cyh6qqY+pWVAOi2dA/xjctPKPrfzEpN+sIHAOAiQ43dkQiH+vDYVrogNXIXtwZvGbRhbutrM9aeN5nj4R0+bacihaE1d0wUhibTRnHHn5FC0saWrjzAOJXybPCrq6vPtqJlGKgImfNMUTe4UTS5OO2W6vq6BtcDGcxbXHDs5FE3NMjaxmmdk7jJVi0f6nbzEtNEcm7n+NnP9ST/Yk5WAWppAU1dgYOlq4x4s3dI4sWMPpW1sYOFi5jA/ueSQZ0iiasq1+w52dnb5C8NUh73rrXEJ0v7+geKSMg5Fi8RL7t/vPHXmnDZXcPrs+RcvRoeHH6HPwMCDtZ9sbDja3NPbFy6J41C0Nldw4dvvbt66Y+fkmZiS0d3TO/Tw4a3bd589e3bp+x+wyPAMSUwsrpvFsyJ3RGBinxuTW1/0WZBnKOnnULSBpat0c8PEHhdGE1D8SAjg8RsbHIombWUcVMSQm7DIQIaybK/1m9p42LsH6/Pt5osSqBnyIXaGniAoIk2fb/faujiAb+U+22khLnIo2tTGw1+cghKS/omyNXVNRZJMvpU7mZBrbGfvJmKMxGTAuG09QxvPwGXiGBnGQs0yXhCSKIxM8wxcFrpstb2bCCU3s/USx8h8g5b7i1MWRWXM4lrgRt38JPp8O3v3YHv3//GPMdwlMN4pAbU0AerBuxt7ZvGsEovrPjhNYOfkefXa9fv3O5FMOX32/I1fOhhHK1wS19Pbd/hIE4eiUzNkg4NDFdt3cSj6628u3r5zF+mAzOz8h8PDNbv3obpsTeBs57Nn9a5MSdae1btAEzAIQ3FCCLBHazSWkyM6aogRyS7i/jA2MeQFOzM1y9jJS2xi4YozKDOwJnDzk6CYcWgCe/dgz8BlZBMTqAloY1tXn4iZev/4LU62he0JbBTnRPomWJLt5CUOlmRjTWAz199XlKChKZ8J0OfbiSRZugbW07VNAsNTLex8UXV3P4mz99+/u7AmMLXxIPODPVkJvJUm4M/xTtpYl1t9MnNHa2Ds6inT5TNUU6ZzfSJSM7Yfy60+mVxyyPy/StzaTZRSWp9bfTJ7Z5toRSGlbYyZvqkmsHPyPPvV17923ES/vxcEii//cGX0r3+Xf7iyIFDsLwy7dfvu/rp61IT8B/rFS5d/uMK3cMCNjttA8wQbS8tOnTk3ODgkTctFqRRqgj+vETQcbf7t3u+evsLW9pNokoBD0dd+vvFrx01trgDNH2wpq8wrWIfysDXBVE39KRR3lq7ptvQy0ATjPnBQ8bUEGOM0o6iiurJI7EcGLjL0AcrMNZkTGrva1TdSRUNo01QtHjXDSEOTR8169TWCNIGTl1gcI4tYXuAljEWbpkzXt3URhsWuiVhesFCcggZpY0vX4KU5ocvywuPWBC/NCV6aY2wpFyJ4eNbQ5Dm6h3gJYzW1TTgUPW2G4Ty/qIj4goj4gnl+UdNmGFIzjHwWLTez9cJddfYOm+cXNWW6PvLYzVsUEV9gZO6CirTRnKDIdLItDkUjp3jZ6oj4gpBoeTfw/LyWnqlPUHzE8oKw2DX28xZpaPL+ujiSFBC6Mjx+rbcwLiQ6Vxwj45oovVaCesKQSjxTR10Da9SlmXrmQRFpXJM5U6bra+nwkVDgULSzd5infwzeL2qWsZzzDKN3MZOBWwHj/SEwfk1AmzqklB4OSV6vocUzc5gv3dLoHbqSQ9GuwtjUsqM27sEaWryAGNnKTUd45s60qcPK0vr5UelTpnPNHf1WbW0iVw+8kSYIl8R9/c3F3r6+xJQMNKBe/uHKzVt3gkKigkKifrv3+9ffXORQdGv7yXu/3/f0FeIf6JvLdijjbmDpml7RLKs5hT8xefJf8wo/SBN8de6bkZGR0i3bcMzps+dv3rqD1xPgaxzhkrjOru7Gppbevj40ScCh6JLNFSMjIz9d/XlVugwpA5yHrQnQJtAEGBEY74IA/lmPkrNHcRWNkoM9GYb97Gx4Exk/bYYBHlZJ/2vtGXqC4CXZc71Cp84wmKEnEEakofHVymH+IkmGDs9qynR9B/eQhcSlAWXzBJraJk5e4sDwVPwrf55flE9QPDXTiJpp5Bec6PTX2h1bF6Hf4qSpM+Tre7S5loskGQamjmQ/yXUJGpo8LV2BDs8qIEzK+MGNhQiuO3WGgV/wCmfvsKkzDGbpWwoj0yzsfGfoCQLCVukaWM92WCCMTNPSMXX3k7x2Pp+hCXATHIq2cphP0kA9FFh7iCSZPNMJ+O1EtgX2B0Rg/JrAVRibXHJI779CNSguP37t7mkzjaJlO8PTNiEEWrSZqzAWr5XT0OLxzJ0NreYtL6wNSSrCmN5AE3R1X7h4aWDgAf51npCUhq/ucyi6qrr2jz86haKIZfEpAwMP0IT84SNN6Jc6bvFtjLgE6cPh4dHR0RcvRhuONuNUjPUEx1tP4E3HW0+8eDF68+ZtvGiAQ9FJKzOu/XzjxYvRwcGh7ZU1OBg0AUYBhjoEZulbuvlJPPyj0QdfI5/ttBA73fwks/QtVWdDmgD9gicHbOzH1bF6wJvIeBxGTgaoqQnIum9kMwY/R/cQT/+YqVo8v+BES/v5KJWWrkAYkWpoNhcVFWqCgNCVzt5hQRHp+Jr6DD0zYeTfKxWMLV0XLk6eNtNIS1cQFJHOt3LjULSFne+CkESkD1R0m5ph5C9Oea0m0OfbCSPTZuiZoVQ2c/29hLEz9AT+4pQZegKsIdS5xs/AgvvGM3VgjP1o0iJ0WZ63ME5Tm48jwfjYCIxfEzCGLlQ0sHBJXL+fHO8R0CnTuYGxqzO2H0tcvz9aVplW3kzGqK8JXr58+Z///OePPzpF4iUoc3FJ2fPnz18S/4aHH8UlSNE1+46OW0JRxG/3fkdX9JUdXS3azF203CdMij/2PuHKgpEmOHXm3MFDDUMPH2Zm56NIZdcOOBS9LD6lr69/R9Wn7Jx2Tp4tx9pGRkbQokV03wF7jSGHomGegE0PPPIl99p8gbWn+Rxv9OH999cqz9QROwXWnqq/6BljNnvUZ6MmdQBp40jsZBukXMDxb2MwBj803jPGYEZRoSaITCgMj1+7cHEKviqhz7cLjV1DAglemj1DT37Vz8lL7C2/T8FoQUgivh6vYi8YHUCReIzHFU1tPMjmIhMK/cUpuvqzJ0oTzOJaBEWkm9squNVZQ5PnFbBMncs3uLdgTDIC49cE7qLlKaX1eJ7ALyo9oWifpq4gJm9XSPJ6hElDi8c1daS0jS2dA6RbGswd/ZBfHjOueYKhhw/XFW/+44/Oq9euo9/c6Vl5AwMPCgqL2Qcmf+2GBw8Gj7ee6O7pjY5NYgdgj67RnPC0zdGySvzxj87BWxkGvu/Azsnz+o1f8RIBFZrAXxh25+5veNT3XRj81blvSjaVo8zW9m63bt89ffY8KjLEFm4dNAFGAcY7IvBGgzcORp1hFEkn3oSNf0cTTJtpuHBxCp4nmK5tEhAmRUsHOBStUBMES7K5xnYLF6d4+EejS+za+lZBkem0kS2buZ6RbVBUus1c/4AwqaauKTuA4VFTExiazRVGpGrpymUH/kzUPMErQWDngzNPnWFgbOmKJaOZrdc7vfkCtwvG+0lg/JqAZ+68srTeJyJ1ynSuHt8+aWNdYKyMQ9G+kWmrtjbx/1p947ggSrqlwdTOx8Y9OK28Gf34tnEPTq8Y5zwBuhdRmpY7ODiE7gC0tnfr6Lh17ecbaOlAyabyxqYWvHbvyk/Xnj171tp+cgLpY03AoehV6bKhoYfoCoL6mkCbK7j8w5U//ugMi5Q/kiErt2BwcEjFfQeo86AJJvAgQiqFBPCYjQ0VgzcZg8MYTuxHzZFbSRttVf++A3bnFc4T/LmuyGau/8LFKWjAs7DzFUam4cHb0n5+YHgqWkWIEuKf7LO4FoskGehWPY3p+t7COPmViL+WDujzHawcXv224VC0u58kdFmerYt83RL5UXjfgUJNYGg2VyTJ0iHuPaZmGQeESR3cQ9DSCoG1h4nVvAnRBPJ7ERcn41sQUYdRc7MdFnAoGuYJyIP4cdpqaQLPkES8+A4Z6L5BW4+Q1LKmjO3Hsne2RaRvRrcSUNrGi1M2ZO9sy9h+PL2ixSVQvoR12kyjkOT1Obu+zN7ZllxyKGljHVpzYOclzqpsJZOT8weMQ0I+n6Bkc8Xjx08OHDzCoejYBOntO3efv3jx5MnI0NBD/PubQ9Hl26oGB4dSM+RiZaI+pCZAtxUMDT1clS47ffY8cQXj5fPnz/HEAGOegEPR6F6JFy9GR0ZGnj17dvLUWbzUAOYJJupIQZ43JYDHacbctcI8ZAwKQB4yGCVUM6369x2QTSBbmSbQ0OS5+EaExa4Rx8hEkiyu8d8PMPjrZv2k8Lg14XFrHD0Wk/cdcCiaZ+qwODoXTbBr6Zn6ihLC4vJREn3+30vw/hrRM7W5zLUajPsO2Bcg8PJADU2e+8Kl4fH5YbFrvAJjkQ7QNbAODE8NXZYnXrY6IEw6S99yQjSB3bxF5FGLTChEd2Nyje2CJdniZatDY1f7ihK09F4/58E+BOCZHATU0gSqd1XH0Ia8sRAFU9rGenx7dHcirk5pG+sY2uDixBpuXgHkEwNR8q+/uXjlp2uMhf0T2+7bZONbOIjDYxjdU6YJlDX07p4boaxF8E9WAuTgjfcRO5EHDyo4gDTIYLbN9pB1/7rrb5z3HTDyMIrkXYuMTdQsYzXvspPfAPnfWx9xEicvsft/n5GAncgg7ztgbGIXqRlG7GclKXQy6rLVBuOhC4x4FUX1UahIAps+dAIToAneTwRuXgF79tYNDg7lr93wfvZQWa/QrExWZas6jyYMSSqS1ZxSM1hZi+AHAkDgTQlM1eIJrD0WRWXoKVpq8KbZIB4IvCcEJq0mON56oqu7p6xi53sCGroBBIDAZCKAlhbiOxsn067BvnzMBCatJviYDyrsOxAAAkAACACBcRAATTBhaw/HQR+qAAEgAASAABB4fwiAJgBNAASAABAAAkAACMgJgCaA8wAIAAEgAASAABCQEwBNAOcBEAACQAAIAAEgICcAmgDOAyAABIAAEAACQEBOADQBnAf/GwJTpnMNLFwYT7V6RwttbD1ComWVkqxy/hwF731hNMqf4y3JKo+WVbqLluNNWrSZodU8XJz0BvlwIdU7q2akOmHqxKDOMCIZRbLDeBM2GI9bxgnxs5gYBpkNbCAw6QmopQlchbHpFS3pFS3SLQ2z3RZNIJTZboukWxpQcleh/OH/r/1ocwXFJWVBIVGvjYSAiSVgPm/hqs+OuYTGTUha71BpTN7OmVwLMpu/MMxfGIY9bl4BcQlS9CH96OHQu2r2bt9Z4+YV8OcTpvkWDpLoFfj50ByK9heGRS5djp4R6RmSuGprk29kKn5tN25C/l7BWUZkUY9v7ylOTtpYRz5mmzZ1iF+72977776RVSafTY6gjL1jbGIUGcG4qE4YjmGMytiPsjGKCsd4RrvshIwkZFGZjXOCAQQmMQG1NIGmrsDA0tXGPVi6pVGdh+upz4vSNjawcDFzmJ9ccgi9Q+G1daNjkwYHh3bX7n9t5PsTsLt2f3NL67voj1tEgmTDDh0TBS9tm/DmLD2E2Y2n3KNUvWFSzUbneC5OLK7jmTuT8ej9kLdu37W2l7+TnkPRtfsOjo6OPnr0eHj40fPnzy9+dxmN+htLyx4/ftLZ2dXZ2fX48ZONpWWevsJ7v98/9kU7qqjNFVy/8euFi5dQUeHjomfp8CUBMXvyqtclFpHdQDbj1Z0cilbYZ3bFD9SjcNQkneR+MUZNMozcpKwK6SdtXBcbaCtZVNgW6SQTYrmAM7ANdhO4Fmkw0kIRCExWAmppArTz7+65+rN4VonFdWpqgg/xSKh4ZeJb7k7gqvz0Q208q38Mrm+ZU1n1idIEU6ZzJTnbguLyGQ2lZ+Wh4R+/s4p869WqdBl6e6RIvKS7pxe9i5JD0ehd2CLxktNnz2M9IYle0d8/UFVdi5pga4JZuqblqVvWJRZtTC5WUxMo6zZjLyZHEY+dqneHHcb2oAzK/HgrHtfZIzFZl22zPWSf0VaUHGfGRXbruBukQSYEGwhMbgJvpQn4c7yTNtblVp/M3NEaGLsaXRueMp3rE5Gasf1YbvXJ5JJD5k4LEUFrN1FKaX1u9cnsnW2iFYXka5PU1ARrP9k4MPBgePjR8PAj/HXvuzD46rXrTZ8fHxwcGhsb6+zqTkzJQC1ur6wZHBx6+fLl4ODQ9soa5ETxBw81dPf0jo2N3bn7m5OrL3q54s1bd8bGxp4/f47eUhgdm3Tv9/udXd3/+c9/OjpuPXr0eGRkpGjDJoXBaHA689X5Xztujo2NPXkygmYyqqprh4cfPXv27MWLUUbP3/LEcgmNy248teb4hYL2S7KW87KWc+Frt8rfdqqlHyhdk3f8m7Vffp/TeNotIoFD0VwLp8SqQ+K80pyjZ9Z++X3GwTZrbxGHohmXA+K3fRa+dqv5vIWp+49nHGwrOHEpZXejrOV83vFv5oXHI02QXNOQ3/ZtQfulpSXVM3ny18FpaOmLsopQi5mH2x2DJGjXzOctTNndKMoqyjl6pvDk5fiKfchvZOWWUnrY0lk+509+jjQ237p99/adu4ePNCE/qQk4FH3jl47TZ8+Xb6t68GAwISkNxYRFxlZV13r6CotLyvr7B5C/qrq2v39AEr0CxbA1wRSKO1VTn0PRyaFSNTUBh6JdhbGJG/bPIl5rS/Z/0th4OHztHuERF0WSwzOjLs6JDUYAHrAZBiMnWUSpyDzsrYzmcAA22D0nN5E22RDYQGCyEhi/JqBNHVJKD4ckr9fQ4pk5zJduafQOXYm+N1PLjtq4B2to8QJiZCs3HeGZO9OmDitL6+dHpU+ZzjV39Fu1tYlcPaCmJrBz8lwWn5KZnd/d01u77yA6JP7CsM7Orhu/dASFRC0IFN+6fffHK1c5FJ2/dsPQ0MNP93zGt3D4dM9nQ0MP0cuQUPzQw4fbd9bEJUiXJ6ZyKNrTV3j3t3sXLl7y9BWuSpf19fUfPtIUlyDt6e3LK1jX9Pnxvr7+JTGJV366dvrseYXBHIo+ffb84OBQ4bpSvoVDc0vrgweDeExSc54AcSDfHJ1YXKd6BGLPE/jEpctaznnFSNFQndN42sY3hGflnH6wNbmmwdB2nr7lXOnez5fvOMChaMZP/+SaBklxpaWHMKv+xNyQGHFeaVbDSTPXBQk7DiC/rPnc0pJdM3mWTouW5Bw9E5y9Xn5pPzEnt+nMvPB4Sscksqgi83C70Rx3lFzWci7zcDvSE2au8he0ozMkueSQnskc8j+Vtb1bR8etI43Nx75ov37jV7QOgNQEeJ6AdJIZROIlnV3dNbvlyuPCxUvk+zDZmgBXfCNNYOkcIN3cILCXi8jJ+kGjIPlX2Z7i8RIbyiLJYV6dGBUJyU3YZhu4FbQJKwPSwDGoe+Qm0ibDwAYCk57A+DWBqzCW/GYPisuPX7t72kyjaNnO8DT5j2kORWvRZq7CWLywS0OLxzN3NrSat7ywllzApaYmQDnRoM7QBLh4pLH5jz86fRcGnzx1Fs8kW9u7bd9Zg35Bour76+rJQ0v+xORQ9LEv2n/tuJmyKquzsysuQYoHodNnz58+e15hsDZXQA786Vl5Dx4MokkFJBdu/NJBtjhRNlsTLN9xYFnZHpRfz9Qu9cCxkNxiuSY41Ba46tV0fUhucVrdF1wLJ2WaIP1Qm6WHECeXFFciTUCuJ1hasiu5pkFDSz+pul5SXIlaFLj4ZR5u91iSjAUHssn9VThCp2bIenr70rPy8grW9fT2oYOF1xM8evT4xYvRc+cv2Dl54sMRErr04neXr167fvG7y+g12RcuXvrxylV/Ydj9+51IHKB2FbaINr2RJnh3l89IPm9qz9K3dPOTePhHo8/s/87MzXZaiJ1ufpJZ+vJJndd+8CCq5kCuZhgetlV0AI3ECkdoXIscrcmcZLdxsJp9Y4Sx05IJwQYCk5vA+DUB43sWFQ0sXBLX7yfHe4RvynRuYOzqjO3HEtfvj5ZVppU3kzETqAnwgHHt5xsKh2GGpEDdq9138OU//3V2dm3asl2hJlAY7C8MIzVBXIK0v3+guKQM5Sc3qTifps00cg6I9gmT4o9zQPS0mf9YFc+ojodt7Ee/9RlFhibAtd5GE0iKK1MPHLPyFKYfais8eZn8IPHBSI67xDhzkP/wkabBwaGGo82NTS1o3QBaY9jd05uZnb+n9sDg4BBaZ1C772BXd49QFOHpK9xdu7/lWFtvX19cgpRD0eXbqjq7utGFA3xxQT4PFJKobMZlEmgCTW2+wNrTfI43+vBMHRFSnqkjdgqsPTW1+fgQKDPwcMg2GFUYAbjICMNF1QF4pEfxKBhXwcZrB28ykkzF1hm4YzgM94FhMCKhCAQmN4HxawJ30fKU0no8A+wXlZ5QtE9TVyBfsJ0sn1L+60ozj2vqSGkbyyddtzSYO/ohP2NR97vQBKfPyi/toyloba4gculydNOaQk1Qvq2qr69/WXwKebDjEqQKNYHCYMZkwPg0gaauIDixKFpWiT/BiUWaugKyVwwbj+7Yn7jrMJ4n0OKaSWs/DyvY+i40AZonQE1EfFKOO4AN9TUBuk3g/v3Oq9euX712vbunF838Y4WHrix8/c1FDkXnFawbHBwqKCxGDeHDxKFocXjM/fudf15IwlcfUMzk1gQY+Fsa5ICqzEZNsLeSHoXdeG0AOd6jYPIvzknmIW12xxgeMpi0cWZsqN6Kw8AAApOSwPg1Ac/ceWVpvU9E6pTpXD2+fdLGusBYGYeifSPTVm1t4tt6cSjacUGUdEuDqZ2PjXtwWnmzvU84h6Jt3IPTK975PMHmsh3Dw49KNldwKDort6C/f2Bz2Q5023pnZxe+1oAOKlrKfuar83wLB22uYM/eul01e/Fgg0cmdO1AYbBqTXCksbm3ry9cMjF39pMnok9cWm7TWfvASOxckJiT3XgKeXxiU3ObzjgvXqZMExjNcc883B6SKx9frb1F2Y2n0DUCZdcOZM3nwgvLNLT0bReIc46eCV0jv0gUnL0+5+gZ1CLf0VuyYQdeT0Bea8A9tHEPTimtN7BwwZ6EpDRyWqV8W1VvX58kegUm/2dkxfZdaKrA2t7tp6s/X/v5hqevkEPRZRU7+/sH0DzBn4sbfrxydWxsDK9SRE1MlCaw8xKv3HSE7DnehQ/dQAMh4ycyKpKjtZo2m4Y6Ay2OYRs4Id7E6AkKILdiD3Iydg0nJMMYMXj3GcFQBAKTmIBamsAzJJFc+CarOYXuG7T1CEkta8rYfix7Z1tE+mZ0KwGlbbw4ZUP2zraM7cfTK1pcAmM4FD1tplFI8vqcXV9m72xLLjmUtLEOrTmw8xJnVbaSyclrCgzuxSVlz58/J+f4T589z/jdj0cRba6gsanl2bNnT56MPHv2rLGpBc0ZMOJxEzmrC3v7+p49ezYyMtLd0/vnSkNlmoBD0exg1ZpAJF5y7/f7L16Mvngx+tW5b3Cjb2/M5Fmu2HmwoP1Sftu3yZ82UDomGlr64YVl+a0XVrecX3P8gn9KHoeilWkCDkUHpRcWtF1cc/xCduOplbVNqjVBVv2JVfua81vlNzskVdfrmdpxKHomz1KyYUd+27erW87nt16ILKqgdEzwegL28wx0DG2SNhxw8nt1ewKHovd+drCzsws/lUgcHtPd01uzex8+mngd6Omz5zkULRIv6ei49eLF6NOnT588Gdmztw4dXA5Foxs90rPke40/E6UJ/KLSY/NrVF/NwY1+0AZ7cGXvDjuG7cG1VGxix6Bg8i8ZQ47c2I8MshXGiM7YxKhIFslI0g82EPgYCKilCVSD0DG0IW8sRMGUtrEe357x5FpK21jH0EZ1tondyrdwiFy6nG/hoGZaxnP0VNd6o2AORYeELkXXL1SnHcdWnpUz4xEFlI6JiYOXhpb8drvXfigdE0Mb19eG4QAdE1tGcxyKpnRMTOfOR2oARyozAmNlkuxtjNNDWbAyv5tXAFpaqCwA+1VoAhzDMBiXt9CC2S1rWZEAACAASURBVPjCPeT9Mowqk6n42nFRWQDpJwdvhTZJjBzCSZsxH8DIjzMwqmA/NhgdwH6Un7GVUSSDwQYCk5vABGiCyQ0I9u5dENAxtIkv3IOuJb2L/IycaKIrq7JVnadw4rkrxpSVT0TqkpxtbPnLaAuKQAAIAIEPlwBogtf/jP5wj+773HNja/eorAodQ+v3uZO4byY2XlGZZf/yLBduHQwgAASAwL9DADQBaAIgAASAABAAAkBATgA0AZwHQAAIAAEgAASAgJwAaAI4D4AAEAACQAAIAAE5AdAEcB4AASAABIAAEAACcgKgCeA8AAJAAAgAASAABOQEQBPAeQAEgAAQAAJAAAjICYAmgPPgf0NgynSugYXLWz62SM2bc2w9QqJllZKscv4c79dW4c/xlmSVR8sq3UXLcbAWbWZoNQ8XJ5+BnwXEeFwPLjJ2GcczninECIMiEAACHxYBtTSBqzA2vaIlvaJFuqVhttuiCdzD2W6LpFsaUPLxPSHOd2FwR8etquraCewVTnW89cT3l3/ERdUGeqru8PCjgYEHaz/ZqDD4+8s/Hm89oXDT++80n7dw1WfHXEIn5q0N3qHSmLydM7kW5I4zHg3p5hUQlyBFH/zkYxS/IFC8q2bv9p016NGQfAsHSfQKOydPnM1fGBa5dDl65rFnSOKqrU2+kan4td0cip6qqW9r6SbyDhOY2ONaHIrW49t7ipOTNtaRzyyiTR3i1+629w4jIyeZTQ7zeKRHTsYmcisWDdiYZFhgd4DAR0VALU2gqSswsHS1cQ+WbmlU50lw6hOktI0NLFzMHOYnlxxC71BQXdfNK+DUmXPrijfjMGXvL8ABb2Oo+Y5j1AQawIo2bHrwYBC/JZnR+o1fOtAT+xn+cRfdIhIkG3bomNiOO4P6FZW951D9DDhyjufixOI6nrkz9shfwmTvduv23Vu371rbuyF/7b6Do6Ojjx49Hh5+9Pz584vfXUaj/sbSssePn3R2dnV2dj1+/GRjaZmnr/De7/ePfdGOKqIXLV64eAkV2c821tUz25q6qTq3cl1i0cHCvUnilVMoLtkZ9rONFfaZrDLJbFIHkDYWBHh/GVuxHwwgAAQ+OAJqaQK0VwaWrtLNDROrCVBm9d+VzFYAbM8EHoM30gSoXcZbkhmdmXBNwH5XMqPFCSxOlCaYMp0rydkWFJfP6Ft6Vh4a/lMz5C/Y5FA0+Q6kVemywcGhmt370HspG442o5jjrSe6e3pF4iWnz57HekISvaK/fwDPHrE1QUxQfOnKEkrLgEPRznY+e/KqbS1fCRGUlq0JlHWbsRcfaBGN6/i3PmmoEAFkGLI/0N2HbgMBIIAIvJUm4M/xTtpYl1t9MnNHa2DsanRteMp0rk9Easb2Y7nVJ5NLDpk7LUQtWbuJUkrrc6tPZu9sE60oJJ8br6Ym+P7yj48ePR4dHR0ZGRkeftTV3RMdm4Q0wTcXLg4ODo2NjXV2dSemZKAWq6prr/x07eSps8+fPx8dHd2+s+bPd+kuCBRf/uHK6F//Lv9wZUGgGAUnpmTc/e3e2NjY6Ogo9p8+e/7ub/d+7bg5Njb25MnI7tr9KHhVuqyzq3tsbOzp06fHW0/gl/JxKJqtCdBLFFHfurp7JmqewCU0Lrvx1Jrj8lcUylrOy1rOha/dyqFoDS39QOmavOPfrP3y+5zG024RCRyK5lo4JVYdEueV5hw9s/bL7zMOtll7izgUzbgcEL/ts/C1W83nLUzdfzzjYFvBiUspuxtlLefzjn8zLzweaYLkmob8tm8L2i8tLameybNELYqyilCLmYfbHYNevfDQfN7ClN2NoqyinKNnCk9ejq/Yh+gZWbmllB62dA5ARfz3SGPzrdt3b9+5i990TGoCDkUjRVW+rerBg8GEpDRUMSwytqq61tNXWFxS1t8/gPxV1bX9/QOS6BUohq0J3Oz9sAjgG9tV51Y62fx93YFD0WxNwKFoV2Fs4ob9s3hWuM+TxmD/1ic9DBsXsYE4MIqTBg7sCBD4eAiMXxPQpg4ppYdDktdraPHMHOZLtzR6h65E35upZUdt3IM1tHgBMbKVm47wzJ1pU4eVpfXzo9KnTOeaO/qt2tpErh5QUxNwKJo9K4A8v3bcDAqJWhAovnX77o9XrqLjV7vv4NjY2HeXfpCm5SYkpS0IFGtzBZd/uHLz1p2gkKigkKjf7v3+9TcX0ax1R8etc+cv8C0cwiJju7p7WttPotcfDz18WLiulG/h0NzS+uDBoCR6Rbgkrqe378xX5/kWDpnZ+Q8eDO6vq8dnDEMToB+131y46OkrzM37ZGjooQpNgDiQb45OLK5TPQKx5wl84tJlLee8YqQaWvry8bjxtI1viPxdyQdbk2saDG3n6VvOle79fPmOA+zXGSfXNKB3JWfVn5gbEiPOK81qOGnmuiBhxwHklzWfW1qyaybP0mnRkpyjZ4Kz18tlVmJObtOZeeHxlI5JZFFF5uF2oznuKLms5Vzm4XakJ8xcFyBKrsLY5JJDeiZzMDR8CI40Nh/7ov36jV+RzCI1AZ4nIJ1kBpF4SWdXd81uufK4cPHSlZ+uYa3G1gRkxciF0dvSy2bpmpJOhZrA0jlAurlBYO9LRk4OGw3n+Hc/Y26AMdjjIo7HxuSgAXsBBD5aAuPXBIxv9qC4/Pi1u6fNNIqW7QxP24SAatFmrsJYvLBLQ4vHM3c2tJq3vLCWXMD19pqgdt9B1OL+uvo//uj0XRiMZp67unuEogh8dBOS0vr7B/DF/qrq2j/+6BSKIqzt3To6bn178Xs0beAvDEMv4SWvHSSmZPT3DxRt2FRVXdvd0ysOj0FpW9tP4ilr9jxByabyBw8G8dTFv3DtYPmOA8vK9qC+6ZnapR44FpJbLNcEh9oCV72arg/JLU6r+4Jr4cS4HIA1QfqhNksPIRYckuJKpAmyG0+5RyWh5EtLdiXXNGho6SdV10uKK5FT4OKXebjdY0kyFhzIRlvRX4UjdGqGrKe3Lz0rL69gXU9vH/q5j9cTPHr0+MWL0XPnL9g5eWJNEBK69OJ3l69eu37xu8voeF24eOnHK1f9hWH373cicaCiRbRpnv38Pat3zbOfT/ZQ2TzBu7t8xmj9jYqz9C3d/CQe/tHoM/u/M3OznRZip5ufZJa+fFJH2QdrAqwG2B5cl9QE2Ikrkh6wgQAQ+LAIjF8TML7ZUdHAwiVx/X5yvEc4pkznBsauzth+LHH9/mhZZVp5MxkzgZoADxiMq9GoG8UlZc+fP39J/BsefhSXIOVQdGyC9NrPN56/ePFweLit/ZSnrxDNE9z4pQPVxRMAZBPsVnAYqsUIVq0Jps00cg6I9gmT4o9zQPS0mUYolcK/eNjGW9G4zigyNAGu9TaaQFJcmXrgmJWnMP1QW+HJy+QHiQ9GctwlxpmD/IePNA0ODjUcbW5sakHrBhDb7p7ezOz8PbUHBgeH0DqD2n0HkdTz9BXurt3fcqytt68PHcTybVWdXd3owgG+uMChaIUtcijazNShOrcyxOdv1Yg7qXCe4P3UBJrafIG1p/kcb/ThmTqiveCZOmKnwNpTU5uP945tsBUA24NrkZoAzxAgA8eAAQSAwIdIYPyawF20PKW0Hs8A+0WlJxTt09QVyL9Mk+VTyn9daeZxTR0pbWP5pOuWBnNHP+RnfOH+a5ogPStvYOBBQWEx41DhO9m0uYLM7PzOrm50TYGcJ8CD/e7a/b19fXie4Ehj85/XINAdcW85T6CpKwhOLIqWVeJPcGKRpq6A0VuyiEd37EzcdRjPE2hxzaS1n4cVbH0XmgDNE6AmIj4pxx3AhvqaAN0mcP9+59Vr169eu97d04tm/rGiQhM56KDkFawbHBzCBzEuQdrZ2YU0gTg85v79zhu/dOCrD6gzCjUBEgShfhLGHQeoCuMURc73UxNg4G9jYAWAh3ZssCcASE1ANor9pBNsIAAEPiAC49cEPHPnlaX1PhGpU6Zz9fj2SRvrAmPly8V9I9NWbW3i23pxKNpxQZR0S4OpnY+Ne3BaebO9TziHom3cg9MrxjlPgG5Xu/Dtd/hSMWOFAR5F2L/g8UXraz/fQNMAJZvKG5tatLkCtEy9vuFzba6Ab+Fw6fsf0KIEhZogOjapt6/v0OFGba4gLDK2s6ubfOQAlg7oJEDrCb5o+1KbK1gSk9jb16diPcE4zhufuLTcprP2gZG47oLEnOzGU8jjE5ua23TGefEyZZrAaI575uH2kFy5SLL2FmU3nkLXCJRdO5A1nwsvLNPQ0rddIM45eiZ0jfwiUXD2+pyjZ1CLfEdvyYYdeD0Bea0B99DGPTiltN7AwgV7GNd0yrdV9fb1SaJXkEezYvsuNFVgbe/209Wf8UEsq9jZ3z+ANMGfixt+vHJ1bGwMr1JETbA1ga6eWXnaFvYtiLhLCjWBnZd45aYjZM9x/IdukMM51gdYDZBbsRMZME/woR966D8QIAmopQk8QxLJhW+ymlPoWQK2HiGpZU0Z249l72yLSN+MbiWgtI0Xp2zI3tmWsf14ekWLS6D8uvu0mUYhyetzdn2ZvbMtueRQ0sY6tObAzkucVdlKJievKZAdxfbG0rKRkZFnf/0r2VzxRpoAXSO4fefu8xcvnjwZGRp6WLLp1Q/c7ZU1Qw8fosz45gWFmoBD0euKNw8NPXzyZIS8ab5230HiooTcRKscUIefPn069PDh4ODQxGqCmTzLFTsPFrRfym/7NvnTBkrHRENLP7ywLL/1wuqW82uOX/BPyeNQtDJNwKHooPTCgraLa45fyG48tbK2SbUmyKo/sWpfc36r/GaHpOp6PVM7DkXP5FlKNuzIb/t2dcv5/NYLkUUVlI4JXk+A1x/gI6hjaJO04YCT36vbEzgUvfezg52dXfipROLwmO6e3prd+0hN4OkrvPvbPURPJF7S0XHrxYvRp0+fPnkysmdvHdaI6MlR6VnyvcYftiZYsTi5qfgQ+VmXWITjla0n8ItKj82vUX01h0zyAdlYB2ADD/mkCEB7hCUCNhj+D2jHoatAAAiQBNTSBGQFtq1jaEPeWIgCKG1jPb4948m1lLaxjqENO8ObevgWDpFLl/MtHN60Io538wpAq9KwBxkhoUvxVQDGJnZRJF5CPjiPHYA92lyBUBSBxy3snyiDZ+XMs/rH838oHRMTBy8NLX11mqB0TAxtXNWJRDE6JraM5jgUTemYmM6dj9TAa1MFxsok2dsYp8drazEClB1ERpiK9QTsSOxhzxNo0WbxhXvI+2Vw8CQwyNGdYZMXEdCeogDGDAEuTgIasAtA4KMlMAGa4KNlBzs+bgI6hjbxhXvQtaRxJ1G/IproyqpsVeeJW3juijFl5RORuiRnG1v+qt8NiAQCQAAIvOcEQBP8PcP8nh+qSdY9Y2v3qKwKHUPrD2K/TGy8ojLLJmSW64PYX+gkEAACHycB0ASgCYAAEAACQAAIAAE5AdAEcB4AASAABIAAEAACcgKgCeA8AAJAAAgAASAABOQEQBPAeQAEgAAQAAJAAAjICYAmgPMACAABIAAEgAAQkBMATQDnARAAAkAACAABICAnAJoAzoP/DYEp07kGFi5v+dgiNW8WsvUIiZZVSrLK+XO8X1uFP8dbklUeLat0Fy3HwVq0maHVPFyc9Ab52KJ3sbPs/NiDn31EGm/TB5yZ/UDGt0kLdYHApCSgliZwFcamV7SkV7RItzTMdls0gSBmuy2SbmlAyd/yCXGS6BVrP9n4Rs8KPN564vvLP45vd0TiJbtq9m4sLVPzUYbja+W9qmU+b+Gqz465hMZNSK+8Q6UxeTtnci3IbP7CMPyEYw5Fu3kFxCVI0Yf0//legwWB4l01e7fvrEHPncRvscLZ/IVhkUuXo/PBMyRx1dYm38hU/NpuDkVP1dS3tXQTeYeZCxzJ1yDp8e09xclJG+vIZxbRpg7xa3fbe4fh/JPMIAdghTa5vwoDkFNZGOlXNjaTgzcZr8yvOgZ3UnUY3qpOKzgYDCAwWQmopQk0dQUGlq427sHSLY3qPAlOfViUtrGBhYuZw/zkkkPoHQrq12VEtp84df9+p+/CYIZfRZF8nYGKMMYmba7gi7Yvnz17dufub/39Aw+Hh9cVb2bE/GtFt4gEyYYdOia2/0KLyt5zOI6m53guTiyu45n/43nM6AVXt27ftbZ3Qzlr9x0cHR199Ojx8PAj8tUSG0vLHj9+0tnZ1dnZ9fjxk42lZZ6+wnu/3z/2RTuqiF60eOHiJVRkv+9AV8+sLHXzp7lV6xKLDhTsYb8Mif1sY4V9Hse+v59V8IiIDXLkJp2kn7EvysIYfhUZGAlRkV2dEaYigLEJFRlOnE2ZHweAAQQmPQG1NAGi8O5eFKv+u5In9niMTxOkZsgGB4d2VH3KoWhtruDCt9/d+/0+etHixHZPnWzsdyWrU2t8MROlCaZM50pytgXF5TO6kZ6Vh4b/1Az5CzYZb7ZclS7HXrN7H3rVZMPRZhRzvPVEd0+vSLzk9NnzWE+gF11WVdeiGLYmiFiwdGfWNl09Mw5F21u718h2WgicyP6wNYGybpO1PnQbD4psg9w1vJV0skd6HIYM/MMdG2R1FTE4DxlP2ioC8CacH1XEfjXzkGFgA4FJTOCtNAF/jnfSxrrc6pOZO1oDY1eja8NTpnN9IlIzth/LrT6ZXHLI3GkhwmftJkoprc+tPpm9s020opB8brw6miAzO//GLx0i8ZK4BOnVa9dF4iXStNybt+5Iold8f/nH4eFHw8OPOjpu4XmCquraKz9d+/bi96Ojo8+fPz/eegJNI8cmSG/fuTs2NjY4OHT7zt0bv3Sg7q1Kl3V2dY+NjT19+hQFby2v/PHKVWt7t6INm76//KO1vVvJ5oprP9+o3XdwePgRfqGiJHpF9ad7PX2F2lzBocONT56MjI2Ndff05qwuRJljE6Q3b90ZGxt7/vz5yVNnJ+pag0toXHbjqTXH5a8olLWcl7WcC1+7lUPRGlr6gdI1ece/Wfvl9zmNp90iEjgUzbVwSqw6JM4rzTl6Zu2X32ccbLP2FnEomnE5IH7bZ+Frt5rPW5i6/3jGwbaCE5dSdjfKWs7nHf9mXng80gTJNQ35bd8WtF9aWlI9k2eJWhRlFaEWMw+3Owa9euGh+byFKbsbRVlFOUfPFJ68HF+xDwExsnJLKT1s6RyAivjvkcbmW7fv3r5zF7/pmHwvIoeib/zScfrs+fJtVQ8eDCYkpaGKYZGxVdW1nr7C4pKy/v4B5K+qru3vH5BEr0AxbE0wS9eUps3RVguB06eyKicbT9wTZe9FdBXGJm7YP4tnRUZOPlvheEnuprIAhh8XsYGTKPMw/KjIcOIkyFC2FSsPMgkOxoaa2RhhUAQCk5XA+DUBbeqQUno4JHm9hhbPzGG+dEujd+hKDkW7CmNTy47auAdraPECYmQrNx3hmTvTpg4rS+vnR6VPmc41d/RbtbWJXD2gjiYQh8f8du/3vIJ1VdW1jx8/KS4pK99WdfPWHfRyvLgEaWNTC/m+3dp9B0dGRqqqa/kWDlXVtQ+Hh/MK1lnbu3V03Pq142ZQSFR0bNIff3QiTRAuievp7Tvz1Xm+hUNmdv6DB4P76+rTs/Lu3++URK9oOdY29PBhQlLakcbmH69ctXPyvHrt+tDDh/vr6smXKFZV1w4NPSzasIlv4dDWfgr9eEVv+L1w8ZKnrzBpZUZ3T+/x1hPKTibEgXxzdGJxneoRiD1P4BOXLms55xUj1dDSl4/HjadtfEPk70o+2Jpc02BoO0/fcq507+fLdxxgv844uaYBvSs5q/7E3JAYcV5pVsNJM9cFCTsOIL+s+dzSkl0zeZZOi5bkHD0TnL1efmk/MSe36cy88HhKxySyqCLzcLvRHHeUXNZyLvNwO9ITZq4L0I67CmOTSw7pmcwhOaBDc6Sx+dgX7ddv/IoEHKkJ8DwB6SQziMRLOru6a3bLlceFi5eu/HQNLy5hawJUkabNzUwd1ieuWxtfQGkZkNnY8wTyPXIOkG5uENj7kpGTxiYHUYbN2Ec1B1QyyWszkCM3DlboxFuRoawzjK2MVMpqKfMzGoUiEJisBMavCRjf7EFx+fFrd0+baRQt2xmetgnx0qLNXIWxeGGXhhaPZ+5saDVveWEtuYBLHU2ArhBXVdde+Pa77p7eI43NRxqb8QVjxjwzoygOj+nt69tduz8xJePBg0H8Ex9fO6iqru3u6RWHx6But7afvHX7bkJy+u07dwvXlV77+UZfX3/5tqoLFy8daZRPWfMtHA4eahgcHHrxYvTyD1cWBIpR906fPY8ySKJXdPf0lmwqL9qw6cGDwfSsPOTPK1hXumUbsifkL1sTLN9xYFnZHpRcz9Qu9cCxkNxiuSY41Ba46tV0fUhucVrdF1wLJ8blAKwJ0g+1WXoIcXJJcSXSBNmNp9yjklDypSW7kmsaNLT0k6rrJcWVyClw8cs83O6xJBkLDmSTO6twhE7NkPX09qVn5eUVrOvp7UM/9/F6gkePHr94MXru/AU7J0+sCUJCl1787vLVa9cvfncZvfn6wsVLP1656i8Mu3+/E4kD1K7CFjkULYuR7S/Yc6CwVugZSi4zVDZP8O4un5F83tSepW/p5ifx8I9Gn9n/nZmb7bQQO938JLP05ZM6Kj54OMQGCmYU2dcIcE5GJC6qMBh1SRmBbBXNKesemRM1ze4AjmEYOJLhhyIQ+EgIjF8TML5nUdHAwiVx/X5yvEccp0znBsauzth+LHH9/mhZZVp5MxmjjibgUPTJU2fPfvX1tZ9vNH1+/Keffv724vf76+rxccJDBfKQRX9hWGdnV+2+g2h6OS5BimKwJiCDST1x9dr1ps+P3/ilo/3Eqa/OfXP9xq9YT6AMqRnyKw7Xfr4Rn7iqs7Pr5T//1e47uLt2/8PhYdwi7q1CY9pMI+eAaJ8wKf44B0RPm2mkMBg58bCNY9C4zigyNAGu9TaaQFJcmXrgmJWnMP1QW+HJy+QHiQ9GctwlxpmD/IePNA0ODjUcbW5sakHrBtCB6O7pzczO31N7YHBwCK0zqN13sKu7RyiK8PQV7q7d33KsrbevDxEu31bV2dWNLhzgiwscilbYIu6Pm73fblmVrYUr9nxYmkBTmy+w9jSf440+PFNHtCM8U0fsFFh7amrzyR1k23j4JAdmhUOysoGT4cdFbOBspAf1BHkYfoVORs8ZVciteEewEwdjA29ChjI/IwyKQGCyEhi/JnAXLU8prcczwH5R6QlF+zR1BfJJ12T5lPJfV5p5XFNHSttYPum6pcHc0Q/5GROzamqCqurae7/f/+XXjqzcgtt35Beeiza8mpAgB3LUBDnMY02gbJ5gd+3+3r4+PE9wpLH5t3u/u3kFHPui/faduz9eubq+eAtqcVl8ytbyyjNfnceLCsu3VQ0ODq1eU3Tr9t3W9pOME6W4pGxg4EFiSgby+wvD0C9aRhgqauoKghOLomWV+BOcWKSpK1AYjJx4dMcxibsO43kCLa6ZtPbzsIKt70IToHkC1ETEJ+W4A9hQXxOgWZb79zuvXrt+9dr17p5eNPOPDyK6svD1Nxc5FJ1XsG5wcKigsBg1FJcg7ezsQppAHB5z/778ehC++oBi2JrA1tLNzf7V2aijJ9iRWR7kGYp7/mFpArLbb2MzRlA8OmIDJ2d70CaGHxex8S40Ac6Ju0d2hmwaByh0KsuDa4EBBD4GAuPXBDxz55Wl9T4RqVOmc/X49kkb6wJj5cvFfSPTVm1t4tt6cSjacUGUdEuDqZ2PjXtwWnmzvU84h6Jt3IPTK8YzT4DWpV/49jtre7dffu249/t9PIqrqQnQ0PL95R/tnDw9fYW3br9aYxgdm9Tb13focKM2VxAWGdvZ1Y2u+pdvq3r+/Pmfa9/E4TFIjljbu+Wv3TA8/AgF8y0czp2/gO47QL90M7Pl8/NhkbGnzpwTiZegRfKnzpzT5go8fYU3fulAA9tEnVs+cWm5TWftAyNxwgWJOdmNp5DHJzY1t+mM8+JlyjSB0Rz3zMPtIbny8dXaW5TdeApdI1B27UDWfC68sExDS992gTjn6JnQNXJNFpy9PufoGdQi39FbsmEHXk9AXmvAPbRxD04prTewcMGehKS0/v6B4pIy5CnfVtXb1yeJXoE1wZ/+iu270FSBtb3bT1d/vvbzDSTLyip29vcP4JmYH69cHRsbw6sUUUK2JghbIKnK3mHAmy1/CoLa8wR2XuKVm46QPce7MAkMPFLiSXu0U9iP9xGrB7aBY9AQiwNIv8LRF7WC47GhMPi12XCAws7jrQyDHcwIgCIQmPQE1NIEniGJ5MI3Wc0p9CwBW4+Q1LKmjO3Hsne2RaRvRrcSUNrGi1M2ZO9sy9h+PL2ixSVQfpF+2kyjkOT1Obu+zN7ZllxyKGljHVpzYOclzqpsJZOT1xQY9IWiiM6u7t21+zkUfeyL9l87bqJFZDd+6SDn7IeHH8UlSMnhBM8TcChampb74MHgs2fPnjwZ6entw/cdrCvePDT08MmTEfI++MSUjP7+ATQb8eOVq2e/+hp1aXtlzeDg0LNnz56/eIFvMbBz8jx15tzz588fP37y7Nmz9hOn+BYO6HftwMCDkRF55ms/31gQKGbs19sUZ/IsV+w8WNB+Kb/t2+RPGygdEw0t/fDCsvzWC6tbzq85fsE/Rb6UQZkm4FB0UHphQdvFNccvZDeeWlnbpFoTZNWfWLWvOb9VfrNDUnW9nqkdh6Jn8iwlG3bkt327uuV8fuuFyKIKSscEryfA6w/wbuoY2iRtOODk9+r2BA5F7/3sILk+VBwe093TW7N7H3kQ0WpNtGJDJF7S0XHrxYvRp0+fPnkysmdvHV5OWFVd++fDDPACDtQoWxNQWgZZS3KOrNuP1hOE+knUWU/gF5Uem1+j+moO3s0PzsCjMuo5HiCxgfeI7WFUYRTZ8ep4zXyHagAAIABJREFUXtscDlChG8iGkM4ga5E2GUn6wQYCHxUBtTSBaiI6hjbkjYUomNI21uPbM55cS2kb6xjaqM7272wViiLQgM1oTiReov69gv7CMPK+A5SKb+EQuXQ5O3lI6FJ2MKP1cRd5Vs48q388/4fSMTFx8NLQ0lcnJ6VjYmjzj6vpqmvpmNgymuNQNKVjYjp3PlIDqqtzKDowVibJ3sY4PV5bixGAbjlhOBUW2ZoAhVFaBjTXgqEG0CbG5S0ORWvRZvGFe8j7ZRS29eE68U9ztjGBO4WTM3IqHJKVBTPqqiiitCiPijDYBASAACIwAZoAUAKBNyWgY2gTX7gHXUt607rjiEcTXVmVreo8hRPPXTGmrHwiUpfkbGPL33H0B6oAASAABN5PAqAJVN2d9X4es8nRK2Nr96isCh1D6w9id0xsvKIyy96TWa4Pghh0EggAgQ+RAGgC0ARAAAgAASAABICAnABoAjgPgAAQAAJAAAgAATkB0ARwHgABIAAEgAAQAAJyAqAJ4DwAAkAACAABIAAE5ARAE8B5AASAABAAAkAACMgJgCaA8wAIAAEgAASAABCQEwBNAOcBEAACQAAIAAEgICcAmgDOAyAABIAAEAACQEBOADQBnAdAAAgAASAABICAnABoAjgPgAAQAAJAAAgAATkB0ARwHgABIAAEgAAQAAJyAqAJ4DwAAkAACAABIAAE5ARAE8B5AASAABAAAkAACMgJgCaA8wAIAAEgAASAABCQEwBNAOcBEAACQAAIAAEgICcAmgDOAyAABIAAEAACQEBOADQBnAdAAAgAASAABICAnABoAjgPgAAQAAJAAAgAATkB0ARwHgABIAAEgAAQAAJyAqAJ4DwAAkAACAABIAAE5ARAE8B5AASAABAAAkAACMgJgCaA8wAIAAEgAASAABCQEwBNAOcBEAACQAAIAAEgICcAmgDOAyAABIAAEAACQEBOADQBnAdAAAgAASAABICAnABoAjgPgAAQAAJAAAgAATkB0ARwHgABIAAEgAAQAAJyAv8DTRCZUMihmPTf0slO+KaeyIRC9oeRhB3A8DDiUVHhrr1lpMLqCp0T2LrCVJiAwtbfQ6fCvVDYz9dGKgz44IAo3HdwAgEg8HES+Fc1AfoOJf9i6IyvVzIG2+jbFleZMl1fS4evoclDnqlaPC1dAS7iMDUNRgc4FM32MFK9NgDFqxmmTouMDqiTf2JbR9nwsKcsORnAthl7MWW6/viOGjszw8NoSB1cZBVle8eOIdslt2KbDGDbOIxD0dQsYxOreUbmLlO1Xp3YeKs6/cHBYAABIAAExkHgX9UEaNhD34mor/hrDht4aMRfnYxIvJMz9ARBEWn6fDv0TbpgcbK9mwhvfVMDN0caKpLgvcAGGUwmUWjjYIVbSSeOVGiQ3HAAWV2hPY5IXAUfINLDsBX2CsWQm2ZxzV19I8Ni15jaeDAyjK9IJiczKIRAOnEw6VRo40jSUNYujlERQG7imTqEROf4Bi33C05cFJUxi2uBMyCDDGZsgiIQAAJA4O0J/NuagDGi4O84bJABCp14n7Em0NDkefhHL1icTM0wwlvf1CDbQnXZHuxHm8gA0iabVuYnY3BatvO1HtX5VW8lk6sfiQ4Qe7xUMxtuSJ9vJ5JkOnuHiSSZ71oT4L7h1rFHmaF+5EQBmTrDYEFIopXDfNSluV5hbn4SRvfeqFeMulAEAkAACLyWwL+qCRgDiYrhX2EkdqK9+q8msLd3Ey2S/ONHlZG58yJJRmRC4SJJhpG5M4eiTWe7zxetoGYZo7q6BtYBYVKusXyOAX1wctLAW8kY7GR8QTOKjL1TkRYnV5YZ+xkGu0UyAG8lm8ZOMpLsKsPGYTiJwgBGWlzEtUgPyjllur58gmeGkb84ZUI0AW4C95lh4ACyV9ipLFjh/iInyqMwgJEWF8mmUYt403/P51fnpK2L0F+cwpa5OJ7RYSgCASAABN6ewL+qCVB3yS81bGOD/IZlO0kP+g519FgsjpHxTB0xCz0jW5Ekk2/lNmW6vsDac5EkQ5trqaUrCIpI51u5oTAnL7G3ME7jr2EJV3xTg+yMwrrsALYHVWT4GUWFyUlQCgPYSdieN20dZSD/qs6AW2QbqOJEaQIVwzOGg/ugwqN6d3BFbJAoyPykTR4p7GcbWBNMnWHgOj9SHCMDTYA5gwEEgMC/Q0AtTcA1tvPwj8YfvpU7h6KnavHs3UTY6eITjn+Fq+46/jZU+F2JnfgXFcqGapF1Z+gJgpdkR8QXhMfn4xlXDkXbuwd7BSxDtaZq8fyCE81svTgUbesi9FucNHWGATXLOCB0JdYHuCFlhurdUbYVj1I4gOw8dqL9ZWxiFMlg0lYR9o5aRy3idhlF3DdGAD6mpIGClWkCdv9xcrbB6AZunYxkJ1QY9qaHQ2HT7MzYo8JAmsB8jndA2Conj8Xmtt6gCcgjCDYQAAL/AgG1NMEMPTPzOd74o2tgzaFojen6RuYu2Mm3cp86w0BFj9GXMvsvqoK/K8kvZeRk/0VVkCawdxOZz/EOlmTr8KyQ3zNwGaMVe/dgDkVrcy0XSTIMTB35Vm4BoSuVKRiyJ+zdYWQmi2Qwo89kGLJxMBmJ9x3H4zCFhrKukjlxKtLA2chIdVpnxKMqOBs2cMfYjeJNKPjtNQFOiA12r9Am/JfsFbIZPcepGJE4DBs4J8ODi8hQmJCxCZ3Pi6NzjS1d5Ve7bDxAEzAwQhEIAIF3TUAtTTCxncDfj+R3t5pOMgzPtWpo8rwClvkExaNb2py9w9xZi7PQLszzi/Lwj/YWxtnM9WfsFM6sehjAYcqqk35GMKM4vkiyFgmQ4WdvmpDWURKcilHEfcAB2IMNxiZlmoDdf5wBGwqHc3IrtpHBaJpRJIMZmxhFdiQOQAYu4ki2h71JS1cgjEwzFDihTaY2HgsXp0ybaYgj1WFCBoMNBIAAEHhTAv+2JlD25Uj6sY0N/G1IerAm4FD0LH1LkSQLXUEwMHUMXpqDvlunzjCwc100U88ccaGNbIOX5gRFpGvpChikcGZsMAJQUdlWhX6Gk1Ek8zM2MYpkJMNWEcnYxCiSeRibGEVGJN6KDXx0cCS5CTuRwdikTBMwwhhJFBZfW4URwCiSORmbGEVGJN6KjfEB0Ziu7y2Mc/JYjB7Y4BWwzMlLTLbFTsvYCkUgAASAwFsSeE81AfvHOvrCJb92SU3AoWgrh/kiSdYsfUsORZvb+YQuWy2OkYXFrnHxicQXNTSm6/ssWq7sq5bdBBsuo2NkUWEw6SQ7T/rZ3/UqIhkV2XVxACMJo4jD2BmURSK/sq2MhCQZhk1GKtMEZIya9ms7xghgFMlWGJsYRRyJ/Mq24jBEmAGBLOLImXrmAWFS8bLVobGrfYRxjMtb6jSEU4EBBIAAEBgHgX9VEyj8UsNfjip6jytiQ0Uw3qSp/fdTDpFTm2spjEyjjWxxDGNExJ0hDWXBr/WTvUUJySqkjSLJRrFNhr2RPbGts7PhHrJ3jQxm9FnFJkbkmxZfm5kMYPeZbA5FMnaQUYWdjRHPTkh6sE3mQU5qhhH7IYY4HgwgAASAwLsj8K9qgne3G+pknqEr8BLGzvOLUicYYoAAEAACQAAIfGwEPhZNoKlr6i9OcfEJnzbjH4u2PrbjDfsLBIAAEAACQEAZgY9FEyjbf/ADASAABIAAEAACiABoAuZbm+HMAAJAAAgAASDwcRIATQCaAAgAASAABIAAEJATAE0A5wEQAAJAAAgAASAgJwCaAM4DIAAEgAAQAAJAQE4ANAGcB0AACAABIAAEgICcAGgCOA/eOYFZ+pY6hvL3ZsFHfQJcU0eApj4uiAQCQGBCCKilCVyFsekVLekVLdItDbPdFk1IwyjJbLdF0i0NKLmrMHYCM6NU2lxBcUlZUMjkeU5RdGzSb/d+X/vJRsxKEr1i7ScbtbnMNzjggIkyuBZOKbsbZS3nZC3n4rd9htMuSMxGzuzGUy6hcdiPDB1Dm+WFtS6BMdjv7Ocm/SSWb21dULmKby3XClOmc40srQS2NvhjZGmloalvZGmla/T3fvFMLbAfRwpsbXimFij5lOlca2cHUYzQ2tlhynQuh6J1jQRkJLJn0MYonss3D5QEeAR5aer8/dSKgMiFyzIjnP3cZOUpOgZ83G01DfYBUrMiI8zJLypu7ac6hjYMPxSBABAAAu+OgFqaQFNXYGDpauMeLN3SaMd6L8vbdI7SNjawcDFzmJ9ccsgzJPFtUimsGx2bNDg4tLt2v8KtDOfu2v3NLa0M5/tWjEuQ9vcPFJeU4Y61nzh1/36n70L5+6Df6UdDS9907nxLD+GyrXuSaxpwWzomtpYewnnh8TmNp92jkrCfQ9HTZhotydkWGCsjnR6BntmbkwS2NsV7swW28jFP10hQvDe7snnt9qMF6FNQuUrHgL8sM2LTgRxDC/k7LPjW1lsPyaJWinUM+AWVq7YfLahuLao6Vrj9aEFmSQKHorl884LKVTuaC9bulP8t3JXK5Zsvy4xACXHw9qMFAZELp0znxmZFVh0rLKpJ33JQtq0x383fA3UyeFlQ0ppoj0DPT6rTSEVC7oIKm32AVASr3iRaURiVsRWJG9WRsBUIAAEgMCEE1NIEqCUDS1fp5oaJ1QQo8yyeVWJx3bvQBG/E6PTZ8zd+6XijKv9+8AQOOePuvKS4ktQEKI+lhzC78RRDE1i5BiVtrDOwcCHbwppgzTYpGnSRJgheFkSGoWG+eG/2sswIDkUnrYku3ptNDtJrtkmT1kTjKuHJizfXyYwsrTgUbWhhuakuNy5bgrcygm1cHcuO5C0MX4BmKVLXxa/fkzlL34RD0VgTZG/+h77BqVQbE3iADCxckjbWWbkysajuAGwFAkAACIybwFtpAv4c76SNdbnVJzN3tAbGrkY/aKZM5/pEpGZsP5ZbfTK55JC500LUOWs3UUppfW71yeydbaIVhZT2q/lb+ZuO1dYE2ytrBgeHXr58OTg4tL2yhkPRaKr2swOHORStzRWc+PL0L792hIQuXfvJxoGBB8PDj4aHH1VV12JAIvGSn67+PDo6OjY2dvPWndgEKYeiq6prh4cfPXv27MWLUbKKNlfwefMXT56MkC3iVG9pHG89cerMucs/XBkdHR0ZGclZXcih6AWBYuQZHR29/MOVBYHyt+VqcwWHDjc+ffp0dHT0146bg4NDaJ7g+8s/ot52dNwi5wl21ewdevjw5cuXT56MHDrcqPqygqV7wMraprUnLuW3fStZv2MmT/6jfCbPMmZTdX7bt2u//D7zcLtj0N+DK4ei1dcEIUlFUVkVDFCaOoZcvvlULX0DMws8w1+8N5utCTgUHRDlv/Xwav+IhWVH8uaL/chUjGE+Qbak5LNsPZNX1xqc/dy8FnnjeEaw6wKPbUfzPYReKMDY0ipwSQDSBDNoY10jAeokrq6+QWqCyqrdnZ1dJZvlBNBBfPJkZGxsrLunFx3uPXvr7tz9TSRegvLnFazr6u5ZV7wZNxeVVRGSVISLYAABIAAE3imB8WsC2tQhpfRwSPJ6DS2emcN86ZZG79CVHIp2Fcamlh21cQ/W0OIFxMhWbjrCM3emTR1WltbPj0qfMp1r7ui3amsTuXpATU2Qv3bD0NDDT/d8xrdw2Lf/0ODgUGqGfFK6ZHPF4OBQ/toNpVu2DT18iL6C7Zw8l8WnZGbnd/f01u47iCF+/c3FG790ePoKPX2FN37puPLTNTxksucJNpft6O8fyMot0OYK6hs+Hxh4sCw+BadiGCFJRbKaU/iTVdmqek7l9Nnzo6Oj7SdOJaZkJK3MsHPy1OYKLv9w5eatO0EhUUEhUb/d+/3rby5yKHpz2Y7h4UfVn+61tHGpb/h8ZGQEaYKQ0KVxCdLGppbOzi5/YRjqT2qGbGDgQVnFTg5Fl1XsHHr4sKCwmNFVXNQztUvd17KsbI+eqZ21T3Dm4fbwtVs5FB26ZlPGwTa+ozelYxJdumvVZ8d0TP5+maSamkBTV5BQtM8vKh03p8xA8wQSaSi63m9qY4Mv8FOzeKvLU6pbi3K2JlGzeGQGxjA/e6592ZG8opp0Zz+3qVr6ZCSHohnBmjqGsvKUiiN54ngRXl7AqDK+ItYEVdW1D4eH9+ytQ3mqqmuHhh4WbdjEt3Boaz/V3dMrEi9ZFp8yMPCgZvc+FPP1Nxc7Om5Z27vhpgOWrY5fu3vaTCPsAQMIAAEg8O4IjF8TuApjk0sO6ZnMQZ0ListHX17Rsp3haZuQU4s2cxXG6vHtUVFDi8czdza0mre8sJb89aOmJjh99vz1G7+iIdzNK+C3e7/vr6tHmU+eOjsw8GBo6OGBg0eQB/31F4Z1dnYxNMHNW3fCJfKlcG5eAZFLl6vWBA8eDG7YuFWbK+BbOEiiV9g5eZL538Y+ffb8rx03cescik5ISiPXClRV1/7xR6dQFHH2q69xJB5ycNO1+w6yNcGevXV8CwdtriBy6XI3rwAczDDQIgA7/3DknxsS47lULuzQh2flbOkh9E/Jy2k8bekhxH41NYGah5W9nmDL4dXOfn+Pi4uiA6u/+MQ/4tWEE+4GY5iXX2swMUsrXr6zpXBHc0FYYgh5JZ4dPFVLP2xFcNmRvOrWoqxNibqGpjjz2xjoALW2n3z06DE+P7W5gus3fj199jzKLIle0d3TW7KpnEPRre0n7/1+39NXKBIv6ezqxvoARXqGJCYW183iyS+IwAcIAAEg8K4JjF8TML6tUNHAwiVx/X5yvEc7MGU6NzB2dcb2Y4nr90fLKtPKm8kYNQePG790vPznP/wluyBQ/McfnXd/u+fiLr9CjD9sTbAgUHzxu8tPnz598mTk4neXyVsS2PME2lzBgYNHBgeHnr94cfe3e2sK1uPMbMPSOcAnTIo/nuJkLIbYwRyKZjdXXFL2/PlzcheHhx/FJUhv/NKB9/S1mgBND3T39L54MdrV3bNtRzUpOxg98U/JkzWfI8d7FGDtLUo/1CZrPpdc07Bq3+e5TWfJmHekCRReO5CvDDiQs6E2k7GYgP3TH+/aVC39oOjAHc0F4ngRdrI1Ad5k4+pY8ln26vIUxjwEDngjIy5BOjz86D//+c/IyAiasuJQNDoPySP78uVLJFVTM2SDg0Oby3bU7N7X2dWNryOgRhn/y96oJxAMBIAAEHhTAuPXBO6i5Sml9XiewC8qPaFon6auICZvV0jyq7FTQ4vHNXWktI0tnQOkWxrMHV9dD5bHEFdJ1dQEFy5eIqf6yV1tONo8ODj02nkC8nfzsviUXztuklO17EHaXxgWEroUzSgc+6J96OFDdLWCbBrb7qLl0bJK/JFklfPn/H09G4dhg91celbewMAD9lT/G80T4MmPPy9G7NlbNzz8aHPZDtwow3CPSspuPGXt/Wrs5Fk5G9vJl98v33EgtqxW468ZeBTzv9IECauXotsT8GJDvAvkMD9V6//ZOxO3po6ugf8bgfYiKkICCA2RpaiAFHnRoFQFQaQsArJqBDFsAiKyiIoICqiIUEVrcUGkbogVpdpXrbUuuEXEFYGwBqEEil/T8ZtO5yYhUkD0PT738Tlz5syZmd8d7pzMnXuvYViC/9Kwvx+UjdmyYsNOxWYRdJDGHIbr4uUSkRqCNhAokt98nXcsBT0EgYsMTwgXiTs7u44cO1Fz6XJHR6c4dh2H4VrbOtU/eVpVfYHtE90wult3XyKpP1N1njKAmIACAkkgAARGlcDwYwIjc4c1247NXxajpcMz4NtGbi1Dj5y5+MdG76jkz1Ds3pq1MEC8/biZzfzpc5bG5p+0na9Yo54+Z2lcwXDWCdBt9e15hRyGK3Rx//HCpYioeLSfoLNTsY1AsZ+gsys1fQtGRq0ToDsOl69cRevqJ09V/XnPHi+tl1ecbJFK0W0F5OH02erXTc2+/ooXJ6SkbWpra09J24Sd/0uBHRNY2zpJJPV19x4IXRQL9dk5+RWVp/R4gty83Z1dXRs3b/vz6b7Con1v3vSQzyJS9w6Kiks7OjoT1qWhDZjNLVK8xVJLh7cgIG6JKB1v8DSZOWft0erArEJtXUMDM5vVJeWhud9yGG7E3qORxccmGVkamNmE5u1PPvWPtQQN1wkUDUjes0SUPiQoVc8dzHSyLzi+wS3AFW82tHaww96oaT507bK88pQ/i3AYrrG5ZfZ3iWqeO/jK5T+7Try7v/CZrmFURih+7gD7pwQTKycHt+Ahb+3jhRwbe+HduvuvXjWin/5Hyys7OjrXJqZyGK6vf1jNpct4SSAtI0sm61a6W8UrMjM4WbE1BA4gAASAwBgQ0CgmEHpF4K1zSEDPDc6Y6xWTVxm/63TinnPL4nLRTMPomX4TtSVxz7n4XWfiCk6hl9V8PsnEa/XmpL0/Ju45tzr7SOTWMrTnwMbZO6GwinROrh9Q/cfb73t6euVy+S83fhO6uIeJxG1t7egHlh5PUHPp8suXiqswex0eLb8nrc9okUr7+vp6e3s7OjrJPd6e3sufv3jZ3z/Q3z/w0+X/oqcAbt2+298/8OZNT19f35mq82rW4anWDplkxwQchhsmEj9peCrv7+/p6VUEOn/dctbjCS7U1KLHE6TS1s6uLhQTUDdT0I0GG3thzaXLcrn8zZseuVx+7fqveA8E2vQnzj3ONft7Zv3KKySxombDmaup565F7D1qaPkVh+HaeQQmnbiUVn0jterq6m+Pr6u8ZOPqZ2TlEHfkXMaFm/iIO3LOyMphcXQq1iBhcbRi5lP8/vaPDU//dsh5FMUE+85vxkfWgURjc6uUnWvSi2LQfsMJU6amF8Uk5EQYmE7LOpCILfed34zWAyZMmSpaH1R0OqPwZDp7iwAVQChOru+CvPKUotMZxWc3bjuUZCt0UH/KNPzJjmMCDsP19F7+6lXj3br7NvZC8rz09fVVn6/hW7w7C2gVAe0nJdvw+SST8PRvXfxjSSXIQAAIAIHRI6BRTKC++ilTp+PfndiS0TM14NuSm7w4DJfRM/3372XT4wl8/cPwPIdrfC/B1d0Xb9SnCnr5BOGVA5RlYy/09Q8bwWiAqpGddHJ2Q/csyCwbeyH5wCGZxZb5Fnb+QSvxrIMNGD1THT0l7+YztZlLPlmA7E1mzkGPJuLi7ysYmTtEZI3pE/ZaOjzjaRbs5w5UtVzfRKDhcwduoevR3TFVrjTRKz0vMfHJra1t7HtGVo4eEVllRuZDBCua1As2QAAIAAFNCIxATKBJNWDzP0tgno84aN1udtT4cQGZyLVYubFU+M3qkW22Hk+wMiLmkeTxzd9uU0Eno2catG73PJ+/t0SMbNXgDQgAASDAJgAxAdypHV0CWjo89/CUEZ9N2UN5tDXaukbUute/rzE4LLKx8fX1X26il1ORDoXfrHYPTxnxGskqQAYCQAAIUAQgJhjdGZHCDUkgAASAABAAAuOWAMQEEBMAASAABIAAEAACCgIQE8A4AAJAAAgAASAABBQEICaAcQAEgAAQAAJAAAgoCEBMAOMACAABIAAEgAAQUBCAmADGARAAAkAACAABIKAgADEBjAMgAASAABAAAkBAQQBiAhgHQAAIAAEgAASAgIIAxAQwDoAAEAACQAAIAAEFAYgJYBwAASAABIAAEAACCgIQE8A4AAJAAAgAASAABBQEICaAcQAEgAAQAAJAAAgoCEBMAOMACAABIAAEgAAQUBCAmADGARAAAkAACAABIKAgADEBjAMgAASAABAAAkBAQQBiAhgHQAAIAAEgAASAgIIAxAQwDoAAEAACQAAIAAEFAYgJYBwAASAABIAAEAACCgIQE8A4AAJAAAgAASAABBQEICaAcQAEgAAQAAJAAAgoCEBMAOMACAABIAAEgAAQUBCAmADGARAAAkAACAABIKAgADEBjAMgAASAABAAAkBAQQBiAhgHQAAIAAEgAASAgIIAxAQwDoAAEAACQAAIAAEFAYgJYBwAASAABIAAEAACCgIfICbwF2VwmHf0SRkrP6CgeXs0txyyO+/lijKmklRdOBcLlAFKsnPZGg7DJZX+ogx8sH3iLLZAGZM+ySy2HmuwQNprIrMLYg27nThLE89gAwSAABD4NAiMXUyg9LJLKhFQLR1D3Sl87QlGKPmZrpGuvgAnNYdOelYqK3Wl+UyguaXSiigl9sZuqipLpMcFKTMqV70Ze75X6o00ww6xQBbBSiRQSdKS9EnqcRGsxBpSwLhIM7YS5eKC2FhV7Wr0ZFmQgQAQAAKfGIGxiwkwOHRpJv/HWRyGO9FA4LEs1pBvw2G4zGTThd+stnXyJA2GLSudEtDVH88iSgVco9JcUoktNRfYxcl2kjLySWpImV0jmatKZpfSUIMdYoEsSHaKkkkzNTLllnKCcrENFsi5nFSiitgazRugxhKygAAQAAKfDIEPEBMgdqou0Dgm0J5gNNc1eOE3q5mJJiOCW1WN2PmQBsOwxEWGFHDtWCBnOCp2YWex/Sv1QypREfZ0izVsn1iD/WABZ1HCkAbIHldKCqQr7EeNQGJBZqQ3JLN9KrXBtZD2IAMBIAAEPm0CYxcTsK+8lAaB/v+YwNbWyXNJYPxkngU+ASbmDksC4/1FGUsC403MHTgM1+zLOV97rmImmyIbfWNrN18xz1SxxkAdQ17isYHSVqnxhgtSNu+VJJ2okvGEhwyodpKlcACB24CLYA0lkMVJGZvh6nAzqCwqie3ZAtsSa7DAbgPpB5mxNWTblHrA/rEHsogaJVUQkkAACACBT5LA2MUEJD729Rrnophg1txvvEOSjcxmYb2ByQzPwLV8KyctHUOBtXBJYLwez1JXX+CxLI5v5YTM7J2957mHa+sY4lJIQJMH++pPmrGbxNZgb+oLkrkayqgu8n81dSltGKlU6oc0YLeKzCVlylJNFmWJk0MWwQZYUHqmcK4aARXEsQJuAxJwQaxHGkqvVImLgAAEgAAQ+IQ318pGAAAgAElEQVQJaBQT8Ext5roG44NvNYfDcD/TNbJ18sTK2fP98O919byoSzBlPNFAsHR54rIVaX4rUq3svsa5tnOWOruFouRnukYLlkZMm+HMYbgzZrsv+Cbys4nGzGRTN581OD7ABalLvNLacdBAlcJJLGhuiecnXFaVQM1hZAtJGc+UuEe4IGWGKiKVpKy0GaQBKVPGKIuslw0E166JGe4ULkUJuAGkN8qGbDCW1QikT3yaKP+4ODYGAQgAASDwyRPQKCaYaDDNfOY8fOgbW3MYrraOoYn5bKzkW835bKLxkLzIKy8p44IoJrB18jSfOW9pYOIUIyuUJVwcStr7izJs5yzlMFw9nuWSwHhjs1l8Kyc3nzVUXIKv7FigJiGcRAZUFSiJ24ZtkIYyxmZYoIpjPSmQPkkZ2SANJas3w85xWTXNoLrATmJvSttAKUljXDtWsjXs4tgGC+ziOItsrRoz6hRjS1V65B/XQtqDDASAABD4tAloFBOMFAJVV1vy+vv/+wlstCcYObuFzvdYgR5EdJjnO2dBoNKW/GdBwFzX4Hnu4dO/csUG1ERIVoEnA2zM1lD2w7NkuyX9kDJZnSoZe0MGasyQZ9KMNCbrxTJpQMrYgPRJyqqM2Xq2hvSjpiLUcTICQK6wQyxgRKSAZdKMrJrSoySlpJoHSSAABIDAJ0lg7GICfJHFAgZKanBMwGG4kw0tPQMT0B0EY7NZS4OSpgrsFbctJhrbOC6ZZGCOPHBNZiwNSvJYFqerL8A+KYGsgspCScqASpJFqCwqqcaSzKJk7AQLyIBK4umNFCgZeybLqpKV1kIaY2/YkswlZbYlLkIJqiyxGRXPUfY4iWvHAkKBowdsiT0r1WB7LKhCShWHJBAAAkDgEyMwdjEBBoevvKSAc8mYgMNwrey+9gxMmGxoyWG45jbzfULXe4ck+4ZtmD3fH9+q0NYxnL9kpb2zN3bCFshpg53LngPU2FNZVFKp8yGV2AkWUBGlSaQk6VFm7LKkASmzLdkoyMaTZZFMapRaYgMssM2UZpFmZKuwMVtQaob9YHs1Gk2ysA0IQAAIAIFPjMCHiQkoiOyLNWVAJifo/f2WQ6TX41m6+8dyTWaQZpQ8ZBWkAZpuKQ84iSypKVl9EVxWlYB9YgO2Q9xCpca4IBawPdKQDcY25CSKlVRBrMcC1TalSbI6Sib9kDJlRjaDlFGbsYaqHTskBeyZVCrtO3aO/VNFIAkEgAAQ+IQJfICYYGRpTtQXOLuH/WdBwMi6BW9AAAgAASAABP7XCHzcMcEEfTNX76jZ8/0+nzj1f+3MQX+BABAAAkAACIwsgY87JhhZFuANCAABIAAEgMD/MgGICei3IP8vjwboOxAAAkAACPwvE4CYAGICIAAEgAAQAAJAQEEAYgIYB0AACAABIAAEgICCAMQEMA6AABAAAkAACAABBQGICWAcAAEgAASAABAAAgoCEBPAOAACQAAIAAEgAAQUBN4jJmD0TG3m+ehyp5F7MrV0ePOXxcTvOp1cUiPeXmFk7kDm/ks5MHhV+satejyVXzH4l/5HvDijazzbZr6H0MfEePownE/iWYSllji6hw2jLBQBAkAACAABIPAvCbxHTGDttDQm78T0v75QjGu1dHCLyauctVDxGkEdPb6WDg9n/Xuh+nzNy5eNLosU30RWf2zKyq25dNnJ2U292ajm6htMy4/dvntt/qaIzO/T9nvNX6a+ugn6gqURmTPmemGzyUZWEVllQq8IrAEBCAABIAAEgMCYEXiPmEBpm4ReEZFby/SMv1SaO2bK0oOHGxtfu7r7jlmN7IrCPVdlR21hdI05DHfeV257EnYZGVqxzbCGHQGwNdgYBCAABIAAEAACo01Ao5jA0T0sruBUXMEp8fbjXzotQW360mmJePvxtbvOJhX9iHIXhyWraW6YSPy4vmFwcFAul1+oqbWxF3IYbuUPZx7XN3h6L+cwXHHsupcvG/cfKOMw3F9v3pLJumWybomknlwn2FtyoLOr6+3btz09vUeOVujxBOkbt7a1tff29g4MDHR3v5HJus9UnUfNYBurad6/z9oUkbnaR4z82E8Xlm4ocbCZr8ptQPyOuIJTSUU/rt11Nq7gVOTWMiNzBxQT+Iizo3dUriu+ELm1zNR6DvLg4BoUvaMyuaQmekelg2sQh+FO4lkEJxcuCkpkG6uqFPRAAAgAASAABNQQ0CgmmKAvMLZ0nD5nqXh7hc0/P0ks9IqIyCqbbKTuBzGH4Qpd3J8+e371+g2hi3t0XLJU2nq0vJLDcG3shXfr7t/87fbsOQvvP3h0t+4+ihW8fILCReKKylPkr/+Y+OS2tva8gj0chptXsKezqystIwv1jb1OoMaYjcPY0jGu4GRySQ0+QlL2chiuV2Qm1iSX1CQUVlHdJ12hmECL4S1x9vku9dvvM0rVxAQchsteFUCa0A3FU6ZaTza0XJGxPyChgMNwv3T0iMk74eQp0tY1Enqvjt5RaWYzHxmHpOyljMkmgQwEgAAQAAJAQHMCGsUEyJ2xpaM49zg1KWoYE2Rl57W2tokiY5Gr02erH0keo82DEVHxra1tr141vnzZiBYMcOupmR5N8/sPlPEt7PR4Av+glXgDAWXJYbhqjLH/kRU2RWTG+sclhyTnx253mDm/eF3h8GICvJ9gns+aiM2HJvEsvCIzQ1L2oL0aE/QFosyD83zWUCHFgoA4ZDyynQJvQAAIAAEg8L9DYIxigtKDh9/+8x+5AHDgu8Py/v49e/dT3NkzfV7Bnqbmlv7+gddNzTt3F+NHEtiWaC1BqTFVC4fh6nKnzfFcOd9XjA/b+X4chmvp4IY1833FQu/VBnxbdnGk2RSReXzz9zHLYidONjU1mfHvYwIcb4Wk7CWXK5JLarwiM6mYABurah7ogQAQAAJAAAioJzBGMUH+ziKptDV0RRS7NX6B4a+bmhtfNw25TuDk7OYftFKPJ7CxF+4/UCaTdefm7UYO2TGBGmN2G/RNZvrF5gYnF+LDNTiJw3DneK7EmuDkwsCEfP7MeeziSJOxMj16WZwWo3jyAsUE9tMVeyZUHdSkzr6bgKd5v9icwKSd1DMdVHFsrKo60AMBIAAEgAAQUE9gjGICT+/lTc0tl366gpb99x8o21tyAO8nuFt3f+Fi7/sPHt387Tb+6c9huNRMX1Rc2tHRmbAujcNwg8Mim1ukRcWlqHv5O4s6O7vWJqbi3qoxxjYjK/guDNy1Np/Ls+AwXJ8FClnf4B/vcqCq+3ySyYr0fX7R2/Bkr2qan/W1f1zBqVkL/NGSxhJRuqn1HFXGVC2QBAJAAAgAASCgIQGNYgKhVwS1do3veWv+8zRpfUaLVNrX19fb29vU3BIdl6zHE1RVX2hraw8Oi0TPHbS1tX9/uJzDcB88lJC3GmSy7nCR2MZeWHPpslwuf/OmRy6XX7v+K9qQiGKLO3fv9fcPyOXyh48kfAs7NcYaonlfM0bXOGF50rHM78rSS/enFNvPcB7Sg8083/hdZxIKqxIKq2zn+aqa5tGLodburorfdTpxzzn/uB263GmqjIesFAyAABAAAkAACCgloFFMoLTk8JSu7r7/8i0CfAs7/6CVfAs7dgPYztUYs4uPiIbRNVa/PEDVoq1rxDObpa1rROnZSS0dngHfltEzZWeBBggAASAABIDAvycw1jHBv28xeAACQAAIAAEgAARGgwDEBCr3AI4GbvAJBIAAEAACQGDcEoCYAGICIAAEgAAQAAJAQEEAYgIYB0AACAABIAAEgICCAMQEMA6AABAAAkAACAABBQGICWAcAAEgAASAABAAAgoCEBPAOAACQAAIAAEgAAQUBCAmgHEABIAAEAACQAAIKAhATDB242CyoeWUqdbj9hEUaNhIEdDlTptq9Z+R8gZ+gAAQAAJjRuBjjQmCwyKfPX+RvnErJhUYvCp941bycwk4a2QFnoV91L6K5FOXk09dXrHzO+x8YUQiUiZW1Mz2Ccd6JEyZOn1lRunsxSFY77DASbwxjG9tnVYYzbf+O1aYyDVd6Ldwod/Cidx3ryycyDUVzJhOHhO5pvomAlKDZFRElWdc9ZDCmarzv968NaTZiBuM2Ukc8ZaTDrlmdivS99nO8yWVIAMBIAAExj+BjzUmCBeJW1vbsrLzMOLq8zUvXza6LFqKNaMkaOsamn31teVc99Ad+1eXHMe1TPlihuVc9//4rUiquDgnQPEFB3x8PslkedLOxWHJWMNhuHMXCxNzIwUzpmcdSBTMmI6yPIIXF55MzzqQmHUgseh0hmewO4fhLg31KK7atOtEGj7c/BeFrl2GksVVmUWnM5Ds5r9IlWey6iHli7VXHjyUDGk24gZjdhJHquVePkFXfr4WHfePM8thuDOF30RklRmZO4xUReAHCAABIDAGBD6dmGAMYFFVBGYVkjEByrWc655YUUPFBFaOHpFby4wtZpMecEywYadY30TAYbg8vnnO90nLY/yQWcAa7x1H15tNn7401CPrQCKyIT0gecNOceSGYFLP9kzmaiJ/qJhAk7aNKxt2bIqap6XDC0za6RH+94c6x1WzoTFAAAgAAaUEPnxMUFRcevtO3YWaWrlcPjAwsGtPCYfhLlzsffO32wN//bv52+2Fi705DFePJzhytOL3338fGBh4JHnc0dGJ1gl+vXlLJuuWybolknpynWBvyYHOrq63b9/29PQeOVqh/raC5Ry3NaWV6edvpJ67Frh59yQjSw7DnWRkGZJTnHruWvqPv649Wj3LI5CEqHlM4BWZGZBQQJblMNwJU6by+Oaf6RoaT7NAn0s2mz694PgG7xWeyFJ/qtni5W7G5pbvGxOwPVNVD5nEMcHCxd536+5f/+Wm0EWxYhEmEj+ubxgcHJTL5Rdqam3shaLI2JcvG7Nz3/VO6OL+8JGk+nzNkFVQBkpPIhob167/OjCg+OLlmarz6CQqHR4chqv5WDpTdf75i5e///57R0dnw9Nnf/zxx+07dda2TmiM9fT0Dg4ONjW3JK3PQB/mlkjqfzh5FukfSR57ei93WbRUIql/86bnjz/+6OnpZQ8/R/ewiC2HJhtZUT2FJBAAAkBg3BL48DFB6cHDg4ODv9z4TRy7ThQZu3Cxtx5PcPO324/rGzy8Ajy8Ap49f/Hzf69zGG5u3m6ZrLv42wOW02cfO/5Db28vigm8fILCReKKylONja/xRxdj4pPb2trzCvZwGG5ewZ7Orq60jCxVp8HAzCbm4KnQvP0GZjbW85euPVrtl76Dw3B9NuTEHz7HnzWPmfJF8La90d+dnvLFDOxEw5hggr5AlHlwQUAcLqhK0NLhRaQE7TmVERTrx+ObY7OloR7bDiXNdLJHmwaMzCxwFofhstcJyNzhySgmWLjY++EjyeP6Bk/v5RyGK3Rxf/rs+dXrN4Qu7tFxyVJp69HySj2e4Padutt36tBsnZu3u6OjMyaeXksfshlKT2LpwcO9vb1FxaV8C7ui4tIumSwlbRM1PB7XN9z87TaqXfOxdLH2yo1ffwsOi5RKWyt/OJOWkSWVtoaLxEXFpZ2dXZlbcvgWdueqa5qaWzy9l4eLxJ1dXVd+viZ0cQ8XiVuk0tNnq1GPVK0TcBiupYObOPe4wNZlyL6DARAAAkBgnBAYFzHB66Zmd89lmIgoMpbcK1BUXPrqVaO757Lan35+JHmMrv7sa3HpwcPsmGD/gTK+hZ0eT+AftNLJ2Q1XQQloE4CN67tF+6+8QoRBa7CNkZWD5Vx316iUpIqLlnMVP5fRoWFMMNnIKiKrTOgVgQuqEbR0eAt8Fm47lFRctSm9KObPlQP2foK12SLSwyjFBBJJ/d26+89fvEQBAYfhZmXntba2iSJjUe2nz1aj05GWkdXR0YlCrp//ex3HB2QjNZSpk0gmvf1CWqTSfaWHQldEtbW15+8sQj5FkbG79pRY2zpxGG7pwcMajqWLtVcu1l5xdfdtbHxdevBwuEjc2Ph6tTjh/oNHF2uvIM+Bwauamluyc/KpwXb1+o26ew+QDZVFdtPY0lGce9zGWbHEBQcQAAJA4KMgMC5iAnIuR3OPXC5/S/yTybrDReIHDyX4es2+FpPzB0KfV7Cnqbmlv3/gdVPzzt3FKJhQelZco1KST14m53tkZj3PM+7IueSTl1eXHI8++MO6ylrSZjRiAty8qRaWqbuj0TaC9713gJ0MW7hYe+Xt27d//PHH3br7NvZC5Kf04GHinChEdOKsbZ0kkvqf/3s9dEVUi1Sam7d72PVSJ5FM4vk7c0tOl0xGbi/F1ZH2SJmVnad0LCmNCXK272xsfE31EUUMZJCKb6xwGC57HOLGQEyAUYAABIDAx0JgPMYEcQkpbW3t7KX+91oncHJ28w9aqccT2NgL9x8ok8m61cxVcwIiEytqrOe9u5FvZOVgajOXw3BX7v4+LK9UW9eQw3CRzajGBLZCh+hNK6ZaKLYycBjuDEf7vGMpcxcLP0hM0Pi6aePmbR0dnTWXLqNwKn9nkVTaGroiij24i4pLW1vbLtTUNjx9hnYesG000VCTOpnEMUG4SNzW1p6dk48c4hON1gmo+FLVWFIaE6zfkFn/5GlV9QWqqdTEDzEBxQeSQAAIfDIExmNMgH531t17gGaX7Jz8ispTejxBbt7uzq6ujZu3cRhuYdG+N296yB+L5PyBtpt1dHQmrEtDe8SaW6RFxaXotCnW5wPilojSGb13LwAwmTln7dHqwKxCbV1DAzOb1SXlobnfchhuxN6jkcXHJhlZGpjZhObtTz71j7UEDdcJFA1I3rNElD7koOFbW+84khyZFvKZrqGWDm/Zau8dR5KH8dyBqooM+LaO7mG63GmqDLAeT3vZuQVv3vR8f7icw3A9vZc3Nbdc+ukKuh2z/0DZ3pIDqAjaatDX11ey7yB2wmG4JlZODm7Bn08yIZVqZOokkkkcE6DhgRYw+BZ2l69clUjq8b0DKiZQNZaUxgThIvHR8sqOjs61iYrnBXz9w2ouXUb7CVStE6A7GsdPnGR3ysbZe01OOfWwCdsMNEAACACB8UNgPMYEaH/7k4an8v7+np7ezs4u9KNQjye4UFM7MDDQ29srlbZ2dnWhmODBQwm53otuNNjYC2suXZbL5W/e9Mjl8mvXf8Vr4GjTnzj3ONfMDp+Jr7xCEitqNpy5mnruWsTeo4aWX3EYrp1HYNKJS2nVN1Krrq7+9vi6yks2rn5GVg5xR85lXLiJj7gj54ysHBZHp2INEhZHv3sUzcU/Njz9W02mRluhg2IzwdmNRacz8spTFvouQPsJ9p3fTB5LQz1wyzXfT2Dj7C3OPW5s6YjLqhJwTMBhuN8fLn/zpgc9WZC0PqNFKu3r6+vt7W1qbiGfyy+vONncIsWbD5BnoVdERFaZJnvvlZ5EpTEBGh4vXrzq++vfixevwkRiVB1pj7sWJhKzx5KqmIAcNn19fdXna/gWdmrWCf58gvRQ2TF5f39fX1+XTBYVnYjrXRAQF5ZaoslJx0VAAAJAAAh8WAIfPiZQ038nZzcvnyDKwMZeSD5wSOVSSb6FnX/QSr7F33M/MmD0THX0+JQxh+Ga2swlnyxABiYz56BHE9n2GmqMzB0issqsHP+eyNUXRK8pVG8zjFxH9zBxTjnPbNYwypJFXN198fMdSI9+jrNX3d1C14syD07QV7x9YcQPdjPUVKF0LKmyVzVsVNnb2At9/cPIDSu63GkrMvY7uoepKgJ6IAAEgMA4JDCuY4JxyGvYTZrnIw5atxvfrRi2n2EX1NY1Ckgo8FyleOB+ZA9Xd9/TZ6tbpNLgsH+8vXEi12LlxlLhN6tHtrqPwtv8ZTHLk3Z+wNP9UVCCRgIBIDDeCEBMMMITpKoTrKXDcw9P+bATpLauEXo5kqpGDk//681bT589R6/3oTyMUo1ULeMt+cV054C1eVOmvntf9XhrHrQHCAABIKCKAMQEYxQTqDoBoAcCQAAIAAEgME4IQEwAMQEQAAJAAAgAASCgIAAxAYwDIAAEgAAQAAJAQEEAYgIYB0AACAABIAAEgICCAMQEMA6AABAAAkAACAABBQGICWAcAAEgAASAABAAAgoCEBOM3TiYbGg5Zar1ONlcCs0Y5wR4ZrNgtIzzcwTNAwKfHoGPNSYIDot89vxF+sat+JQEBq9K37iVfJcczhpZgWdhH7WvIvnU5eRTl1fs/A47XxiRiJSJFTWzfcKxHglTpk5fmVE6e3EI1jsscBJvDONbW6cVRvOtFbGClg7PxNJKMGM6PkwsrbQnGJpYWumb/P0qQCMzC6xHlmbTp0+YMhV5nsg1xcUFM6ajLNIz39r6s7++6sRhuJ/pGvKtrUl7IzML5MfNf1Ho2mUOC5yS86OmGCt55yPuiFKBfYKUmo2ZchjDI33j1mfPX1AvYtKwwZ7ey/eWHNi6LQ+/UVvDgtjMfkFAePq38JIDDAQEIAAExoDAxxoTUK+g5zDc6vM1L182av7a42HD1dY1NPvqa8u57qE79q8uOY79TPlihuVc9//4rUiquDgn4B9v9Pt8ksnypJ2Lw5KxMYfhzl0sTMyNFMyYnnUgUTBD8X4bfRNB1oHEwpPpu06koSOtMHqKMT907bKc75PQ9xLRd5IC1nj/w/iHtKLTGQFrfLR0eG7+i3adSNt9Mq3kXOauH9K2H13vsMCJNN59Mq2gPMXJVfHhR8GM6TsrUneffFfdrhNpa7NFqJFLQz0iNwTPXSzcWBxLRiRkF9TI7BOkxngMsoYxPLKy81pb28L//2MKGjZSjyc4e+7Hvr6+hqfPWlvbumSyTVm5GpalzDxXZQTE7xiN10xRFUESCAABIIAIfDoxwdifUc2/i2jl6BG5tYz6RB6OCTbsFKNJF83c5PeNUKd4fPOsA4mha5dxGG7khuCsA4n6JgLK+GvvBQXlKXbOs1GRuYuFO44ko1ADRxvIs5YOLzItZPP+tZMNvxDMmL7jSPLcxUI2PRwTJOb+I75hWyrVjLeYQGkj1SuHFxPExCd3dHTuLlJ8V1OPJ7h67ZfnL14O7/vRxhazI7e+x2cy1HcHcoEAEAACQxL48DFBUXHp7Tt1F2pq5XL5wMDArj0lHIa7cLH3zd9uD/z17+Zvtxcu9kZX2CNHK37//feBgYFHkscdHZ3ou4i/3rwlk3XLZN0SST25TrC35EBnV9fbt297enqPHK1Qf1vBco7bmtLK9PM3Us9dC9y8G330aJKRZUhOceq5a+k//rr2aPUsj0ASqOYxgVdkZkBCAVmWw3AnTJnK45t/pmtoPM0C/RakpnnS3i3AdcfR9a7LFuWVp/w5/VPTPIfhTrWwzC1Ldl++GJVSExOgJQoUMaiJCdB3mFAjyZZoKJMxQWHRvsbG1+jLihyGu6uwpKOj8+3btx0dnbsKFad7/4GyhqfP8DcVU9I2vW5qfq+f12sTUx88lKDvGt+tu+/pvVwcu+5xfUNg8CqlwyM4LFIiqf/h5Nment7BwcFHkseodvRdxP7+Ablc/vCRpK2tHa0TRMclN75uGhwc/P33389UndfjCXbkF966fdfa1ilzS86vN29Z2zpl5xbU3XtQevCwTNaNvuTJYbiBwauKvz2AYgJ2x1UNdQw5IKHAKzITJ0EAAkAACIwqgQ8fE5QePDw4OPjLjd/EsetEkbELF3vr8QQ3f7v9uL7BwyvAwyvg2fMXP//3Oofh5ubtlsm6i789YDl99rHjP/T29qKYwMsnKFwkrqg81dj4Gn+vLyY+ua2tPa9gD4fh5hXs6ezqSsvIUoXSwMwm5uCp0Lz9BmY21vOXrj1a7Ze+g8NwfTbkxB8+x581j5nyRfC2vdHfnSa/mqhhTIA+zbwgIE5V7ViPYoJAsQ97lwAz2Wh9flRxVWbSjkhmshE7JnBeMq+gPMV+3rvvIKuJCah1gu1H1y9e7oZqJLca4FYNT8AxQVFxaZdMtv9AGfKTmr6ls7Pr2/3f8S3sDh460tHRGROfHLoiqq2tvWTfQWTz83+vSyT11rZOmlft7Rfy7PmLlLRNRcWlb970ZGXn5e8selzfgD6HyB4e4SJxZ1fXlZ+vCV3cw0XiFqn09NlqDsM9Wl7Z2dWVsWmbjb2w9qefu2SycJHYLzC8uUV66acrfAu7tYmp7e0df34fOS4h5eXLxsDgVadOn+vs6hJFxpZXnLx1+66NvfBu3f3Orq5DZcecnN1wF5R2nBrqj+sbbv52mwxe3ULXr0jfBx9cxhhBAAJAYFQJjIuY4HVTs7unYmEcHaLI2NbWNjTfcxhuUXHpq1eN7p7Lan/6+ZHkMbpi4ikHlyo9eJgdE+w/UMa3sNPjCfyDVpIXaFwKCWgTgI2rH0p+5RUiDFqDbYysHCznurtGpSRVXLSc6471GsYEk42sIrLKhF4RuKAqAcUEeD8B2gqAjZcELy4+u9F12SKkQcZbStcm50dtPZBQdDojLMEf33tWGhMgz4Un0/P+P3qg9hNkf5eIdjviSoctoBNUVX2hu/vNobJj2M/F2iv3HzxCJ9HJ2e3Z8xcot6r6Alpj9/Re3vi6CccHuKB6QY8nuP/gUVFx6dVrvzQ1t5RXnCyvOHn1+g1cihoe1Pi5ev1G3b0HejzBI8nj2p9+RqXwvYOi4tKm5hZvv3f7Q6uqL9Q/eSpaHfek4WnGpm119x5Ipa35O4uuXr9RXnGSw3D5FnaHjxzv6Ojs7x/Aq1xKO46CofydRahGUWTsrj0lZDAk9IqIyCqbbGSFOwICEAACQGD0CIyLmICcyzkMNys7Ty6XvyX+yWTd4SLxg4eSi7VXEAvqms5huNRFHy0PNDW39PcPvG5q3rm7mPz5RQF1jUpJPnmZnO+RgfU8z7gj55JPXl5dcjz64A/rKmtJm1GKCdj7CdCtgZzvk7aUrkWbCfA6AV5UmMg1JTulNCYIFPtY2M3cuDdWvDEMGau5d0B6G4YcLq4Mi1wAACAASURBVBLLZN1//PFHb28vvmvAYbgPHkqIE6sQ0TlFt+Fz83aX7DvY+LoJ30fQvOoLNbW1P/1cd+9B5Q9n7ty5d+36r2QsQg0PavxcrL3y4KHE1d23sfF16cHDqFIcE1BlcfJu3f3KH848eCipPl/z0+X/3n/wCN8yQB5i4hV3HOruPbC2dVLa8cwtOV0yGQ5/2Z2FmIDNBDRAAAiMHoHxGBPEJaS0tbWzl/rfa53AydnNP2ilHk9gYy/cf6BMJuvOzdutiuOcgMjEihrreZ7IwMjKwdRGsS1/5e7vw/JKtf96cg/ZfKiYQLQ+CD2egDcbqtl8QO4YQD0ijecvdckrT5nuOAs9d6Bqj6EqVhrqFYvznV1Hjp2ouXS5o6NTHLsOFbx6/cbtO3Xs+Aytot+tuy+R1J+pOq9hLaRZUXHp8xcvHz6SJKxLe9Lw9EnD08wtOdgAT+RIozQmULVOsK/0UItUitcJyitO/nk/y8nZ7fTZ6icNT2/dvrs5azuqMXRF1I78wks/XcGbCvN3FnV0dIaLxEo7Hi4St7W140gCD1rcbIgJMAoQgAAQGAMC4zEmsLZ1kkjq6+49QBfW7Jz8ispTejxBbt7uzq6ujZu3cRhuYdE+dNsYM6Iu+kXFpR0dnQnr0jgMNzgssrlFWlRcioy1dHgLAuKWiNIZvXe/rU1mzll7tDowq1Bb19DAzGZ1SXlormLfeMTeo5HFxyYZWRqY2YTm7U8+9Y+1BA3XCRQNSN6zRJSOm6pKIGdu0mamk33B8Q1uAa4chos2G1o72KkyRgWVrhOgFYgJU6amF8WgpYJhrBOYWDk5uAUPeYcbT7ro/vqrV43opz/aFLI9r5DDcIUu7j9euBQRFY/anJaRJZN1t7W1h66IIrtvO9/P0uHvG/NkFinHJaR0d7+5eu0Xa1unh48kz1+8xLM4exkJNw95QOsEaD+BVNoaERWvxxNU/nAG7ScIDotskUrRNlVf/7DG100oasnfWSSXy8srTnr7haBwxNrWKTV9i0zWjYz5FnaXr1xF90SUdhwN9bt1923shciY2kjhFZkZnKzYEwMHEAACQGAMCIzHmIDDcMNE4icNT+X9/T09vZ2dXeiHlB5PcKGmdmBgoLe3988Ld2dXF1p0pVZl0Y0GtIFcLpe/edMjl8uvXf8Vvz0GbfoT5x7nmtlhxF95hSRW1Gw4czX13LWIvUcNLb/iMFw7j8CkE5fSqm+kVl1d/e3xdZWXbFz9jKwc4o6cy7hwEx9xR84ZWTksjk7FGiQsjk5F/l38Y8PTvx1yHkXT/L7zm/GRdSDR2NwqZeea9KIY9FYiNKMn5EQYmE7LOpDIvtGwNNQDF993fnPR6Yy5i4VUAIECC6tZtor9BCdSSfsNO8WYiVJBw1+u5KTr6b381atGNPPp8QTo4ZGenl65XP7Ljd/wT2prW6f6J0/RflKy6pCUvZrsvXf3XNb4umlf6SEOwz19thpvPVE6PMjmcRgujgls7IV37t7r71eMsRaptL29Az13sCkrt7OzC7X5+i830ViKiIpvbW1DqxG3bt/FGxHQ8wV9fX3y/v6m5pak9RnkUzNUx8NE4hcvXvX99e/Fi1dhxOsQPp9kEp7+rYt/LEkDZCAABIDA6BH48DGBmr6hTeOUgY29kHzgkMqlknwLO/+glXyLv+d+ZMDomeroKXk3n6nNXPLJAmRsMnMOejSRcq550sjcISLrE3nQ3C10vSjz4AT9v9+rqDkHbKnHE/j6h+EoDelj4pNbW9uoe0YogHMLXY/LjoHg5OymdEeqp/dyqs1qGuPq7st2orTjHIbr6u6LH5nBPq0cPSKyyozMHbAGBCAABIDAqBIY1zHBqPZ8jJ3P8xEHrduN71aMce0jVd1ErsXKjaXCb1aPlEPkR48nWBkR80jymHoSj8Nwv3RaErm1zNR6zsjWOP69MXqmQet2z/MZYtlm/HcEWggEgMBHRABigjG6U6ulw3MPTxnx2XTsh5q2rhF+4nGkag8Oi2xsfH39l5vo5VSU2yHvuVD2n0ZS+M1q9/CUEUf9acCBXgABIDBKBCAmGKOYYJTOH7gFAkAACAABIDBSBCAmgJgACAABIAAEgAAQUBCAmADGARAAAkAACAABIKAgADEBjAMgAASAABAAAkBAQQBiAhgHQAAIAAEgAASAgIIAxAQwDoAAEAACQAAIAAEFAYgJYBwAASAABIAAEAACCgIfOCb40mmJePvxuIJTcQWnHN3ffaxvRJ6pGD3PSptnYy8MXREVLhKTh5dPkFLj91Wmb9za1tYuk3XLZN34qw3v60S9vTh23drEd29iVm8JuUAACAABIPCpEvjAMQGjZ2psMXua3ders48IvSJGkPLoeVbaSDxt9/b2DgwMdHe/kcm6f715S6kxUnr5BF35+Vp0XLIaG5SFAo61ialNzS34S75Dlnovgzt379Xde/BeRT6s8aas3JpLl9kvD/6wrYLagQAQAAIfNYEPHBMgdpONrCKyykY2Jhhtz6rOOvV5RlVmHIZLfYZHjSXKcnX3bWx8PUoxwZC1jzcDzTmPt5ZDe4AAEAAC45bAOI0JDPi2Yakl64p/TCqq9ovNwZ8JcHANit5RmVxSE72j0sH13cq8qfWclZkH/jL+MTAhf7KhJcatYbQRHBYpkdT/cPJsT0/v4ODgI8lj9GFf9BE/pEQfuLN3dLl9py47t0CPJ7j+y83s3AJrW6c7d+7tLlJ8W5n9TV4Ow42OS2583TQ4OPj777+fqTqvxxO4LFoqkdS/edPzxx9/9PT0ymTdEkk9+rBTRFT802fPBwcHBwYGbv52m3zX72jEBKgl6K4Euapxpur8pZ+uPJI8Hhwc7OnpRR8bRN+rfFzfMDg4KJfLL9TU4g8Cnak6X3Pp8s3fbqOvVqIvAYaJxJRxcFjk8xcvG183/fHHHxJJfXf3m97eXvRdwYWLvVFxsuNFxaW379Rdu/7rwMCAXC5H9NCSDLkeg75cjE86CEAACAABIDA8AuMxJmD0TMPTvw1O3qPLnWbAt43c8j36VO6Xjh4xeSecPEXaukZOnqKYvBNfOnpM0BesyNj/zZot2rpGCuOtZeQ39DSMCcJF4s6uris/XxO6uIeLxC1S6emz1RyGW1Rc2tnZlbklh29hd666pqm5xdN7+dXrN06frQ4MXtXW1l5z6bK3X8iz5y9S0jahE0D9fvULDG9ukV766Qrfwm5tYmp7e8ehsmPIkr1O4OTs9qTh6eUrV/kWdr7+Ya+bmlEzkL2GMYHQKyK5pIY81CzA6PEE/kErw0Xiq9d+efBQgsfQxdorHR2dGZu28S3sTp6qam/vCAxeJXRxf/rs+dXrN4Qu7pFr4puaW/BkfLH2ysDAQPX5moio+Mg18Tb2QtI4Oi5ZKm09Wl4ZLhI3t0hT0jZV/nBGKm1dHhJx+07dxdorejzBzd9uP65v8PAK8PAKePb8BfpicunBw729vUXFpXwLu6Li0i6ZTBVn3HIQgAAQAAJAYNgExmNMYOngJs49LrB1Qb1yWrJydfYRgy9mLhGlr0jfh76I8/kkEwe3YBMrJ2SjpcPjmc0ytnRcFpcbkrIX49A8JmhtbcvKzkMFr16/UXfvgR5PcP/Bo4u1V5AyMHhVU3NLdk7+obJjt27fzd9ZJJW21t17kLQ+o+HpM2+/EGRGxQRFxaVNzS04t6r6Qv2Tp9a2imazYwLkAc/T13+5Sc7TGsYEyMn7/n+x9gpZF5mMS0hpb+/I3JKTuSWnvb0jLiEFOU9J27Rt+04kX6xVLCro8f7+gHJWdl5ra5soMhYZnD5b/UjyOCo6obHxdbhIjCldrL1ysfaKKDKW5F9UXPrqVaO75zJsxmG43n4hLVIpXrEgs963s2APBIAAEAACSgmMx5jAxtlbnHvc2NIRtRgng5P3kPM97s8cz5VxBaeith0LTi5ck1NO2gwvJkAzIpqD3/7zX+nBw5lbch7XN1yoqa0+X/O4vuFoeSUKIFB7qLlKTVJpTLCv9JBM1t3cIr1bd18qbSXnaQ1jAhMrp/m+YvLAkRMmxhbIIIDDcMkkbue+0kNdMlm4SMnXe0l7zOGf5N42Nr7O2b5LaUyQlZ0nl8tJe5msmwwdOAyX6j4Flt0j0AABIAAEgMD7EhiPMcH0OUvF2yvwOoH9gsCobcd4ZrO8IjNDNxSjr8eihYEJ+gKe2ayobcdmu737me4VmTlSMYG1rVP9k6dV1RcopoHBq54+e/702fOs7Lxbt+/ef/DoQk0ttqHmqn2lh1qkUrxOUF5x8s+FcbRbHs+1uGxg8KoWqRRvTaAmWmpSxKUoYcZcr+DkQvKYMdeLsmEnqbrIJG5nVnZeW1t7RFQ8Ku7q7osftiTtUS5aRwldEUXWFS4SK40J4hJS2tra0zKySGNqcwbVfYozVRCSQAAIAAEgMAwC4zEm0OVOW7mx1Gv1Zm1dI13utJCUosCEfC0d3qyv/eMKTtnO8+UwXPNZC8S5x2d97W9sMTt6R+X8ZTEchmtqPSdq29GRigk4DPdoeWVHRyd6cN/XP6zm0mVP7+XWtk6P6xuaWxQzfXnFyY6OzvydRRg9NVcFh0W2SKVHjlbo8QS+/mGNr5vwPXi0GH78xElcNnRFVEdH55GjFRyGG7kmvrlFOox1AuztvQRqUieTOCbw9F7e1NxSc+myHk8gdHF/8FCC7vpT6wqoXmSMNlLo8QT7D5TtLTmgKiawtnWSSOrr7j0QurhzGG52Tn5F5Sk9noCEScUE+TuLOju74J0K73WWwRgIAAEgoJ7AB44JbJy9EwqryA1xaDuhqfWc1dlH1u46m1BYFZZaMmXqdA7D1dLhLQxcm1BYFb/rdEJh1cLAtWjNYEFgfFJRdeKeczF5lSszStGeA1WeleLA0x7KxTOijb2w5tJluVz+5k1PX19f9fkavoUdh+HW/vQzepo/JW2TVNqKfzpTP22Rt01ZuZ2dXT09vXK5/PovN/FefQ7DPVR2TN7f39fX1yWTRUUnchju8RMn+/sVe+w7O7ueNDxFmw/YS+t4l4PS7miuRBMtuWjf2Pja1d0XE6D2PaSkbWpra+/tVfSl7t4D/FgEaY9rT1qf0SKV9vX19fb2NjW3/LnTUFVMgJ5oeNLwVN7f39PT29nZlZ2TT8GkYgIbe+Gdu/cQq4ePJOi84KpBAAJAAAgAgWEQ+MAxgfoWTzaymqD/97Y1ZKyta8Qzm6Wta0SWVTx08MVMFCKQ+hGR+RZ2/kEr/+Ws4+m9nIwGcMNs7IW+/mHk7jy+hZ23XwipwcbjRPDyCdL8ZUGu7r6u7oqlHU0OJ2c3fD9CE/v3cq6JQ7ABAkAACPwvExjXMcH/8omBvgMBIAAEgAAQGGMCEBNo9Pt1jM8KVAcEgAAQAAJAYOwJQEwAMQEQAAJAAAgAASCgIAAxAYwDIAAEgAAQAAJAQEEAYgIYB0AACAABIAAEgICCAMQEMA6AABAAAkAACAABBQGICWAcAAEgAASAABAAAgoCEBPAOAACQAAIAAEgAAQUBCAm0HQcaOnwdPT4Y/9kCNQIBIDAiBDQ1jWayLUYEVcj5URrAk9rAk+pN39RhlI9VrIN2BpkTOpJGbsanuAvymAflCu2AaUh7ZW2TakSl8K5WMBZHIaLlVSlWE8ak/aUnkxqTzDSnvCPN+aRuZ+ADDGBRjEBf4Zz1LajHivTRuSU8y3sgsMiw0Vi8vAPWjki7y5M37i1ra1dJuuWybqLiktHpMHDcOLlE0T2LlwkDl0RpfRNjsNw/uvNW6iDEkm9y6Klw/AwIkXOVJ3/9eatEXFFOSkqLtW8a5qc8dFr6pdOS0SbDhqZO1BdIJOMrvFsm/keQh8TY8VLysfs0Jk0VYv5e8Y1tpi9MvOAX2wO+t76mDVDVUXTZjh7+MfzvrDBBuRcpUrGxtQcRtqTNtiMPS+qKUJ5UJpkF2drqILqDXALyVLsIqRGlYw9KDUgldgSgyI1bNnE/CsP/zjT//9sL9vgY9d8ZDHBBH3B0ohMTT70N7InJiChAH2IYUTcBodFvm5qlsm6e3p6//jjjzdvemSybvVzgJOzW82ly5uycodsgI29MHRF1NrE1KbmltKDh4e0HyUDNG13d78ZGBjo7e2Vybrb2trTN25VU92mrNyaS5c1eWsyCjgqKk+hrzOo8TmCWftKD508VUU6VPqVB9Jg2DL58achnWhyxkevqfhT5qraqW8wLT92++61+ZsiMr9P2+81f5kqy5HSM7rGHkKfosTdO+PyJuubkW6NLWZHbTs262t/UvlBZN0pfDcfsSH/74AANQNPV2wBtxPPnaoEbMme57Bb0mZ4stLa1bhC9qhJ7GZgDRaQKypJ9Yidq6YBqqrGRcgeYWPcbGzGt3Jy81nDTDbFmk9J+MhigslGVhFZZUKviLE8B6NXaVZ2XmtrW7hIPGR3qC8Ajbj9kA6HZ/BezX6viZD6QtLwmvdepdjTKlvzXg7VGL8vCg7DVY969Jo6ZEwQ7rkqO2oLo2vMYbjzvnLbk7DLyNBKTd//fVamaGNeTG5KaAo7Jhi9v+X3bbYh38ZjWexEA/p7LtjP+852uCAlYD/khMee56hSmiSxZ2zM1qAsXB1pQMpKPVANJm2oLCqJLbFAGaAkzkUCag/ZKixjAVkOee4ozx9X8sPHBI7uYcuTdnquykjccy6p6EcHt2AOw51saBmYkJ9U9GNS0Y+BCfmTDS05DDcgfkdcwamkoh/X7jobV3AqcmuZkbnDJJ5FWGqJo3sY4r44LDkgfgeS2Z4n8SyCkwsXBSVG76hcV3whcmuZqfWcIU8YdR0JDouUSOp/OHm2p6d3cHDwkeSxp/dyDsPV4wmOHK1AyqbmlqT1GfaOLrfv1GXnFujxBNd/uZmdW2Bt63Tnzr3dRd+iStkxga9/mERSPzg42N8/cPX6DbTY/uvNW+QP7tdNzcFhkRyGGxEV//TZ88HBwYGBgZu/3cZfKRxyhhiyy2eqzl/66cojyePBwcGent59pYdQkTCR+HF9w+DgoFwuv1BTa2Mv3JFfeOv2XWtbp8wtOb/evGVt65SdW1B378G8BZ5Km8G3sKuqviCXywcHBxsbX6NPSqLV797e3oGBge7uNzJZN/qitB5PgDi/ffu2o6NzV2EJ2fL3nTi5ZnbL4nIXh60nnWgiFxWXymTdfX19/f0D5E2Zi7VXnj57zqaERsiRoxUdHZ1v375F9xfYwwNV7em9/M7dewMDA4ODg4/rG8L+ChBLDx5ubpHeuaPQy+XyM1Xn0X0lpcMD+WHHBGEi8ZOGp4ODgx0dnU8anpLf3Wb3mtEz9RZnJe45t674wursI+b2izgM18jcISy1ZFFwYvyu0+uKfwzdUIy+UMromS6NyEQfIw3dUCzeftxY9VLqpojM1T7vol776cLSDSUONvPZDUAaLR3e3KURf1V3Qby9Aq8Ior/c+X7i1dlH1hVfWJGxX83mns//ij88hD4fXUygdOpSNYGRxpgnNXuRZdlZuNTwBLIBWKZckQ2gfuJTSewBF0ENJv9nO6c0VJJyRdaoigapxzIWkH+ICUb3/p/QK2Jd8QX/uB38Gc4mVk6TDS21dHiBCfnh6d9OmWo9Zaq1KPOgj/jdmjM1PSuih3+uHHhFZoak7EVnju0ZGYek7J0y1XqyoeWKjP0BCQXUMGInDb6YuTr7CA47wkXizq6uKz9fE7q4h4vELVLp6bPVHIZbVFza2dmVuSWHb2F3rrqmqbnF03v51es3Tp+tDgxe1dbWXnPpsrdfyLPnL1LSNqFaqJjAxl74uL6h7t4DoYu7r3/Yq1eN+JvI7Cu+k7Pbk4anl69c5VvY+fqHvW5qRs1Antn27H6p0VysvdLR0ZmxaRvfwu7kqar29o7A4FVCF/enz55fvX5D6OL+54ePpdLWo+WVcQkpL182BgavOnX6XGdXlygytrzi5K3bd1U14/iJkx0dnWsTU/kWdpd+ukIu/rPn+F17StrbOxLWpenxBMeO/9Da2hYYvAo3m22PsyjBwsE1dENxUlF1SMreabZfcxiusaVjXMFJ8iPdeNhQZXGS/VP7Yu2Vzq4uihL6urRM1t3U3JK5JSdcJF4eoljWUjo8OAz35/9ef/BQInRxF7q4P3gouX2nTo8nKD14+Pfffy/+9gDfwq6ouLRLJktJ26RmeLDDL2tbJ4mk/pHksYdXQHBY5KtXjepjAtfgpMitZQZ8W21do2/WbBFlHpygLzC2dIzN+8FbnKXLnWZs6bhm2zG3UEVE5eIfG5NXae3kyeiZeq3eHJt/csiYQIvhLXH2+S712+8zStXEBF8tCoorODVrgb+WDm/+shjx9oovpgvxn3ls3g8ObsHGlo5Trf6Dz4sqQWlMoKXDC91Q7LV6s6pSY6afOu2rxX4xulM02rZMzUnk3IZlZKPGkpp02ZZj0Hc1lZLtVyVTLVTjDVtiVxp2n/SJZSwgt5MMzD384w35driWT0n48OsEQq+IyK1lesZfYqwmVk7inHIbZ2+kcXQPi9zyPTKgIgB8scB3E6iYgPJMFV8QEBex+dAknrqtyPYLAsJSS8JSSyYbvVvwDBeJW1vbsrLzUPOuXr9Rd++BHk9w/8EjPIUHBq9qam7Jzsk/VHbs1u27+TuLpNLWunsPktZnNDx95u0XgspSMUFK2qbW1ra4hBSUW7LvYFNzCzJWNcfr8QT+QSvDReLrv9wkL/qq7JHnIf8n57+4hJT29o7MLTmotaLIWFT89NnqR5LHPv6hTxqeZmzaVnfvgVTamr+z6Or1G+UVJ5EN1QwnZ7dnz1/g3NAVUagIMlY1xzs5u4WLxFu27ujo6MTYNbx3oG8yM2LLoZi8E4uCEtFq05B9V2VAMkE2pCYiKr61tS1zSw6KCdra2rNz8rErVcMDxQSP6xv8AsP/lJ2c3dBWUxKFu+eyxtdN+0oPqRke7JggIiq+vb0Dt4FsKm4VW5hsZGVs6TjHc6V4e4WxpaOxpaM49zj+S/SLzQlO3kNNq0PeO9gUkRnrH5cckpwfu91h5vzidYVqYoKAhAK/WAVDDsPV5U5btem7BQFx+M98ns8adptVaZTGBByGazPPN3pHpfuKVAO+raqyqvQ8U5u5rsH44FspVhk/0zWydfLEytnz/dTfaf5sorGFjYv7spgZX7mpqojSU3MSigPISY6KDMjiuCwWUC6VJIsMKZNVK5WH9MA2oPxQPVLaWqqIKhvsSqmAWsJ2hTQ4l2qw7X+WuPmK+VZO2jqGVNbHnhwXMUFEVhmecRV/tM7eCYVV5G+4uIJ3P0SoSR1fLFTFBJRnqrjQK4IyYJ9O1+AkcU75N2u2MHrvdpRQMQG62qLJ7+0//5UePJy5JedxfcOFmtrq8zWP6xuOlleiAAJVRMUEapLU5IqK7ys9JJN1N7dI79bdl0pbRykmwP0tPXj4n/17i37l3627X/nDmQcPJdXna366/N/7Dx7hqYhqtvokORGiDnp6L38kedzd/ebx4yePJI/fvOl535hAlzvNa/XmtbvOhqTstZrtrqXzbhe6LnfaHM+V833F+LCd78c++6SGPa2SGkwJxQRk1IgnbIoe2gG6cLH39V9u/v777z09vdd/uenhFUCFOxiamuGBq8C7Siljsqlkp7Bsaj0nIqssNv9kSMreFRn7Y/Iq2TEBCripPyJNYoLjm7+PWRY7cbKpqckM9TFBSMpecjMvTlKV4marEVTFBKinYakl/Jnz1BRXmjXRYJr5zHn40De25jBcbR1DE/PZWMm3mvPZRMXmCVUHM9n0P18HLAmMN7VwZNuon5ywPTn/IZn8H5tRsyDlnDT7NzLZGLYfqlIySRqT7ceyKmPcL7JqUsaelbpCbrENKZBOsIwFbMm3mrMkIH7W3G8+0/3UnkscjzGBwNZFvP24laMHPgFYYF8aKA21TkBN+ZSxJjGBYp35n3uVyas/h+Giq621rVP9k6dV1RdwU5EQGLzq6bPnT589z8rOu3X77v0Hjy7U1GIb6sKduSWnvb0DrxPk7yxqkUrRajmeGHDZwOBVLVIp3ppAXfTZ9rigJgLpDfcXrXaEroiiPJw+W/2k4emt23c3Z21/0vD0ScNTbEM1w2XR0levGvE6gbdfSFNzC35gkh0TIM9oUwVuBq6dbY+zKEGXO23h8oS4gpMxeZVzlypW8vVNZvrF5gYnF+LDNTiJKkUlSSYoi9SQzSNlZKlqeKBlHvSoReiKqEeSxxJJvbWtE9k1zFDN8GDHBO+7ThCQULAsLhfFTHiap9YJ0B/X+64TZKxMj14Wh54JRDGB/V+3Ayi8KBmcvAevE3w+yWRF+j50t4L6y1VallKqignIKqgiY5l8r73r7DmJnCxRLvk/2RFcFgsol0qSRTSUsQd2Y0gP2IxU4kkdK1U5GbI4MlBvhnPZAm4AbhLbBmuQsa6+wMM/buq0r8iyn4w8HmOCzyeZhKWWBCfv0eVO+2utz2fh8gR0tUKXCb/obfgHHzJGmsmGliszD+Abw+wpn7qysA2UnleqFHXFxxPD0fJKdKecw3B9/cNqLl329F5ubev0uL6huUXq7RdSXqG4lZ6/swjXQsUEf24jaHj67NJPV/gWduju8s3fbqPNZWhSuXrtF/wOg9AVUR0dnUeOVnAYbuSa+OYW6ZDrBAZ8W0f3MEQVt0GpgDtF/ur19F7e1NyCmqfHE+w/ULa35ACH4ebvLJLL5eUVJ739Qp6/ePnwkcTa1gm5xfMZruVM1flXrxp9/cPQFgGptBXtl0R+Oju71iamYuMLNbWNr5s8vZfzLexOnTnX29v7vusE2JXi95yu0ezFIc4+q0ml5nJ5xckWqRQt8qNSSimRxEjnSocHupmCNoXo8QQnT1U9e/7CydlNaUygZniwYwK0n+DXm7ds7IVCF/f6J0PsMQxO3hOSsofRM9XlTvON2YZW5pTGBGg/wZqca/6q0AAAIABJREFUclPrOVo6vEVBier3E/guDNy1Np/71x06nwUKWd9A8Xet9HB0DxPnHp9mp9jzMWthQEzeiS//+m1A/Q0qLUsplcYEyM973YOg3I5U8r32qVFzEp69UGNQLvk/2Uhclpp0sR4bG5nNQisfWKNewB6woNReVS6lR0nyf+SNraG6z06SzaCK4yQSSEvSD2mGuJGWinPnHzfJwJxUfjLyeIwJ0E/zlRmliUXV8btOx+RV2szzwcRt5vnG7zqTUFiVUFhlO88X3SCM33Vm7e6quIJTy5N2fqiYwMZeWHPpslwuf/Omp6+vr/p8Dd9CsQml9qef6+494DDclLRNUmkr2mmPukPFBOhRgqbmlt7e3r6+PomkHj3RgIy3bstD+r6+vuxcxdbI4ydO9vcr9qV3dnY9aXha/+Spta1TVnaeXC4nl6nxLgf8+w/DVCWomu2S1me0SKV9fX29vb1/tjM6Lhm1Gd9Kv3X7bu1PP2O37JjAxl54/Zebcrm8p6e3s7OLfOOCjb3wzt17qEcPH0n4FnbLQyJevmxU7L3v738kedwlk6GI6sFDCdlBmaxbk+c5cauGJ3h6L3/+4mV//0B//8BPl/+Ll4iQNzJSJGVcl6rhQSLt6OhEQJTGBKqGh6ozLo5d197e0dfX19PTS4WMuFVYMLdfFL2jMnHv+YTCqtANxdE7KgW2LqpiAkbPdHnSrsS95+N3nYnadgxtPsCuKIHRNU5YnnQs87uy9NL9KcX2M5wpAzKppcNzD09JKKyK23l67a6zczxXotyRjQnwrUay6jGWlcYE7Gkba6jmkVOaKhkVwblYoPTYs3BxqO0cTd8AhryR/2M/lIC7wBZIS9IV2VRcChuzc9F0TuqVGmOlUoEsjmSswQIqqPTcKfX5MSo/fEyghtoEfYG+yUy2gbauEc9sljZxI0dLh6dn/CVePGAX+TcaLR1eSMoe8janGm98Czv/oJUoGlBjpj7L1d1X6at72M75FnbefiF48UC9W8WPsJxyntks9WZD5rq6+7q6K6KxYR829kIy3CH9sJ2rokGWGjPZyydI6anRsAHsM4gKsnutxuF7AXH3XKb5aJwydTreN6OmAShrgr5ggr7Kx+up4oyusZrlAcpYW9fI4IuZo/HnbPDFzMisw/YLAqkaxz450WCau38s+51FSltCzUnUL1qci6ZPygPKxTMrJWDjz3SNFiyNmP6VK9aoEXCNeDJW5ZZsKuWQdEJm4V5gn0qdYDOlZZFSfd/JBpAy6VCpPHXaV64+a3T0vlCa+7Erx3VMMH7gTp+zNHrHifHw82LYTLR1jQISCjxXDfES9WH7h4JAYJwTmDJ1+vKkXUHrdmse94xqj2wcPdx81kxW+9zTqDaAdM41menmK/5U18PJnv5LmWsyw8032nzGe29Q/Zf1jllxiAk0/bE7QV9gOM1+zE7MaFSkrWs0Gr+9RqOp4BMIjDgBXe40/sx55PriiFfxvg4n6PE/nzj1fUuNkv2n91jdaIDSncLX1Xh5bDQaMNo+ISbQNCYY7TMB/oEAEAACQAAIfFgCEBNATAAEgAAQAAJAAAgoCEBMAOMACAABIAAEgAAQUBCAmADGARAAAkAACAABIKAgADEBjAMgAASAABAAAkBAQQBiAhgHQAAIAAEgAASAgIIAxAQwDoAAEAACQAAIAAEFAYgJYBwAASAABIAAEAACCgLDjwkm8SzCUkviCk7FFZwKiN/xYR+phNqBABAAAkAACACBf0lg+DGBlg6PZzbL2NLRL3ob/uzQv2wNFAcCQAAIAAEgAAQ+FIHhxwS4xeir6jgJAhAAAkAACAABIPAxEtAoJtDS4c1fFhO/6/S64gurs4+Y2y8iu0rFBIpPqockxe86nVxSE72j0sE1CBkbW8wOT/92XfGPiXvOea7KGCefISE7AjIQAAJAAAgAgf9lAhrFBI7uYTF5J6bPWaqta+S+InV19pEpU6djalRMMOtrf3HucfNZC7R0eF8HxIlzjxtbzNblTluZecA3Zhv6DMmanHIX/1jsAQQgAASAABAAAkDggxMYOibQ0uGFpOzxisxEbeWZzVqdfcRmng9uupKYYHvFTOE3Wjo8bV0jntksRs/UxtlbnFNuYuWESrmFrg/dUAzf6MMMQQACQAAIAAEg8MEJDB0TTDayisgqSy6pIQ+hVwRuOhUTaOnw5vmIo3dUJhZVr8w8YDXbncNwhV4RZPHkkpqIrLLJRlbYCQhAAAgAASAABIDAhyUwdEzw+SSTFen7PMJTVTWUigkmG1npm8zkMNwJ+gK30PUxeZVmNvPtFwSuySk3tpitygnogQAQAAJAAAgAgQ9LYOiYgMNwXfxjo3dUTrP7msNwDfi2SyMy1ewncAtdH7m1zIBvy2G4lg5u4u3HLR3cpkydvjr7iNfqzdq6Rlo6vLlLI/7jEf5hew61AwEgAASAABAAAiQBjWICRs90aURm4p5zcTtPJxRWeaxI09Y1Yt9TQLcDJhtaBiQUJBVVI+PFYevRvgFz+0VR244lFFat3XV2dfYR/sx5ZDtABgJAAAgAASAABD4sAY1iAtREtGFQW9dIkxYzeqYGfFv2LsLJRlawjUATgGADBIAAEAACQGCMCbxHTDDGLYPqgAAQAAJAAAgAgbEkADEBfPcCCAABIAAEgAAQUBCAmADGARAAAkAACAABIKAgADEBjAMgAASAABAAAkBAQQBiAhgHQAAIAAEgAASAgIIAxAQwDoAAEAACQAAIAAEFAYgJYBwAASAABIAAEAACCgIQE8A4AAJAAAgAASAABBQEICZQMg78RRkaPg+quSXlcNgFOQzXX5Sh6qBqQcZspVINu0lsDSpI6amkhs5JM1Ue2HqswQLpRxOZXRBrlFLVxOeQNriKkbJU75DMJTvFrp3MpWS2MWiAABD45Al8CjHBBD3+Z///dkXtCUa6+gKcHN75Iy+p6j2otyQvspQf9QUpYypJllUl4yKkAVaqEkhjUqbsqSwqiYzJviuV1fvETlSZ4UpJ59hYqVKVTzWRE64Fe2YLbBultbPN2K7UtIQyHtIbNmALpCsql0oiS2ay6UQDAXno6gs+n2iiq/8P5UQDATPZVPHxM+LvkaxL895RpSAJBIDAmBH46GMCZqKJq3eU2fS5HIarPcFormvwXNdg7QkavYCZpExex5XK2FhpLqkkLZGML7XsLKzRXCDromS2E6pq0p5trKGG9IlkUkM5IQ3UmFGlUJKyJxuPZHKaIY2xjAXsn63BWWxhSGOlBljJbjBuNrsupMFl2QaqvKkpoooPdq6JT8ev/ZcGJXkFJy1bkeYdun5pUJKHf5z59Hke/nFLg5K8Q9cvW5HmFZy0NCjJ8Wt/8u8R10IK6ltLWoIMBIDA2BP4pGICWydPj4C4SQbm/4aj5tesIS2xARLY19/htRO7Ja/4lIySVI2kDelEqTEuSzYSK3GPcC7lEOmxki3ggqRA+scyZaCJZ6o67AoLbJ84CwskLtKelHFFSpU4FwukGZbJXFLGBmxBQzOyC0MWUW+garI3mz7X1TuKmWiCGqnKDHdBfS3YDAQgAAQ+CIFPJyYwnzHvm+B1RmZ2mKOJucOSwHh/UcaSwHgTcwcOwzX7cs7XnqvQCieH4eobW7v5inmmNrgIvmDhiQEJ2IAUsDF55VVqQFoiA7aGLKheptpGJtkFcUVIoJKUPc5V1SNkT7nCTqjiVJI0o7JUQSbNcNW4v6o0ZOOVesAtwR7IImqUSgtSSuyKrJqUVdnjeqkOsu1xFaqyME+qXqxn14UrJQXSv6rJ/n1jAvWNJ2sEGQgAgbEn8InEBLPmfuMVvM7cZj4maGAywzNwLd/KSUvHUGAtXBIYr8ez1NUXeCyL41s5ITN7Z+957uHaOoa4FHUNVXP9oiypJHKo6vKqxi1uyZACWSMpUwVxFhKopCpjNS0k5xWyg9gz6ZMyIMuSZmR1pB9SRvZYo0ZA3nDVqirCeuQKOyQropS4CGlDKXFfyLK4MUoJUJZsh1SPKG9D+lTqkK0km8HOhZiAzQQ0QODTI/CBY4LJhpZOCwLRJoC5rsFf2i9CiL+0X4SVTgsCJxtaqkKPLlXLVqT5rUj9ytkXm9nOWersFoqSn+kaLVgaMW2GM4fhzpjtvuCbyM8mGjOTTd181uD4AF92sQd8cSc1SGZfhZVeT7FSjUA6Z7slc0mZmhXILEqmqqaSqoyH7Dv2Q3mgkmwztgYVIfVYxgJ2S3acKkgaY1mNQPrEZ5/yj4tjY1JQlYv1bEEpWGymNJesEcm4kewsrEE+/4+9M3Fr6vge/r8RbaOoqAkoGKJAUdmKCAbFBQSRIghIWCMRg7KKyCJWRFAERAQVrcUNpG6Iglpp1ba2brUidfuVVUgIgiCm7zcd39PpvUkMigXp8cnjc+bMmTNnPne4czL33lywBAEMQIAqWoBaEDAnABQoIIERTGCIc4KxhgKhlWjG7PnkY2xmR1gbm9mBUmglGmso0HYMyKlqnpt46vTPlwclTv3rGgGHyxMtDaHPcf6SdBvn5Rwuz5BvsSwwdoqZncDSyX3FWriOAOdQjcsD+6wNGkYvdJy0DejpjkBJBOKKodRRBP861hKwYfQLem3jpccFMTCc0P3SDml72o+OAdLNQQaBdkhkqKL96zCDUKEhw5ihJ0WGEpowYtCmh+YgQBh0E921tCU0J03ohhrNwJ7UarRnK9kaDpeHOQGDMBaRwIgkMMQ5wfszpU9Vts7eS/3WjTWcxuHyHOb7Oi8K1Oh/7qKAeW7i+R5hMz93YxgwzoaMIm3MqGIUiSUoQYBzNK3R4ZauApleBRky2IAAHRGBUQQzIkAtxMkwoM3AmOGZbgI2oGRraJ9gplHJGCyjX9ozyCDAiGgN3QtDT4oMJSM88MnQQyu2oLEJmGmspZ2DJVugzRh+iDE00WFJqjRa0n9otIeB3k+g0TntEGUkgASGkMCIygnI5QByBWGKmZ1620Boz+HyPhk3xdpxGTyPwDOZpX6eamWMwSQhAz3jhMUo0saMKkaRWNJrGN2WccqGKo1OoFajoLsJXUtk0IAAbhkaRhHM6OCJDf0/bUYsaQhEZtiQIqM7aKXRmFZCQxAY/dLGdPCgh/ihU4iT9gn2tKDRAPwQS4YNo8gIiV0LTugqhkwX32pPx0/3Dk5AoC0xJ6BpoIwERiqBEZUTcLi8qTMcvMWJ5BrEDOsFK0I2+gQn+YZumrPA/5NxU8hRHD3GaMGyCHsXH/ZBZZwNGUXanlHFKBJLUIIAHtgaqNJHgOZsgW4OtXDqh+WKriJNGBpGUaNbsAGBNtNfJs31cQI2OgQYLC1AMNBQh0afKh02jC50FxlBMoyhF4bwVjPagMi0hvYGerZAmw0oJ6CnGf2kInRBe0YZCSCB4UPgo88J3opyrKGA8RNGhnwLD//1PJNZ7Lb0OQu+LLLN4DxOn/tA1mgPSj3NwJ4tQJCMCEFPmkCRNqOVtGfQg5KtYVTBQGiBtqH1bJm2pGU9LckhgCBJK/CjUQDPjFpwQuu1GdM22mTaIUOmizAE6Ist6NOFNhvwDwbEP6PI7hQ0YIkCEkAC/xECIz8nYBzIcZOELh6hcxcFMPRYRAJIAAkgASTwHyfw38oJxk4yc/OJmrPA79NxU//jBx6HjwSQABJAAkiAQeC/lRMwBo9FJIAEkAASQAJIAAhgTqDhXclABwUkgASQABJAAv8dApgTYE6ABJAAEkACSAAJqAlgToDzAAkgASSABJAAElATwJwA5wESQAJIAAkgASSgJoA5Ac4DJIAEkAASQAJIQE0AcwKcB/8VAga86ZMFNv+de4VwpO9DwIA3farl3PfxgG2RwMdIYIhzgs+clsl2lMfknY7JO+3oETqIBD+cZ41BWtuLQsKjwiQy+uO9Ikij8UCVaZu3tbd3KJVdSmVXUXHpQJt/IPufbv5ytuoCOLe2F2Vl7xK5eoDmwwnh+V8lnb6adPpq1P4Kvrn6lRYcLm/OirCEilqiXxyZwOida2gamJDvJk4E/cQpgrgsicDKKi5L4u7/5iXdk0yEwlkz4SOwsvrEwGgcz5QIpO0kE6GxmTmRPzEwmrdUtDzE02zmTNAIrKyIBxMLy1Fj+NAK3I7jmRKlsZk5bTN24lSzmTNJrcMiJ9nmUIGVVWphtMDKitjr/7/rkuX19Q1DMltk6zfEJaToH+rwtOSZ2Yan7beZ//fr14dnnBgVEhhcAkOcE3ANTaeYz5luu3BN1lGRd+Qgju3DedYYJCzbPT09/f39XV0vlMqun27+otGYKL1XBNV9dz06JkmHDakiCUdcQkpzS2vpoSNvtf93DO7/Vn/pSh30tfnL7QpFZ8bWbNB8OMHUep7FPI8vkrbFHD1vbOlAOhpvbGE+181mqX/cseql0cw1yWt1ekDsTlihOVzeJBPhpnyZcNbMTfmy5SGexElI3MqCk6mFp9KKq7YUnEzN+ipBYGW1PMSz5HyGT7gXsZFuEm/Kl3G4PL5gxpb9sTuOJG3KlxWeSpNsDBo1hi+cNTO/ImX3qVTiZ/vhRHPb2RwuT7pJXFyVUXAyteCb1L1nN4fG+48aw1/osyj3RPJspzdpTcBan+yvE6eaW3C4vHlLRQk5UuGsmZkHE4Sz3iQc+iN18/BtbGwaktly+869u/fu6x/qkFtq+0ucLfoiMrPM+P+/fn3I48QAkMC/QGCIcwIywgnGlpGZZYObE3xoz9qOTemhI42NTW4eb/96ESaRPX/enpmVq80VQz+EZ3lGJKTIyAk02nxQ5dLoFDonIH0ZWzrEHD3PyAmmmM+RbiuzdHyz8BNLyAkScqTzloroUJeHeGYeTJhk8ua1mctDPPdf+BI0kBPINoemFa0bO1H9m5ifu87deWzj5wvnCmfN3Hk0iTgcO3Fqcv7ahB3SUWP40IrD5bksm593Itl+vuPYiVPTitbJNqt3yPiCGdsPJwasffNqLsgJNuXLIBI6SN3ycJstuqMd2lptf4mjxvADE/M9w5j55dBGi70jgQ9KYJjmBJMFNqEpJRuKLyYWVfutz+YavtlrdXALit5ZmVRSG72z0sHtzc68qZVzRMbBv4wvBsbvmmCk/ppFPnpmG+JQaX19wzenznV396hUqgf1D718VnG4PEO+8OixCqJsbmlN3Jhu7+h66/bdrJw8Q77wxg83s3LyrGycbt++t7toH+mRnRNExyQ1NjWrVKqXL1+erbpgyBeSfd0XL7pfv37d3d2jVHbV1ze4LlnO4fIio2IfP3mqUqn6+/tv/nxr8dK/X974gc7yZOxHj1XI5Yo///yT7G2wB05Gl7gxvbWtTaVSNTY1NzW3kH2CouJScl2jvb0jbfM2gK9jLGADgpHF5xEFX6VW/5ha/WNEwVdGFp9zuLzRBkYrNmUnn/0+veZm4snLrhGxYM/h8vTPCURfrInIODj2n6/GHjWGP2W6+ScGRnzBDLKug3N2TlB0Jj2/IsVvzRfkGz9ZpzMPJiwPXUZajeOZRm4Su37hSucEHC4PXNE5gbnt7J1HkxwXz+NweQt9FmWXbTCbOdNj1dKswwlkk4DD5Y2dOJUvmPGJgdGU6eb09gYEqVugZ0ty6pbGxqaDXx0x5KuznFCJ7GHDI5VK1dfXV1N7xdpeJJGu/7//a8zKySM+Ra4evz2or75Qq7sLRi2Z1WQm0DtkZ6suXP627kH9Q5VK1d3ds7/0MGm4eKnPzZ9v9f/1j57qRcWlt27fram90tfX19/fX7CnhMPlsY1dlyz/9f6D//u/xtevXz95+qy9vePVq36yL8I25nB5Gv/GdfwlkiAdPUIjtx6eYGzJGCwWkcBIJTAccwKuoWlY2j5x0h5yU5h069fe0gwOl/eZo+e63JNOXpLRBsZOXpJ1uSc/c/QcO0kYnn7gi7VbRxsYTxbYSLeVuYdshKOlZ04QJpEpOjvrvrsucvUIk8ha29rOnKvmcHlFxaVkP1xgbnu+ura5pdXLZ9W1Gz+eOVcdKF7d3t5Re/mqj1/wk6fPklO3kE4ZOYFfYFhLa9vlb+sE5rZxCSkdHfLDZceJJfvbiZOL+++PHl+tuyYwt/X1D21qbiFhEHv6LA8DZAsi78ikklr6o3sDJkwiUyq7mltaM7Zmh0lkq4LVV3A0DtzLZ1VzS+v3126IXD02JG9WKDpJTuDk4h4mkWVsze7okMO2h5WNU319Az2WquoadrREM9rAKKLgq7WllVNnzZ06a+7a0sqIgq9GGxgtlMQlVlyy8QgYbWDknbg1vrxGOGcRONE/JwiIz/NbP4CLGrCQk76Wh3jmn0wJSwgkazZZ3RlrP0RF6xn7BOl71wlnzXT3X5JREpO4U0oSEfVWwZ5oycagLftjYZMAvL2zALMlOXWLXK6oqq4hCYHI1ePxk6fXbvwocvWIjklqa3t+7ESlIV946/bdW7fvEpuc3N1yuWJd7NuvatHhGfKF/kERYRLZtes/3P+tHqouXamTyxXpW7YLzG1Pna7q6JAHilcb8oU3f771sOGRp3eAp3fAw4ZHN3++RXovPXREpVL98OPPsvUbJNL1i5f6MIyfPH323fc33Dx8nzx9VlRcurtoX6dSGb8htaq65v5v9RqNOVyetr9xUqVtx87CwV2WUy60cYXhoIAERjaB4ZgTMP4OnZZFrMk6Onna7GWStPC0/Z+ON+FweZ+ON3FwF5tYOpHDM2oMn29mN8XCcWVMTnDyXjhm+ucE9Enh2o0f7967b8gX/nr/AVwyDxSvbm5pzcredbjs+C+37uzKL2pre3733v3EjemPHj/x8QsmnTJygqLi0uaWVqitqq5p+P2xlY06bHZOQDzAufXGDzfpcyuc5WF0gyKESWTt7R1Z2bvAm7aBZ2Xv6uiQR0a9+bLOuHbAGA7JCa7f+Ilsdbh5+Oq449J8rltCRe2CsPUkBsv5ngslcQb86aQ4cdosi3kezv6RiScvOwdIIU79c4Lg5L0krYS2ugWNOcHsufZk2X5rTgD3ExSdSc8sjSe3H0o3ifMrUpJ2RaXtid59KjVykxg2J9wD3Pae3bz98Js7CXTHpmctmS3VF2rlckVN7RWy3HK4vMys3OfP2yXSN6jPnKt+UP/QkC9MTc+UyxWp6ZkcLu+7729AfqBnd7TZpSt19LylizHxyR0d8oyt2SHhUe3tHbvyi0hDiXR9wZ4S8ndReuhIU3OLh9dK8CmRrqf/PIuKS//4o3FjypZHj59kZuWSEYVJZKWHjtz/rV6jsYfXSsb8JH/jpAtGFfTL4fKmWDjKcsqtXf7erqNrUUYCI4/AcMwJrF18ZDnlUywcCW4oipP20Os9HAxnr4iYvNNR24+LkwrXZp+gbd4tJyBnMXJW/fOf/0oPHcnYmv2w4VFN7ZXqC7UPGx4dO1FJEggSDyMn0FHUeCbaX3pYqexqaW27c/fXtrbn9LlVz5zAxNJpga+M/kDmBMRogR2GtoEzxqI7JyB71Hfv3e979apTqTxfXavjkYS5fuFJp67S6z2J0GS285p95Umn66IOnFyzr3zj6Tra5l/OCdRf8QPccsqS4revJjcn7ji2cZ6HCw2Tw+UJZ83ccWzj0lXu1vMcsss2kMsNcMWBGFs52OaeSIaHHSYYTfvyQNyqdX4MV+9TJAdRpVK9etX/9ZET4Kr00JF/zug/ye0vJIf77vsbIeFRrW1tObm7oclABToJ4HB5dBEmW8bW7E6lEnaV6C4Y04zkMX19fXTYSmVX9o58jTlBZlYu25g8DUQnFhqjosMgMuYEbCaoGdkEhmNOMNN5uWxHBezX2S8KjNp+nG9m5y3NCNlUTK6tko2BsZOEfDO7qO3H57i/+ZruLc0YrJzAysap4ffH7B3vQPHqx0+ePn7yNDMr95dbd369/6Cm9grMEsYZbX/p4da2NtgnOFFx6n87n04u7hr3CQLFq1vb2uDWBPq0xeHy9MwJZs3zFicV0p9Z87whPLYAp2mo0jbwAe0TCMxtA8Wrre1FhnxhXEJKY1Pzd9/fgC4YgsU8j4SK2nmr1hD9xGmzzD5fONrAyDd1Z/Shb8Ybq28QITZDmxNMMJqWURJTeCptU75sHM90y75Y/6g33yAnThGkFkYvD11GXzvwW/PF9sOJfMEMRk5AkgBJkvqeFfKhn30A5fsIZLZc/rbuyNHyFy+64V4Bsr8VEh7Fdl5UXPr8eXtN7ZVHj5/oSODYDRkaxrylizDZGLtTTi7u/kERcO2AcZduTHxye3sH2cOAvtw8fDXmBBqN2X9uGqMC5yBgTgAoUPiPEBiOOYEBb3rE5lLvNV+ONjA24E0PTi4KjN81agzfbqF/TN5p8sTwDLtFspxyu4X+U8znRO+sXLByHYfLM7Vyjtp+bLByAg6Xd+xEpVyuIA9b+/qH1l6+6uWzysrG6WHDo5ZW9Up/ouKUXK6ALVAOl8fICcSh0ta2tqPHKgz5Ql//0MamZnim38cvuLWtrfzkKZhqIeFRcrni6LEK9RKyNralte0d9gnAm54CnKZpe40DJ/cTnDt/0ZAvXBUc2drWBhdW2OfcQPHq58/bj5d/Y8gXCsxtf/zp519u3YEurJy8VsbuMLVyJhoD/vSo/RWRRUfHG1twJ04Tb98btb/CgD89YEtB7JHzJrOduROn+abs2HT22rvlBMskaeKkPdD7WwWN1w7IA4ELfRYVn9tMnkUMWOuT9VXClBnqlMVt5ZLcE8kzHe3onGCquUX214n0nYkcLu8TAyMvsUfByVT6YQf9c4LJAhtHj1AD3psLK9rGAhmkIV9Ye/mqXK6Qrd/A4fLIQSQ3uBjyhQcOlu0tOUickFsNent7S/Yfot2aWDo5uIvJNTtar02ml1tt+wRkW+LO3V+t7UUCc9urddfq6xvg2gEjJyDGd+/dJ5lKVvauisrTX/iKNeYEGo0N+ULGPKeDZP8lwtCsXXzWZp+YYj4HNChihft+AAAgAElEQVQggZFNYIhzAmsXn/jCKvqGOHLd19TKeU3W0biCc/GFVaEpJROnqp/PHjWGvzgwLr6wKrbgTHxh1eLAOLJnsCgwNrGoOmHP+XW5lRHppeSeA22eNR5ObecLa3tR7eWrfX19L1509/b2Vl+oFZjbcri8K99+R57ATk7d0tb2HC6xs3MCDpe3JTNHoejs7u7p6+u78cNNa/u/H3s7XHa879Wr3t7eTqUyKlr9MzvlJ0+9etXf19enUHT+/ugxufmAvR1KL8YaR6S/kjF20lDbwLdtz+3p6Xn58qWis1MuV5Aw2NvR5PbvgsISRWdnT09Pb29vY1MzTck9ZGNi0UUHdzHEaeHsvu7rMylV11Kqrq37+oyFs3orZbrj4vVfn1U/jHD+hvoiwqmr5J6DNSXl6TU34ZN0+qr6hoMAacr566BMr7kZmFlI/Nst9I/MLJs8Tf07Abo/0k3i/Re+hE/+yRThrJnkHkOSE5CnB0lOMHbi1HVbw4vOpJNfI3Bbqf7hIzon4HB5IXEryUOM4Hlf9ZadxzYu9v37ZkkOl6d/TgCX0nQPBHICDpdnbS+6c/fXP/5oJE/TkIdHent7e3p6mlta6V/IOFFxqqW1jZiBf5F3ZGRm2VvvvSc90jv8ZGmnV196soVKZM+e/dH7179nz/4Ilah/8kHjXxC5DvX7o8d9r151d/coFJ1Z2bu07RNoNGbnrHRU/3sQlP2XSIJZFBATmlKifz4E0FBAAh8pgSHOCXRTm2BsyXh+7K/n04z5ZnajDYzptuqHDqbNfodHtmgn2mSBua1/UATJBrTZvFXv5bOKzgbA3tpe5OsfCreA/S8tEJjb+vgF0xow/pcFjQM35As9vFbqH573iiByrYQOftQY/nj+m58CpPXGlg7wG0SgN7Z0mDhtFhTfQTDgTQ9PP+C0LOId2r61CXlo8K1mg2Xg6BEqyz7BN7N7T4duHr6MX9Eg37DZF8vcQzZKMg6x/xLfMwDSnB2GDrdOLu467lRlNByQMcmcGH+JZNoM7u+rMoLEIhIYbgSGdU4w3GBhPB8vAZv5vhHppWTD6eMdxWgD44D4PK/V6YM+BDcP3zPnqlvb2sShfz/ZweHyxvHMIzaXir54c6vHoPc7nB0uWLluVWI+/DjKcA4VY0MCg0UAc4K3bCYPFmj0M+QE5i1f7RmROuRhvGcAow2MP8R+2E83f3n85GniRg3Zxgfq8T05fOjm02a6BMTlfuxJ5IemhP5HHgHMCTAnQAJIAAkgASSABNQEMCfAeYAEkAASQAJIAAmoCWBOgPMACSABJIAEkAASUBPAnADnARJAAkgACSABJKAmgDkBzgMkgASQABJAAkhATQBzApwHSAAJIAEkgASQgJoA5gQ4D4aMAN/M7j/18DffzG7iVKuR9/ASjggJIIERQ2CIc4LPnJbJdpTH5J2OyTs9uL8X9uE8uy5ZXl/foFR2KZVdP938ZZhMhbNVF+hgDPnCzKxcT++AfyG8xZEJSaevJp2+mlBRO2dFGOmRb24ftb+C6MPzv2KHof4RoYyDxjMcoEq2OdRhkVNI3MqQOPV7cj8xMBJYWQlnzaQ/JhaWk02n0xoij+OZjp041dTC8hMDI3AIAsMz6PUUxKHSJ0+fpW3epqe9NjP7RQFhafvwkXdtfFCPBJDAkBMY4pyAa2g6xXzOdNuFa7KOirwjBxHHO3jeX3r41OkqRgzeK4LqvrtO/ya8IV/oHxQRJpFdu/4D/Y4iRsN/ucj4/XZxqFQuV+wvPfwvhDFx2iyLeR5z/cITKy7BO4pGGxiZfb7QYp5HyM4Da0rKGWGYWjlHZpZ95uhJ6xNypPOWiqSbxNJN6vcgCKyssr5KKDiZuvtUasn5jIJvUgtOpqYWRks2rio4qZaLqzKKzqQT2d1/ybylop1Hk8hbCWi3HC6P4ZlR+9Yi/Sv9bzXWbeC1Oj0gdueH+NEh3f1iLRJAAkhAHwJDnBOQECcYW0Zmlg1uTvAOnhnLKvGgYz3QaK8P9A9hM+TBsN9lTIYZmFnIzgk8w1ICE/MZSyOs3MtD/pEraFvsN+XLSPZAOtJmRucEDM96Hggdc0BPD2A2xXyOdFuZ5T+TIahFAQkgASQwtASGaU4wWWATmlKyofhiYlG13/psuOrs4BYUvbMyqaQ2emelg1sQYWdq5RyRcfAv44uB8bsmGKnfXUs+emYbRcWlSmVXb2/vq1f95KJAUXEpuUbw4kX369evu7t7lMqu+voG1yXLwfmHWIZdlyy/c/fXI0fLm1taVSrVo8dP7B1d//fmp4LCErlc8eeff8rlioLCEhJDqET2+6PHKpVKLlf8/ugx2bRI27ytvb0DRgHRevmsun3nXn9/v0qletjwCF5DBwa0MNrAyCs+I/ns92kXf4o7Vm3nGUhq56wIjzt+Me3iTynnrwd+uXu88d+o9c8J1Adl62H2pSK+YMbYiVMnmQjH8UzpYLQt9vrnBNo8073okOmcoLBof2NjU1ZOHofLM+QLjx6r6O7uUalUzS2t5IeBqy/U3r5zj7z2l8PlEXuJdD34D4jPIy//BA0KSAAJIIFhQmA45gRcQ9OwtH3ipD0GvOmTBTbSrV+Tc+hnjp7rck86eUlGGxg7eUnW5Z78zNFz7CRhePqBL9ZuVb8aUWAj3VbmHrIR4OqZExB7jWs8vR6AWx32DJspFo4xeafol0EHJ+9l2NBF8sJZRWdnwZ6SMIksInIdh8tLSduqUHTuO/CVwNz20OGjcrliXWwSeYvdg/qHnt4B4lDpH380kpzA2l4UEh4Vl5DS3NJK3llM/H/3/Y37v9WLXD1Erh73f6u/dfuujncbLo5M3FB5ea5fOHfiNN+UHfHlNTPmLjGzXxB/osY7cetoAyMbj4DEk5cXR6rf70w++ucEFg7uspxyoY0619Hn8/45gT696LCBOVBUXNqpVB44WEaMi4pLFYrOjK3ZAnPb89W1zS2tXj6rUtMz5XJFanomh8sjx+i772/Qzt1DNpLXedNKlJEAEkACw4HAcMwJGGuG07KINVlHJ0+bvUySBifTT8ebOLiLTSydCMRRY/h8M7spFo4rY3LoRXfIc4KBHmOSExwuO043vHSl7tf7D8gS7uTi/uTps8NlxyOjYjs65FnZu4glI6Ehfhg5wcOGR36B6nsAnVzc/YMidOQEkXuPheQeIJ4nm1kvjkwU2M0nRe7EaTPmLrEQecoOfhOYWQhx6p8TWLv4yHLKp1g4QlvdwjDJCaqqa7q6XsChMeQLf73/4NKVOhJ8oHh1c0trVvYuQ77w1u27JOVaF5v0/Hk7yQ9gjCLvyMjMsgnGlqBBAQkgASQwTAgMx5yAsWZAUZy0h17vgaCzV0RM3umo7cfFSYVrs0/QNkOeExjwpjt7RSzwlcHHZoEfRM4W2Gs5h8u7/1v9n//8d+lKXWZW7vPn7WESGXHy1pxg8VKfGz/cfPnyZXd3z40fbup4JIFvbr++7By93pMuRhsY+aXtTD7z3fqyc5FFR5NOXaVtRnZOoFR2vX79uqenh1w14HB55Ej987D8SZKwnNzdZC+nqrqmvr4BriMQjJgTsKc9apAAEhgmBIZjTjDTeblsRwXsLdsvCozafpxvZuctzQjZVExuTCMbA2MnCflmdlHbj89xDyZAvaUZwyonmGQy2299jjipED5u4kQdx15jTnDtxo/srf4B7ROQZyWcXNw5XF5IeNSD+ofstYqOak1JeVDWm2sc3InThHMWjTe2+Nw7OKGi1sbjzfONa0rK/zs5gULRefT4ydrLV+VyhWz9BnJdoOH3x1XVNTQ3IotcPR4/eXq17lpjY1NRcSnDAHMCBhAsIgEkMHwIDMecwIA3PWJzqfeaL0cbGBvwpgcnFwXG7xo1hm+30D8m77TNfF8OlzfDbpEsp9xuof8U8znROysXrFRfdze1co7afuydc4ITFada29rI7jocIR+/4Na2tvKTp0ADAuOrOejfR9CYE+Tk7lYqu3bkqjfqRa4eF2suR0bFkmvVP938xdpeJHL1aPj9zT2GpHeGH3LF4WrdNYG5rSFfeOp01ZOnz0iKwOHyuIamyyRpiwJi4EGA5QlfJp68PGuxD4fLWxC6LqGidvYS37l+4UmnroqC1nK4PLV8+h33CaaYz4nafnym8993a+om9uGuHZhYOjm4iz8db6I7ALifwNpedOfur3/80ejls4rD5R07USmXK+ISUjhcnq9/aO3lq0TP4fJK9h/q7e19/OSpyNWD4dxbmiFO2sNQYhEJIAEkMBwIDHFOYO3iE19YRd+CR24nNLVyXpN1NK7gXHxhVWhKCfmZl1Fj+IsD4+ILq2ILzsQXVi0OjCNr2KLA2MSi6oQ959flVkakl5J7DrR51gHdy2fV02f/9+pV/6tX/d9e/R4sD5cd73v1qre3t1OpjIpOYG8aNzY2uXmoM5X3/zDWcuKQ3N9Otv37+vp++PFnstLI1m/o6JD39vZ2d/e0tLaRewwzs3L7+vroPW1yzTtxY3prW1tvb29PT49crtiSmQPR8s3sZDsqwtMPjJ0kJMrxxhZBWcUp568nn/0+6XTdIkk8h8sz4E8PytqbeuHHlPPX445Vxx2tJvccLI1OSa+5SX+WRqcYWzrEHD1PK2OOnje2VP9C0afjTUJTShYFxEAAugX9c4KiM+n7L3wJH/pJRY1d6PmVHXICDpfn5bPqjz8a79z91dpeZG0vqr18ta+v78WL7t7e3uoLtQJzW9IRSSWPnahk9PvpeJOwtH2u/n8/hsAwwCISQAJIYAgJDHFOoHvkE4wtYZUCy9EGxnwzu9EGxqD536N66ocOps2Gr7l01UBl7xVB8AUa2lrbi3z9Q3XclAeWH04w5At9/UOt7UWMLjy8VsJSxKhiF908fDWmL2MMBfDAJ7Qab2whsJs/+p+/DDje2MJktjPYvJvg6BEann7AgDf93ZoPViv3kI2SjEPsOTYg/wJzW/+gCMYhyMnd3drWFhIexXBl6egZmVlG/3ojwwCLSAAJIIEhJDCsc4Ih5IJdf1ACXEPTVYn55IrPB+1Ih/NxPPOIzaWiL9bosHmHKoG5beLG9Mam5rNVFxjNuYamQRt2z1/x5rZQRi0WkQASQAJDTgBzgkHY8B/yo/gxBjBx6syAuNxpM12GMPjRBsaDsrdEDyFt87bWtraq6hr2jo7oizUeYcmD3iPdO8pIAAkggfchgDkB5gRIAAkgASSABJCAmgDmBDgPkAASQAJIAAkgATUBzAlwHiABJIAEkAASQAJqApgT4DxAAkgACSABJIAE1AQwJ8B5gASQABJAAkgACagJYE6A8wAJIAEkgASQABJQE8CcAOfBx03AX5Ku54M3+ljqY8PoTncTutZfkg4fhhMOlwdVbIFhTPukq9h60IBA2+sjsxuChh0nVOnjmW3zbs21tQK9PnFqM2YHiRokMLIJDIucYNQYvrWLz8SpVgzWDm5B0Tsrk0pqYwvOfOa0jFH7bsWfbv6iVHYplV319Q2uS/T9yf1360ufVp+MNeIaTNHHkmEznm8emlLi6BHK0A/z4icGxmMNBRAkd4IpXQS9/gKczd/aRB9LYsNeRXQ4f6tbMGALtFtGLaNIW5IEgqHRqGQ7oYcGHjQqSS14AGONHekwphvqaAtVdDCM3ukqcMuwAT3tUKPMtgQzUqXRs0Yl7QplJPBRExgWOYHxDIfonZXOXhE0SvWP8GefWPjXi3m4hqaMHzOmLTlc3pbMnNrLVxm/Sezk4l57+Sr9w/4cLs97RVCYRFZReXoQX1LACEbPonCazYbgDcczvvIUrXhrk7GThMsjM2bN8wbLAb0GGloNuWA2c56bTxR3nPq1Q8Zmtl6BccZmb94RoH9s9NqgUQZXGmtpJVjS6wHjvM8oEkvaCS3TDhky+AGBNqCdMGTaTIfMcMtwQmrBBgQdA6erdPQLVbRPUNKCDgOoAoHdO1QxBCjSfYFMatn/EwOaEvvIghNa0N0dbYkyEvjoCAyLnEAjNWsXH9mOclMrvX5av/TQEfYar/F9QqQvjfYaw/hASgfrBQc27o0LjD+wca8+OQE7A2BrPlCog+sWcoIJfPNlgbE2c99r+0f/s7M+lmADAhk7o8gAoruWNgZLEOhaWn6rATGm1zOQNfoBh2yBXnpJLbgCge0TqkCg/dD2tAy900oiQxUIbIdQRQQosi1p/xAhLTAM6OJbZbrftxqjARL4uAgMcU7wmdMy2Y7ymLzTMXmnYRvceIaDdFtZbMGZxL0XY/LPxOSdDojdqQ1r2uZt7e0dPT09/f39XV0vlMou8jvzP938pavrRX9/f09Pj1LZ1dTcIg6VgpMhzwk+GWs0isufMMksPyb3rTlBQOzOmLzTiUUX4wrOxeSdlm5Tv0SH5AQrZFnROys3FNdIt5VB/gTXXKJ3Vjq4BXG4vPF8c3FS4ZKgBLYxMPl3BJITjJ88Y8kXUfPcxKPHvnmX1afjps5dFLAyPHVleOrcRQGfjpvKHWeyYFnE9Fl///ixw3zfuYsCRo0xIqHCqZk+14OSMRxaT8tgRpyAZ318gjE4YQjghL1o0d2RWjDWKIBnqAUNCOxxgTFUsTV0bGCm2yfdhFiShuzm4IfdhFEFbekIQcnuhVHF8A9OoBe2PV1FaqEVLYAZLejwRpuhjAQ+OgJDnBNwDU2nmM+ZbrtwTdZRkXckjU+9T5BTPsXCkVZqkzWu8e+/T+AtzaDf4xxfWGXt4jPFwjEm7xStD07eqy0w3Xo9cwIOl8feFSCakE3FE6daTTCyCE8/EBCfx+HyPnP0XJd70slLMtrAWOSzJnpnpZn1AmIcnLyXYaw7vA9RazZznvuKtS7uIe4r1nInmEIXcxcFLPAM54434Y43WbQ80t7Fh8PlzZrjsegL6Sfj1PdbGPItlgXGTjGzgybs8zJbQ4wZekaR7ZBhwC7SawZbBocae2fUaiwyemTbgAEIjEWR0TWYsQXSEEbB6AvsQU80DL1GJTRhBKNRr9GhbkuImQgMYwYQbcaMyOkwaJnhXEcVwxKLSODjIjDEOQGBxV7wOFzecMgJ3v9YkvsAxEmF5OO3PmeSyWxw+/45ASRS81esjfzy8Hi+ubc0Izh5D3nRzthJQknGofkr1jIILwqIIcYQiT7CJwbGNk5e89zE5DNngR9Z1Pmm1qCc5yYWWOq63GM2c97KiFS/8JTlQYkTjS1Jv+MmT/fwX28ksCZFUwvHJV+s+XS8icEkoefKGIGlE4fLM7d2XewdSfIDWMbosLWdptkLhg5L4pBhwCgyOmX7pw1gZWKsSRp9sm00moFPRrRsY9qhDmNoqEOAQREb2jORGVGBPQjgHDS0oM0t3QpkEGgPbJn2SdfSzemBwLwCJd2KlmkPtB5lJPCxE8CcQNeTeBYO7gt8ZfAR+ayZLLAx4E139ooA5QJfmc0CP23z4NPxJg7uYjB29oow4E0H40HMCUTekZGZZROMLYOT99J7GEkltd7SDEZOAMYQiT7C6DFGJjPmzJg9n3wEls5khR43eTooZ8yeP2kK8/kR2rnZzHkrQjZOnf75PDfxAs9wcu3ASGC9InQTnIj9JenLgxLGTRZyuDx7F5/5HmGfjjdZ7B1pbu1KXMG5nn0Sh/WJbck2pgOjlzTGGZ9RhFaMMEDPEKA5CHRftDFtQPRsDVsPNiCAT9DQAnDWYQYRQkOGMUNPigwlNCHCgGo1GoNSh0B3CmYwHFrQaKmxCW2pz1jY9qhBAh8LAcwJdOUEzl4R8BVfnFQYGL9LMHv+JJPZfutzaL2bOPHdjveHyAn81mcHJuYzXsg7KDnBu42R0ervewyNLLwC4y1tF6qvCxhZevrH8ExmMYw5XN5kk1meATEzP3dz95WNnWRGG9Cnb23nemKvpyWYwaoJAt0vwyfdim3GCIwYQxOGPVvP1jB6pz0wjCF4EOhgaGOQQQBLWkN3zdCTIkNJx0a3ZeuhOzAjMTMswT9dq6NrsKfdMnwyqoAV3QWjCcMtoxaLSOCjJjBCcoJd+UUKRWdcQgp9MKxsnBp+f3zt+g+GfPU3Tvqj8f4D2uDfkfXPCT4dbxKett8vejss9tqWebuF/jF5p+0W+XO4PAPe9GWSNFMrZ23G/84w6V4gJ+BweTOsFyxflTDR2HL0GKP5HmEit2Cy8WAksLW0XQStnBcFrghJnjXHAzREYJyaGUXamFHFKIKlNj0YQL+0JUOmi2+1Z3uGJgxBmyWY6VjD6LYQHghkPYa1kDZmLNXQF6MJdE37ZPih2+quIk7o/8GeESRto7FrMIAIwRUIGn2SWm2tNPYFDlFAAh81gSHOCaxdfOILq+i9bm9pBgE6oPsJrO1Ft+/ce/Wqv6+v77cH9QLzN4+8b9ue29PT0/vXv6wc9S1493+r/5P6p1R2hUlkQ3UI9c8J1DdYzPeNLTgbX1gVX1hlM99X2zI/agx/wcp1cburYgvOJOw57x+z04A3XZvxvz9wOicYPdZ4gWe4i3vI6LHGBpPNXL0kvmEpPsFJXoHxRoK/f7Rg6vTPvQLjDPkWjGgZp2ZGkTZmVDGKYKlNDwYahbe2og2ITGton6BnC2wzsKGrGDLY6BDohR/MwI8+Gh3GUAUC2yGpInqoZQt0nHQTtp6uBT8QgEYBeocUARMCjaBQOeIJDHFOMLh83Tx83Tx8GT4F5rb+QRGQJTBqP67iaANjvpmd7p9vIiMaNYY/WWDDNfz7xv6PYqSfGBjTDyOQmO1dfJwXBbLjp0/32s7gpJW2Mz7tAZYWxqoARXYAtHNttaBnRKixCH2xBdoPLetpSUYH42X0Dg5pATzTSqDEVurjk9GKLkJsRMkospUQHi2AQ7o5bQAyWLI9QxXtBJQoIIGRTWBE5QQj+1D9B0f3iYGx0GresoDYyZpuNfgPAsEhIwEkgAQ+KAHMCf5xn8EHZY3OB0qA3Fo4dfrnA22I9kgACSABJPAOBDAnwJwACSABJIAEkAASUBPAnADnARJAAkgACSABJKAmgDkBzgMkgASQABJAAkhATQBzApwHSAAJIAEkgASQgJoA5gQ4D5AAEkACSAAJIAE1AcwJcB4gASSABJAAEkACagKYE4yEeWDAmz5ZYPMOj51gk/8gAQPe9KmWc/+DA8chIwEk8FYCmBNoyAl+uvnL2aoLwM7aXpSVvUvkyvy9fTAYRCE8/6uk01eTTl+N2l/BN7cnnuesCEuoqCX6xZEJjO64hqaBCfn0e5gcFjnJNocKrKxSC6MFVuq3FI4awzexsBTOmgkfEwvLUWP4k0yERCA+x/FMzWbOHDtx6iQTIVhOMnnztohPDIwEVlagF86aSapo43G8N7+cyDY2NjMnvbj7LwmJW+mwyClpV9TEKQLGcN5adF2yvL6+oai49K2W/47BO0wPcaj0ydNnaZu3vUOETi7uBXtKCvaUOLm4v0NzDpfHM7MNT9tvM5/5i5/v5g1bIQEkMJIIYE6gISe4/1v9pSt1cJg3f7ldoejM2JoNmg8nmFrPs5jn8UXStpij540tHUhH440tzOe62Sz1jztWvTT6H+954nB5XqvTA2J3wruROFzevKWihBypcNbMzIMJwlkzOVzeJBNh5sGEwlNpBSdTySe1MHriFMHnrnPzyjct9FG/cGjUGH58dmRa0bqxE6dKN4mLqzKI5d6zmzfuipo01UxgZZX1VULBydTiqi3EVUjcSg6XRxsXnUkPjfcfNYYvnDUzvyJl96k33RWcTI3LkpDhLA/xlG4Sz1sq2ly8HhIO/ZG6efg2NjaVHjqif5MPavkO0yNMInv+vD0zK3egge0vPdzT09PY2NTY2PTy5csDB8sG6oHYzxZ9EZlZZjzjzQR7NyfYCgkggZFHAHOCt+cE//5RXxqdQucEJABjS4eYo+cZOcEU8znSbWWWjp50kJATbMqXwVf5zIMJy0P+YUbyAGlqcEZJzASjafOWigpOps5bKiLL/Kb8N6+Gmmpukf11YtB6P9IFSS9oV9JNYjB2WTY/r3zT5wvnCmfN3Hk0iXijY+NweZATJORIGVX6FIdbTqBPzAybd8sJvHxWtbS2VX5zlngrP3mqo0MeEh7FcK5PcdQYfmBivmcYM7/Upy3aIAEkMIIJjOScoKi49NbtuzW1V/r6+vr7+wv2lHC4vMVLfW7+fKv/r383f761eKkPObqJG9Nb29pUKlVjU3NTcwvZJygqLlUqu5TKrvb2DnqnNzIq9vGTpyqVqr+/n3aicaJYOLuvLa1Mu/BjyvnrgV/uHm+sfr/feGOL4OzilPPX0y7+FHes2s7zH+/40T8nEH2xJiLj4NhJ/3gZ9NiJU/mCGZ8YGE2Zbk72D9gLOYQqsLLKKUvyk36RVrRu3ZZwYk8v8xwuL3abZMPONaQJ2xVtDLU6coJxPNNJJkISJIShv0DnBMmpWxobmw5+dYS8DrugsEQuV/z5559yuaKgUH24Dxwse/T4iZfPKuI/OXVLU3PLlswc/buzd3S9dftuVk6eIV9444ebWTl5VjZOt2/f2120T+P0EIdK6+sbvjl1rru7R6VSPah/SHo35AuPHqt4+fJlf3//g/qHcrmC7BP4+ofW1zeoVKpXr/qv3fjR2l4Ul5By/7d6L59VYRLZnbu/evmskq3f8LDh0e49+xSdnYfLjpPgFy/1Kd530Nc/lMPlsQeuY6qT5o4eoZFbD08wttQfBVoiASQw4gmM5Jyg9NARlUr1w48/y9ZvkEjXL17qY8gX3vz51sOGR57eAZ7eAU+ePvvu+xvq7XefVc0trd9fuyFy9diQvFmh6CQ5gZOLe5hElrE1u6NDDju9VjZO9fUNV+uuCcxtff1Dm5pbqqprtE2UyWbW6w6dDsk9MNnM2mrB8rhj1X5pOzlc3opN2bFHzgvs5nMnThNv3xv91ZmJ02aBE/1zgoD4PL/1b7+oQZbqQNkKcjcAuWkAumcCmmAAACAASURBVPMJ9yo+t3nnsY3mtrOJkl7m+YIZWV8lBMf6kypY9aE5bUzvE+w4tnHpKnfSo8DK6hMDI2jyPgLkBMmpW+RyRVV1DUkIUtK2KhSd+w58JTC3PXT4qFyuWBebFBIe1d7eUbL/EOnxu+9v1Nc3WNk4DSiAazd+PHOuOlC8ur29o/byVR+/4CdPnyWnbtE4PcIkMkVnZ91310WuHmESWWtb25lz1RwuLyd3t1LZVbzvoMXMOcfLv+np6cnMyrW2Fz1seHT33n2Rq4evf+gffzReulIH/ouKS1+86M7Myt2VX/Sw4dEid5/ay1dfvnx56nQVZDkcLk/jwBlT/WHDo5s/3yKgyNgtHNxlOeVCG9cBoUBjJIAERjaBEZ4TNDW3eHipr3mTj0S6nr6OW1Rc+scfjR5eK7Oyd3V0yCOjYokZ434Cxk4vyQmu3/iJ7DG4efh6rwiCLhjCXL/wxIpL1m5vNt4/9w4WBa0FG2NLB4t5Hm5RyYkVlyzm/X0Po/45QXDyXm9pBjjUJpCFHO4n2HFso8Oiv9fF/91zkHciOTZLAjclSDeJ8ytSknZFpe2JLjyVlloYzRfMIM415gRvbj74JnXv2c2BshXs+wmyvkogdztqi1B/PckJqi/UyuWKmtorsM5dulL36/0HpOjk4v7k6TPylbqquubps/8TuXp4+axqbGqG/ED/Hg+XHf/l1p1d+UVtbc/v3rufuDH90eMnPn7BxANjejCK1278ePfefQ6Xd+Xb7x7UPyThgU1y6pbnz9tj4pOJq5L9h5pbWlcFR/56/0FRcem16z80t7SeqDh1ouLUtRs//m/bw5AvzN9d3NzS2t/f/7DhUahEfX1H48BJMrQrv4h4lkjXF+wpoZOhKRaOspxya5c3+2T600BLJIAERjCBEZ4TNDY2uXn8fX91ZlZuX1/fn9Q/pbIrTCIrPXSEttSdE3C4vFCJ7O69+32vXnUqleera3U8kuAWlZx06iq93pPJZDXfK+bo+aRTV9eUlEcf+mZD5RXa5gPlBPRNADCnR43hr9sSvvNoUu6JZLj8L90kTt+7jnzFh+cFSBONOQExDo5Zuf1wIskedFw7gK7fTSA5Adls//rICXBy/7d66sCqRbLZsy42SS5X5OTuLtl/qLGpmf6GDW11Cxlbsx82PKqpvVJ9ofZhw6NjJyrv3rsPuQgs8MQJo3jpSt393+o5XB49qcAmMyv3+fP2sL+Wdg6XB8Wa2itXvv3u7r37ld+cvX373vUbP8ElA9KLX2DYg/qHZNJqHHjG1uxOpRI2t9gDxJyAzQQ1SAAJ/Ldygpj45Pb2jtT0TMaBH9A+gcDcNlC82tpeZMgXxiWkNDY1kwsQDJ+k6BwgTaiotZrvRYrGlg6m1vM4XF7E7q9Dc0tH/7WdTmyGKidwcp+XV75p3lKRdJOY3GzIuMeQMS6NOQG5x5AvmLH9cKLfmi84XN6Hzgkuf1t35Gj5ixfdWTl5JMJrN368dfsuLNUQNtlFv3P31/r6BvoRUzB4qxAoXv34ydPHT55mZuX+cuvOr/cf1NRegVawwBMNowg5gcZ9AnJZCvYJduUXtba1BYpXFxWXPn32f789qI/fkPr7o8e/P3qcsTU7cWP6tes/+AWGkY5i4pPJTQkaBx4mkbW3d2Rl7yLGTi7u/kERNBzMCeAIooAEkAAQ+G/lBGTbn1y+5XB5Wdm7KipPG/KF5H6Cc+cvGvKFq4IjW9va6GcRGWf5QPHq58/bj5d/Y8gXCsxtf/zp519u3QGgVk5eK2N3mFo5E43JbOe4Y9WBmYWjDYwmm1mvKTkRkrOPw+VF7j0mLT4+3thispl1SO6BpNP/2EvQf59gmSRNnLQHetcmsBdyYjl24tS0onXx2ZGjxvDJzYa+kd7vnBNwuLyAtT5kq+AdcoLJAhtHj1AD3nRtoyB6uJ/AkC+svXxVLlfI1m+AC/Y7cgs5XJ7I1eNizWW4GJSankluFGXcpW9i6eTgLv50vInuHq1snB42PGppbfPxCz5RcUouV8CePIfLY0wPRhFygpzc3YrOzs1fbudweYVF+8mNAv+7jeDR4yeXv60TmNuKXD3u/1ZPrvrHxCd3db24dv0HKxun3x7UP332fz5+weJQaXt7BzE25AuPl3/T3t4REh5F7lRgDJxM9Tt3f7W2FwnMba/WXWPcSGHt4rM2+8QU8zm6x461SAAJ/KcI/LdyArLt//ujx32vXnV39ygUnfBFatv23J6enpcvXyo6O+VyBckJSg8dYWxHk8fiCwpLFJ2dPT09vb29jU3NsPZwuDz3kI2JRRcd3MUwjT73Dk6oqN109lrK+euRe48ZWXzO4fJsPQMTT15Orf4xperamn3lGyovk3sO1pSUp9fchA/JFZwDpCnnr4MyveZmYKZ65eNweXYL/SMzyyZPe3NvIHTKEEhOsP/Cl/DJPJgwyUToG+mdX5Ey2+nNjyMFrPXZeTRJYGVF3zYIrtQ/OXAyBTzsv/CldJN6mLQxSSx8wr3YxvC8IjhkCNYuPrKc8ikWjgw9owg5AYfLs7YX3bn76x9/NHr5rIIb+7u7e/r6+n748We4pmNl49Tw+2P2do7IOzIys0yfe+/JTj6Hy0tO3dLW9pwccY3TQ1tOYMgX1tRe6e/v7+np+Z8HRWcn2diPjIptbmklc6m+voFc2vDwWtnY1Ly/9DCHyztzrhpuREjcmN7c0tr36lVvby88W6Ft4KES2bNnf/T+9e/Zsz/IzQcAc1FATGhKyVvzIbBHAQkggf8CgZGcE+g4fk4u7uwbAw35Qg+vlfT+qg4PHC7Pe0UQ+7fkRo3hj+e/+cE+urmp9Tz6yQJSZTLbmTyaSFsOSDbgTQ9PP+C0LGJArYansaNHqCz7BN/M7n3CM+QLff1Dre3Vv7IAn3WxSc+ft7OvGbmHbJRkHGI8yQmtPoRgbS9yXbKc7dnNw5c9l9hmROPk4k7fJUOUGgfO4fLcPHzZxmTaOHqon2PEDxJAAkgACPxHcwIY/wgQbOb7RqSXTpyq/r3Cj/cz2sA4ID7Pa3X64A7BkC+MiFz3oP4h40k8Dpc3jmcesblU9MWb310Y3H6HubcFK9etSsznGr75IephHi2GhwSQwL9GAHOCj3gdhVkyb/lqz4hUKH6kwmgDY3gYcrCGIA6VNjY23fjhJvw4Fe35Q/RI+x+e8rSZLgFxuR97Ejk82WJUSOBjJ4A5wUjICT72WYjxIwEkgASQwHAggDkB5gRIAAkgASSABJCAmgDmBDgPkAASQAJIAAkgATUBzAlwHiABJIAEkAASQAJqApgT4DxAAkgACSABJIAE1AQwJ8B5gASQABJAAkgACagJYE6A8wAJIAEkgASQABJQE/hYcwLjGQ6SLYc+c1o2HB7ewBiQABJAAkgACYwAAh9rToBvdRsBkw+HgASQABJAAsOKAOYEuF+EBJAAEkACSAAJqAkMfU7g4BYUvbMyqaQ2emelg1sQh8sbzzcXJxUuCUqI3lm5obhGuq2MvHp41Bj+gpXr4gurEosuhmwqjt5Zae3iM6wyLAwGCSABJIAEkMDHS2CIc4LPHD3X5Z508pKMNjAW+ayJ3llpZr1ggrFlZGZZcPLeiVOtJhhZhKcfCIjPI+8Fjsk7PXdZ+Cfjpi4MiIktOIs5wcc78zByJIAEkAASGG4Ehjgn8JZmBCfvIW++GTtJKMk4NH/FWpITiLwjCaxFATGRXx4ezzf3XvNlyKZiYoz3Ewy3mYTxIAEkgASQwMdOYIhzguDkvUkltfTHW5rByAlE3pGRmWUTjC2Dk/d6SzMIccwJPvaZh/EjASSABJDAcCMwxDmB3/rswMR8xhtyteUEuE8w3GYPxoMEkAASQAIjicAQ5wR2C/1j8k7bLfLncHkGvOnLJGmmVs7acgK7hf7rc7+xclrO4fLmLA2OyT+D9xOMpLmIY0ECSAAJIIGhJTDEOQF5lCBud1VswZmEPef9Y3Ya8KZrywlGjeF7rU5PLLoYW3B2bfaJ9bnfYE4wtLMHe0cCSAAJIIGRRGCIcwKCctQY/mSBDdfQVB+yXEPT8XxzfSzRBgkgASSABJAAEtCfwLDICfQPFy2RABJAAkgACSCBD0QAcwL87SokgASQABJAAkhATQBzApwHSAAJIAEkgASQgJoA5gQ4D5AAEkACSAAJIAE1AcwJcB4gASSABJAAEkACagKYE+A8QAJIAAkgASSABNQEMCfAeYAEkAASQAJIAAmoCWBOgPMACSABJIAEkAASUBMYOTmBvySdfl6TUaSrQH6rjb8knf2B5kRgGzA0bPu3agZqwOHy9BmL7oB1dPpW54y2WEQCSAAJIIGPkcB/KydgrNbsIuMQstdCtuatTRgGjPVbo0OGklFkO6R9MgZFGzP8kCL9P9uY4Y0UaTOUkQASQAJIYMQQGJk5gbZ1Dg4bbUBkqKKFga6IsGSC8FZvdBcMYyjSNmzPdC1pAiMCAVzRAl1Ly3SGwXBIN0cZCSABJIAERhiBkZATMBZFenmjZThyoGQLYEMEMAA9WwOWpIo2oGXwAILuWh1mGhvSSpBBgGWeZgUy1LI7BRsQwAYFJIAEkAASGGEERkJOQA4JWf/oVZDWg0wbMGS6SNvDckgEUgX/M5QMJ+wiwxsUwSFDIB7ADwgazejVXXdgtCVbhl5AIN0xiowYsIgEkAASQAIfNYERkhPQ6x+ssrSSPkgMA21mdBP9Zd2rprbat+p1GDCGoy1U4gGM2XkA3RC6A3sQaDOUkQASQAJIYCQRGOKcYIKRhdOiwHluYvL5zH4JgfuZ/RJQOi0KnGBkoRv6gFYsWPDAp0YN+NQoQNsBCRpdEaVuP+wIGfZgwOgCzIiB7v8Zxoy8gV0EexSQABJAAkhgBBAY4pxgrKFAaCWaMXs++Rib2RGmxmZ2oBRaicYaCnSwptc5YkYvkOyGjFXz/ZdkjQ41uoXAGFFp1IOSCFDU2BZqQWAs4bQTbTJ4BifsoYENCkgACSABJDDCCAxxTjCINOl1DpZDWNvojthKtobYg56xNNLeoC+GUqOe4YcuMppD1+CH1tDGRK/RFd2EYUbcggEIxDMUQWDo6QBQRgJIAAkggZFBYKTlBIwVlLGkkWNGL58gazyc0BwE3WaMWnYrtgZCotvSZtpksCcGYAYjIgLDjO6ObgjNaQPIG2if4BAFJIAEkAASGGEERmxOAMnBOx8wHUsmwye9ZDLkd7YkDRlLtcZBQY+MvhhFGA4IsOSz3UK/IGiLh9ELFpEAEkACSODjJTDScgJYIGkBDg+t1CjTlrTMNoZa9oIKVYwFdUCWehpDF+wIiUZjMNCK9MKwhK7f6hOco4AEkAASQAIjgMDIyQlGwMHAISABJIAEkAASGEICmBPgu7CQABJAAkgACSABNQHMCXAeIAEkgASQABJAAmoCmBPgPEACSAAJIAEkgATUBDAnwHmABJAAEkACSAAJqAlgToDzAAkgASSABJAAElATwJwA5wESQAJIAAkgASSgJoA5Ac4DJIAEkAASQAJIQE0AcwKcB0gACSABJIAEkICawBDnBJ85LZPtKI/JOx2Td9rRI3QQf6hhUDwXFZcqlV1KZVd7e0fa5m0aw/vp5i9nqy5Y24tCwqPCJDL6470iSGOTgSrTNm9rb+8gkRQVlw60+Qe1/6gHbsgXZmblenoHfFBE6BwJIAEk8LEQGOKcgGtoOsV8znTbhWuyjoq8IweR2qB4dnJxD5PIMrZmd3TIM7NyNYZ3/7f6S1fqYNnu6enp7+/v6nqhVHb9dPMXjU2I0ntFUN1316NjknTYkCqy7sYlpDS3tJYeOvJW+3/T4KMeuDhUKpcr9pce/jeJvWdfWzJzai9fdXJxf08/2BwJIAEkwCYwxDkBCWiCsWVkZtng5gSD6DlMInv+vF13TgBkSw8daWxscvPwBY02Qbdbdis3D9/GxqbhlhNAnP/ZgQOBf0fQn/O/Ew/2ggSQwEgiMExzgskCm9CUkg3FFxOLqv3WZ3MNTQl0B7eg6J2VSSW10TsrHdze7MybWjlHZBz8y/hiYPyuCUYWcIT0zzaiY5Iam5pVKtXLly/PVl0w5AvBCXvxTtyY3trWplKpGpuam5pbLl2pA2P2KZvt2XXJ8vr6hhcvul+/ft3d3aNUdtXXN7guWc7h8iKjYh8/eapSqfr7+2/+fGvxUh/w/CFyAnGotL6+4ZtT57q7e1Qq1YP6h14+qzhcniFfePRYBVE2t7Qmbky3d3S9dftuVk6eIV9444ebWTl5VjZOt2/f2120j0T4cQ0ctjeUyi76cszZqguXv617UP9QpVJ1d/fAFkKoRPaw4ZFKperr66upvWJtLyKjPlt1ofby1Zs/3+rv7+/p6UncmM7h8tjG4lDp02f/19jU/Pr16/r6hq6uFz09PRlbszlc3uKlPqQ5fcSLiktv3b57/cZP/f39fX19ZEKSmOmNqLNVF2B6oIAEkAASeH8CwzEn4BqahqXtEyftMeBNnyywkW792luaweHyPnP0XJd70slLMtrA2MlLsi735GeOnmMnCcPTD3yxdutoA2O18bYy95CNwEXPnMAvMKylte3yt3UCc9u4hJSODvnhsuPghJETePmsam5p/f7aDZGrx4bkzQpFp46cQIdnhlsOl+fk4v77o8dX664JzG19/UObmlvOnKuGMPTMCUTekUkltfRHxwZMmESm6Oys++66yNUjTCJrbWsjPRYVlyoUnRlbswXmtuera5tbWr18Vl278eOZc9WB4tXt7R21l6/6+AU/efosOXULiZCRE/z7AwdQ+gjaLsdculInlyvSt2wXmNueOl3V0SEPFK8WuXo8fvL02o0fRa4e0rWxzS2tsBhfulLX399ffaE2MipWujbW2l5EG0fHJLW1PT92ojJMImtpbUtO3VL5zdm2tuergiNv3b576UqdIV948+dbDxseeXoHeHoHPHn67Lvvb3C4vNJDR3p6eoqKSwXmtkXFpZ1KpTbO+gwWbZAAEkACehIYjjmBhYO7LKdcaONKxuC0LGJN1tHJ02Yvk6SFp+3/dLwJh8v7dLyJg7vYxNKJ2Iwaw+eb2U2xcFwZkxOcvBcGr2dOUFRc2tzS6uMXTBpWVdc0/P7YyuaNc8binZW9q6NDHhkVS4zJ/QTQI2Np1OGZ4RY8GPKF/kERYRLZjR9u3v+tHvR65gRgr4/AiOHajR/v3rtvyBf+ev8BJDqB4tXNLa1Z2bsOlx3/5dadXflFbW3P7967n7gx/dHjJwBtyAcumD0/MH6XOKmQfNzEiW8lwEZ66UodMI+JT+7okGdszSY3lMTEJxOHyalbtu/IJ/KlK+pNBXpXKTMr9/nzdol0PTE4c676Qf3DqOj4xsamMIkMKF26UnfpSp1Eup6+LFVUXPrHH40eXivBjMPl+fgFt7a1wY4FXfXWAaIBEkACSGBABIZjTmDt4iPLKZ9i4UhGAkVx0h56vYdxOntFxOSdjtp+XJxUuDb7BG2jZ07AOM8yioyFk1GrOydgGNNFhlsynP2lh5XKrpbWtjt3f21rew7rE4fLYy9gQIAWTCydFvjK6A9kTrQZkRkxkBWRdPTnP/+VHjqSsTX7YcOjmtor1RdqHzY8OnaikiQQxBU9NPJNl76vgq5ldEqav//AJwtsRD5rYOA2C/zY42Vo2EjpnADi3F96uFOpDJPIGM05XB5tT2pLDx35J7k/GxubsncUaMwJMrNy+/r6aHulsotOHdjHnSbJjgc1SAAJIIH3ITAcc4KZzstlOypgn8B+UWDU9uN8MztvaUbIpuJRY/gcLo9sDIydJOSb2UVtPz7H/c1XfG9pxjvkBPtLD7e2tcFX3hMVp/63iwu3dsPaQEAPaJ9Ah2eGWw6XFyhe3drWBlfoGesNewHTeOBnzfOG78pEmDXPW6Mlh8tjxEB6tLJxavj9cVV1DaNVoHj14ydPHz95mpmV+8utO7/ef1BTewVsGGvVvz9wiER/gY2UZg5wMrNy29s7YGfIzcMXnjKl7Um/ZB8lJDyKDiNMItOYE8TEJ7e3d6SmZ9LGjIyKESSDM6MhFpEAEkAC70NgOOYEBrzpEZtLvdd8OdrA2IA3PTi5KDB+16gxfLuF/jF5p23mq2/pn2G3SJZTbrfQf4r5nOidlQtWruNweaZWzlHbj71DTiAOlba2tR09VmHIF/r6hzY2NcMFY/bCSe4nOHf+oiFfuCo4srWtDbbZGWdzDpenwzPZEy4/eQqOX0h4lFyuOHqsgsPlSdfGtrS2vcM+AXjTR4BljxjDCnfsRKVcrohLSOFweb7+obWXr3r5rLKycXrY8KilVZ08nag4JZcrduUXQS+MtWqYD5yEzVhuGd/7AQ454rWXrxryhSJXj/u/1ZOr/gx74pMYk3tTDPnCAwfL9pYc1JYTWNk41dc33L13X+TqweHysrJ3VVSeNuQLaZiMIHflFykUneTQAHwUkAASQAKDQmCIcwJrF5/4wir6hjhyO6GplfOarKNxBefiC6tCU0omTp1J9gYWB8bFF1bFFpyJL6xaHBhH9gwWBcYmFlUn7Dm/LrcyIr2U3HOgzbM2alsycxSKzu7unr6+vhs/3CQ3lrP3gcmjgNu25/b09Lx8+VLR2SmXK3TkBBwuT6NnEsbhsuN9r1719vZ2KpVR0QkcLq/85KlXr9S3misUnb8/ekxua2DvMNM9ahuRPnpY9ogx5ATW9qLay1f7+vpevOju7e2tvlArMLflcHlXvv3u7r37HC4vOXVLW9tz+OrMToaG+cC1IQUCjFwwOXVLe3tHT496ety9dx+eB6HtATh5LKW3t7enp6e5pfV/dxpqywnIQwq/P3rc9+pVd3ePQtGZlb2LAZORE1jbi27fuUcmyW8P6slxga5RQAJIAAm8D4Ehzgl0hz7B2HLspL+fCSTGow2M+WZ2ow2M6bbqhw6mzSYpAq0fqOzlswoeM9Pd1pAv9PBaSd9cpttem2dre5GvfyjtR2Bu6+MXTGt0e/5wtQJzW/+giPdcdT7GgWtD6r0iCK4oabMBvZuHrz4/U0HsnVzc4XoEeNAhDMi5Dj9YhQSQABKgCQzrnIAOFGUkgASQABJAAkjggxLAnADfe4EEkAASQAJIAAmoCWBOgPMACSABJIAEkAASUBPAnADnARJAAkgACSABJKAmgDkBzgMkgASQABJAAkhATQBzApwHSAAJIAEkgASQgJoA5gQ4D5AAEkACSAAJIAE1AcwJcB4gASSABJAAEkACagKYE+A8QAJIAAkgASSABNQEMCfAefDBCUwwspg41eqD/s4GOkcCSOAjJcA3s8Pzw/A5dkOcE3zmtEy2ozwm73RM3mlHj9BB5DIons9WXfjp5i/vE5XrkuX19Q1KZZdS2aXNVdrmbU+ePhOHSq3tReR/0qOTi7t/UMS7/cixIV+YmZXr6R3ACL6gsEQuV/z555/d3T1pm7cxaj9EceLUmRHppXOWvnlx5ft34ebhGyaRMT76/+Sw7gCKikvJwWpv7/h3+GiMp6i4tL6+wXXJco2176MckOcBzd73iUpjW+MZDpIthz5zWqaxVofyp5u/kIOojaE4VPrk6bO0zdus7UUh4VGMuTSgH5nWEca/PJfIwSoqLtUR0jtXDehMqM/Af7r5C7xnzn5RQFjaPvJSm3eOUHfDAc2lsRNMdHsbrNpPxhrNsnDymu87Q2g3iqt+3+9w+AxxTsA1NJ1iPme67cI1WUdF3pGDSGRQPGt8w82AgjTkC/2DIsIksmvXf6Bfckg7yczKff68PUwiIy/mgfcb0S/Ho+1peUtmTu3lq+wVURwqlcsV+0sP08aB4tXPn7cfL//GkC+0the954sMaM/a5E/Hm6xKzF8amqTN4B30Z6sukDP+q1f9vb29RNZ9KtRGid27k4t7mESWsTW7o0OemZXLNvgQGnZ4+hz6d4tkQJ4HNHvfLR4draZYOMpyyq1dfHTYaKzyXhEUJpFVVJ5ubGzS+MoJePVX2uZt7e0dSmVXT09Pf39/V9cLHbk76ct7RVDdd9ejY94+pT/oXHJyca+9fHVLZg4QYLwrC/SDIgzoTKjPwO//Vg8nOg6X57U6PSB25/u/sEbbYPWZSxMmCgLdgw8kF2+JzNDmZxD1XIMpaeGp+zYUbY5IP5hSIvVZO0zSgiHOCQjiCcaWkZllg5sTDIrnAf0l6J4uOlwxcgKFonNNdDzj5XjanA/oFJ+Zldve3kG/zFCb28HSWzp6SreVTTGfM1gOaT+M0wpdxZAHRInxRkSGqw9RZIfH1gxWv+/mWZ/ZO1gRgh99zuNgzBZ0jBRyAmilwxhsiMBuyzBgFAdqz2iurcjOANgabW3fQa9jAmjzpnvgjD/eKeZzpNvKLB09tXl7T/1b59KESWa71u3YEpmxbU3mv5MTuDkvL4zP4xtZcLg8yxkOexN3z7Jwes9hDkrzYZoTTBbYhKaUbCi+mFhU7bc+m2toSkbr4BYUvbMyqaQ2emelg1sQUZpaOUdkHPzL+GJg/K4Jf1EmVfpnG5FRsY+fPFWpVP39/Td/vkVehnvpSt3jJ08f1D9UqVTd3T3wtTs6JqmxqVmlUr18+fJs1QWyvU9vr8HlADhIjD8q8jJieONte3sH2SdQvzC3s/O772/QOYEhX3jgYFl3d49KperokJMvB+QrDv39huzFwVcfpbILvj2LQ6VNzS3d3T2vX79+8aIbvgxVX6i9feeelc2buVhYtL+xsUkiXQ9hv6fgLc0IiM+jnZytunD52zo20sVLfW7+fKv/r3+Ef1xCyv3f6r18VoVJZHfu/urls0q2fsPDhkeB4tXEIeO0MiBKhnzhN6fOdXf3/Pnnn3K5oqCwhA5S9+kMLJeGblwZk8MzU79F+t0+2g5i6aEjLa1tt2/f6+9Xvzgb5pjrkuV37v565Gh5c0urSqV69PiJvaMrh8uDS0L0WLx8xbSlMQAAIABJREFUVt2+o/agUqkeNjwKlcjIpNLoWWBuW1Vd09fXp1KpGhubGImjPrNXGwGuoamPLDNhz/kNxTVrso7OsF/C4fKMZziEppQsESfEFpzZUHwxZFMxvA99wcp18YVViUVqZfTOSh37BBqPOITBWOYN+cKjxypevnzZ39//oP6hXK6g94EYxhwuj/03TjbnX7zofv36dXd3j1LZBdcm0rdsb21rU6lUfX19NbVX6Her6jmXIOzRBsZzlgaHp+3XkUn/dPOXrq4X/f39PT3qMJqaW8ShUpITfH/thlyuUB/EpmY4iEXFpbdu362pvdLX19ff31+wRz3bCRByVmluaU3cmE5ieP8zIfHDHjh5hziJram5hd4n4HB5AfF53tK3fEEfNYa/JDgxtuAMvQSM55uLkwqXBCVE76zcUFwj3VZmauXM4fJGjeHrP5dGcfmfjDXicHlrVsj0yQkEs+dLt5VtKK6J2121NHQj7HAsDU1aHpkRGL8rsehibMFZMtvh4NIC3ZHZNOt9G4o8RStog6GSh2NOwDU0DUvbJ07aY8CbPllgI936NZkrnzl6rss96eQlGW1g7OQlWZd78jNHz7GThOHpB75Yu1X9umSBjXRbmXvIRqCpZ05gZeNUX99wte6awNzW1z+0qbmlqrqGw+VdulKn6OxM37JdYG576nRVR4c8ULzaLzCspbXt8rd1AnPbuISUjg754bLjxBiuDsBXf4iEcVY9dqKSeLa2F1359rtOpZLkBEpl19mqCx0d8riEFDhP5RXsVSq7duQWkj/jjg452Uig8wboiFwijUtIaW5pLT10BPQcLo8dVWp6plyuSE3P5HB5BAJJR+hWIE+xcIzJO5VUUguf4OS9UMsWxk4SSjIO/b/2zsStiST94/9GdCfKatREPAaD4ODI9SgLGxy8mDjIRJBDIBwGMHLINcghCnIoIAKCDsO4qKAiHojKeiMo44EiATkUhATIwWGCAz+z5db2rzuJAVHReXny8FRXV9fxqeqqb79V3bXWPYx46t/Xb0mlMhJSBotd/8fD5pbWjc7uG53d2zte3L5Ty3P1bu94ERu/J7+gaHBwKCU1M+tgfnNLK54oIWmCcVHKySvs75dGRMczWOzSU2d7e/uw1NDfTmBsscY7Ni8y79K2Pb+b2TqhfmG8lDRWYlHx8devXxcc+c3IxDK/oEiuUMTG76HRmajfl8nlOXmFvgFCf0EIjc6MS0iWyeRHfv3dyMSy+NgJqVQWEq62bN++U9v4TMRx4HIcuI3PRA8fNTBYbG0xnzpTIZXKdkbGGZlYXrtxi2R116f1EmuZ6N7gFRW4r2SekcV0A8OftycHJBXPnMteYGoTmnmWJ0wxYBovMLXZnlaKblurNW5h2ef+8ZPf3/6+cI17WHjOBR2aQEeNU6lmZB5SKAYKjvxmunxV6amzw8PDOjSBtntcY9tw9fAVSyRoSi4iOl4qlWEtrjE8EQ7RbcA0XucZEZZdEZJZvs5jJ34QIobBbqpVAPk0iZo3Oruv+5HX8rztwcPHKHxR8fHR0dG6e38IQ6MDAkPRA09+QZFMJk9KTjcysbxUVd3dI3bieU5KT4gSJWkCJ55nd4/4Tk0tx4EbHbtbJpOTNIGjzy9+CUe/maVrLn+lo5dw/+mlVmunzWCtcQ8TppexllihTt479vCchWaz55v6Jf6KnkPG1ZYwWOJQjT1JDuYSy+C0k85Be6cbGBpbrhHuP71683YUxjkwKSr/yka/+MVmdovN7HRUIk7oH+Zrfv3lcGnS76AJ/vdoRRq5TVc6CjNOsS3UD0Bvuzbbn/yDUk/M+3bFTwEJuNF8M2vRSkevRcvePeBOm8FiLbFaYGqzJSyDOFCRYiZVLT5Ed8Ld2vvobtnAdUHrjIhdoSA4vLe3Lyk5Pb+gqLtHzHN9t2iusupqy/M2MwtbYmDq6Es8y2Cxm0TN12/cRhnAgVNSMxWKgX1pmQ8fNdTcrfvt9+Ooa37w8HFN7T0UmOPA7Xjxsux0BTrEugGXBTmoXYZGTcBgsR8+akCjRUh4TG9vH9IHpNgmdqgRPpFDWERsf7/07eR9QGBob28f7qPzC4o6O7tctvg8bWzKLyiquVvX3SMuO11RdroCc6DRmSRNMAFKaOIzed8B0lMjqTvTXXw6YzHHWSBIKQlKPT4xmwG1Eok+XKctXa+6kY0KVSvSoDhX/75+62ljEzJW2do7tne8QAFu36ltbml19fBV30T/Xa+qMWZ0FW5Ub5fdSSS9WQfziUlgvaut9eLAGh2zDZctMLWxc/IX7j+9wNSGZMt1DU33ismj0ZnOQXt9dhVgdaV7PYGOGqdqgus3bjeJmhElav0SsdDoTG33uI4x3sjE0osf6C8Ied7aRhztqGlp5PPDlpCdORe9Yw8vW8XFD50aQyJP6g1O8jlWUtrZ2YWWqRYVH3/V3cN12oIjZLDYTxubcD49vLZ194hT07MmpSdEqZAKnpqe1d8vxaYL0s1LozPRTTTbcBnOpDYH0pQrOD/vOHDG3J5H6mfWuocJ9h6bxTIZV1vCaeGhGvtQHTZcPhqS0KmNvnF4YHIOTMINmHoh0Sdos3CvYI+/c2BBdO4/LNYcDMsETaBVE5jb84QZpxaY2iCC+NArJo843mO+dk7+YdnngtNKvWJyt6eXEcOQmgu+hOrgBwgbnjSqRkbkCsWlqmqOA5f06I+bOKn7wIfE0Q4P8zgh4lnS3YsDI02QkpoZl5Dc19d/4+YdpAlI9w/xEKeOE0IOUhLIEydEDJyReQg9WVZWXRWJWvA8AjEMchswje2c/H9wEeKfxQ+u1GDYRyN8IgeMFC2uHCP8KRQDvgHCq9XXr9+43fCksfzshUePntytvU8cDokcqBKBeJZKyYnn2SRqHhgYbG5+3iRqRnYInHOcMeyjzTFtBmvZKq53bN7OnIuuoRkGTOPxUqKOXiQfYlUS3ThLjc9EBHJqJ+rr1/3Iq62rf/369dDQcG1dPXoJhYgCx4YdKE7SIelGIJ3V2Khw3mh05mIzO0FKSWhWhXfsYb/EX0Myy6mawDkwCd223rGHsQGZpBuIcSI3sYqpDYBYUtJZav2SAus4pF7LYLEvVF4eGhru7Ox63PBUrlDgsVaHhiAVZ7ndpqDUEyGZZ9ZvjSTOfpKC4UNSLWAbEjYNEotAdKMY0OWkZoOu/fCeECVBAkXKA6nu9NQEcxYu99lVEH7wvG/8EZ9dBWEHz1M1AdYW42pLGKw+mgAnga4iHuKWjCPU5gjaLDy1t2T3tt1z5xrPnrsENMH/BAGNziQNHsvtNgn3n8Z2Auu1HsFppawlVkQJhgwDM+eyWUusgtNKVzm+e2onVQkpZm3VY2Ri6eG1zdyaw2Cxd0bGdb3qRiZ0jQPY0aJjYokE2wnKTle8tXXb2jsSA1M7SuJZbU9aWBMgW/rw8DDSBA1PGvHzsZmFbcvztvMXq1BZSHcaLiC1y9BoJ1Dfig7ctvaOm7dqurpeEW2eOCrsmLtohWtohldMLv5t8IrCZ6kOjfCJHHCvERYR29fXTzVR5BcUdbx4+axJFBEd/7y17XlrW1JyOk6I1K2Mi9L5i1XPW9vQvC/OBo6Z6oNPER32m4PCD54Py64g9uPjpURSACh+YrUSq5Loxjmpqb2HLD3YB80Wu231R/MsPn7BTaJmJPg0xuywflNnZxe2E/Bcvbt7xMTGQKw1ba2XmDrR7R6RvSUsAz37Yn1PGu/xbTuuZzsdNU6lOi47gbZ7XOMYHxu/p6+vPyI6HpWa1Cz1bEvoWpOVG3x2FUTlV3nH5s1dtIKIkeSmtgSSD7GiiW4UD+pG0AwpMeZJ6QlRhKSCT4qdQD2/kPgrMsjjJkTqZ/AIPa62hCHoownsnPyD00rnffuugta6h6EZMbWh67/qFkeozbHt56CUwGS0iAFpAsd/OmsL/Cn9p+J6AgOmsf/uIjRbY8A09o7N94jImjaDheaHLFa70OjMpVZrhRmnrNa4LTBZteNA+Q9b1BOri83sgtNOTsBOQHxJz8jE8t79P9BUHLErxE3cix8olkhOnDzNYLFd3Phdr7rR4r6TZeU9Yomrhy+Dxb546QpaIoDrkhgVjc48WVYukfQKgsMZLHb52QvE9QTIhL4zMm5wcAhpgvyCor6+/p2RcTQ6MzM7TyaTxyUko5izDubLZHJ0CqdFfWhAp6hKBfkXHi1WKpVt7R3IOkKM5wPdXjF5PwUkECMhcsBIkcWy4UkjykBqetbp8nMMFjssInZgYLDmbp2Zhe2zJlHHi5dYipGe/JC9V39KV6uvd73qduJ5GplYnrtwiTS7jDNGzDnV/c9NAuu17tMNDKmnxuVDrURiJ07s64lunASaKd+fmYsU3pWr1wTB4Wg6AC2RYbDYFecqkXLVFvOFysvq+Ro3PlpgIZH0evEDcRLEWtPWenFgkuM/5r08OmOxAdPYJSQtLLtCh53Aao1baOZZM1v1hxlW/eiNHgRJEeJDHfcFVRNkZB6SyeW796bR6Mzc/KMkyxARC43O1HaP0+hMnqu3WCI5debd5B2NzkxKTpcrFGn7DyK3QjEwATsBLhSNzmQusfwpIEH3PBQa1Gvu1uHvl5DaBrFERDdO6GRZOVpBQqMzXdz41dduOvE8J6UnREmQbiK0nuDipSsMFtvTWyCWSIiU0GiK5o9wDqmOnwISAveVzFm4fLqBoaN3zM6cizrsBONqSzgtfTSB4dKV29NKf9gSMm0GCy1iw69b668JbK3WFkTnfrdU/U6WrcXawpg8kyVWOBuf0fGZNYG5PS8itxKvWYsprEaWw8VmdkGpJ3bmXIzIreTHFeI1yes8dkbkVobnnI/IrVznsRM9fKz1CI/Kr4rMuxSSWe6fWISmdrTFrI11Tm6hTC4fHh5WKpV4yS6xKyQ28T0pGTKZfGhoWKVS1dbVo8dNJ55nx4uXIyNvXr9+/bjhaY9Y4hsgRDcq0UaHhnlza86jx09GRtQrh8USSX+/FK8xRJqAwWLX3K1DgZHIUCqVg4NDw8P/e/2BRmfieFQq1bMmkZGJJdUOj+89bZoAdXMny8q1wZmwv4NbqG/CEeK6IW1I+QHC561tqpER9ZsXMnlqehaNziROpZ+/WIXng1F+SA9k46Lk6S14+bJLvap/ZKRJ1CxXKND0eVHxcWJljY2NYWPshCG890JqJRI7cWJfT3TjaPGKetQg6+79gaQVWuatVCqHh4elUhl6XUVbzObWnNq6epVKhfijwONqvTg/JMdS6/U7DpRHHr4ckVuJXiVgWzjghzwUGPek02awnLYlojXb29PLQjPP6lhjqK3GSZMpaB6KwWJfrb6O1uq/leMyuRyvX6EKCBqdqfEeR7k9VlKqGhlRKpVyhSJ4R6SZhe31G7f//PNPlUrV3SN+1d2DrHofuy3tS8tE/ZVSqUzNyCa1DWJFE924dtCrTyqVanBwSKlUVl2uRh8s+fCeUFvBUYZfv34tk8ulUhnul96qtG9mLfJNOOLg9p43nuYbWwuSj0XlX4nMr+LHFYRmVViv9dBmJxhXW8JY9NEENDrz+386h2SWh+ecj8y7tCUsA68lxC0ZR6jNMY3O4jsFnEgsPhb/678Si6aIkWCqf9t4tuGymXPZJKbTDQxZS6xID2fqlw6+XaHP2hxSbKRD581b8bJ20inqoRPPk/jSEQrgsH4T1ZN6LfKxtXfUPzkjE0ueqzd+LCDGuYHrovHbLMQwOtwZmYfEEomPX7COMBM7Zbh0pSBlHK8d29o7fuBX5MZFaQPXRX/+EyOg/1UfWInIakVte+OK1tya48Tz1DPP42q9cxYux/3me+OnMxbPYpm8NxgKoKPGqTGYW3PG9XVIjfc40uLIpoKTGBc6fNUHOoxMLN22+n/Ix8e0xfDhPaHGojFYbK7TFmontsxmoyClxHDpSo1XkTw1jgukMPhwXG0JX6WnY1ytWmOcf5s5n8k0mSJfK0I5/Mx2Ao2YwPOTETAysYz6JRFPf3yMdFdvFm6NPqT/ePAx8gBxAgEgMGUJ0BmLt0YfWr1Z/f0M+H12AqAJ/tKtMGH3PrFEUll1lfp8OVlNc9oMFtc3lvNz0GRFCPEAASDwNRHg/BzE9Y39cCvv18TkM5YFNMFfWhN8xpYHSQMBIAAEgMBUIwCaADQBEAACQAAIAAEgoCYAmgDaARAAAkAACAABIKAmAJoA2gEQAAJAAAgAASCgJgCaANoBEAACQAAIAAEgoCYAmgDaARAAAkAACAABIKAmAJpA33YwbQZrBsNoqq0Rhfx8GgLTDQz/ztT3KzqfJkuQChAAAkBg0gmAJtBLExh9bx+cdnKj/7ttTj6wGtC2qr4BQuLPbas/9fNeE0goYfe+vr5+hWJAoRggbmMzgahIl3jxA9s7XiTs3kfyH9dhfkERyltfX7+2qC5UXr5f/0D9CfTNW/FnDRksNt7UZ1wposAeXtsSdu8jEUZfBR4aGh4bG+vvlxK/8E9KYoHJKv+k31xD04nfaSaFgUMgAASAwJdO4AvTBDPnsjcJkr7/5PtHuUdk4y1cP7zKvfiBr7p7FIqBoaHhP//8c3BwSKEYEIladHx11dbesfraTfQVet0ZMLfm+PgF74yM6+4RT+63+ok7PujOg46ztvaOvgHCpOT0/n4p8YPzxEvwngiNz0QymTxoR4S2XZ2IV6m3EtFOqepy9cuX77aTx1fFxu+RyeSZ2XlvtwO2tnEgKQYcDDkWmKwKTiu1WuNG8odDIAAEgMBXQ+AL0wSk7S4+TTV8vES1bUpELRdpgxNqAJLPeMOTLtd4OCmaAMWsOyqiJhgbG0N7pehTIn3CEItWVHz8VXcP12kL0VOb++M1A20pgj8QAAJA4BMT+PyawIbL94w66LQtMTLvUlT+lZWOXjQ6c/Z8U4+IrKj8K1H5VzwismbPN6XRme7hB8Kyz0XlX9mZczEs+1zgPvWeGbNYJvy4QhsuH4H7kR/jHn4Auakxz2KZeMXkrt8aueNAeXTB1cB9JYvN7N5LnDQYePEDRaKWsxUXh4aGR0dHm0TNaNsYbIgeHR3t7hFH/ZJobePw8FFDakY2g8WuratPzcg2s7B99OjJofwjKFGqJnBx44tELaOjoyMjb2pq76FPDt+vfzAwMIi2dFMoBl519yArtyA4vK29Y3R09M2bN/V/PFz3Iw+XZbyjI74QORgsNirg2NiYVCrLyS3EO8ffvlNLKriRiWVl1VWVSjU6OtrV9UoQHI52myVONNyvf4B2lEbxUzUB2hdxdHRUKpU9b21rfCZCuyErFAN9ff0h4THEEo2L0v36B2i2gmiJQTMsw8PDb968GRgYVCgGLlReDggMffmyKzUjG2WS48B91iSqulyNDknNAHnCfyAABIDA10Tg82sCjrMguuCqW9gBo+/tFy2znT3fdNoMlkdElm/CkTkLzeYsNAtIKt4sfDeHTe2XST7ErSqpMaPA3rGH5yw0mz3f1C/xV/eIdwOAjkqd9+2KoNQTWHb4Bghlcvmt23c5DlzfAKFYIjl/sYpGZ+YXFMlk8qTkdCMTy0tV1d09YieeZ03tvfMXqzy8tvX19Vdfu8lz9W7veBEbvwclR9IE5tac5pbWhieNHAeuixu/s7MLbydKHBHRtbb2js9b227eqjEysXRx47/q7kHZQGep4XUUkHoqI/NQb29fRHQ8g8UuPXW2r6/fxy/YN0AoVyju1NSSCn7qTAXaiN3IxPLajVtof2fSqE/a15h01szCViRqaRI1b3R29+IHdnZ2YU0gErU0PGmsuVu30dm9q+tVUfHxcVFCixJ8A4Sny8+hjBELS9pDlsFiP3zU8PBRA5pEyMg8JJXKQsJj0CXTZrB8dhU4B+0lxgBuIAAEgMDXRGBKaILAfSWMBd9hrIuW2QrTy/C+6TZcfmDyv1AAkgJQWxQMlwlSSjjOAnQ5SROQYiYFXuseJth7TPeurNZr3flxhfy4wtmGy1ASpPGspvZew5NGBov9tLEJD+EeXtu6e8Sp6VnHSkofPHycdTBfIulteNIY9Utia1s7z9UbRUXSBLHxe3p7+8IiYtHZwqPF3T1iFFjbGI9W3vkGCGvr6tE4iq7VFh6dfe//jMxD/f3S5H0HGCy2kYmlh9c2c2sOqeDXb9xueNJoa+/Y3vGi7HQFivOtdJBIet+WlxRYtyYQBIf390tT07NQJMS5g8ZnovjElN7evj0pGUgTTIASjc4kDf8oIapnfGKKVCqLT0x5uzrh9p1arA9QePPVLjsOlHP94uYZWSAf+A8EgAAQ+JoITAlNIEgpwSOuem9ye15EbmVMYTX+hWVXLDC1oSoAqg9JE5BiJmkCjrOAFIBatRu8ooTpZT9vT8a7/ZJGOzSAoTF47P//FRUfT0pOb25pvVp9vepydXNL68myciQgUEIkTaDjUOMYf7TomEIx0COWPG54KpH0TqImYLDY/zpeJpXKVCMjbe0du+LVD8c6Co4XM+J8kgLr1gSkgpM0AYPFrv/j4dPGpq5X3UXFx0mBiYc4dWo9Uod/jUIBWSxu36n18QsWSyQZmYeIUS02sxOklPDjCo1WrCb6gxsIAAEg8HUQmIqagG3hINx/apnNRipi0qD+CTQBjc4kLTgnjXZoADOzsG153lZZdZWUZw+vbW3tHW3tHSmpmQ8ePn7a2HS1+joOQxzPaHQmWo2P7QRZB/PFEomH1zaNq+49vLaJJRK8NAGPoyhyHaMjTl2HYwPXBb0EaGvveP5ilUwuDwmP0Vhwh/WbOju7sJ2A5+rd3SPOLygiBdatCXTbCWh0ZlxCskIxoBoZQTKrv1+qJyVcRj01AZoD6u3tu1p9vbWtnePAxTGoF0nE5LmGphN9wA0EgAAQ+JoITEVN8M2sRfy4Qq+YPAOmsdpssHrzOs8ItLv2N7MW+SUcdd2RhjfbRoGRz+z5pv5Jv3nHHkY1RDUDkCQFNYDGqiVdRRrt8GB8sqwcTavT6EwXN371tZtOPE8zC9vmltYesYTn6l12Wj3vnnUwH6dC0gRvlxG0trVfu3HLyMSS48BtfCaq/+MhmttGmqPmbh1+X87HL1gqlZ04eZpGZwZuD+8RS95rJ5hnZGHD5SOqOA8aHecvVr3q7nFxU6/cjI3f09fXHxu/R1vBL1Re7uzscnHjo8UHEkmvFz/QiefZ3SM+dUY9pyAIDu/t7cMTK1STA3o6v1//wNyaw3Hgtjz/3xpDVCgGi11zt25sbKyo+Pi4KOHS6a8JOA7ctvYOpVJZeLQYX47V5+rN24me4AYCQAAIfE0EpqImQI/m/olFkflV4TnnQzLLzVdvxtDNV7uE51yIyK2MyK20WO3yH9Gg9tl5qDIs+5xn1MHPpQnMrTnV126qVKrBwSGlUll1udrIxJJGZ6J5dzS4SiS9aFk+Kg5JE6Dhs7tHPDw8rFQqRaIW9EYDCrwvLRP5K5VKtDb+1JmKkZE3KpVKJpM/b21red5mZmGbkpqpUqmIkxh4MDa35wkzTqFZGMxTo2Pdj7wHDx+PjLxBZblQeZnBYmvTBObWnNq6epVKNTQ0LJPJ8UcUjpWUqkZGhoeHe3v7mltaUTaKio8T84aGeRqdKQyN7u+XKpXKoaFhrG8an4mw0NkZGTc4OIQmKQTB4fpTanwmIqaoUAz4BghRqTUKBRqdWXa6okcsIcLHmgCvXNHIDTyBABAAAl80gc+vCXTgmzmXPXfRCmqA6QaGrCVW0w0M8alpM1iMBd9h4wH2nxTHtBks79g8Pb9ZZGRi6bbVH6mBCae+getia+9IvZwauZGJJc/VGxsPqJcQfWy4fGF6GWuJFdFTh9vcmoOe/nWEwafMrTmkQZRGZxqZWOr59j+Kh+u0RX90+lPCmdTHgYwW1Gmged+uCEw5br3WQ59IIAwQAAJA4EskMKU1wdQButxu044DZ77oZ8TpBobuEdlO2xKnDtUpmJMNXJfzF6vEEgnpO8dzFi73jMrZGn0ILzWdgpmHLAEBIAAEPpAAaAK99jug0Zkz57LnG1t/IO7Pe/l0A8OPZEr5vOWaxNTv1z9oa++I+oWsnAyYxkYrVhNNU5OYKEQFBIAAEJgiBEAT6KsJpkiFQTaAABAAAkAACHwkAqAJQBMAASAABIAAEAACagKgCaAdAAEgAASAABAAAmoCoAmgHQABIAAEgAAQAAJqAqAJoB0AASAABIAAEAACagKgCaAdAAEgAASAABAAAmoCoAmgHQABIAAEgAAQAAJqAh9XE3xn+1PAnmLDpSs/0lsTEC0QAAJAAAgAASAwWQQ+ribQ/wP7k1UeiAcIAAEgAASAABCYGAHQBGAvAgJAAAgAASAABNQE9NIE02awftgSEp5zPrrgalDqiaXW62l0puHSlfy4wvVekf/xv+Kzq2DOwuU0OpPOWLxJkBSVXxWZd8lnV4Fwv14b8U1M0cBVQAAIAAEgAASAwGQR0EsT2HD5IZlnltttmm5gyPWLC0o9MWfh8gWmNqGZZ3nCFAOm8QJTm+1ppY4+v9DoTAe30JDMcjNbJzpjsXPQ3tCsCn02552s8kA8QAAIAAEgAASAwMQIvF8TkHYKZi2xCko9Yb568wJTG2HGKXN7HkrYNTTdKyZv2gyWz64C56C9yBPWE0ysVuAqIAAEgAAQAAKfnsD7NcFsw2WClJKYwmrij+MsIGkC58Ak79jDKDDeUxg0waevUUgRCAABIAAEgMDECLxfE3wza5FfwtGNvnGkBDRqArATkCjBIRAAAkAACACBL4XA+zUBWiKw40C5seUaGp05z8hikyAJrScgzh0gOwEKvD29bLGZ3bQZrPVbI2E9wZfSFCCfQAAIAAEg8BcnoJcmQK8SROZdCjt4PiK3cqNf/HQDQ412AvTegWdUTuThy+E5F4LTSoX7T8Maw794I4PiAwEgAASAwBdBQC9NgEoy3cCQtcRquoGhPgWbOZc9cy5fzXHzAAAAr0lEQVRbn5AQBggAASAABIAAEJgKBMahCaZCdiEPQAAIAAEgAASAwEciAJoAvl0FBIAAEAACQAAIqAmAJoB2AASAABAAAkAACKgJgCaAdgAEgAAQAAJAAAioCYAmgHYABIAAEAACQAAIqAmAJoB2AASAABAAAkAACKgJgCaAdgAEgAAQAAJAAAioCYAmgHYABIAAEAACQAAIqAmAJoB2AASAABAAAkAACKgJ7E3Z/3/i1SD5q3NkfwAAAABJRU5ErkJggg==;" parent="1" vertex="1">
          <mxGeometry x="360" y="10" width="416.43" height="330" as="geometry" />
        </mxCell>
        <mxCell id="00UijC455V-xWasnX84c-7" value="" style="shape=image;verticalLabelPosition=bottom;labelBackgroundColor=default;verticalAlign=top;aspect=fixed;imageAspect=0;image=data:image/png,iVBORw0KGgoAAAANSUhEUgAAAv8AAABgCAIAAAAFNorKAAAgAElEQVR4Ae19+1dTx/r+50+bXFYQQZSlklrxePRgLacHAZfWez1HqLYqYkUuWik21lO8cECRlkJtSQKKkKBySUgkXAK57b1/YC2Xix/z5eu71rums5NNQggm8vID6917Zs/lmWfPPPPOzM7/RemPECAECAFCgBAgBAiBjYTA/22kylJdCQFCgBAgBAgBQoAQiJL6IRIQAoQAIUAIEAKEwMZCgNTPxmpvqi0hQAgQAoQAIUAIkPohDhAChAAhQAgQAoTAxkKA1M/Gam+qLSFACBAChAAhQAiQ+iEOEAKEACFACBAChMDGQoDUz8Zqb6otIUAIEAKEACFACJD6IQ4QAoQAIUAIEAKEwMZCgNTPxmpvqi0hQAgQAoQAIUAIkPohDhAChAAhQAgQAoTAxkKA1M/Gam+qLSFACBAChAAhQAhkk/pZWlpaXFxU6O8jQmBxcXFpaWmt3kNiyEdEjYSqsrb8WSsefpB0iPzajCGqfBBaZnKmWaN+3r59q01uCs1eBN6+fZv6S0IMyV4CpFjyNeFP6gz8gCkQ+ROkEFHlA7I007LODvWztLSUILkpWpYikKIHiBiSpe2+VsVOkT+Z1i8nVR4if1Is2shUSYpXH33k7FA/tOCV1OudjZEXFxdTedmIIdnY6GtY5hT5kwr3PvizRP6kiLSRqfLBuZpRBcgO9ZMUuSlyliKQyouRpVWmYq8hAqnwJ6ufXUMMN0hSWd3cVPi1QmD91E/V+z+h3FVVVWVlZe/evRPuC5cb5J3c4NUUGj2pyw0OHVVfUZSkCJNKZFmWzWazzWaDRCwWS1VV1YoJVlVVsfd/ifR4K6bGR6DWTxYBHr11tm02W15entvtjpmvdij/CD90vnv3rqyszGKx8BHAttlsiZBT/WA0Gk28MDEfz/ybpH6SfXEofroQSOVtSVeZKN3sQSAV/kSjUYvFAupE+K8ePAT1093dnZeXh2OP2+3Oy8sTEmGMYQQsZ7wc1c/CHXVJIKnsaaJMKSk2weoMFLLxWoq/z7c7yBQN+ashONRyB/nw7t07eJAxhqIcqgbkhJvAW75sapt/3GKxaBR1ddBl1FNpVD/JvtvQEjz6iFSmvDRUjnQigM29CiOd5aK0swOBVdCGfyRmX48ea356LagfVE7Qd4H6idmP8dnBU2azWZZl4b76EnLE0U6IsGLzSJL06tWrrq4uv9+/YuTsjTA5OdnZ2Tk5OSnLsnYtBAC1LwH8FVsKqaKRms1m4wWH2gkUT/0AqVBIQZHwEnOsqqpSl9Nisahv4iPRaBS4LQh0uBmTcjHFH1+Xqqoq/pLPK6PsNKofoZ4xycHrWSE+f6lN5TUMnZubGxgY6Iv1Z7VaR0ZGIpHIGmbHJ7WwsHDq1Cn+3aisrFz/3ioSiUxMTKjzDYfDL168aG1t7e/vD4VCfMkVRdEOhciyLHu93qmpKeFZvORbPFkbE0nECIfDNTU1jLHt27cPDw8n8siaxJFluaOjw/j+r729fcU+Wsg0KYaEQqGrV68yxrZt2zY4OCgklb7LdPAnEXalvvKF6ocXN9hraaufaDSKMTNN/SwsLNTW1hoMhu3btw8NDambfnZ21uVySZLEB0mSND4+/vDhw56enrm5OT4IbJ/P19nZ2dHR4fF44jE5GAyOj4+Hw2H14yneUdNMluVHjx6ZTKacnJzW1lbtTBPvXqDdeRfIKmb1IFMEyRJz7IunfoTIoKISUdjRaBTy5XUMr4egOnwogBPThQmaBqmOMLrd7qKiIn45L6YOw/gZYqy3+hEUpdCo8UBJ8VVJ/PGnT59u3ryZlyC8XV5ePjMzs2JqPp/P/v5venp6xcgYIamxDZ9aQ+PNmzcWi2XPnj1btmzp6+vjU3Y6naWlpQjF3r17nz17hl2edqiiKAsLC48fPy4rKzMajRaLRehnMaN4rZ/IfUyEN6AHt9lsg4ODgUAAg0j9IBRraKSJPyuyC6uQCE804qSofjDljFI/kiT9/PPPRqNx8+bNLS0tfPcVDoftdvvZs2dNJtPZs2f5F8Tn81VVVel0OnjlCwoK2tvbceIXDAZ/+OGHnJwcCDUajXV1dfPz89gQ4Gq6evXq1q1b//73v7vdbgxK3dCg2cTExLfffmswGMxms/asBhtrRYMXChAZeSI8q9YEqDxA/fCDnZBIPEXFyybsfhM0eG1ks9lqampgf+27d+8cDgfmGM8thKW12WxCHHVN1epHkHoCVhlyuX7qByosePASRCH1dybBFFJXP5IkPXjwwGg0mkymx48fo0RYsQCSJL1+/dpqtT5+/HjXrl2MsfXx/ciy/Pz58xMnThiNRniv8vPzefUzOTl58OBBCMrNzQWjuLj49evXiqJoh7pcrsuXLy8nCE/p9foff/xx3dRPMBj85ptvGGM7d+50Op3YBFmqfpJiyLr5ftLKH212YYOCkWBnEi8aDkir8/1gsjEnzcB/xhi/IsCPrMKaCMaHMUw9fcfsotGogAN/OT8/f/LkScbY0aNH0aHr9/tbWlrMZjPmwqufQCDw9ddfQ9CmTZv0ej1jbPPmzd3d3bIso5xijEEvxxjT6XQ3btwIvf/r7Ow8ePAgKqe9e/euifpZkWZQ6/Hx8eLiYp1O19TUhHKNBwRsHj0NO+YQDjyZm5vjAYTNxVVVVXw7ms1mt9ttNpuXGzoeK4APyD30/fC+RqGEggdBCNW+jLlohTTAxS++4qtTP0kt7GqXOX2hK6ifS7H+UimNxWLh3/8EkxLoK8uyy+Wy2WwOh2Nubm5oaMhqtQrze0VRZFmenp4eHh52uVywWCNJ0sTExDLDhoeHQ6GQx+Ox2+0ejyccDjscDpvNNj4+DmNzKBT67rvv4i0cYMpjY2PBYBCKt8wYt9tttVqvXLmi1+uNRuP169f7+vpsNtvY2Bg/5AcCAafTabPZnE6nehXJ6/WWlJSA+onpcxbQSPEyFArV1tbyLwCvfiRJunfvHnRzra2twWCwo6MjNzdXp9M1NzeHQiGN0HA4/PjxY5PJhImvm/qJRCIvX778/fffjxw5whgrKChobW3t6+uz2+1er5dXP/39/TH5Aw68gYGBufd/w8PDAwMDgjNvfn7e6XS+evWKnzdDcywsLAwODlrf/w0PDwNJ+JWvhw8fvnz50mq19vf3C8kqiuL3+0dGRpxOJ45YfCtrMESSpKmpKYfD4fF4oFnTvfKVPv5os0s9tiXYmcSLhiMQdP0gO3Cay49GQgSgNy6OaPh+hIFEUD/CDJvPBWz18gTUheeGYPt8PvDafvXVV8hSp9O5c+dOfCsZY7z6ef78+bZt2xhj33zzjd/vHxwchMnYyZMn5+fnvV4vzIVKS0tdLpfH46msrGSM7dmzZ2JiYmZmpqysjE95rdSPNs2w1h6PZ//+/YyxCxcuYM+MoWjE44Bwn28gIUh9iVRRB8EdWZb379/vdrvRQJcJci8R9aNBsHhZ43306OB2H9w8BByDSywGnPwSmKmuKVYEM4pGo6mUk08nfXYa1Q/61viXQduOJ4yQtWDg6LV58+bt27djmuXl5R6PB+KMjY3Bawmh27Zte/ToUTAY/P7773U63e7du0dGRi5dusQYu3jx4sjICMwYGhsbYcFYQ/2Mjo5WVFRgprm5uS0tLcFgMBKJNDQ04H3eqKqqglfR5XKdOnUKplMQ4cSJE2/evOEr6PF41ln9NDc3nz17tru7+7vvvtPpdLz6CYVCgJLZbH758qWiKCMjIzDpOXPmzMzMjEbo/Px8d3f3l19++fDhwwcPHsA8cn18P36///Dhw3wTgG00Gv/73/8Gg0HY92M0Gnfs2IHRDh06BPyRJKmtrc1oNOr1+k8++QQnsqWlpT6fT1GUmZmZmpoa9JYZjcaGhoaFhQVoR6fTuW/fPkyWMfbFF19MTEyg+mGMLR+ZRhqYzeaBgQF4dmZm5uLFiwaDAR7X6/XV1dWQKZIkHkO8Xi9M9Pms10H9pIk/2uxCtBGWFHtJHIH4Xhs7+njqBzLFZ6HTLyoqstlsMNRhqdRTdn5wFYQRLpqk6Pt58+YNiBVe37x69er48eO3bt3q7e395JNPePUjyzIw32QyPXnyRJblmZkZeJX27t3rcrmGhoYKCwsZY9euXQuHw6FQqK6uDjqNP//8c2Zm5uuvv15+ufr6+vCpNfH9hEIhDZohBzwezz/+8Q/GWHV1dYrqR91e2JTYOviixfP98FvaUfSggaIB+YOyg+cbny/sMMN8Yxq45oVDMMqXBNUPnyPPUriPLwVGw4rgHVRX8SQ7H/ND2WlUP0KVoDmxGYRQ7UskNxiofoS21+v1LS0tkUjE7XbjYg3Gyc/P7+3tffLkiclkKigo6O7uLi8vZ4yVlZX19PRs27aNX6uKp368Xu8///lPTBMM2M4SDAa11c/MzAy4InQ6ndlsxrHz8uXL/IvKj20xp/4CGuAqgJSFgjHGrl+/rp4lq1NQFCUSiTQ2NgrqJxAI/Pvf/2aM7dq1a3R0dGBgoLi4GHKprKx88+aNRihf+N9++y0D1Y8Al16vb25ujkQiqH6ECKdPn154/1ddXS0EGQyGH374IRwO+3w+EMd6vX55QoyT7NOnT8/NzcGuZ+FZxtipU6f8fn8gELh48aI69Ny5c/y+ipgMCQQCFy5cUD+biPrx+/0ZyJ/E2QV81u5DVgzFEYjvyrGj50cj3isDyeKzqH66u7vBCYFDEQ5sWBJ+XEmT+ln2x+zduxccOXwnA4iNjY2BXwe1kSRJFovFYDBs2rSpp6fH5XIhMcxm8+vXr5c91lu2bIGlpZmZmatXr0I/ZjKZfvnlF+xYkFF712jlC1OO2U1hKKq9M2fOoK8LQ9HAJtAweF+IRrTEg1D0oIFMQ/4gSXi+8VlAqZqamo4dO6b+Tl7MpRWeWgmufPHrd0KXAm+EoGmwInxRQaihT1QIyoTLdVI/0JbxXDsrAoGsBQPVj8lkunPnTigUslqtW7duZYzBGNPc3AxrT7dv3w4Gg1arFeYrZ8+e7e/vLywsNJlMTU1NMO8pKiq6efNmTk4OP07EVD+SJN2/f99oNOp0uvr6+mAwODo6Cp0Lbu7DOLyWgmKjwxnmJWNjY+AhKCkpQZeVoigxxzYBAeES+xqBqWuifs6ePcsYKyoqqq2txR08jLGKigqPx6MROjs7i+VcZ/UD+eK+nx07dsTc92MymSwWSzAYtNvtwJATJ07Mz8/z6mf79u13797t6+vr7Oy0Wq2SJP3++++wNf7cuXPT09PL66ogtYEDODmuqakJhUIohkA+ovqprq6enp5GmV5cXDwxMTE4OAjFOHLkiM/nm52dPX36NGMsPz/farUimDEZ4nA4ioqKGGPl5eVer3dkZORf//pXvKVbTAqMzORP4uyCWqzYjWhHwBGI78pXoX7Ug43NZoNBSxgz0q1+pqam6uvr4YzhgwcP+MV3QCym+vnxxx/1en1OTk5tbS1oI+hVzGbzq1ev+vr6ltmo0+n+85//wOwRQk0mU1dXF25zREats/oJBoOXL1+Gxe729vZ4AkibCRDKuwAxPtxUd7Pad2DODxwQYia77wc4Mzc3d+zYMf6MFbqjBI4JS1er8P3wfAYc8KXgYRHOfEEQz3CMnDnGeqgfbHWcBiVbf6GzRvWDJ5b5nRAej+fLL79kjOXk5FRXV9fV1dXW1oLQKSkpGRwcLCkp0ev1hw4dgmMLOTk5lZWVBoNh37596KSNqX5CoRBMzQsLC1+8eKEoSigUunbtGrxsdrtdURQN9QOhDoejsbHx+PHjBw4cgE3EsGSOdcSx7fDhw7z7BCOoDUmSYBOJcFR/mbiwzKx+RH0n5qQqEAiAvoGXVq/XV1ZWwmoRr35ihma++kH+4JTx0KFDMzMzqH5gpYwfNiKRyI0bN3Tv/44cOVJXV3ft2jVwBxYUFPT397vdbhC1BoOhvLz87t27z549g14YV76MRiOceEd9tnPnTofDAYsORqPx4cOHkiTJstzZ2WkymQwGw927d7EYaobIsvzrr7/m5OSA+1OSpKR2PWcmf1D9rMguIHOyvYoQH9UP391jR8/PxaFD43szfFY931WvPmC+/NjAZwoR+FzAVg9sEFP9LiuKMjo6CivUoFT4014YX0P94CB94MABWIjn1Q+G7ty5s7KyUqfTZYj6URTF7XajLKuoqOB7Iaw4NoGGgW4YjTgYFFMqYSgY6PJBA3U2kgSBBQM35WAK+JFx9UecwWHD0xKe4qm1CvUD7iI+WXwpsIJYEbwDBs9wISgTLtOufhIUy9orYshaMGKqn88++wwcEqOjo/zxbJ5PxcXFTqdT+KwORoB5P2QRU/2gFNi9e/f4+DiomTt37qCjWFv9BIPBxsZG3NKB+aaufmB/cX19fd1f/xoaGsBdIQAY8zKe+oG1LfAiPHr0aGJiArcl4dpEzFBeumWm7wfVz9TU1Oeffw7LoKB+Hj58CHu9Hz16hDNa+LIRTC6x+dDIzc3t7e2VJKm7uxs8kRhUUlLy+vVrtfoJhULffvstnEpzOBww7c7Nze3p6YE2stvtuNCAK5gx1U97ezvM8js6OmRZTkr9ZCZ/EmcXYJVif4oKhu+ysaNPUP2ATOEHLXgQT9PwheQzirfWAKNOKuqHMfbvf/87cfUDK19wpKuhoeHNmzewzsuvfAGxT506NTExcffuXXhTMmHlS1EUp9OJp7HWTf3wCoNvYt5G0YMGigbknrbkUmsXFCUaDOHLluDKFxYb2csP0PhSYDSsCN4Bg2e4EJQJl+lVPzzW2E7qavPNow5VH+nUVj8TExOw3zk/P//ChQuoB65fv3737l2fz7esCWAfq9FoPHLkCO6/qaurwxNYqH4KCwvxY3HBYPD8+fP8CWr0BOTn5//555+gfvDEuzBwvnjxAtY1Dh482NXV1dPTAyotdfWDfmYcbtFIcd9PMBiE3SQFBQXg3MKdBCdPnvT5fBqh/FaVj0n91NXVwdhw6tQpZFddXd33338Pmhi2RT98+PDo0aO7d+8GspWWlno8HuFrh7z6GR4eXv6YJAwk+K2Enp6e3Nxc9OjAMB9T/YCXyGg0/vzzz8n6fjKTP4mza23VD/RaoGCwo09Q/QijF8z98vLyYFFScN7wY4O6D4TxbNXqR1EUr9dbX19vMpmMRmPiK1+wuG80GsHduLCwAMuvxcXFLpdrcHAQToRVV1cHAgFJklpaWvR6fW5u7u+//w4Nwe9E3Lu++36CwSAc1y8qKurs7FzzlS8YnuJJVex1eQOlMDQoHyR8AUH7p7UEauEOM1j/0vi8Mk8ttX4SioeXUFOQNZACBuFLgYP1x6l+sHrJGtBZwKIm/xrHTIdvnpgR8KUCQ1v9TE1NXblyBcanO3fuRCIRWZYHBgaqq6vHxsZw/g2f+r137x6s4xiNxra2Npzlx1Q/ePzbYDDcvHkzFAqNjY2BIwQORMAxe/jkqMFguH37Nq5WKIrS29vLj2Q+nw9Oh6aufgKBQF1d3WeffVby17/PP//8/v37fBkEJPnLmL4fSZJwSG5ra4tEIj09PZs3b9bpdDdv3gwGgxqh/OdWP4j6CYfDwAT+FBv4b4RvPSfu+8FPyjLGcDOy2+2+cOHC06dPI5EIfAJg06ZNsA0CFfOOHTscDoeG+nE6nc+ePYOh5eTJk9PT03Nzc+fOnYN9P6Ctob3U6kdRFIfDATusDx8+PDU15ff7YcmS383GNzdvZyZ/EmcX1CVm15HsTZxDgyNQvbEUN1jw0zmYu8M3YFDiwHIGTprhEkOT+iAKlipmdfimFGw8AX7+/PlEdj0rijIwMACeSziNMTo6CgcdTpw44ff7vV4veNm/+OILr9c7NzcHxwyLi4vHxsYwd9TTavUjSdLo6KjNZhsaGsLZJj64ohGzm8KnsHjnzp2LJ30S/Cw4KFcc8nnk+QGLl8VCm0KrYQro8kFDLRpA4ghqA0+PY1JYGIgJvRlPSIyQ7L4fIRFUS7z2Slz94ON8eTRslJX8a6IRP8WgFXw/KaYOj6+z+pmdnR0aGoLJFnyna9euXTD/PnnypN/vf/bsGbzepaWlTqeT37SBb1FM9QPTKTzzVVRUBD9nCGe+cGFieHgYxiGj0bj88pvN5vLy8unpaRyf4D7uIP7000+XVZT6W88wS9DpdLdu3cLEsYRrbsTrVlwuF2xkgWLDXiWz2Qz7iLVDsZDJqh+NqUxMTmJGvCFJUkdHB3xwKC8vb//+/YWFhVeuXFlYWFi1+lEUBWUrKOxPP/0UstizZ8/4+Dhyz2QyHT58uKKiApyLBw8e1Pb9OJ1O/szX1q1bwVOIMkubIX6/H898bd26FU/yJ6J+eNBWbaeDPwmyC8rMEyNZ/uCz2F/D4BfzxIrQoWHM2dnZmpoaWZbjdeKCAOJ9P1iAmMaq1Q9uaMNTXXz7qvf9wJfZQTfDl0Ggq9y0aVNnZ6csy5FIBJfGduzYgVuL6urq+NmOhvoJBAJfffUVYwxnjHyRVrTj0QweXJ8T76tTP263e//+/fL7P/gaQjz143a7+Szi6TAQXjBMqIUREolPCumNJ9ItFgsu0aBSh2chX9BDkBe8DgmqH23SYvHQQDTgQY0a4SMpGh+n+pEk6bfffsPDxsCP4uLi/v7+ZWTdbjcc1Dp//vzMzAx8Dvhvf/vbxMQEvnu8+oENzhgkfO9n06ZNLS0t/DwjHA5fu3YNPxLDGIMTPaFQ6NatW7jQhi5QWFTSGNvgGDYWIE1GvG5FkqSuri5+I0tubi7+ko52KBY1KfXDv2kJ8hszEozp6Wnhwz8nT56Er/Xwv/Ol9v3gV0+E5UtIf/kX34S9ZVu2bHnw4EE4HAZACgoKsH3h6z6wAUvb9wNLZpcuXcLNYfC9H/hxtBUZ4vF4jh8/zueb4JkvAbTVXaaDPwmyCwqMVFkFf+BZQY5A7y8MCTgRh1EBemrAnB8n1E9hFm1tbeBSErLD8qsN7YFEo73wa4dnzpxRfyEppvqBrTNwXB/qpdfrL126hNv4fD4frIUh08rLy/nOU3vlKxAInDlzJk3qZ3JyEqZqaf3aIa8ngGw4VPNtKoziuLlH2/eDqMJeMUhf7QsByYI0i/e7WijEBaeOmmPCHXW+KMJQLfFFVR/o5sWTkHjMy49Z/fBIqW1sxZi4CK83fuv5+fPnIDtCoZDD4bD+9YdIp6en29ra6t//dXZ24ssfDoedTqfdbodfA4YvPjudTn7uAiLJZrM9f/4cH8RiSJI0MjJy7969rq4u9Yd6FUUJBAJ9fX3Nzc1NTU1Pnjx59eoVLD/Jsjw6Onr79u36+vr29vaxsTH7+z/YaQu/dNH31z/4GjVmnT4Dqmy32wcGBrCnw+zcbvdPP/1UX1/f0tLy6tUrXCKECNqhMKj39/fDp5YxTcHAphd6DbyvYQhJ8ZfT09NdXV2NjY3Nzc09PT3wo4zwrXCeP06n02q1Ig1W/LG2YDD422+/NTY21tfXt7a2Cp+s9Pl87e3tDQ0NN27c+OOPP3DRAZOFDxjix8f5L5XLsjw5OdnR0dHW1uZyuRBq/KWLvxLk/3/AGr+YEIlEhoaGWlpa7t27NzIyYrfbYxKYx2et7PTxZ0V2QRWQHqvgD5zVUvfgmBQMBthxwWgEN+Ep6OvVoxSWSm3EO+mDuQhGvMQ1WhC/13Xw4EGv1yvEDAaDL168sNlso6Ojwvr47Oxse3t7fX39zZs37XY73zfC2nFvb29jY2NDQ0NXVxc/94Ms4BTh8nIJfFWfz9fv9x89epQxht8O5UNXtLVpBt+MMBgMGl9VTXDlS5C5fPOtQv0AVVAkQWow3jc1NWFD803M54K5Iw/jcZUfSUH6LAuyZMkJufBJQQFqamq6u7sT9P3EE2RYF7WBbwSPgzraWt3JSt/Pim8IRchGBJDT/Boz3tQ2srG+VOa1RQAZkix/oK+PuciFacYzbO//IBRHJhzM4hkwCvJ+gnjpw30QYfGGBA0YcZuaTqc7ffq0y+XSiLw+QbiRqLa2VhBVqRRAlmW73X7gwAE4lbJWv3IacwjndQk0Osoavk2h1cDp4na7j3HfJ0xkmFf7TuApbaJCpowxOBKPBQN9H4+Q/P2qqiq+FmpmJqJ+oBh87up0Pvid9VA/qVcylbeCns0WBJAn6CLGOysa2VJHKmf6EECSrII/+Gw2GtqQLiwswC8Pms3m5W9gakdOdyieoljeNKktUJItCX4cKzc39/79+9obJRNv5Zi6k1c/MZPC9Sa1+yRm/I/vJr/BKGNrR+on2beM4qcLgVReknSVidLNHgRS4U9WP7tiE0mSND4+7nA41tDXsmKm8SLA4iwcv40XZ3X34TdZ1Qt86tSSau5kl42SSvyjjLzqMwfrjEZ2qJ/FxUU1g+nOx4TA4uJiKtQnhnxMZFhFXVLkTyrc++DPEvmTIsxGpsoH52pGFSA71M/S0lJS/KbIWYfA0tJSKi8GMSTrWnxtC5wif1Lh3gd/lsifFJc2MlU+OFczqgDZoX6i0ejbt2+TojhFziIE3r59m/pbQQzJohZf26KuCX9SZ+AHTIHInyCjiCofkKWZlnXWqJ9oNLq0tEQ+3gRf8myJtri4uIZTMWJItrT7WpVzbfmTab1zUuUh8muTiqiSFJ02QuRsUj8boT2ojoQAIUAIEAKEACGQbgRI/aQbYUqfECAECAFCgBAgBDILAVI/mdUeVBpCgBAgBAgBQoAQSDcCpH7SjTClTwgQAoQAIUAIEAKZhQCpn8xqDyoNIUAIEAKEACFACKQbAVI/6UaY0icECAFCgBAgBAiBzEKA1E9mtQeVhhAgBAgBQoAQIATSjQCpn3QjTOkTAoQAIUAIEAKEQGYhQOons9qDSkMIEAKEACFACBAC6UaA1E+6Eab0CQFCgBAgBAgBQiCzECD1k1ntQaUhBAgBQoAQIAQIgXQjkE3qh37IRvuHbDIzlH5eB99hIjCRAclABrtjZmIAABb+SURBVCFACHxYBLJG/dCPGGemuEmwVPTTykRgpAqR4cN2+pQ7IUAIRKPR7FA/S0tL2HWSkaUIrOFvuWfdq0sEFki7kcmQdeylAhMCHyUC2aF+FhcXhd6TLrMOgcXFxY/yFUqkUkRgga4bmQyJEIbiEAKEQLoRyA71I3SddJmlCKSbzRmbfpa2V1qLnbGNRQUjBAiBjYDA+qmfqvd/AqZVVVVlZWXv3r0T7guXae2FKfF1Q0Bo1vRd2mw2s9ksyzJkYbFYqqqqVsyuqqqKvf9LhJMrpsZHWDeEsygjHp91tm02W15entvtjpmvdig+Isuy2Wy2WCxwx+12FxUVxUsTnyKDECAEMgQBUj9ZNF5kfVFTIf27d+/KyspAnQj/bTabkLKgfrq7u/Py8viBKi8vT0iEMYYRMDWLxaKOpnEnnsbK+pZLQwUQ5GQNkB0arRAzCNUwEElD4MZTP2q5k5eXh9yTZbmpqYkxhhklWy+KTwgQAuuJQBrVT7IjB/RZ2JvwKKSh76UkPwACfJsma8OgJQgUGJCAM/zkW1A/0WgU2Igx+XFLoyQWiyXBwQxKsmr1Ew6HBwYGnj59GgqFPkDDrF2Wk5OTnZ2dk5OTsixrp6oBuzrIZrMxxuLBi/HdbndeXp6GsolGo5AUKiS1Eyie+rFYLHzkmNFi0gByFKiLZSaDECAEPggCaVQ/Qn2yYuVrbm5uYGCgL9af1WodGRmJRCLaffqqQxcWFk6dOoWdMmOssrLS7/evOsFkH5yenu7s7Gxvb3e73eqhKxAI/PHHH62trU6nUw2CdiiWRKBEUpe8+kFxk7j6iUajyEAYI2PqbKFI66N+PB7P4cOHGWOlpaU+nw/hCofDQ0NDra2tdrs9GAzifTBSCRWSSvbS5/N1dnZ2dHR4PB6eKrIsP3r0yGQy5eTktLa2hsNhjZQFqDUuob0SUQ9VVVW8QFGnCYTBpGKuvGvIGnwQ6JSgMkbJlQjl1GWmO4QAIZAOBNZb/cAYhnO4mL2Pup4afejaBj19+nTz5s28BOHt8vLymZmZFXP0+Xz293/T09MrRsYIH1D9BIPB27dvb9q0CSprMBhqampmZ2ehbJIk9fb2FhUVIRSHDx8eHx9PJBRrB4a6ZRO/k7r6wbwySv0EAoHq6mrG2CeffNLV1YUq5+XLl6WlpYj5rl27rFYrSo1UQoVGSeoyGAz+8MMPOTk5UDCj0VhXVzc/P4+JTExMfPvttwaDwWw2Dw8P4321gc2hbQg9hkbkRFwsfIdjsVh4L1E8XzUoHsFjhO2iYQjaiM9aoxYURAgQAuuDwPqpH6hP4tM4vv7qrjNNd1JXP5IkPXjwwGg0mkymx48f43C1YoElSXr9+rXVan38+PGuXbvWzfcDBTaZTIwxKDZjTKfTfffdd7AK8/z58x07dsDN3Nxc6O4rKirAS6EdKtSab9Nk7TVXP/HGLd55wPt+4o1/MKGPueSBdRRw4C9dLldxcbFOp2tqakKnmtfr/ec//wklRMyLioocDoeiKKmE8lkna0uS9PPPPxuNRoEqN27c4BfsxsfH1TVS54XgaBsxPTHqRwB/Xs2o40Dno253aHEUQ5gjTzkhtcQFND64ikfwWTIIAUJgzRFYQf1civWXSiGEtfMEkxK6TlmWXS6XzWZzOBxzc3NDQ0NWq3VwcDAQCPAxZVmenp4eHh52uVzQO0uSNDExsdy7DQ8Ph0Ihj8djt9s9Hk84HHY4HDabbXx8XJIkRVFCodB3333HGNu2bdvg4CCfrKIomPLY2BhO1pf7X7fbbbVar1y5otfrjUbj9evX+/r6bDbb2NgYJAvpBAIBp9Nps9mcTic/bECo1+stKSkB9TM3NydkveaXk5OT+/fvZ4zt2bPn5cuXk5OT//rXvxhjxcXFY2NjgUDg3LlzjLG8vLxff/3V7/dfunRJp9Pl5ub29vYuLCxohKqVX4LNHTMaPxQltfKlPsmlMQ5hylAGQf0Is3kYcVNUPy9evCgsLNTr9bdv3waSSJL0008/GQwGvV7f1NQUCATu37+fk5Oj0+lu3rwZDAZXHaq9FLUitbxe78GDB2GFzuVyeTyeyspKYM7ExAQ+7vF4gFEXLlzAtwND0YjZysLNxB0/2MroVxaSgktZlvfv3w9ru2DgdrGk1A9PjJgZqW8mXhf1s3SHECAE1hyBNKqfeJ5k9dwL7/DTbr6q2GOCEQ6Ha2pqGGObN2/evn07Pl5eXu7xeCDO2NgYdM0Qum3btkePHgWDwe+//16n0+3evXtkZOTSpUuMsYsXL46MjMBstbGxEUYIDfUzOjpaUVGBmebm5ra0tASDwUgk0tDQgPd5o6qqCoYBl8t16tQpvV6PoSdOnHjz5g1fQY/Hs57qZ2hoqLCwEHAIhUKSJLW2thqNRtA3Pp8P1l9wS8rAwEBBQQGMxF6vVyMUPRlYO75Nk7V59YNjD68/cBiDbRaCUsGxLRqNQkybzQbjH5ZEPT5hRjHT5HMHO97QiwiojefPn2/dulWv1//444+ovIGZhYWFQ0ND4Ow5cOAAY+z48ePT09OrDuWXqNQlWfEOUuXatWvhcDgUCtXV1el0uvz8/D///BMf93g8//jHPxhj1dXVKaofDZ2KrYZb2tva2sxmc1VVFc8EPlo0Gl0T9QNtja+w2hC4h2Xg6YQ3ySAECIEPgkAa1Y9QHxha4vULQmThEjtWMFD9CP2OXq9vaWmJRCJutxsmqXyE/Pz83t7eJ0+emEymgoKC7u7u8vJyxlhZWVlPT8+2bdv4tap46odfdMDEjUajxWIJBoPa6mdmZubIkSOwhGQ2m2EFgTF2+fJlfpDg1U+Cu579fj+kjEVC4/r162oVwuM5PDwMCrK2tjYUCsmy3NnZaTKZjEbj//73v6mpKViCKSsrgz1PL1++hD1Aly5d8ng8GqFqT4PQrEldCuoH1jh4/cGPeYILBwZIXBaBmN3d3eCiwL2ouOSBBeOHK3WafO6rVj9//PFHXl6e0Wi8f/8+qB+k986dO51Op6Ios7OzwNXS0lKPxwPSfxWh/JZqngMJ2sveyi1btsAi3czMzNWrV4HDJpPpl19+wUTevHkDb9+ZM2cEdyzGURQFQdYw1C2ijozbfbAJZFnu7u6O+QmDNVE/wISamhp+EzQUDFiKTBNKm0h1hEfokhAgBNKEwDqpH+gU4rl2Vqwb32kqioLDg8lkunPnTigUslqtW7duZYydPn16bm6uubkZ1p5u374dDAatViu4N86ePdvf319YWGgymZqamj755BPGWFFR0c2bN3NycvhFrpjqR5Kk+/fvG41GnU5XX18fDAZHR0f37t3LGPv73//udrsVRcE4vJaC8judzp07d+KceGxsbN++fYyxkpISdFkpirLO6sftdkMV9u7d+/r16/n5eVjbMhqNDx8+nJ+f/+qrrxhjW7Zs6enpCYVCsAoDvqLZ2VmNUPWi3ooNrRFhDdUPr2NgxcRms+HYyZchreoHdnqdPHmSMVZYWIgLrJIk3b59Gwh869atUCjU398PirO0tNTr9a46dGpqSniVkrrs6+vLz8/X6XT/+c9/QI2ByDaZTF1dXbjQGQwGL1++zBgrKChob2+PJ4B4nOPZPP4x44BzCFSI0IJwKQgRuIlzAzCS2vcDPAQP07Fjx4QvtYIUQz0tlDlBV5bwFF0SAoRAOhBYD/WDPU68TmHFigl9NKqf7du3w7kSfq+Mx+P58ssvGWM5OTnV1dV1dXW1tbUgdEpKSgYHB0tKSvR6/aFDh+DoSk5OTmVlpcFg2LdvHyiYePt+QqHQxYsXYax68eIFRLt27Rp09Ha7XVv9QKjD4WhsbDx+/PiBAwdgQ+uePXuEbROw8nX48OEEfT+SJL18+dJqtQpH9ZeH+ZjH13k8Q6FQbW2tTqfjt7IyxkwmU2dnZyQS6ejoAKB0Oh2eC2OMXb16NRAIaISmT/3g2XWgFvAqcd+PcPoGl2jVjkl+9OU1EzCWzx3spFa+fv31VwDWZDK1tLTwrrLh4WGz2QxjM+56ZowdOnRoZmYmlVC+6ZO1Qf2gdNi5c2dlZaVOpxPUj6Iobrcb5VFFRQWeH+RzXPGth1PlgnzhnwIxgZjHbALhDLy27werxhuCg4enQVVVldCnLasiNYuwzKR+EAoyCIEPjkDa1Q+88HxvEtPW6DKi0SjfafK+H179fPbZZ4yxioqK0dFR/qgwn11xcbHT6RQ+q4MRTpw4gRsjYvp+AoHA2bNnGWO7d++GI9+SJN25c8dgMGzatKmnp0db/QSDwcbGRoPBgDmCkbr6CYfDjx8/rq+vr/vrX0NDg9Vq5TdcC0jC5ezs7IULF0AAYdmWZ/lWqxXQ/umnn/CQM0QwGAwWi0WSpHA4rBEqZJcK3dH3g5Nv2MZhNpuTUj8wRvJDGiQYc6FEUD8IDm9A7jGHXqyvgANcovoxGo2C+pFl+enTp+Dv4fM6e/ZsIBBIJTRmSRK8CStfUJ5Tp05NTEzcvXsXzgnyK1+KojidTlRvaVI/uOCFIMdrAlC36B9KfNczpoyGQB63271//378QRVtxw9sOEvwM5uYIxmEACGQJgTSq37wIAZjTJgk8fXhp1P8fbSF3jmm7wfVz8TEBOx3zs/Pv3DhAuqB69ev37171+fzLWsCdHUcOXIE99/U1dWhuwLVD78kEQwGz58/zxjDLReRSOTGjRv8xk/+xPujR49wOUBRFDjdwxg7ePBgV1dXT08PqLTU1U8q+34AW0mSXr16df/+/UePHh06dIgxtm/fvuXzX4i81+vt6Ohob28HnbRlyxbwdUEE7VBMBBt0FQaqHxiBYLUC7KTUj7D3AtR5Xl4eSA10JEAJBfUjaHQ+d7CFx7GaiABvSJI0MjJy+vRpYeUL4/j9/u7u7vv37//www+bNm0yGAx37txBLZtKKGaRlDE4OLht2zZYug0EApIktbS06PX63Nzc33//HZMKBoNff/01rCl3dnamY+WLFzQIskYTYKNDHF5QwnlG/ve5MDKmjIbgNeT3k0HKGp4qUj8IIxmEQCYgsIL6WXURYaxSD1ExE1xb9TM1NXXlyhVYx7lz504kEpFleWBgoLq6emxsTJbljo4OUDzbt2+/d+8efMzGaDS2tbWhWImpfiRJunfvntFoNBgMN2/eDIVCY2NjsEq1d+9el8sFh+Hhc7cGgwHPMMPA0Nvbm5ubC1uzJUny+Xzww1Wpq59AIFBXV/fZZ5+V/PXv888/x720ODjFMyRJcjgcX331lV6v1+l0DQ0NqAXhEY/HU19fDwsxR48eFT78qB0KKcRs/WRvAlsAOt6Fw6ejZhSc+Zqbm4NjQRAZBlHUNHDJKxhe/fDpq22NoVftvOSbwG63FxQUGI3G1tZWVDYYwe/337t3D5TZp59++urVKwxSFGXVoZIkjY6O2my2oaEhoZX59AXb6/XCHOOLL77wer1zc3OwaQk+joCRMdq5c+fiSZ8Edz3H/EBGPHWi3QTQZBorX9imkD5QiCdYzMLA8tyxY8fKysqQSJiUYMQruRANL9ErCR0p3ieDECAEUkcgXeqHLxn0Suvm+5mdnR0aGsJVg82bNy9/JxecPSdPnvT7/c+ePYMt0qWlpU6nE04tLY9A/f392IPHVD/Ch+aKiorgxzLhzBcerRoeHobdzUajce/evWazuby8fHp62uFw8Pfz8/NhDvrpp58uqyj1t54hVKfT3bp1CxPHEq6hIUnSf//7X/SBwclq/nxQf39/QUEBzpj37NkDZ5GgDNqhfDmRFdCtrzhaYHw0gEswJsV0AEBMQf2Ag6esrGx2drampkaWZVikUP90lCCA1kH9qE+8A2K4+R1gz8/Pf/LkCcqjVEIVRQkEArBdHVU730zx7EgkYrFYYOl2x44dsLal0+nq6ur4TUvrf+IdGj0R9YNrVSiD+O1iSB5QGzyL4kkfXNlPRKBo7wpCkqOB+9sS5yE+SwYhQAhoI/Bxqh9Jkn777TeQGjhmFxcX9/f3L3eReMrp/PnzMzMz33zzDWPsb3/7G7/1mFc/sMEZhwThez+bNm1qaWnh57jhcPjatWv8Npri4uKJiYlQKHTr1i1eZEDZCgoK7Ha7hvppbm5eN/VjMBguX74s+HV4fVNRUTE2NoZoKIqiHcrHRC4mMlBhZDRAMwm+GbWCgfUIlFaQF0ANElxbe1kslra2NjjLk/ioo10jHgTBxq8dtrS0oLjhj/4xxnbt2vXnn3+uVSionzNnzjDGklI/iqL4fD5YqsPXqry8nH9xFEWZnJyEw4zr+bVD3ATG0wOZgwZ+9klb/WDtYDcYSBxh/oa8ghy1CRCNRtXsxVLFM0j9xEOG7hMCqSOwfuqH71DUNo5VMaskDBj4refnz5+D7AiFQg6Hw/rXHyKdnp5ua2urf//X2dm5sLAA6YTDYafTabfb4Zeo4YvPTqeTn78u92Vut9tmsz1//hwfxGLAjo179+51dXXF/DGvQCDQ19fX3Nzc1NT05MmTV69ewdAly/Lo6Ojt27fr6+vb29vHxsbs7/9mZmbwly6Ec1vwNWrMOh2GLMtDQ0N37959+vQp7/LBvDwez88///zLL7+4XC5+DIYI2qGYCL/YEXM4idn0eBNGF/W+ClxNwFk4sIsXOjAvhwjaoyNmBwa4gtR0jXcnXuI8CILtdrtjaoX5+fn//e9/7e3tAjPh8VRCYcns6NGj6t9VFcoW8zIcDvf29jY2NjY0NHR1dfG6H+IPDg4WFhYaDAb8fmPMdASo412ulQBF/cEvZuGnL5uamrBN+Ubk3T9YQmRaTDbGlOOr+6FTFFiJOJaweGQQAoRAIgisn/oRZk584WJ2MXyEmL0n3cw6BLBNEx/S4BEYb4RxC1PTNmzv/yAOzL9xnNMwcHFNW5dj1tpTf42WCofDV69ehU8M1NfXr8NvmyiKMjo6WlxczBirra3lRb9GORMJkmXZbrfDZ6l37ty5Jr9yqg0s4p+I78ftdh/jvtCD0paXO3yC6n3KyB9tKsK6qsAc9Y5pIS+6JAQIgfVEYD3UT+r1SaTnpTiZjwAyAV36eOfjNrSbZnJyEk4pVlRUCGuO2g+uLhR/zGR545q2QEk2ffxQeG5u7v3797WXaxNv8RVPkiee1IeKiR7KD1UAypcQIAQEBEj9JNvDU/zVIyCQb+NcrggZrMYKv4a74lOrjhCJRIaGhuAI5KoTifmg3+8fHBz0er0xQ/mbSbU++Gk0/MdJpbbOkUG9abuL1rlIlB0hQAhkh/pZXFzk+02ysxGBxcXFDfu+EYEFxm5kMmzYt4AqTghkFALZoX6WlpaE3pMusw6BpaWljKL+ehaGCCzQdSOTYT2JR3kRAoRAPASyQ/1Eo9G3b98KHShdZhECb9++jUfBDXKfCIx0JTJsEM5TNQmBTEYga9RPNBpdWlqiFQQcQrLFWFxcpIk+dAFEYCJDJg8GVDZCYEMhkE3qZ0M1DFWWECAECAFCgBAgBNKEAKmfNAFLyRIChAAhQAgQAoRAhiJA6idDG4aKRQgQAoQAIUAIEAJpQoDUT5qApWQJAUKAECAECAFCIEMRIPWToQ1DxSIECAFCgBAgBAiBNCFA6idNwFKyhAAhQAgQAoQAIZChCJD6ydCGoWIRAoQAIUAIEAKEQJoQIPWTJmApWUKAECAECAFCgBDIUARI/WRow1CxCAFCgBAgBAgBQiBNCJD6SROwlCwhQAgQAoQAIUAIZCgCpH4ytGGoWIQAIUAIEAKEACGQJgRI/aQJWEqWECAECAFCgBAgBDIUAVI/GdowVCxCgBAgBAgBQoAQSBMCpH7SBCwlSwgQAoQAIUAIEAIZigCpnwxtGCoWIUAIEAKEACFACKQJgf8HeY3Wjb8+q7oAAAAASUVORK5CYII=;" parent="1" vertex="1">
          <mxGeometry x="360" y="340" width="416.43" height="52.12" as="geometry" />
        </mxCell>
        <mxCell id="00UijC455V-xWasnX84c-8" value="&lt;font style=&quot;color: rgb(255, 51, 51);&quot;&gt;如果达到触发的阈值，则发送&lt;span style=&quot;font-family: Menlo, Monaco, Consolas, &amp;quot;Andale Mono&amp;quot;, &amp;quot;lucida console&amp;quot;, &amp;quot;Courier New&amp;quot;, monospace; font-size: 13.2px; text-align: start; text-wrap-mode: wrap; background-color: rgb(249, 249, 249);&quot;&gt;PUBLISH&amp;nbsp;&lt;/span&gt;hotsku sku_id&lt;/font&gt;&lt;div style=&quot;text-align: left;&quot;&gt;&lt;font style=&quot;color: rgb(255, 51, 51);&quot;&gt;其它客户端&lt;span style=&quot;background-color: rgb(249, 249, 249); font-family: Menlo, Monaco, Consolas, &amp;quot;Andale Mono&amp;quot;, &amp;quot;lucida console&amp;quot;, &amp;quot;Courier New&amp;quot;, monospace; font-size: 13.2px; text-wrap-mode: wrap;&quot;&gt;SUBSCRIBE hotsku&lt;/span&gt;&lt;/font&gt;&lt;/div&gt;" style="text;html=1;align=center;verticalAlign=middle;resizable=0;points=[];autosize=1;strokeColor=none;fillColor=none;" parent="1" vertex="1">
          <mxGeometry x="60" y="130" width="310" height="50" as="geometry" />
        </mxCell>
        <mxCell id="00UijC455V-xWasnX84c-9" value="windowSec即为窗口期，比如多少秒超过多少次请求，则触发" style="shape=note;whiteSpace=wrap;html=1;backgroundOutline=1;fontColor=#000000;darkOpacity=0.05;fillColor=#FFF9B2;strokeColor=none;fillStyle=solid;direction=west;gradientDirection=north;gradientColor=#FFF2A1;shadow=1;size=20;pointerEvents=1;align=left;" parent="1" vertex="1">
          <mxGeometry x="610" y="77.5" width="110" height="85" as="geometry" />
        </mxCell>
        <mxCell id="00UijC455V-xWasnX84c-10" value="" style="shape=image;verticalLabelPosition=bottom;labelBackgroundColor=default;verticalAlign=top;aspect=fixed;imageAspect=0;image=data:image/png,iVBORw0KGgoAAAANSUhEUgAAA4MAAAHUCAIAAAAP4WrLAAAgAElEQVR4AeydiVtTV/7/f39GykxaxooGcGFRQgUhIIusoiAgoICAsooBDPsSk7CpuIIICLKJIqigGFACiEUUN6a17dg6nc7otLXYmbpVvtaS38SDx+vNIgpI0TdPnj4n96z3daG+8jlL/p/y7f48evRoaGw/9+/ff+XQLl686OvrGxIS8s0332gr/Pvvv1+7du3BgwfaCuA6CIAACIAACIAACIDAlBD4fxp7/f777xUKRW9vLxW4Bw8e9Pb2FhUV5efnl5WVfffddyMjI6Tu0NBQd3d3T0/Pf/7zH42tMS/W1NQIxvYjkUiYFZVK5fDwcF9fn0Kh+Pbbb0lWb2+vQCBwc3P76quvWIXJ259//jkmJkYgEGzfvn1kZGQsvcfFxT169IhUl0gkYxusqpSfn9/Q0JDGYeAiCIAACIAACIAACICAOgENJvrLL7+sW7eO2ttvv/22d+9ee3t7ppPZ2dllZWURT33y5IlUKhUIBPHx8dRc1XsiV8bigqQjdRMdGhry8/MTCAQ1NTWkNWKidnZ2y5cv92X8xMTE/Pzzz0qlcmRkpLS0VCAQODo6nj17diy9w0S1PTtcBwEQAAEQAAEQAIGJJcA2UapugYGBP/74o1KpfPToUVxcnEAgWLp0qa+vr7u7O1XS8vJyMpq///3vXl5ednZ29fX1usdHXFBHFJPq5thNlI6HJpjhyZ9//jk4OJiIMrHSyMjIW7duDQ0NHT9+PCEhoaio6N///vfQ0BDJVTfRoKCgU6dOKZ791NTUODs7CwSCnJwcckWhUJCwK7NT3RCQCwIgAAIgAAIgAAIgoFQq2SZKnFIgEDQ2NhJAjx49kkgkFy5c+P3335VK5e+//15SUkKcLzg4mMzIU3/19fX997//rYMsMVEHB4eUlJR8TT85OTkuLi4CgWDsJurs7FxTU0O9UKFQ9PX1DQ8P02EoFIq6urrh4WHSe1xc3PXr1xUKRU5OjkAgIKJ5+fLlyspKgUCgbqLMK1999ZWbmxszLqtUKskkPkyUAkcCBEAABEAABEAABMZCgG2i5eXlAoGAKZQjIyPEQWlzX3zxhaurK2tl5M2bNz09PZkKS8szE2OZHyeaGxQUlJGRoVAoqFPScClrdl5HhPX+/ftkf9R///tfuk40Li6OhD9pDJUIqLaYKI2hDg0N9ff3k3svLS2lO6/S09NZNJi3jDQIgAAIgAAIgAAIgIBGAi+Z6L179yIiIgQCQVpa2m+//aaxglKpPHv2rJ2dnUAgoDFR5iR+QkICdUf1Fl4ZE6Vx0pSUFAcHB29v79u3b7e0tOTn59NwaXh4OCkmFAoFAoG2CGtfXx/dckTimm8WE2UKq440YqLqjxtXQAAEQAAEQAAEQEAHgZdM9MaNGx4eHgKB4ODBg9rqPHjwID4+ngjZ1q1b6Q56pVK5d+9egUBA3FFb9YMHDxJ3PHXqFCvUyqzy66+/5ubm0rlyKpQ6RFA9q6amhlZkmui6detKS0vz8/PDw8MFAoGXl5dUKt2+fXteXh7tkQyGVldvXP0KTJT5BJEGARAAARAAARAAgVcSeMlE+/r6SLCzt7dXY80HDx6QmWhinLdu3WIW+99ZTgKBwNnZ+dq1a8zrzPRnn31GloGqm5zGK2RTFImJ0nDpGBN9fX33799nzrmTmOjaZz+s7tzc3JKTkzWaKGbnmU8QaRAAARAAARAAARCYKAIvmahcLtdxPOd33323du1aInBeXl6fffYZaxDkTCWBQKBNZMmxSk1NTUuXLmWJoMa3UVFRd+7cYfVy5cqVwcFBcpGYpe5gJJ2Rf/ToEUnHxMR8//33dJUnSdy9exc7llio8RYEQAAEQAAEQAAEJpXASyZKRE3jBqBz586RPeMCgSAiIuL7779XH9ZYTJTUevLkSUtLS0JCQmpq6l//+lcqheRYpZycnG+//Vb9O5ZGRkZOnDjh6Oi4dOnS7u5upVKpbqIPHjyorq5mnjBPTfTWrVtkP1ZcXFx3dzfj+FFVcufOnbQk62R7Mn1PArFk9apAIKBrVfPz81etWoUdS+q/D7gCAiAAAiAAAiAAAroJvGSi2mKiFy5ccHR0FAgEdnZ2O3fu1LYhaewmSiWSZb3qZklHPzw8vHPnTrJ4wNfX98aNG7QRGhP9/vvvyY6riIgIGkwlbXp7e0dGRm7bto3Mv7e3twuen5C6bNkycmiUNhPVGK9Vv0iHQceMBAiAAAiAAAiAAAiAgA4CL5moRpWkX7lkZ2dXW1vL3KLEalf3OlF6BpO6w+m4QvTu22+/Xb16NSnGjMhSc719+3ZtbS2d9Fc3UXI0FTmCPi0tjQyVHFlK7loikbBM9PHjx2RvlqOjIw2gLl++nNiwu7s7vUj6hYmyfh/wFgRAAARAAARAAAR0E3jJRDXunafbmFxcXHJycpi7hYqLi5lz6Lr3zo/HRL///vugoCA7OzupVPrrr7/SWyLuaG9vT3dB2dnZbd26lVmGjIpssfL19SXhT2Kfq1atys/PJ0dBqZsoPdMqPj7+8ePHpFOcbE/hIwECIAACIAACIAAC4yTwkolS92KeJ0psT2PYkhkFpF8KyvxGIubgfv/9959//pksCb1+/TqRwo0bNzI3D5F97itXrrxx4wYp+fPPP5PDnj7//POOjg568NPw8PD58+dJjJOOLSAg4NKlS8yo7b1798LCwsgXKV26dMnb25t8PRKN/tK66iZ6+/ZtUp75bU8wUeYzRRoEQAAEQAAEQAAExkPgJRNVKpVkTw/zTNAxmihVNPo1odqGde/evbS0NKKArMKkL6bgkkaePHly9+7d69evt7S05Obm+vv7kyly6pHLly9vbW3VuID11KlTy5cv//LLLxsbG8lRphcvXiQmmp6eTjdL3bt3r7i4mHmKU0dHB+mFeboqvc3KysrLly8rFIoTJ074+flhx5K2x43rIAACIAACIAACIKCNANtE6ffO02/U1FaTeX1kZGT79u2srwllFiDp33//vaOjgxyeLxAI4uPjHzx4wCymzUS12bC9vX1kZGRvb++TJ0+Y7TDTT548uX///p07d8hKU/JFpsPDw0NDQ2RpAVkzSqU2KSlp+NlPQkICNVfaIDXRmpqaoqIiWovcDp3Ep+WRAAEQAAEQAAEQAAEQ0EaAbaIjIyNkinzVqlUaj2rS2BDxVzs7u+bmZo0F6MUvvviCzMvHx8czz1oiBbSZ6N27d+mOJYFA4O7unpWV1dvbyxJZ2ot64uHDh9u2bbO3t8/OzmZ9kSldHfu/k1Dt7e3b29uVSiWV5sjISGYvTBNlKiw9WEq9a1wBARAAARAAARAAARDQSIBtokqlkn6fZ35+vo5YI21ueHhYJBIJBIKMjIyxlP/+++/Pnz9PV3zSdsiX1w8NDdG1ocysK1eunD59+ubNm/SwT2buGNN///vfv/76a1bh4eHhvr4+hULR29t79+5dZu6PP/74t7/9jXmFmSZrBoaGhu7evTuWG2fWRRoEQAAEQAAEQAAEQECDiSqVSjJ5PUbBIkI2xsIgDgIgAAIgAAIgAAIgAAKEgGYTBR0QAAEQAAEQAAEQAAEQmGwCMNHJJoz2QQAEQAAEQAAEQAAENBOAiWrmgqsgAAIgAAIgAAIgAAKTTQAmOtmE0T4IgAAIgAAIgAAIgIBmAjBRzVxwFQRAAARAAARAAARAYLIJwEQnmzDaBwEQAAEQAAEQAAEQ0EwAJqqZC66CAAiAAAiAAAiAAAhMNgGY6GQTRvsgAAIgAAIgAAIgAAKaCcBENXPBVRAAARAAARAAARAAgckmABOdbMJoHwRAAARAAARAAARAQDMBmKhmLrgKAiAAAiAAAiAAAiAw2QRgopNNGO2DAAiAAAiAAAiAAAhoJgAT1cwFV0EABEAABEAABEAABCabAEx0sgmjfRAAARAAARAAARAAAc0EYKKaueAqCIAACIAACIAACIDAZBOAiU42YbQPAiAAAiAAAiAAAiCgmQBMVDMXXAUBEAABEAABEAABEJhsAjDRySaM9kEABEAABEAABEAABDQTgIlq5oKrIAACIAACIAACIAACk00AJjrZhNE+CIAACIAACIAACICAZgIwUc1ccBUEQAAEQAAEQAAEQGCyCcBEJ5sw2gcBEAABEAABEAABENBMACaqmQuuggAIgAAIgAAIgAAITDaBV5vo3bv/USjOlpRUJCdnBwSEeXkF4AUCIAACIAACIAACIAACr0sgODgyKSlj79793d29d+78pFQqdZnorVu3Gxqa4uI2vW43KA8CIAACIAACIAACIAACOghs3Jj6+edfajXRrq7eTZsydNRHFgiAAAiAAAiAAAiAAAi8MYFDh5o1m2hzc8uaNZFv3C4qggAIgAAIgAAIgAAIgIBuAppNtLm5RXc15IIACIAACIAACIAACIDAOAloMNGurl5EQ8eJFdVBAARAAARAAARAAAReSYBtordu3U5KSn9lNRQAARAAARAAARAAARAAgXESYJtoQ0PTOFtEdRAAARAAARAAARAAARAYC4GXTPTu3f/gwKaxUEMZEAABEAABEAABEACB8RN4yUQVirPjbxEtgAAIgAAIgAAIgAAIgMBYCLxkoiUlFWOpgzIgAAIgAAIgAAIgAAIgMH4CL5locnL2+FtECyAAAiAAAiAAAiAAAtOWQN1nD5XK291vZ/wvmeibfKd8522lUnmrE99EDwIgAAIgAAIgAAIgMP0JPFM7pe6fUU/tvqV89FllQNVnjzSba+X1h8rbZ7x0MXnJRN9EfmGiOvm+CVI0CAIgAAIgAAIgAAJTQkDljiq5HJPAdN5WPrxe5aVuoqOG6vU2THRKMKFTEAABEAABEAABEACBCSbQfUupfPjwkc546AtPPaOaF1f7UbkpTHSCH8zYPhmgUxAAARAAARAAARCYtgTO3Fatt6z67NHDz+q0xESfK6ZXADPeqTY7/7zY24iJqvpgrBNlri14vtZVpczPgrfP74qxElZT+efF4H8gAAIgAAIgAAIgAAJvlYBKK3X9PI+JVnafeT6J/8cx0e5bz+3zmSkrR51apZvPxz0q0eStlvLT9sMEHBoEQAAEQAAEQAAEpjWBMcZENU/NP1PYh59dJzuZmHFTbUzGvWOJFRNlSKRqiC+2Vj23UrKs9aUQ6ajpM8q/VffXhgbXQQAEQAAEQAAEQOB9IzDWmChD+f44MVGyaIAR0n1unKohjqZVU/Mv1h88E9kXFZ6Xf9+eOu4XBEAABEAABEAABP4oBLTHGZkj1BwWVbncFK0TJRJNLVM1PmqWqlt6NiOvmqkfPVlKV3mGaDPvGWkQAAEQAAEQAAEQAIFJJMCKEr6IF46m6CnyZ26PxhZfxERHz3WaGhNl7ENSeeSzt9REn719+FkdYwped3lM0IMACIAACIAACIAACLxVAs+ihKOhQxpbHLXeZ7vMmRf/aCYawAyCknjni5ioV4CXSpNv33r4YuvSK8ojLAoCIAACIAACIAACIPC2CDDFzIts7FGq5rc/I+eG0l3pz8ej3USf27MqvDrZ37H00koC1YGo5Gc0/PkiJhrgpVo0wJivV92G7vLPb+P5DU9iIBpdgAAIgAAIgAAIgAAIPCcwGlJU3j5Tef2zzufC9pLXqUKQJET6bHb+uurb6pV0t/ozi2OsydRmcROyd/5FmFNbN7gOAiAAAiAAAiAAAiDwxybwbOXkM59kzsK/GDNdQvqykj4z0e4XxcgSTR3tPPddL6+AcZvoGGyXMTKEOUEABEAABEAABEAABEBglMA4TZS16whYQQAEQAAEQAAEQAAEQGCsBN7YRDWvGED4EwRAAARAAARAAARAAATGSOCNTXSsqjvGcaAYCIAACIAACIAACIDA+0YAJgqlBgEQAAEQAAEQAAEQmBoCMNGp4f6+feLB/YIACIAACIAACICAOgGYKEwUBEAABEAABEAABEBgagjARKeGu/pnAlwBARAAARAAARAAgfeNAEwUJgoCIAACIAACIAACIDA1BGCiU8P9ffvEg/sFARAAARAAARAAAXUCMFGYKAiAAAiAAAiAAAiAwNQQgIlODXf1zwS4AgIgAAIgAAIgAALvG4GXTJTD5eEFAiAAAiAAAiAAAiAAAm+HwNaiPf9P+fzn7XSJXkAABEAABEAABEAABECAw+XBRBEGBgEQAAEQAAEQAAEQmBoCMNGp4Y6PQSAAAiAAAiAAAiAAAjBRmCgIgAAIgAAIgAAIgMDUEICJTg13fAYCARAAARAAARAAARCAicJEQQAEQAAEQAAEQAAEpoYATHRquOMzEAiAAAiAAAiAAAiAAEwUJgoCIAACIAACIAACIDA1BGCiU8Mdn4FAAARAAARAAARAAARgojBREAABEAABEAABEACBqSEAE50a7vgMBAIgAAIgAAIgAAIgABOFiYIACIAACIAACIAACEwNAZjo1HDHZyAQAAEQAAEQAAEQAAGYKEwUBEAABEAABEAABEBgagjARKeGOz4DgQAIgAAIgAAIgAAIwERhoiAAAiAAAiAAAiAAAlNDACY6Ndzft89AphaCnXv2Xbn614sDl/eUVMw0NH/fCLy398s1MFno7M139eO7+i109uYamPyRUejpGwcKC5eFJv+RB4mxgQAIgMC7RGC8Jmq9Iji+/LCwsllY2RxfccQ/vWC2mQ0BxMwiBYSVzT5JkumCzydJErGt3MDEWtuAjS0dkmpbQ2R7tBWYkOvWK4JjSuqtVwRPSGtT0shMQ/Nrg589+e23v3/73Vd/+/rCxctTMox3oNNOxdm/3fjGxy9kGt0L39VPLD+f3zOY3zMolp/nu/qpD35JUFRMSb3GLPXCk3olYGO+cNthg7lWk9oLGgcBEAABEKAExmuiLuEJkvYLEUUV/ukF63dUieXnU4+cnrfYhcPluYQnyDovxZTU+6cX0NeSoCjat47EQmfvjGbFCmGWjjKTnRVRVJHW3Gls6aCtI2NLB2HV0aCcIm0F1K8bWtgn1baG5hWrZ2m74hKeIJafdwlP0Fbgj389LVPy6NGvLSdOvdZQI2MSfrzzU+WB+teq9W4Xlnd0fn79S7dlGmRO2413nOm6efPbZd6B2gq8teu+yTJtJhpRVJHfM/haf0qTMexPnPxFe1otnfwno3G0CQIgAAIgoJHABJgo05NsfcM2y/tDclWmRUzUN1mmsWPdF0kc5c3q6m557LmvNNGxN0VLGls6pDV3RhRV0CuvTLwDJlq0o+TBg4dFO0peebPMArHxogcPHtY3NDEvIv26BHo/7f/hhx//CGFUbSZK/ijE8v6k2lZ9wwWve4MTVf6DDw0jsvdFSfZ/8KHhRLWJdkAABEAABF5JYIJNlGlaOkyUWYzD5THfklpkLo/+lygpsxirFn0bubMqYlu5THElv2dQWHWU3D/XwGRtwV5Z56X8nkFZ56WgnO16+kbqaMxsPKM2718Vn0eydJgoCeGQ4bG0Uk/fKFi6S9JxMb9nMFdxdeP+JhIhZs5R0vti1SX9fmzE99+QG5tb87GxJRF6puuzhu26LjH7xLn8nsG8rqtJta2mdh6kgG+yLL2pM1i2W3p64NmsaL9nbBqtuyQoKqv1rIqG4kpMSV1W61kSc13stlq47bCjb5SevjEtTBI6slglmW/rG5qUL/88efKEKKmPX8gPP/zY+2k/Kc98W7Sj5MmTJy/XUxIlZRbjcHka357vHzh77vxvvz1VKpVffnWDtG9qITij6CHNPnnypPWkfPLWqs40NG87dfrXXx8rlcqnT59e/+KrgDXrKJbszfl3fhoaefbzw493ktPENKu+oenBg4dl+6uH7t5VKpX/93//V7htF4fLYwJhaWV9Q9NPQ3evf/EVbVCYlE4avPH1TRZDVl3aLythaueRVNua13U1v2cwq/UsmcfQ0zeKL29MaWyny29mm9mkNLZH764h1V/8KnZfyzjW7Rgcx2pWm4m6hCfknPw0NK84u7XX0uNFPHKGMT9q1wH6Zxu168AMYz6Hy1tbsFcs71/s/WKJQmDWVmnHgMOaaPK/iJDcYtHBtrzua3ldV4VVR+mAZxjzI7aW0wbXFuxlLlo1NLMT7Wn1CN7EGjbeggAIgAAITCqBCTZRW98wsbw/WKr65/PNTHSGMd/C2cc5NE4s718t3k42OpDFmmMxUZniSnJD2wphluv6JLoSIDSvWNox4JMkmWHM908vkJ4eWCHMplg/+NDQ1jNUuO1wzoHupJ3HbD1DSZYOEzW2dOC7+tn6hmUcVbBscoUwW9JxcaVI8tFss6Vr48VtfRvKDunpG5F9G6RKdHEduS/W1P8cvlN4enF2pSK9rN03ZvOfZ8zTbaIOq6Ml7Reii+uM+EsWe4ekN3WmNMjJv7u+ybLcrqsJB45ZOPtYOPsk1rRkHusiTrzQ2Tu7tVd0sI3v5k+yZJ2XiIkaLbCPyNqXtb8zvazdf0Pux0aqf/jJS0cWLaOeWOq+MjZedKDm4MOHjw7UHIyNF0XHJdnYu2mTSCKmNvZu0XFJhdt2PXz4qPWkPDZeFBsvWuq+Unctmvvbb0//8d0/Kw/U79hdKsndQkbVcabr8ePHtfWHbezdGpuODw8Pj2XePzy9OK1UznzFyKpnGFqo3ynzSuWB+sePH9cdPMK3ctxStPve/fuDf/2ciK8wKf2XX+59c/PvoRGxoRGx39z8+09Dd6mn1jc0jYyM/PrrY0XX2dz8ov1VdWQingCJjRcNXLrCsklSZeDSlTWhUaSvf/7rFqkVFLyeVLnz01BGliw2XhS2fsMr/Vvllw3y9KbOxd4hRvwlG8obs1t7Fzp7c7g896hNYvl5hzXR5GZV0fq2PvLWallQzslz0btrZpvZmNl7Jta0ZLWeNbP3ZGLRZqJrC/YmH2pf5BmY3drrl5JLq4TmFYtPnXcJE34028wnSSLtGCDLWhZ7h4jl/WsL9pKSRIhJPJX8L0Is7/dJkhha2K8UqWoFZm0lJSO2ltP/D5AGaRaHy7PxCE4rPWXlMvXLGCgBJEAABEDgfSAwASZK14nGlNRLOi6mHO5grhOVdgyI5efJK27fIcJUt1NyuDyNs/O6a5FcZsyG9GXuuDy7tZf+u0VCOwkHjpGwqHtwYkrJyaz9nWHpxSZWKkOiLx0mqvEuyMWQ3OLsE+csnH3IW8fgWK/4DDrnyLoF2pe57bKNWw5lV3Zv3HLIfnk4MySpY3Y+uqSO+iURBWnHgGdsKofLe/avfv8ijwDShWds6mZ5v3OoKky1Qpglab/wkk+8vA6VO3O+s3/ss/Eoojbvn2PhSMepI4uWUU9onJ3XGM6kIVIOl6dxdl53LZJ76/a/WSspIyI3/ve/v5xR9JCxzTQ0//z6l3+78c0rtWzWvMVz+E7Ml6GZ3Stnb9tPK3755V50XBLpLq9ge9n+6kW2SzlcHisre3P+Dz/8mFewnZSsb2j6/fffq2sb1BmSK+pT7SSMGhsvIgWqaxsePfqV+jeHy1Ovoq1xcp3162Hh7EMFkRUEjd5dk3yonXxKnGHMX+jsTWKWHC7PMzZV0n6BtbhZo4mSNiOKKlh/mBwubwMjBKunb+QeJXJbrwpY6ukbRRe/+M13CU/YLO93j1Jlkb+v9TuqyL3oGy4Q1beRuRHW/wc4XF7Unlr6fyQOl+cWJEwrPTWH76SbD3JBAARAAAQmlsAEmKi0YyC5oU1Y2Zxz8tym+pMfzTYjQyQxURrX5Lv6zbdxJVksIWO9HY+JJla3sAC5hCdITw+kNMjp/v3M4z10K1KkeH9a6SmP4E0fzWKfK/RmJrrAaUVqY4f09EBi9XHfZJkRfwlzPOp3OsoqYENWVVewaDtT+0aztOxYMjCxTj7Uzrxfou9k2wfrX32mzoZvKcs83mMicNfR/gcfGlo6+sXIqrMru5eu2sC8BR1ZzGLM9Fs20Rtf32T2Tma3h4eH//mvW198+Tfyunv3Z1ZwkVVlPG/XRQn//e8fhoeHb3x9s76haYXvGtral1/d+Net2yS+Sy/SRH1DE129QC8yE+payTJRsjmstv4wraVehWZpTEQUVZDfXvL3knDgmKTjIg38B2ZtzTjWbSJwNxG4ZxzrZsYU+a5+0SV1OSfPieXnJR0XZWcGxmKiDmuixW19pKRfSm52ay/9FCfwj8g+cU4s748vP7w8PpNqLofLc1ijmg3wTlItbIjeXUM/f6r/fSVWt5C/EefQOEnHRR2bIGGiGn8fcBEEQAAEJpvABJgoXcXonSRmBdtknZc07jpi/YPBejvhJkqjtnQLP41T6ukbuwZuFO06nl3ZHSWpsnT0oxGvNzNRDpfHNTBxCU+ILqkTt/XJFFf80/LpU1S/U5pl4eATLT2QXaVaIeAWJOTOnE+ymBJJC3O4PGKidC0sh8uzcPYRt/W90kQjiioymhVzrUZjP6z2eWaCQGFB+r72rP2da9N288wEtFMdWbSMxsQfwUR//fVx76f9R5pb6IvGKTWOmVx8s9l5DpdnaiEo2lEycPnqvfv3f/vt6eEjx0iDX35149t//JPER9X7nSgTZW7zegMTzTl5LiiniP6x+KcX0IUuFs4+Wa1nvZPE3knirNaz1BoXeQRkt/YKK5sF/hF8V78ViTlief9YTDQkt5gum1Ytre66ypTFGcb85fGZ8eWHJR0XJR0XXcKFBJq+4QJh1dGk2lbSLxVi9b8vpolulveTGQN18oiJamSCiyAAAiDwFghMpImSibb48kYy8f3KdaJ0Ek393w8ds/PaapFGmDFCgs/Sw1986vwayU4dNEmcb0N+fc6B7rHsWCJNqQ9b9e/Z+k1kDpFMI8aU1NP4K509pBEm9SHxzASrN23L2t8p3HqYrEdkmSKzCnP6kgaKyD/kOmKiPkmSzfJ+G5/R5bDM9q1cAjMrzqSUnFwWlkJVmPSoI4s5JI1pHSb6ad8FUoU17a57dl5bLdKIekw0PiH1/oMHJ9s6NAr3jG8AACAASURBVA5Px0Vbz1DPEBHz5bAykqzf1VFr5559O/fsIwVmGppfvjJI46+s2fmQsJi6+saQsBhSePwmWl3b8PjxY7LPibT5uibql5K7Wd5v6xeu7Qajd9ckVrfEVxyhe5XUV4O4rksci4mST1Mbyg6RZdOLPAJSGuQbyhs5XJ6+4QKv+AxqwDOM+ckNbcy/brJoNXbvwazWs2QZq8a/L2qi6rPzzD9VDpfn5BeTVnrK3HaZthvHdRAAARAAgckgMJEmyuHymGFRHSbK4fLiShsyj/fwXf1mGPNDZLtzFVeZfjZvsUvmsS6y73WGMd/Qwp7cvI5a2kyUrCpT7VJKzNHTN5pr7byhvDFiW7lGmnP4TtauQSRLFTs8qrD1DSP/TDK/IYa5Y4lsP7Jw9iGzhxFFFWL5ebIi04i/JLG6JbmhjR6Pr2+4IKm2Na3pjKmdB9fAhAYmWYPR5y2w8wojCwaemWL/isQcOgy+qx9pcGnYRkn7hfAtZVwDE1M7j5QGeWpjB9kFpcNEyY6lxJqWudbORvwlCQeO0h1Lc/hOC+29aVSYOSodWcxiGtMaTZTD5V0b/Gzo7t3YeJGNvZu8vfPp06fMdaIBa9b9NHT3y69uuC3zs7F3oydi6qilzURnGpoPXLoyPDx8oObgTENz/6Dwzz7/4uy58xpHO/6LvZ/2P3jwkOjgCt81X39z8x/f/ZPMyCcmZ967d//iwGW3ZX5uy/wuDlz+z3/+GxkzelisNhNl7lii24/IwUz1DU1Pnz49JT9jaiFI2JT+w4936I4lciNHj598/PjxnhLVwWF+AWtNLV4Euf88Y15E5l7RnpYFtl70rs3sPTOOdac3dS7yVO3dcVgdldrYQYOR9AMPc/aDw+V5xWeoTqXI3vbRbDNb37D0pk76S0W/Y2m1eLv42WJlulBnSVDUZnk/MwiqWmbd2mvuuJxEPTOPdZFhkAOG40pfrKAln3vzewbpEnDdJsrh8lR/m219ZFO/Y3CcuK2PebKvue2ylJKT9ssjKAokQAAEQAAE3gKBCTZRooMkLKrbRBd5BGQcVaiOH+q+lnDgWHJDG9NEOVyef1o+OYwpr/tadHEdYaGjljYT5XB5M4z5MSV1uQrVqTR53ddU28ZdVBuxdb+YRzWRCUR6Lrd6Fv13d7aZTUxJPe0rvamT9fVILuFCcsZTfs9gUm3rx3NVRzXpeBGMzBnM/J5BuuZheXymWN5P7iulsZ3elw4T5XB5ZFM/Ofsp+VC7+uYSHeN5gyxtJipMSr/z05BSqRwZGfnbjW/+8d0/mSbK4fIOHzlGDmMaGRkZuHSFdK2jljYTVe2Mtne7dPna06eqo51GRkb+8d0/Y57v8nmDO9JdxW2Z3+Urg7Qv1lFNO3bt/eWXe+R8pf+d1pS9+cXiDW0myjzFiVRUKpWEFalCjoVSKpV3fhqipziRQQasWXfr9r9JrYcPH2VkvTjf96NZ5nH5dVmVCjuvMOYdLfIISG/qzOu+Rs75ithWzlyjST5Nsc7+nGHMX7/jAPm1l54eiCttkHYMEMXUeH4ZiW4G5RQR76S9LwmKEsvPkzl05mFSrEPKSHn/tHzWcU7q0xQ0Jsrh8ph/mzLFFdZ9fTTLPL6wIVg0unuMDgkJEAABEACBSSUwXhMd5+Dm27iyTjJiNkiiKTSgSLN016LFWAltrbGKTchb3X3p6RuZLfHSceOvNYY3a01P38jUzmOGMZ+5rf61+p2owkHB63Wcu25qIYiMSVDf4qO7lraxaWtNW/nxXNfd15uNX308dMfSUveVQcHr1QuQKz5+IRqPcOLOnK/tUCoDE+vX/Zr4GcZ8c8flzEM6tY1n7NdZu/JpRSLEdC0Qvf7KhI5BegRvEu1uUd81+Mo2UQAEQAAEQOCNCUyxib7xuFHxjQkYWzok1bb6JEm4BiZm9p6b6k8yV7K+cbOoOCUEqIlOSe9T1amevlFAZqHqcNPVo4ebTshI9HkLNhTUBwoLNC5QmZAu0AgIgAAIgACLAExU18w4C9a78VZP38hXJKVz+urrB96N23xP7uI9NFFyRoRMcSU0v0Tjl6WN59GbWrtv2nnMJSB+PI2gLgiAAAiAwNgJwETfOxOlvxzGlg7qKx9oLhIg8MckQL6GbaIWt6jf48dGfIO5i9Sv4woIgAAIgMBkEICJvr8mOhm/T2gTBEAABEAABEAABMZOACYKEwUBEAABEAABEAABEJgaAjDRqeE+9s8KKAkCIAACIAACIAAC7yoBmChMFARAAARAAARAAARAYGoIwESnhvu7+skG9wUCIAACIAACIAACYycAE4WJggAIgAAIgAAIgAAITA0BmOjUcB/7ZwWUBAEQAAEQAAEQAIF3lQBMFCYKAiAAAiAAAiAAAiAwNQRgolPDfTI+2bzBF4VPxjDQJgiAAAiAAAiAAAiMkcB0MlEDE+uIbeXCymbyithaznf1o/epp2+0LC4tpbFdLD+f0iB3CRfSrPEkyLe0h8j2jKeRV9YNlu7aUN5ou3ItKbksLk1Y2bx07et95aBvskwsP89k8sp+WQVMF3tEZO6NFFdEiivWZe/zDBHp8xaQMswsUiBSXGHtGsRsYVlYqn9c7p9nzKMXrV2DaGH/Dbk8MwHN0pHwXp/pE5nN4fIW2HqFpOycw3f6aJZ5oLDQJWADSdA2Azbmz+E7kaZYWaSMS8AGDpfnE5lNqzATZPzquYHCwo9mmesYIbJAAARAAARAAAQmhMB0MlFjS4e05s7Emhb/9IJg6a60pjPSjgHX9UkERHjhPpniSkxJnX96gbDqqExxxT+9YPyMjC0dhFVHg3KKxt6UoYV9Um1raF7x2KskVrfk9wyuLdjL4fL0DRck1bbm9wz6JsvG3gKHyxu/idq4r0kvaw9KKPQMEQUlbk0rPSXcethgrhWHy2NmeYaIyGue5VI6wo+NLYVFR9L2tZvbLqMX3YKEGeVnfKJy/GIlCduPZFUqPII30VxtiaCEQuHWwzMMLTyCN2VVddkvj5htsnjTzmNuQULSS7T0gGeIyCcyW1h0JKPstK1HCIfLoyYq3HY4q1IRLT0QKa4gJmrrGUoGvDZtNxkPc/xRkqqE7UfoTXmGiBxWRjJ9Wts4cR0EQAAEQAAEQGCcBKafiUYUVZB7nmHM31R/MvlQu4GJtbnj8uzW3uiSOpKlp28UU1Kf3dpr7rh8nIDeoDoxZjrOsbSQWN2S13U1+VD7bDObxd4h4rY+meLKlJhoWqncxn0NGfMCgVfavvaV0ZuJiTKz1G+KqGpG2ellYak01y1ImFZ6ioQtP/jQ0CcyO31f+ydO/rSAxoRH8KaE7UdmzvkkKHGruPrs8vC0OXwn0Z4WG49gYqJBCYWkInfm/Ni8mvjCBmYIk9kpq32NWVGSqihJFask3oIACIAACIAACLwFAtPYRDlcXkRRRVpzp7Glg4Wzj7itb/2OFz5h6eHvkySZbWbD4fJmGPMjtpbLOi/l9wzKOi+tLdjLNTChcBOrWxKrWwIyC6WnB/J7BlOPnDa0sCeN5/cMkhdLKxOrW+IrjmQcVeT3DOYqrsaU1M0w5nO4PL6rn1h+ntbSWJf2y0wkVrdkHOvObOlxWBMdlFOU0azIONZNTdR1XWL2iXP5PYN5XVeTaltN7Txo3eXxmWJ5f37PoPT0QMKBo8zZeesVwelNnXnd1/K6r6U0tvNdVtJa2hI27muYusnUPlaWegtBCYXxhQ3hGSVRkv0ffGhICrDMjzQYmrpLvTrziv3yiOTiEyZWbnF5taLdLaGpu6xcAlNKTvAdVjKHRKqoAqhFRz42tqQtsDql1zlcnsYsmCgTEdIgAAIgAAIg8DYJTGMTHY2JNrQZmFjr6RtFFFXkdl5et32/EX8Ji2DE1nJpx4BPkmSGMd8nSSLtGAjM2krLJFa35HZdzTiq8E2WOYfGua0fnT42tnTgu/rZ+oZlHFWom6j09MBKkcTQwj5EtlumuELm4rkGJgudvUmV6OI6vqsf39XP2NKB9qUtkVjdklTbmlTbGl64L/lQe8S28rTmTmKiDqujJe0XoovrjPhLFnuHpDd1pjTIiWHb+oaJ5f0byg6ZCNxtfcPSmzqpiS509s5u7U2saTGz91zo7J3SIKe1tI1BPfCpiomWysmSTd0mqs9bsHHLoZXRm538YlJKTtBZe3XzC88sZYUw1cdDvNN+ebhw2+Fg0fYNhQeXeK8X7WmZw3dimSiJicbl1yEmqo4RV0AABEAABEDgj09g+pkoWScaml+S2dIj6bhIdyZxDUxCZLulpwfyuq6mHO6g18nEPVmCSZ5H1J7auH2H6LNJrG7JPnHOwtmHXmEmNE61kzAqKaanbxRf3kgWCZArGqsw21RPkwYDs7ZK2i/knPzUKWQDNdHokrrMY13zFruQWu5Rm6QdA56xqhnwkNxi5siZ60RZWQ5rosVtfS7hCepdM68wF4OuTdudXta+ccshuk40s+KMuPosfTFntC2d/FNL2mzc18yxcBTtaXVbnUiaVTdR9RAmcwAkrZqL393iuTYlcUezS0B8wvYjZEnox8aWxETJOlG/WIlo1/H0snabZ+tEaTvqnerOipJU0ZsSV5/NrDhD1yfQikiAAAiAAAiAAAhMBoHpZ6KZx3uElc0phzvE8v7F3qqtKszXDGO+Z0xKamMHjVM6h8ZJOi6uEGYxizHTidUtZIqfeZGmNWol00Q5XF5QTpG4rY+6rMYqtEGNCdKgjU/oZnm/qL5tkUeAuK3PN1lmYGKdfKg9sbqF1iILAMgOqsTqFlF9m77h6PZ2pokmVreI5eeFVUfJOQOJNS25nZfpdD9tjZWwcV+TUXY6Lr8uUlyRXHwyLq/2T3+ZS8rojon6x8rIFPkHHxpGSfZHZO8jE/TqUhiUuJU1mc4aA4fLmznnk4TtR8IzSuK3NJjZeAqLjqzL3heXV/vnGfOIiW7adTxSXLFxy6H0fe1mNp6sFtQ7pQU0ZmF2nvJBAgRAAARAAATeMoHpZ6JkotzC2Sf7xDlmpJMJTk/faN2OSmKHzqFxm+X9JIjILEPTE2OijOOT3thE9Q0XiOrbgnKKiG5SExVWHaWjJStiqYkm1rTo6RuRXJaJpjd1+qcXMF+WHq/YKsTUzaWrNqSXtVs+313EzKKDIYmPZpnHFzYww4qiPa2GZnbq6zL/PGNeXF5tpHg/qwXWW9KgaHdLlKTqo1nmcfl1iTuaSC3m7PwcC8fk4pP+sewTBjTqJulCYxZMlMUfb0EABEAABEDgrRGYribK4fLWFuylc9OesanS06Nz1oSdf1q+tGNgSVCU+uy82/pNdDEoh8sbp4mS2Xm6z4nD5b2xidKnTk2Uw+VtKG9MaVTtqSe5DmtUy0ZJiDd8S1nm8R4TgTvJYppoRFFFZkuP2RIv2uZYEkzdJEs/aXSTmcVqiu+wMq30lFuQcA7faQ7fydYjJK1U7uQXo26itp6hGWWnl65SnfGp+0VmzFfF53G4vPDMUnH1WbJfnmmiHC7PP1aWXHxyjoUjszWNukkKaMyCiTLpIQ0CIAACIAACb5PANDZRZljU2NIhtbEjs6XHMThOT9+ItbMnoqhC3NbnGBzH4fIcg+PEbX3Mwz61mShzxxLZfmTh7EP2yKvmvp81qKdvtCIxR9oxwGyQHAia1nTG1M6Da2Ay12r06HXyXK1cAtNKT61O2sZ8zKzpfqaJLg3bKGm/EL6ljGtgYmrnkdIgT23sILugRjcz7a6ZbWaz0Nk7rekM3bFk6xu2Wd6fWNMy19pZT99oeXxm8qF26xXBtNM/z5gXkblXtKdlge0LW2XpJjMsSrKcV8UR3ST/JfuEVkZvpkFQcq6nahN9Zikx0fR97VYugXP4Th7Bm9JK5ZHiCu7M+XQY2hJBCYU5B3rIaaArozeLq8+Sg0hZJsoMi37woaGhmd0cvtOKdZm0U+aeenUzJr1HSari8mqZ92VoZke3/5NjSsm2LW2jxXUQAAEQAAEQAIE3IzCNTZQctETDoqZ2Hkm1rXldV8lpR5vqT9Jzi2ab2cSU1OcqVFkyxZWIbeVEKAkybSYaUVTBOo9J1nmJbPpJrG7JOXlO3NZH+oopqWc2yOHyXMKFko6LpHpSbevHc1+cMeSwMjK7sjtGVs08O12HiXK4PHpUk/p5TKqjAJ4dPiVTXEk4cCz7xDn6HUtL18aTs5/IGU8BmYV0Hp/4Ylx+XValws4rjP7qsEyUaB8Ji9q4r2HtWBJXn3ULEpIJd+KdtJ2V0Zs37Tw222SxW5CQzNrnHOhJ3XvKKzxNT9+YFtORWB6elllxxsolkMPlOfnFZFcqSJCVZaKqRboJhSQsSrKYiwRoJJV2pC0myqrFXMlKmmVuz6KtIQECIAACIAACIDBOAtPJRMdyq1wDE3PH5SwvJBVnGPPNHZczTxIdS4May1BxnG/jamBirbGMnr6R2RIvjUc4zZzzyRiFjLasozWugYnZEi9t92Vs6WC2xIvpoLRN7sz5Mwwt6Nu3nJjDd0orPcVSwD+g8BETZan2W2aF7kAABEAABEDgXSXwrpno23lO1ETfTnfvZC96+sbGCx2Yc+Jz+E6z5i3+o90sPaDqjzYwjAcEQAAEQAAE3gECMNFXbJ3R+IxhohqxvJMX9XkLPnHyp8tG38l7xE2BAAiAAAiAwFQRgIm+iYlO1dNCvyAAAiAAAiAAAiDwLhGAicJEQQAEQAAEQAAEQAAEpoYATHRquL9Ln2ZwLyAAAiAAAiAAAiDwZgRgojBREAABEAABEAABEACBqSEAE50a7m/2uQG1QAAEQAAEQAAEQOBdIgAThYmCAAiAAAiAAAiAAAhMDQGY6NRwf5c+zeBeQAAEQAAEQAAEQODNCMBEYaIgAAIgAAIgAAIgAAJTQwAmOjXc3+xzA2qBAAiAAAiAAAiAwLtEYJqZaFDw+th4EXktdV/5Lj0J3AsIgAAIgAAIgAAIvG8EppmJ3vj6pvL5T31D04Q8LWnu1ps3v33w4OGPd36qqTs009B8/M36+IXcvPmtvKNz/E2hBRAAARAAARAAARB4VwlMMxMljyE2XvTgwcMJMdH6hqYnv/32txvfHGluGbh89clvv509d378MurjF/LlVzeOt556rd+bjjNdN29+u8w78LVqoTAIgAAIgAAIgAAITFMC77WJLnVf+a9bt7/9xz8X2S4lz+9kW8fjx48luVum5HH2ftr/ww8/+viFTEnv6BQEQAAEQAAEQAAE3jKBd8REffxCfvjhx95P+wk+1tuQsJibN78dGRlRKpW//vq47dRpEvVc5h34/fc/fHPz7zQIGhIWU1ffGBIWw+HyZhqaNx9t/fXXx0ql8unTp5evDLot86OP58bXN7/+5mbz0dbh4WGlUvn99z+QWGbvp/3Plw8o6XhIrRtf37x+/as7Pw2RBi9dvmZj70azaC2SgJJS1EiAAAiAAAiAAAi8qwTefRNdZLv0y69u/PDjnYRN6Tb2bvL2zidPnpTtryZPtLHp+G+/Pf3s8y9CI2JZz/jgoaYnT57I2zsdXVZsKdp97/79Cxcv0zI3vr759OnTOz8N1Tc0FW7btXPPPpLl4xcSGy/KyJLd+WlI3USHh4frDh5Z5h0ob+/87benHWe6SC2yE2vg0pU7Pw1lZMli40Vh6zdQP6adIgECIAACIAACIAAC7xKBd99EZxqah63fQKe814RGDd29Sx1xpqF5bf3hBw8ejoyMDN29S3cskYn7z69/SXWw9aScuYjzxtc3f/nlXnRcksbfBlZQlpS58fXNG1/fJOmZhuafX//yX7duM08AwOy8Rpi4CAIgAAIgAAIg8K4SePdNlMPluS3zO9bS9tPQ3QcPHj58+Ojp06fURMlzNbUQ5BVs//qbm7///vvlK4OLbJdGxyXdu3+//bRC24O/8fVNHRPorzRRDpd3vPXUvfv3mS4LE9VGG9dBAARAAARAAATeSQLvvokusl16/Yuvfv75P6VlVdrmzemjbT7a+vjx48Jtu4iJ6tj8PiEm+uDBw9h4Ee0dJkpRIAECIAACIAACIPA+EHinTPTTvgvkmTFDkuTIp8NHjpEsv4C1P975icRE0zIljx79ytTNHbv2Dg8PVx6oV5+dl+RuKdtfTXfZj9NEyew83edExgYTfR/+5HCPIAACIAACIAAClMA0M1Gys6dw266HDx+1npTHxosiYxJMLQQcLu/a4GdDd+/GxovItiQ6BR8aEfuf//z3q799vcJ3TcCadQOXroyMjBATJeHSBw8eVh6oN7UQhEbEfnPz7//97y+RMQkcLu/wkWO//vr4QM3BmYbmCZvSf/jxzuBfP6fLRrWZKHPH0sClK7Hxoui4JLJH/sbXN+/dv5+/ZedMQ/MDNQcfP35MdyyR53H0+MnHjx/vKangcHl+AWvJfZEsl4ANoam7Z81bTJ8cEiAAAiAAAiAAAiAw3QlMMxNlfscSOe2ITnALk9LJAUkjIyN/u/HNP777J10MWlFZ+/DhI6VSSbKG7t797PMvyJNzW+Z3+crg06dPSe7/WsjenE+yTC0EZxQ9T548IVmfff7FCt819HlrM1HmKU5khE+ePCnaUcLh8lQmeu/+vfv3SYOXrwzSU5xIswFr1t26/W9S63/rWTOyZLS7oITCtNJTc/hO9AoSIAACIAACIAACIDDdCUwzE30l7qDg9XSbPLMw2UHP3Kg+xlxTC0FE5EaWMjLrjj1N984HBa/XNhIOl+fjF6J+hFNQQqFoT6uhmd3Yu0NJEAABEAABEAABEPiDE3jXTPSPjJua6OsOUp+3YOOWQ0EJha9bEeVBAARAAARAAARA4I9MACbKe2uP541N9IMPDflLVn5sxH9rQ0VHIAACIAACIAACIPAWCMBE356JvoXHiS5AAARAAARAAARAYBoRgInCREEABEAABEAABEAABKaGAEx0arhPow8rGCoIgAAIgAAIgAAITBIBmChMFARAAARAAARAAARAYGoIwESnhvskfbBAsyAAAiAAAiAAAiAwjQjARGGiIAACIAACIAACIAACU0MAJjo13KfRhxUMFQRAAARAAARAAAQmiQBMFCYKAiAAAiAAAiAAAiAwNQRgolPDfZI+WKBZEAABEAABEAABEJhGBGCiMFEQAAEQAAEQAAEQAIGpIQATnRru0+jDCoYKAiAAAiAAAiAAApNEYDqZqIGJdcS2cmFlM3lFbC3nu/pRLnr6Rsvi0lIa28Xy8ykNcpdwIc0aT8LY0iGptjVEtmc8jbyy7tK18fS+NpQ3rhBmcQ1MXlnrrRWYb+MaU1JPR0gTMSX1821c39owOFye6WKPiMy9K6PEH3xoyOHyPja2DBZtDxQWfjTL3HSxR2jqbtPFHnQ8LgEbSBaHy/OJzPaJzKZZNOESsCFSXKH+cgnYQGqxsjQ2QltDAgRAAARAAARA4LUITCcTNbZ0SGvuTKxp8U8vCJbuSms6I+0YcF2fRG44vHCfTHElpqTOP71AWHVUprjin17wWiw0Fja2dBBWHQ3KKdKYq/GioYV9Um1raF6xxlyNF32TZdLTAyGy3f7pBTEl9dLTA8LK5hnGfI2FWRdD84qTalsNLexZ1yfw7WwzG58kiX96gX96QXpTZ3pTJ0n7JElmm9lMYEevbMrGfU1mxZnk4pNzLBw5XJ6dV1hWpUJYdORjY0sb9zVppXIb9zW0kaCEQpLF4fKiJFVRkiqaRRN8h5WeISLPEFFQQmFG+ZmghELylu+wkppoXH5ddqUiLr8uUlwBE6XokAABEAABEACB8ROYfiYaUVRBbnuGMX9T/cnkQ+0GJtbmjsuzW3ujS+pIlp6+UUxJfXZrr7nj8vEzet0WiDHTcY6lum+yTCw/T0O8nrFpsjMDK4RZY6kbUVSR1txpbOkwlsLjL5NY3ZJY3TL+dt6sBWKiWVVdS1epYpbBou2ZFWfGY6J0GOoiO5YsWgYJEAABEAABEACBNyAwjU2Uw+VRCbNw9hG39a3f8SLoZenhTyN2M4z5EVvLZZ2X8nsGZZ2X1hbsZc59E7UKyCyUnh7I7xlMPXKaxBcjiiryewbJi6WVidUt8RVHMo4q8nsGcxVXY0rqSPyS7+onlp+ntTTW1fiQWCZK2vFNlpHC1iuC05s687qv5XVfS2ls57uownUcLi+xuoXVF1VSVoMa33rFZ2Qc61YxOTPgHBrH4fJcwhOyWs8GZW8Tt/URVkHZ7GAwy0Rnm9mkNLYn1bbqGy4go9I3XJBU25rS2D7bzIY0GFNSJ1Ncye8ZzD5xbunaeErA1M4jqbY1r+tqfs9gVuvZJUFRNEtbgviicOvhiOx9PDNB4o7mddllMFFtuHAdBEAABEAABP7gBKaxiY7GRBvaDEys9fSNIooqcjsvr9u+34i/hAU9Ymu5tGPAJ0kyw5jvkySRdgwEZm2lZRKrW3K7rmYcVfgmy5xD49zWbyJZxpYOfFc/W9+wjKMKdROVnh5YKZIYWtiHyHbLFFfIXDzXwGShszepEl1cx3f147v6jSVayTJFz9g06ekBr/gMDpe30Nk7u7U3sabFzN5zobN3SoM8pUFO5sTn27jyXf2ii+syjipsfcP4rn5mS7z09I04XB6rQfW3eV1XJe0XwgpLHdZEL9+YRRp0CU+QnRlIaWy39Q0zEbhHF9eJ5ecXe4dQVkR/WTHRwKyt0o4BhzXRpJjDmmhKWNVg56XEmhYLZ5/F3iHpTZ3Zrb0Lnb05XJ5KYRvk6U2di71DjPhLNpQ30ixmd6w0MVH/DblJO495haeJdh33icyGibIo4S0IgAAIgAAITBcC089EyTrR0PySzJYeScdFujOJa2ASItstPT2Q13U15XAHvU4m7tcW7KWPJGpPbdy+Q/RtYnVL9olzFs4+9AozoXGqnRkX1NM3ii9vJIsESEWNVZhtqqfpOtGArC0b9zfJzgxs3N9E4qwhucXM4TmsiRa39bmEAPVfSgAAIABJREFUJ9BGaGCYXhmLieZ2XfVOEjOrkJioWN7vui6RXLfxCd0s7/dJkjCLMe+dXDez98w41h29u4a8jSiqyDzWNW+xy/MGz9PROqyJlrRfIKsOVgizJO0XqL9aOPtkt/b6peQy+1JPExN1WhmdsP1I+r720NRdbkFCmKg6KFwBARAAARAAgWlBYPqZaObxHmFlc8rhDrG8nxWu43B5M4z5njEpqY0dNE7pHBon6bioY81lYnULndRWf2YatZJlY0E5ReK2PuqyGquot8y84pssy+28nFjTknDg6GZ5f9SeWhLaJDFIsfy8sOoo2bGeWNOS23mZTtwzlyiwGmQuPFWPico6L1FBpBVdwhPE8hfiyFokQIqx7p1cXFuwl+jyvMUumce6qPezGjQRuGce7wnfUkaGLT09kFh9nNxXwoFjko6LrNgzHRhN0NWcoam7sqq67JdHrIrPg4lSPkiAAAiAAAiAwPQiMP1MlMiKKoR24hw1HhZ0PX2jdTsqiR06h8Ztlvd7xqayytC3E2OijP1Gb2aiVByp1ZERJla30L3qZMe6f3qBpYc/Hf+bxUQn1kStlgXlnDwXmLXVO0ksbuujnxA0mih5ghFFFTknzwXlFNGb8k8veOVSUWqi9ssjEoqaZpssphvkaRYlQ7N07J2nhdWrjyWLlkECBEAABEAABEDgDQhMVxPlcHlMY/OMTZWeHmDqpn9avrRjYElQlPrsvNv6TXQxKAk6jicmSmbn6T4nDpc3ThNlSbZqsrulx2yJl7anq91E+xd5BJBakx0T5XB50btr0prOpDTIN5QdogFdlomSJaRkut8vJXezvN/WL1zbfWm8ru6LVDfnWS5NLWlbFjb6kePPM+bF5dVGSfaTk0e1neJEe1FveSxZtAwSIAACIAACIAACb0BgGpso09iMLR1SGzsyW3ocg+P09I3I5hi6syeiqELc1ucYrNoe7hgcJ27rYx72qS0mytyxRLYfWTj7kLWbidUtpEE9faMViTnSjgFmg2TzeFrTGVM7D66ByVwrJ+aDsXIJTCs9tTppG/MiyxSZkm3rG7ZZ3p9Y0zLX2llP32h5fGbyoXbrFcG0Otkw5B4l4nB5c62cyLEA9qvWbZb3B0t3cQ1MCA0acyWrSCc2Jsrh8lSWeXpAevrF1iWyTlR2ZiB6d81sM5u51s6JNS10WxJZXZre1LnIM1BVfXVUauOL1b3k7lwDN6aXtVO55HB56r5ITfSDDw0jMvemlJywcPDR0zf2Ck/LrDjj5BdDmoqSVMXl1c7hO9GXoZkdkVRSQL1lDpc3a97iOXwn51Vx6fvanVfFzeE7zZq3mJL/aJZ5oLAQJ4xSIEiAAAiAAAiAwOsSmMYmStYa0t08zCOB8rqubqo/SU87mm1mE1NSn6tQnRYkU1yJ2FbOPDRem4kyT3EihyVRe0usbsk5eY4cdZTXdTWmpJ7Z4DMDE0o6LpJaSbWtH8+1pA/GYWVkdmV3jKz6zzPm0YssE3022f0pXXuwdG189olzpDXp6YGAzEIadORwefMWu6Qc7iC5Ynm/rW8Yh8vT0zcKzS8hZydJOi6u21GZ1XqWnlfqmyyj90LHoL7BaOzrREmPiTUtzOOcSIOS9guqI6ieHdUkbutjnuK0yCOAnE6l8bmQg+VzDvQEi7bTQar7IjVR1VcuGfHDM0tzDnSLq89mVpzxXJtCXTNKUiWuPst8kdWlOlomc/rMKuLqs8zj8T82thQWHWFeoa0hAQIgAAIgAAIgMBYC08lEx3I/XAMTc8flLC8kFWcY880dlzNPEh1LgxrL0F07821cDUysNZbR0zcyW+Kl8QinmXM+0dM31lhLx0VjSwd6SJN6MY25E3jL6j2yriz2DhG39bH249PZ+RnGfFM7D6ZA0+oGJtYLnb01PpcPPjScOecTapO0iu4Ed+b82aa2r1tLd5sac4mJhmeWaszFRRAAARAAARAAgVcSeNdM9JU3PCEFqIlOSGvvQCOzzWyEVUfpcgh6R9RE6ZV3KWHp5J9a0sb8ftF36e5wLyAAAiAAAiDwFgjARFVfVvS6L5gok5hPkiSv+xpr5p0UeLdNVJ+34BMn/7cQfGXSRhoEQAAEQAAE3iUCMNHX1tB36fFPyL0YWzrQvVwT0iAaAQEQAAEQAAEQeE8IwERhoiAAAiAAAiAAAiAAAlNDACY6Ndzfkw86uE0QAAEQAAEQAAEQ0EEAJgoTBQEQAAEQAAEQAAEQmBoCMNGp4a7jwwGyQAAEQAAEQAAEQOA9IQAThYmCAAiAAAiAAAiAAAhMDQGY6NRwf08+6OA2QQAEQAAEQAAEQEAHAZgoTBQEQAAEQAAEQAAEQGBqCMBEp4a7jg8HyAIBEAABEAABEACB94TAe2Gi821c+a5+5MX6mnhjSweapfE74t+T34NJuk2ugclCZ29CWNuXy09S13+EZvX0jQOFhctCk5mD+QtvvrGZxQcfGs7jW/6FN59m/YU333TRoj/pG9Er40xMeIPjHM/0rT5rnvmseeZ/0jeaz7f8yGAu80aCEgpXrMvE92wxmSANAiAAAq9FYJqZqJ6+0bK4tJTGdrH8fFJtq8PqqLHcbWJ1S37PIHn5JsuYVSKKKmhWRFEFM2uS0saWDkm1rSGyPZPU/oQ0u1IkST7Uznf1G2drfFc/sfw8ISyWnx9/g288nmDprmDpLh3VF3kEpDS2rxBm6yjzulkBG/OF2w4bzLViVgyM9pfuE82aZ150MCsw2p9mBUb77zshM7d+qTDNfYPEhDc4ljEERPptqUmfwLsYS6fqZf6kb7QsaJnPWm9mlqHJguTC2JLjkuJmcUxm2MdGJjSXZpUcl8RmRTCzOFxegjQyQRppbm1V3Cx29XWjtThcnqm1u2h3i9vqROZFpEEABEAABMZOYJqZqH96gfT0QHRJnU+SRFh1VHp6wDM2dYx3S6yIZaKkrrGlQ1pz50SZqKGFfVJta2hescaBGVs6CKuOBuUUacz9g1xcIcwWHWwzs/ecqPH4Jste10QXOntnNCtWCLMmZAyJ1S2J1S06muK7+iU3nPKMSdFRhpWl+0F/4uQv2tNq6fTCNUl1aqLb6jNWhr1QpfGIY3TG2tyKZIM5pswRjqdBZjuvlV4Z7lNQlTrXgs+qtTLMe8ehLNNFi1jXJ/ytpZ1t+o74qo6C2q6tCdJI2r7pokW7j4i31KQHxa1anxpadiI3uziB+7Exh8szNF1YVJ+560hOcHwgK4tUpya660iOvYcTbZMkPII3bdp13HihA+s63oIACIAACIyFwHQy0XmLXTKPdVFf1DdcIKw6mnyonTXhru2235qJTqzXarud6XX9DUxUx/N6g3t/pYm+QZs6HvQHHxpGZO+LkuxXn7cNjPbP3C2cNc+84EAqM8A2HnFMkEYWHcyaNc+ceRfjaZDZzoSk39pgJPs2ba3L8Fvnu+NQFtNEw5LWlByXmFmNhpwDY1ZVtOURrfSP9C1ry7VZuoTcaWDMqrK2XGsne3rjCdLIqPQwc2urooNZ6uFeg7lWSTuProzeTMsjAQIgAAIgMHYC08lEPWNTxfLzS4JezMi7rkuMKamfb+PK4fJmm9nElNTnKq7m9wxKOi76iqR6Ly+502E2GpVCT9/IVySVdFzM7xnMVVxdv+PADOPRSI+evlFAZiHNiimpn21mw+HySBd0up8kqDrrXgngui4x+8S5/J7BvK6rSbWtpnYe5Cn6JsvSmzqDZbulpwfyewbF8n7P2DT6gB2D4zKOded1X8vrvpZxrNsxOI5m6Uhoq8UcPyuE6RKekNV6Nih7m7itL79nUNZ5KSj7RVh3SVBUVutZ1XXFlZiSuqzWsy7hCcwBaDRRUzuPpNrWvC7VI8tqPUufrEt4gqzzEgsjDWZre9DkIYbkFosOtqmAdF0VVh0lz4XD5ekwUR2LN/T0jYKlu+iD3ri/ad5il1c+aFWYzcxOtKfVI3gTEwJJ/4U3f9Y88w8+NJyzkM9cdBgY7V92Ijc6Y21le35t19byk7nMyWVXP/eS45Larq01nVtyK5LnLBz9VZTuE9V2bWW+qJIy5c9CsHj3EfHmvUl03nmRg2DHoawaxZYaxZZtdelE0cysrEqOS0QFMXTYhqYLdzVmZ+1JYCq1z1rvilN561NDaTFza6t9J2RkGKw1BgnSSObwaru2MgvMWcjPrUiu6dxS27V1z9HNRA3J0oWig1kHzhQeOFMoLRORxJq4ANqjtgQJc5IWmCZq7+G0InQFyeVwectWe5W15TqtUP2vg7WgdmWYd1lbLjP2OWue+V948/+kbzSPb6lxIW9o6q74woaPZr30SUDbCHEdBEAABECASWA6mahGmyE3o6dvtKHskLitb+na+JnzrUJku2Wdl1hr/l7XRFcIs2Wdl0Jku2fOt3KPEonl/XTC3S8ll2YtXRsvbuuL3l3D4fLIBh1b37CMo4ro4jqyU4duhCK7o0gu1VMyfofV0ZL2C9HFdUb8JYu9Q9KbOlMa5MSifJNluV1XEw4cs3D2sXD2SaxpyTzWRXxoobN3dmtvTImqlpm9Z2JNS3Zr70LnFxO+zCdN0zpq0Q1Gq8Xb1U1UdmYgpbHd1jfMROAeXVwnlp9f7B3C4fJIg6KDbXw3fzJCWeelV5robDOblAZ5elPnYu8QI/6SDeWNdPAzjPkWzj7OoXFief9q8XaCkUS+dTxoYqJieb9PksTQwn6lSCLtGAjM2kpuXIeJkg1tpDvqu6TWCmG2pOPiSpHko9lm5EFvKDukp2+k+0FzuDwbj+C00lNWLoEU+ysTgdH+NYot0n0iMysrMysrWXlycbOYTHMvWeZcfio3ZUvcrLlmVk52Ow5lFVanEac0NrMwt7ZK2RK383D24qX25tZW8/iWxBqpiRINlZaJZs01I8MwXbSo+OhmWXnyXAu+6aJFhdVptEFRQQwzdui3zreyPd8zcBlz/OtTQ2sUW5jC+id9I9NFi8ytrSJEwUzR5HB5s+aZk+vlJ1XmZ25tRTdmfWxkUlidtuNQlpWT3ay5Zpm7hcVHN5suWkQ8Mn1H/JwFFqSAmZVV+o74ovpM1goE5qiYaXUTZeZ+8KFhypa4rXUZ1MtprumiRdsPZor3JjE/JNBcbQm3IGFaqXz+ItWnFLxAAARAAARei8A7YqI2PqGb5f1UO/QNFyTVtorq2/QNF1Acr2WiBibWyYfa48sbaWB1bcHetOZOY0sH9aygnO1Jta2GFqPTeRojrHQYGnOjS+qoX3K4PPeoTdKO0SWwz/y7f5HHaDTIMzZ1s7zfOVQV+1wSFLVZ3u+dJCaNmzsuXymS0GAq7ZGVGEstdel3CU8Qy/td143uzCDAfZIkHC5vhTBL0n7BYU006ehZyfOvNFFWLQtnn+zWXr+UXDpajc9Lx4MmYNfvqCIt6BsuENW3CauOkrc6TJQU0NhdSG5x9olzFs4+pIxjcKxXfAb9pdL4KEnJZ2pyag6fvaaQ5Gr8LxVHkrtstVf5qVwyfZ+yLW5XY7ah6UKS5Rm4rOJU3rLVXrQdHbPzrn7uu4+I86tSaHUOlxeVHsbUzSVezqUtUtLX4qX2ZSdyQxNXc7i8Dz40lOzblFuRTEOJpEdVQHeBhcboIOsu6Ag1Xl8Z5l1+Kvd/vZNiZlZWxUc3B8asYnqkdJ9Iuk9Etg3RcC9tVluC2YJ6mTUbAvfL873WLGdmBUb7k9jtltr0eXxLZtYr0zbua9JK5Tbua15ZEgVAAARAAARYBN4RE10hzJJ2DDDtJ6KoIvN4j4nAnd6wRtUguepKQQqnNXcKK5vJK7Wxg4QJLZx9xG19IbmaNyRxuDz11ugYNOYStWXupyG9k11NLClkep6+4YL1O6pkiitpTWdCcoutlgUxO9KWHkstVqccLo/ZL52eJhHE8C1lTNSskmQY6g1GFFVITw8kVh8neBMOHJN0XGSGijU+Lx0PWh070z6ZaY1kNHa3wGlFamMHGadvssyIP7qUkLSg3iNtefwm6urrVnZCZaJ/4c3fUpNObIy0T6bCw5JeeI82E61szy89Lqk4lWfn7kjHxuHypPtEZSdyxXuTyEtWnnzgdAHZyP/Bh4ZZexJIvNDKya60Req3zpdZV3dao3FyuDyN1xOkkfvl+ZKyTWQYkn2bKtryEqSRTI+ccBN18/coa8uNzYpgrjcgc/Tm1lb2Hk6F1Wnb6jNYi2513zVMVDcf5IIACICADgLTyUR9kiSb5f02Pi9WpxmYWJNTKlUBto6LJFJI7palRyx5YhFRVwriJTEl9f7pBfTlkySZbWZDTFTH5nf11pjdqecSE6XROw6Xx+yC5XDqnme1LCgktzituTO36+rG/U10MSuzU/W07lqsTnWbaERRRUazYq7VaPxPfYQcLk+9wYiiipyT54Jyiihe//QCulRU2/PS8aDVwTLtk5lWp6GtO7LiwiU8IbqkTtzWJ1Nc8U/Lp9XVe6RZE26im/cm0cb/t6aztEU6FhOt7dq6rS5915GcovpMZkxUuk+041BWcHwg87XQZjHpQiXBbbmegctisyKYsVg6AB0Jjcapw0RLjkvCN61hDsPew2nyTHTxUvuS4xKhZD1LQ5l35OrrVn4qlxlyZuZqTMNENWLBRRAAARAYC4HpZKKLvUPE8vPMCVxV4PPZoknWjLOevlF8eSNrW73GoBdhpK4U5EpMST2dnac01WfnlwRFjXHSVmNMlMPlbShvTGlsp9trHNaolo2SA4xYDsf0PEsPfyLHZGxeGzIk7ReYgWE6ZmZiLLVYneo2UdYnBOYIab/qDfql5G6W99v6hdMyrITG56XjQas/RKZ9MtOsjshbjd25rd/ktn5015GevlFMST1ZoUGqqPdIW3byi0krPWVu+9LySpqrMcFyOBoT5XB5mbuFzEWNS7xUy0aZJ0Bpi4mWnci1ECxWTbi3qSKgdO1jgjRy9xGxtjlo7sfGuRXJuRXJuxqzozPWahyttousu6DFNF4nu9TppnVaeJJM9JMltmQ/FuVAelyfGlpYnUZN3d7DqaztJbx0YNoS9ssj0kpP8R1WaiuA6yAAAiAAAtoITCcT1dM3ii6uyzl5ztY3jMPlua3fRHcR6Rsu2Li/Kav1rPWKYD19I7/UPOnpAeqszC0pZAcM/b4f5i4issfIwtmHhBWDcopkiivB0l1cA5PZZjYRRRUbyhs/nqtaQOaflq8yxcQcPX2jRZ6B6U2dZCMLoUxWqaY1nTG18+AamNBgoY6+loZtlLRfCN9SxjUwMbXzSGmQpzZ2kK1OLIdjep5LeIK0YyBEtodrYMI1MAnKKRLLz9uvWkcf9sfGlhsK6oVbD8+aNxruIk6prdbLO5ZUq1H5rn7kaAJmv6wIItmxlFjTMtfa2Yi/JOHAUbpjSUeDZvaeGce605s6F3mqtvU4rI5KbexwCRfSwZNDu8j+9xnGfLIMV8eDVvdCpn0mVrdsqj9JNj+R/5ot8SIfM3T8ekQUVYjl50ms3Yi/JLG6JbmhjZ4apu1Bc7g8c9tlKSUn7ZdH0Nt5ZYLlakwTXbrStfxUbrx43Z/0jeYs5KtPH4cmrq44lecZpDr/dbaJ6tuAWGHINRsCD5wpDN80OqFP3FRWnmxosuCDDw191npvqUlf5CCgg/Rb51vdWchcS0qzOFye+t555o4lujPJ2MyC1vIMXLZfnh8iDPrgQ0ODOabEBeda8HcdydlxKItvpzp6Yomn87b6DFd/98kwUXJoaEFVmqW9rbm1FXmREbr6ulWcyotKW/snfaOPjUySt8aRjVN08K9MrIzevGnnsdkmL/7KOFzeR7PMA4WFPpET+V0JrxwJCoAACIDAtCMwnUyUHNUUW9pAzv2RKa5EbCunk9FG/CXCqqOjWZ2XgnK203Am85ge1vf9ME9WIlnUovT0jULziulxQhnHuu38R8WCa2CytmAvycrrurqhvJG1gtAlXEiO/snvGUyqbSX+qqMvDpe3PD5TLO9XneLUfS2lsZ3vMhpf0WGizHOmNJ5dxTMTiHa3pJXKzWxenFGvoxaJC7KOTyILWHWYKIfLI/vKyRFUyYfaaWhWR4McLm+RR0B6U2de9zVy/BPzaZI/JP+0fJniCmESXVxHLmp70K80UdZ90eimjl8P5olRed3X0ps6rVcEM//INT5oYiHxhQ3Bou3MwrrTOkyUyF/5yVzVKU6MQ5dog4amC/8XNCUbbspO5C5eqto8x2zwgw8NhZL11FZVj8zHlRwLVdu1tbJ91BFpg/+/vTtxa+Ja/Ab+/hnB20Eui00IskuoCigii4i4sInIIqDsGMCwg5FVVERBREUEEVHBBVwAAcXWautWW6utrbf3tmpxu3VjsWjhvfTwO51mM0AgRL4+edrJnDlnznwmPn5zZubkY1OLokMZ7KfjaRGH4Uo/O8+exYnO2cS+t3WqwfTMHXH72wdna6o8u9F95dBosdUcGzKZ1OD61gJhdthUg+ljkUTpA0m0e9XnNpMeamnzfMO995wZ5K0+t7n0RJazx+DsTkq+tLR54Vl7g5Ilf8FLj28tLKwLzxp6hE7J1rAZBCAAgckmoGFJlJweXb7AYv4SxuCvH+ujp43eOUrXjHJhio6h+bzFdCYmdmuMganF/CU0CrOLOAxXQUWJLenbEVQhdU1sF5CRS9oUXZg6zULeNIcKatHqyi9M0TE0m+umyxewn+5XprriU0ZGVekwJG1QcS26mUoW5PWBNC7vrLkFrBMVNxhZ/e1RodH0h/xUvYInaaYZW9ApnJTckbwqi1a47zqZQ59ql2hNwbPzEltKvJWYuZOWyltPN2AvvDf1sjce1jLf3EoBr7ymLOcsFpU0Sj84T5JoSHqZvIpYDwEIQAACHIarkUkUZ25CCfCtHRKqGz0SshgDU3P7RetqTtHhxgnVz3HujA7XMmZjzQrhRgUPx4xzl5TcndEMwdaD6enbhROz5/ROAHqR3WL2LPadAEoepko2Y/RNwsTloek7pa2sHX2SS09LJ1SV7BeNQAACEPhgBJBElb0G98GccpUfCLncT28tkL6ErfI9akqDZrMXrtt23MU3VlM6zGG4seLV1ec2bzucaTXnb3c9atAhjGdXfaJzYzfVGkwf+hFR9q51uJafOPpIJ1T2NliGAAQgAAEkUSRRlQmQaf/xl4otoGcoMJg+k71mgi/zza3obyBN8K5OhO4ZWzvrcP/6+YyJ0CX0AQIQgIBmCSCJqiyHadaJR28hAAEIQAACEICA2gWQRJFEIQABCEAAAhCAAATUI4Akqh53tX8FQQcgAAEIQAACEICA2gWQRJFEIQABCEAAAhCAAATUI4Akqh53tX8FQQcgAAEIQAACEICA2gWQRJFEIQABCEAAAhCAAATUI4Akqh53tX8FQQcgAAEIQAACEICA2gWQRJFEIQABCEAAAhCAAATUI4Akqh53tX8FQQcgAAEIQAACEICA2gU0LIn+U88kIUCUF51LX2u8IgmiFsNzm+e5J21nbfb+vOhcc1NbleBqMTwba6eV7sESrdlYO5WIttVm7y8RbbOxdmKXKiiaNs0yfXVmTXZV5fpy/8Uh/5hqyK444mWeoSB4WRiXO4PdgpPtYqqUF52bFZE1w2IuewMsQwACEIAABCAAAfUKaFgSNTGefTCnqjSpmGYsmkT9Fq06kl8T4xe3xNGnIHZjtbjC0nzOaHB5hoI4/3V1eTWnCo9uEhawm3KyW3w490B6aLr7fK/00PTDuQec7BaTDRQUTfvYcmfyjpLE7V4LVoZ4hh/MqYrzX6fF8NgtD2uZ0THycQ2oyNhzckt9bfZ+E+PZ7OrxAaLDuQc2xuQTKyRRNg6WIQABCEAAAhCYCAIalkRnC5wPZFU62C6SsNObZr4rpTQ5JJWs/6eeSWlyCX0rsbGSb+P811Vk7PFxDSiM28JOoloMb+PajVviNn+kY8RhuFoMLysyi7xVUMRhuMsXBtRm77cyHxqY9HBZUZNdRd8q2Sv2Zg62iw5s2Bfnv261V4R0Es2KyGJ3m10RyxCAAAQgAAEIQGAiCGhYEnWwXVQtrrCysJewMzOxPZSz38c1gKz/p55JsaioKKGQhEWJjZV8S+tuEhawI53BxxZ70nbGB4hIO/+YapgZtr4iYzeXa6WgiMNwRUFJu1JK9aaZk4pLnZbX5x9caO+pZH+kN/vHVEMypOrjOphxJcZENwkL0kLTpWthDQQgAAEIQAACEJggAhqWRD0X+B0vOFQtrji5pb4+/2CU71pyq6WD7aJjGw+RJDrDYm55WlnD5jp27BsNt0QSNTGeXZu9nyRRLs+qKGHLic11JAgqKOIw3E3CAtKlf0w1jFkhPF5w6OSWepqeR9ND6SSqq2+2M3lHTXZVff7Bk1vqd6WU4ibR0QijLgQgAAEIQAACYyGgYUnUbZ7ngQ371nhFCizmJQenNGw+ErwsjMNwSRJdvjBgqdPyQzn7Y/zi1gUljnUSnTvTtVpcIQ4XBywJlUii0kU0iZoa22wSFlRk7HGZu7Q2+69x3NGcXekkOlXPeJOwYFvCVvtZrm7zPCvXl1dk7OEZCkazF9SFAAQgAAEIQAACqhXQsCTKPviPdIy2xG0uSdw+Vc+YJNG96bsP5x5Y7OjDYbjxAaIxTaKV68uP5NcEe4RrMTwaBMmYqMwikkQP5x6ozd6/ce1GPQMzsvEYjYmyoTgM13nukqP5tUscl0usx1sIQAACEIAABCCgRgENTqLsuDlb4Hwkv2Zn8g7j6TOJpigoaWfyDl19s9HjSlyd5xta7xdXVIsrZgucSeN+bqtqsquMjWYpKOIw3KyIrBObDpPwymG4Zia2tdn7PRf4jb6HNArLa0qFqVfeLrAeAhCAAAQgAAEIDFdAk5Kotu70jTH59FEhDsNNC00ncZNEwFVL15Dj/0jHqCihMCsia7gcMreXSKJT9YxLErezHwZKC00nQ7MKijgMN9wnmjyhlbw8AAAgAElEQVTYRPay0N6zNns/jbMyd63kSukk6mq/bE/aTjqPlZWF/eHcAypJvUp2CZtBAAIQgAAEIACB9wpoUhLlMNyI5TEHc6rsZ7lyGK79LFf65BCH4SaHpB7YsM96hoMWw/N0WXEkv2ap018Xo6cZ2wQlF7v4xrxXRHoDiSTKYbiBS0Pr8mtc5i4l3TiYUxWxfKhlBUVW5nNrs/evCxT9Y6rhtGmWRQlbikVF/9QzoXt08Y0JSi6eZmxD1yi5IJ1EpxvN3L++IjU0/Z96Jv/UM0kNTT+QVWlhaqdkg9gMAhCAAAQgAAEIjIOAhiVRRscoMSjpxOa6U4VHT26pz4rI0jMYuv6uZ2CWH5N3ckv9qcKjxwsORSyPZU8abyRwTCk74xf3twnqlfSVTqLsbpzYXJcems78Obcoh+EqKOIw3MWOPodzqknnd6ftNDP52w9B+cUVpJSdMRI4Ktkxupl0EuUw3NkC5yrx3lOFR08VHj2QVbnIwYtujwUIQAACEIAABCAwEQQ0LIkSsn9MNeQbWtPwx3ZkdIz4htbSv6JJkqhnxAb2xqNcVtANBUUchsvlzqCzirL74BdXICpp5P3f1PfsohEv600zl/gV0BE3hYoQgAAEIAABCEBAtQIamURHQOC8PEZU0mj652X9EVQfhyo6XMu1mw6NbNR2HLqHXUAAAhCAAAQgAAGVC0yWJGowfeYM+2Uq51Nhg1raPME8Tz1M+clwVaiKpiAAAQhAAAIQmMgCkyWJTuRzgL5BAAIQgAAEIACBySmAJIoROAhAAAIQgAAEIAAB9QggiarHfXJ+78FRQwACEIAABCAAAbYAkiiSKAQgAAEIQAACEICAegSQRNXjzv42gGUIQAACEIAABCAwOQWQRJFEIQABCEAAAhCAAATUI4Akqh73yfm9B0cNAQhAAAIQgAAE2AJIokiiEIAABCAAAQhAAALqEUASVY87+9sAliEAAQhAAAIQgMDkFFBBEjWbvTA8a5+R1fzJKYijhgAEIAABCEAAAhAYmYAKkqiWNm+FcOPazYf0+NYj6wRqQQACEIAABCAAAQhMQgEVJFEOw9XjWwsL67wixZNQEIcMAQhAAAIQgAAEIDAyAdUkUQ7DdQ9OFpU08sznjqwfqAUBCEAAAhCAAAQgMNkEVJZELezcU8rOOHpHSgu6+gnTdp919RNKF2ENBCAAAQhAAAIQgMCkFVBZEiUX6P3iN0tTeoRlrq887xGWKV2ENRCAAAQgAAEIQAACk1ZAZUmUw3DDs/aFZ+2TptTS5ukbfaKlzZMuwhoIQAACEIAABCAAgUkrMB5JdNLi4sAhAAEIQAACEIAABBQIIIliZnsIQAACEIAABCAAAfUIqCyJfqRrHJ1XHZJepiD2oggCEIAABCAAAQhAAAJUQGVJlGc+V1TSuCQkhTZNF2Yv8AtN32lm40bXYAECEIAABCAAAQhAAAIqS6K2C/0Td5y0sHOXNnX1E6aXt9ou9JcuwhoIQAACEIAABCAAgUkroJokqqXNC0rcFibe+5GusTQlmU9U4OApXYQ1EIAABCAAAQhAAAKTVkA1SdTOLTBxx8lPHH2kHbW0eaGZu+SFVOntsQYCEIAABCAAAQhAYJIIqCCJTrd2Sth23C1gnTwyMxs3/AqoPByshwAEIAABCEAAApNWQAVJVIdrOd3aadIK4sAhAAEIQAACEIAABEYmoIIkOrIdoxYEIAABCEAAAhCAwCQXQBJVzzyuk/xjh8OHAAQgAAEIQAACHIaLJIokCgEIQAACEIAABCCgHgEkUfW442sQBCAAAQhAAAIQgACSKJIoBCAAAQhAAAIQgIB6BJBE1eOO70AQgAAEIAABCEAAAkiiSKIQgAAEIAABCEAAAuoRQBJVjzu+A0EAAhCAAAQgAAEIIIkiiUIAAhCAAAQgAAEIqEcASVQ97vgOBAEIQAACEIAABCCAJIokCgEIQAACEIAABCCgHgEkUfW44zsQBCAAAQhAAAIQgACSKJIoBCAAAQhAAAIQgIB6BJBE1eOO70AQgAAEIAABCEAAAkiiSKIQgAAEIAABCEAAAuoRQBJVjzu+A0EAAhCAAAQgAAEIIIkiiUIAAhCAAAQgAAEIqEcASVQ97vgOBAEIQAACEIAABCCAJIokCgEIQAACEIAABCCgHgEkUfW44zsQBCAAAQhAAAIQgACSKJIoBCAAAQhAAAIQgIB6BJBE1eOO70AQgAAEIAABCEAAAkiiSKIQgAAEIAABCEAAAuoRQBJVjzu+A0EAAhCAAAQgAAEIIIkiiUIAAhCAAAQgAAEIqEcASVQ97vgOBAEIQAACEIAABCCAJIokCgEIQAACEIAABCCgHgEkUfW44zsQBCAAAQhAAAIQgACSKJIoBCAAAQhAAAIQgIB6BJBE1eOO70AQgAAEIAABCEAAAkiiSKIQgAAEIAABCEAAAuoRQBJVjzu+A0EAAhCAAAQgAAEIqCyJmlnN2Vay6/qNr7+8cq2ktFyfZwFclQjo8gVWTh6CBd6CBd7m8xZP0TFUSbPvbcRyzuIw8V6D6bOkt1RQJL2xytf4BayJihWRl/NCT5W3jwbNZi8Mz9pnZDV/4lBYz/cOSi7mz3CYOF1CTyAAAQhAQCUCqkmi+jyLr25+0/f27b9++s933//wxZfXVNK5idyIw8rwhOpGcdOlpCPN7tEpYxcQXULictqu5nfczO+4mXK0jW89Hv8Ym8x0EW0/4RYgkj4FCoqkNx6LNXd/uDfwf39qauvHYhea2GZb+4Xv7/7o4R04+s5rafNWCDeu3XxIj289+tZG34KN68qk0pMLVqxl9E1G3xpagAAEIACBCSWgmiSakp7V3d3TcPLMsI4tLDLu0eMnFZU1w6o1ETZesCYhq+VL4b5jHglZEaUHctqu+mUWjnXHQgvLh5tEg/J2JFQ38qzsh9U3LW1eaPrO0MxdWto8iYoKiiS2HOu3UbGi16+7pJOo5n6o3ivW0nru3r2f3JetkLllU0vbrW/vuLp7yywd7ko9vrWwsM4rUjzcimOxfUh6WUR2pfSncSz2hTYhAAEIQGCcBVSTRAuLSl+/7iosKh1W7+WFiWE1Mv4b6/AsE6obhfuO6fAsyd5DC8szGz+1mL9kTDszgiQ6giochmvt6JNcetp2ob/04Sgokt54TNfI+/DIWz+mnRmfxj+9eLmz85FKRj2V6bB7cLKopJFnPleZjcdum6nTLGILasOz9o3dLtAyBCAAAQioUWC0SbSmtv7/rpQO/b+vr49EUol4yn5bWFTa19cnUZGMb3l4B3Z2Pvr04mWCIvPtpctXLnx26e3bdwMDA3e+u0u2NLOa09reQZrt6+trPNWkzL2qjIHpqo07yeXvnLarqzbuZAxMSYPxVQ0ROw7E7DmSd+5G3vmvkg63WDou5TBcW48gcdOlpcIMetrsPFdFltbMXhrAYbjyGvRKzNnQdDmj8UJ+x820Y+1px9rzO24mHW4xtnHhMFyvxJz04+fW7q0n+0qtb5vp5kvbJwsyY+XspQGp9W15578a7OGRZoHL0H2T8VUN5II+/S97PFVeLbIjz4gNcVvr9I0+kegAh+HKKyIn98DBun//5+f+P/9U1xwm1QODI+/d+6m/v39gYOC3355n5W6izdrau17+4io9ZZe/uGpr78phuDJPOv1IkOrSiVPBh4rucbgL+jyLAwfrenp6BwYG3r179/mlL0kPff1X//pr58+/3CdjkLb2rrfvfP/8+YvI2MH7GfR5FkePNdJa167fpEOV8hrkMNya2vonT599e/s7Atj56LEwIZV0mH1DAvlbQyMp+6jpSnqYRdt3vnjxcmBgoL+//969nwKDI0lRTW1956PHTc1tb968GRgY6OrqLtstGfUs7NxTys44eg9VoW0Od8HGdaVwy+H5XuFTdPjDrcthuGR0Fkl0BHSoAgEIQEAjBEabRJ0XekbFiir3H+zq6q7cfzAqVhQRnUD+tWZHTw7DZb+1tXeNiE4o2LK9q6u78VQT++kTxSmElL59++7f//m5orKmqLiMJpuW1nO9vb3VNYdt7V2P1J948+aNMtf9g/J2ZLdc8UjI0uULPBKysluuBOXtIGcuvqohp/VKYE4xz8reJUQoPv15RPF+DsN1CYkTN11yCYmTeYLlNeiVmJPV8qVTUPSyBPGfV/O3OAVFb2i67JGQRZJo3vmvInYcMJ2z0HlVrPj050m1TR+b27J3IZ1EZzgty2z8NH5/g7n9ohlOy5Jqm2gtE9sFggXeETsOpB1rt/MKZj/tpKAWh+FqafMisivDxHvZuybLCooKi0p///33N2/eXLl2o2DL9j0V+0nocXX3/vmX+52PHielipd6+X9z6/bz5y/CIofoWlrPvXr9esvWHYJZ86trDvf29ra0nhtxElXwoZI+FiXXVFTW9PX1NTW3zXdZWlJa3tXVTXrIYbii5PUvXry88NklfZ7FkfoT3d09RcVlpNmDh+pprU2FxS9fvaJ3TitosKa2vr+//8rV6/5B4aQWTbrkIa0rV68/fvI0LSMnKlYUvCaGfNEiRx0VK7py9bpEEs3J29LT03vl6vWlXv5JqeLOR49pgzW19X/88cf3d3+MiE6IiE748d6/njx95uu/ms1CIqBf/Gb2yhEsG1rah2bsytjblrq72ScmV89QMKxGVNWNYe0UG0MAAhCAwLgJjDaJko6yUybtusRKibcchis9rPXeFEKS6P0HD+kgE9ldaNja589ftLZ3kLf6PItb3975/u6PiodFTecsTD/RQfIlqRhRvD/9RIfpnIUchhtf1RC/v4E+ihRReiC57uyfqVRuElXQoFdijrjpkmCBNw2yggXe4qZLXok5JImSUtKNZQniDU2X5/mFk7fkv9JJNDB3R+bJz6ycPMgGDv4R4tOfsyOydBUOw1Vca+gf/rgC9q7JsoIiMjJH/Wndisqanp7e3Pyhm2gjohOeP39x8NDQY0bf3LpNT6U+z6KktHxbya73fgZI4zI/PPI+VLQ/w1pwXuj5y/0Ht769Qz9Fre0d7LRHAuiJxjPshCpdq/FUE7m/U7qI3WBNbf3r111Rf46qchhuVXVtd3cP/aLFYbiKr85Ll165doOdL4tL9/T29u7cVUHGX7u6uumY685dFd3dPQVbtkv4hGftU3IwUkubxzOfayRwpK9pxjbs1hh9EyefqLWbDmVWtIdv2Kvkg/mMvsni4NSUXc02rivZrWEZAhCAAAQ+GAGNTKJ3f7gncQIKi0rfvHnz8y/3b9/5nryePfsvOzRIbE/ezvMLz265QrIgWUOuodt6BA0l0aoGWpGmOholaRFdUNDgsJKorUcQHS6ljdMO0DXxVQ3ipkvCfceEFUeFFUfj9zfktl1jH450FXJcCmopiJsKikgSlX5+6NOLl9+8eXP3h3vkpHx/98fe3l56nT1DnPfixcuuru6vv/m2vKKaDKVPnCRKwm5n5yP6oXr4sJMdFvV5Fhc+u9Tf33/7zve08xHRCS9fvWo+205PE11Q3KBEEiVPAdKbHIabREnqZf9NIXs/0Tj4WKHEvqS/JZI+K59EdXlWkTlVKWVN9BWSOnRtgR6+ljbPer53ZE5VZsV55+UxdL28BfJ5y9h3bmFAvLxtsB4CEIAABDRd4MNJoj09gxGn7mgDfe3eWzXTzlnBGZrnF57V8iW5Pk4280jI2tB0WXESJVfVF0Ul05Z1+YIZTst0+QIFDY4gibIzJYfhSsfK+KqG1Po2n9SN7Je1mw/tmHQVkkQV1FIQNxUUKUiiL168bDh5hp6UuqMN7HE+W3vX8orqr7/5tqent7e3d+u2wYfeFN+hQY5uHMZEyS6uXb/J7nx1zWE6Hq8giZLAR08Eu8/yGpRIhySJssO99Kgnu32JUpJE6V3UHIZLIvIYJVF2T6SXueZzVgg3pu5qztjbtiqlmGs+R3obmWum6PAXh6RgTFQmDlZCAAIQ+DAExjaJdnV1F23fSaSkx11khgmSQi5+/gWpJTOUsEd6yGaxccmvXr8+dbplWGfFYv6SzMZPV20c6iGH4a7auJM+BT94dV7WmKixjUv68XOhheV0X95JueKmSzbLAhU0OKwkuixBTG4qpbuQmURDC8vTGzrM5y1mb8ZelplEFdcijyoHJUteqOUwXAVF8pLowUP13d096etz2b0iyzPtnHfvraKp1Nbe9d//+ZmcWcWfAVJd5odHtVfnSTeuXb9Jr85LHAW5On/0+MmXL191XLhISqUvwWflbiJfihQ3KJFEq6pre3t72VfMJbKmRGekS9k3P3AYbm5+YU9PL7l5WmJf0n83OQz3I13j6LzqkPShm18ldqf821kuK9LLW5NKT7kHJ41gQtCh7z+jvl1V+Q5jSwhAAAIQGE+BMUyiQaFRv/32/Nr1m7b2rkGhUT/e+xd9rJ4coa//6idPn9357q6ru7etvSudKPGrm988ffYsKlZka+/a1Nz27t07ej2X/FsunUT1eRZXrl5/8+ZN5f6D+jwLH7+Qb27dvvDZJTblghVrU3c3uwf/NZY5GO827xE3XXZds47DcF3XrBM3XQ7dvIfUkpdEOQzXb31hdsuVheGDD0rPXhqQ0XghZvchckepvAbfm0Rz228EZG9nDExnLlqRWt9Gnz2iv7HEfvyIzG9v5xW8oely/P6G6bOdpugYLolNTzzUTB7hJ4ewImMz7ef0WY5kWoD31gpK3h6dV/2RrjFbjyzLK5KXRINCo54+e9b56HHcusHHwLNzNz982EkGPmfaOd/57u6Tp89IEZkH9Kub35AdKfgMkMd32I+7hUXGmVkNDbPJ+1BxGO40Y5ug5GIX3/dfF6YH3nDyzNu37840tZpZzXF1977w2aVvbt22d3RX/MTS4brjPT295KMYty6189Hjm1/fInFWQYM1tfXv3g3ti9SiDxiR/hw7caq3t7ekdPArkLfvKnLI7CeW6PNMZKanzYUlPT29HRcumlnNCQyO/PmX+w8fdpIiZZIoz3yuqKRxSUgK1RjZgpHAcYb9shHPBkqSqJK3q46sh6gFAQhAAAJqFBjDJPq/GViqaw6TaWLevn138fMvfvvtucSco4frjpPJmMhTwwRCmJD6+MlTMvXM93d//Pd/fn5vEh2cXMne9eq1r969G5zaqb+//9//+ZlMqUNxPcIy11d2BIi20jUchqvLF6wpqsxtv5HfcTO3/caaokpd/tCzvQqSKGNgGlxQltN+Pb/jZt65GzF7jhgK5pFm5TX43iSa03Y17Vh73vmvyDRPdBYn9m8s0SmZ6Iis86rYzJOfkfXZZ6/4phfQR6w4DNfYxiXpcAspFTddtvMKJp1UXMvROzK59LS57SI2FFmWVyQviXIYrjBhMIqRWZzevn134bNL9JZK9gRPEtMMKfgMSE9pxL53k8NwZX6oOAzXSOCYUnbGT9bDWNJHStbo8yxaWs/RGceePnuWuSGfw3AlZnHS51nc/PrWy5evRMnrOQyXPaFYf3//N7duL/UampxVXoPk3s2+vr7HT54Sq8dPntInikhnfP1X33/wkMzi1NXVnZYx+KwbkZeYEI3+fSmvqO7q6iZ/Ix48+JX+jVAmidou9E/ccdLCbjB2q/GF+UTViI9dQwACEBgHAdUkUQUdNbOaExq2loYP6S3NrOaERcZJ/4C4X8CaEUziLa81Mj+RvtEnMsdm6I2e0t1TsIYxMLWYv4QmV/aWw22Q5lQD09kmtgvYTSmzzLd2UPCT9PJK5a0no1A+UYNBR+KloEhiS4m3zgs92SOX7FJbe9ewyDiZn5CRfQZIFpT+UJEk6hmxgb13ZZb1eRbBa2KG+2lU8MmX2SBNh84LPf0C1sjrmId3IJ3CSd427PUy98XeQOayljYvKHFbmHivzKFxmVXGbqW8kfix2yNahgAEIACBcRMY8yQ6bkei0TuiSXSCHIWjd6SouMFs9uBsVhIvBUUSW060t87LY0QljaazBifPn4AvmkQnQt/s3AITd5z8xPGvp9/U2KtPHH1SypoWB6eO4DZTNXYbu4YABCAAAWUEkEQnRCiZaElUS5vnuzY/puCgLs9K4mOkoEhiy4n21mD6zBn2yyZar2h/Jk4SnW7tlLDtuFvA4M3TE+RlPd87QLRV+YfuJ0i30Q0IQAACEHivAJLoRPm39r2napw30NLmGVnNl3kzg4Kice4kdjcWAjpcy+nWTmPRMtqEAAQgAAEISAggiSKJQgACEIAABCAAAQioRwBJVD3uEl8I8BYCEIAABCAAAQhMQgEkUSRRCEAAAhCAAAQgAAH1CCCJqsd9En7pwSFDAAIQgAAEIAABCQEkUSRRCEAAAhCAAAQgAAH1CCCJqsdd4gsB3kIAAhCAAAQgAIFJKIAkiiQKAQhAAAIQgAAEIKAeASRR9bhPwi89OGQIQAACEIAABCAgIfABJlHTWa6+a/ND0svcAkR6hgKJA5b3dooOf4WwwD0oUd4GWD9BBKYZ2xgJHMlr6jQLdq8UFE3R4Ydm7JrvFc7efljLJjNdAkRFAgfPYdXCxhCAAAQgAAEIKBDQyCRqMtNl7eZDjt6R0gfm6B2ZUdEet7UuTFwenlXBn+EgvY3MNb5r84VbDhtMnyWzdIKvbGu/8P3dHz28A8e6n1OnWawQFrj4xoz1jhS0H561T1x1gbxc/YTsLRUUcRiunVtgUulJG9eV7CpKLpvMdBFtP+EZsUEi+ypZHZtBAAIQgAAEICBTQCOTqJHAMWZjzdylIRKH9JGucXRedVTefkbfRKJI8dtPHH1EJY3Wjj6KN1NjaUvruXv3fnJftkJmH5pa2m59e8fV3VtmqQpX6vGthYV1fnEFKmxzZE0ZCRxTys5IJFHSlIIiv7iCmIKDOlzL4e7UM2JD3NY6faNPhlsR20MAAhCAAAQgoEBAI5OovOMZWU7S0uaFZu4Kz9or8zfW5e1rnNd/evFyZ+ejcRj1VHxcIxNW3ObIShXETQVF5raLkktPyxxNV9yNkPQyYWGdHt9a8WYohQAEIAABCEBgWAIalkTlXX4l4YNetCULSg7d8cznikoa3QLWScDp8ywOHKzr6ekdGBh49+7d55e+tLV35TBcX//Vv/7a+fMv98kYpK296+073z9//iIyVsRhuPo8i6PHGmmta9dvsocqE1PEnY8e9//558GDX0kVDsOtqa1/8vTZt7e/I0Wdjx4LE1JJf+7+cG/g739oJC0sKu3r6yOFdCU9iqLtO1+8eDkwMNDf33/v3k+BwUM3MxQWlf73v78dbzj98tWrgYGBvr6+4w2naS3FCypMoqQpz4gNMfk16ys71leeDxOXk9FKib1IvCU9VBA3FRSRUfOQ9DLFhyldGp61D0lUmgVrIAABCEAAAqMU0LAkSh5JmeWyInVXM/vK7BQdPn+Gg+WcxfFFR4MSt5HHWZQcwbJ1C0gpOzPLRfLCd0VlTV9fX1Nz23yXpSWl5V1d3S2t5wi3KHn9ixcvL3x2SZ9ncaT+RHd3T1HxULg5eKie1tpUWPzy1asvvrxGaoVFxj1//uLHe/8KCo0Ki4z7+Zf7NM7W1Nb39/dfuXrdPyic1KJFfgFromJFV65ef/zkaVpGTlSsKHhNjD5v8EkdW3vXiOgEUiqRRHPytvT09F65en2pl39S6mD8pQ0WFpX+/vvvDx78mpaR4x8UfuXq9devu5JSxcp8kmSGwk+cl4tKGlLKmtiv9447kqZSdzW7+Mbo8qwWrFibtvuse3Ayh+FK7EXiLemngripoIjDcP3iCkZwnT08a19EduVEHjVX5vRhGwhAAAIQgMBEE9CwJEr45EUNmZHlveKufsKUsjNGAkf2ls4LPX+5/+DWt3dI5uMw3Nb2DnbaIwH0ROMZdkKVrtV4qone39l8tv3Fi5cR0QlkR7n5hS9fvSosKiVjoq9fd0X9OarKYbhV1bXd3T1ZuZtolxRfnZcuvXLtxpOnz3z9V5MWikv39Pb27txVwWG4hUWlXV3dRdt3kqKU9Kzu7p7qmsN0XwoWZAoz+iZGVvPp8+wyn2qXbnOoqfjNpIiMVoaJ9451EpV5uqW7R9dM0eE7eKxJ2dXsujKersQCBCAAAQhAAAIqEUAS5cqMJlGxotevuzo7H92+8z15PXzYyQ6L+jyLC59d6u/vv33ne3LVnsNwI6ITXr561Xy2Xea5ufvDvdevu+58d5c0+OO9f/W9fVtTWy+dRKXToXTWZO9CopQE4rs/3KPbkMM50XiGJNHXr7tIAuYwXFJEukG3l7cgM4nK21jxeummwrP2hWftm2hJNDxr3/rK88tj86bo8BUfEUohAAEIQAACEBiuAJKooiR67frNuqMN9FVdc5je9KkgiZLAJ30m7v5wr/PRY9oaWYiNG7weXVNbz465JImy06FE1pRoXKKUJNE7392lm5GIPPokKnMWp9FcnWffyzsxk6iWNs9+SSjGROlnCQsQgAAEIAABFQogiXIdvSNTys5Y2LmzWT28Azs7H127fpNenWeXchguuTp/9PjJly9fdVy4SEqlr85n5W7avbdqpp0zh+F+evHys2f/DV4jYzJOiSRaVV3b29tbsGU73alE1qTryYJ06Te3bt9/8JDm5tz8wp6e3orKmlGOiUrsl7z92MzO1T9+UaCI/TK2HjxkBa/3j4n+34V76S05DFfeHRqKizgMd0lIiqikkWc+V0HfpItwn6i0CdZAAAIQgAAERi+gYUmU/cTS0tXpRgJH/gwHetlUZmR5r5GFnXtS6Sn7JaESWzacPPP27bszTa1mVnNc3b0vfHbpm1u37R0HA6uCJ5YO1x3v6emt3H9Qn2cRty6189Hjm1/fInE2LSOnu7vnx3v/8vEL0edZlFdU/3L/QWLK4KNCNbX1794N7YvUog8YkV4dO3Gqt7e3pLScw3C9fVeZWc2ReGKJPs9EZnraXFjS09PbceGimdWcwODIn4mdzp0AACAASURBVH+5//BhJykqLCod8dV5LW3eghVC6ZlcJeiUeSt9suiYKIfhBqfuWLftuJHAkdE38Qhfn1lxno6eKvgMKCiiXQpJL4vOq/5I15iuUWYBz84ro4RtIAABCEAAAsMV0LAkyp7FiUzVxH7YSDrcKMMxdZpFbEFtgGirxMb6PIuW1nN0mqSnz55lbsiXnsVJn2dx8+tbL1++EiWv5zBcM6s5re0dpFZ/f/83t24v9fKnLW8qLCYzKw0MDLx58+bosUYSUmtqB5+4f/zkaX9//8DAwOMnT+ksTqSur//q+w8ekgmburq60zJyyOgm7R6d6OnTi5dJlfKK6q6ubjKLE3vGqNEkUYPpsxK2HYvIrqTpnx7acBekTxY7iZrMdIkvOiquurC+siM8a290/gGaRBV8BhQUke6RnS4JSRlubzGf6HDFsD0EIAABCEBAGQENS6LKHNIItnELWCcqbjCymi9dV59nEbwmZrhTyptZzQkNW0ufZJJo1sM7kM7ERIro1XnnhZ5+AWsktqdvpSvSIpkLI+u8zKbUsnKasY2SU3Ep2b15y9aItp8wnTU4L+ywXktCUtZtO/6xqc2wamFjCEAAAhCAAAQUCyCJDiYSHa5lzMaaFcKN6powkiZRxWcLpaMRMJg+S7jlsFekUjOnSuyIP8NBVNywMmELfndeQgZvIQABCEAAAqMRQBIdGhszm71w3bbjLr6xo9EccV0k0RHTKVlxig4/JL1sdeZuRt9EySoSm5nMdPEXFVraLZZYj7cQgAAEIAABCIxYAEn0r6u0eoYCg+kzR0yJihNcwNx20ehvb53gx4juQQACEIAABDRLAEn0rySqWWcOvYUABCAAAQhAAAKaLoAkiiQKAQhAAAIQgAAEIKAeASRR9bhr+jcY9B8CEIAABCAAAQiMXgBJFEkUAhCAAAQgAAEIQEA9Akii6nEf/XcItAABCEAAAhCAAAQ0XQBJFEkUAhCAAAQgAAEIQEA9Akii6nHX9G8w6D8EIAABCEAAAhAYvQCSKJIoBCAAAQhAAAIQgIB6BJBE1eM++u8QaAECEIAABCAAAQhougCSKJIoBOQKmNguMLFdoCl/yecuDg5JL/tI15h2eI77qtWZu/QMBXQNFiAAAQhAAAITSgBJVG4KmVDnSXFn2tovfH/3Rw/vQMWbqbHUU5SVeKhZsMB79H2YomPoHp2SdKRZ3HQpqbbJJUQ4+jbltRBf1RBf1SBd6pGQJaw4Kv3ySMiS3nh81ti4rkwqPWnn9rfPAKNvEiYuX525mx1Px6c/2AsEIAABCEBAGQEkUc1Ioi2t5+7d+8l92QqZJ7Wppe3Wt3dc3VWQ82S2P/qVS4WZooOnze0XKd/UDKdlaUfblwozJKqEFOzKab8eWXrAJ3WjcN+xnPbrPqkb6TbyatENhrUgL4nO8wv3Sd3ok7oxtLA8++yV0MJy8naeX/iw2lfVxjpcy5iCgz5ROdINms5yFZU0OnpHShdhDQQgAAEIQEDtAkiimpFEP714ubPz0UQe9VT5R1mwwFvcdMkr8W/pymL+kszGTyNKD5DdTdExjCytyWz81GL+ErJGZq0R901eEqUNuoTEiZsuuYTE0TVqWXBeHpNUetLY2lnm3gNEW2MLaqdOs5BZipUQgAAEIAABNQogicpNovo8iwMH63p6egcGBt69e/f5pS9t7V05DNfXf/Wvv3b+/Mt9MgZpa+96+873z5+/iIwVcRiuPs/i6LFGWuva9Zt0qFJegxyGW1Nb/+Tps29vf9f/55/OR4+FCankY3H3h3sDf/9DI2lhUWlfXx8ppCvph6lo+84XL14ODAz09/ffu/dTYPDQqFhNbX3no8dNzW1v3rwZGBjo6uou272P1pK34BISl9F4IbL0QE779fyOm5knP3NeFUs3JoHMS5QtOng67/xXeee/ItepSS7M77iZ33FT3HSJfXWeNOiXuUV8+vP8jps5bVf9MgtJgy4hcTltV0kt+l8SSa2cPMSnP19T9FeHrd18PBKyPja3VVCLw3DN5rolVDfmnbuR33Ezq+XLgOztU3QMye50+YLQzXvIHnParq7auJMxMCVF7CTqKcrKbrnim15AK3IYrrwkSir6phdkn72S33Ezue4sz8qew3A/NreNLK3JbR/sRk7b1fDtlbr8oZs4p+gY+qYXZLV8md9xM7f9RmRpzcfmtlR49tKA1Po2Ypt0pFng4kmLOAw3JL0sIrtSS5vHXkmX7ZeEppSdETj8rQopXR6bl7KreZaL7LF22gIWIAABCEAAAmMkgCQqN4lWVNb09fU1NbfNd1laUlre1dXd0nqOnAZR8voXL15e+OySPs/iSP2J7u6eouIyUnTwUD2ttamw+OWrV198eY0UKWiwpra+v7//ytXr/kHhpBZNun4Ba6JiRVeuXn/85GlaRk5UrCh4TYw+b3B8y9beNSI6gZRKJNGcvC09Pb1Xrl5f6uWflCrufPSYNlhTW//HH398f/fHiOiEiOiEH+/968nTZ77+qxV/wkjOi9/fYOXkYbMsMLW+LbPx0xlOy0itwdLWK9lnr0SUHnAKil4ck2Y2143DcBkD0xlOywQLvFeKt0on0ZzWK0lHmu28gk3nLIzYcUDcdMlm2eBtjrp8gZWTh1NQtLjp8krxVsECb8ECbwPT2RyGO0XHMLSwPLft2uqtew0F89h9VlBLh2cp3Hcstb5t5qIVunxBYE5xTtvVxbFppHro5j3ZLVc8ErJ0+QKPhMG4uSJjMymiSZTEUP+sbewYqjiJ5p67kXas3Ssxxyko2nXNuqF9FZaLT38+PyCaMTAl+wrI3k6KvJNyc9quBuYU65vMcl4VKz79eUTxflI0w2lZZuOn8fsbzO0XzXBallTblFTbRHOqvtEncVvrlsfmkY2l/2skcEwpO+MWMNQH9gbBqTsyK847eIaxV2IZAhCAAAQgMG4CSKKyk6jzQs9f7j+49e0dkvk4DLe1vYOd9kgAPdF4hp1QpWs1nmoi93dKF7EbrKmtf/26K+rPUVUOw62qru3u7snK3UQ/B4qvzkuXXrl2g50vi0v39Pb27txVQcZfu7q66Zjrzl0V3d09BVuG8hDdo8SCxOCfg39EVvMX9CZOklNXbdwpUYu+9UrMkU6i4qbLC1bHk21sPYI2NF1mP/Ej7zo7Y2AamFOcffZK3rkbSYdbJJ5Ykllrio6h+bzFfGsHsi/TOQvTT3SEFpZzGC653M/ueXhJdfSuQ2RLkkRJDF21cadEDFWcRDNPfmbl5EEFyAL7YXwdnqWo5jR5IsrAdHbioebYPUfoLvzWb02obiQjqYG5O9itOfhHiE9/Tm8JIEHT1U/uk1t6fGthYZ1fXIFEZ/5M9nx9o0+k12MNBCAAAQhAYHwEkERlJ9GoWNHr112dnY9u3/mevB4+7GSHRX2exYXPLvX399++8z25as9huBHRCS9fvWo+2y598hQ3KJFEU9Kzurt7qmsO03aksyYt4jBciVKSeu/+cI9uQ/Z+ovEMSaLsAyksKn39uquwqJRuLHNBIomSMBeyaTfZmCRRiXs62e3ISaJ/3WEpnSCl17Ab1OULFkUmJR9pyWm/HpS3gxbJq/Wxua1fZmH68XPipkvipsu57TdIEnUKis5q+ZJGatoOWYivahCfuZR99kpSbZO+ySyJUsVJNOVoG82+tCJjYOopyiIP/oubLuW0XydJlNx1EJj714HQKhyGO9iNpkvCfcfI0/rx+xty265R7dEkUfZesAwBCEAAAhAYfwEkUUVJ9Nr1m3VHG+iruuYw+6ZPeUmUBD6Jc0myoLwGZSbRmtp62ohE1qTryYJEKUmid767SzcjEVnlSZSEORLIctqu0mxE90sXVJ5ESctTdAxXF1WIT39ORx9lJlEdnuXavfXpDR2LolIEC7ztvILTjrXTJLqh6fKiqGTaVfZCfFVDbvuN+KoT2S2DD8jTAUu6jURAp+vjqxpkJtHQzXvEZy75pOSTWw7W1ZxiJ1G/9UN3ytJ2yEJ8VUNqfRt5PJ/+19rNh5QiiUpw4S0EIAABCGiQAJKo7CTq4R3Y2fno2vWb9Oq8xEklV+ePHj/58uWrjgsXSan0Jfis3E2791bNtHNW3KBEEq2qru3t7WVfMZfImhKdkS795tbt+w8e0tycm1/Y09NbUVmjqjFRB/8Icm8l6cm4jYkuikrOPnuFHRx9UvKzW67Q6ZNkJlGy0icln/R2+izHtKNDSVT66rzrmnX0ts7Bq/P7G6boGPqtL5SYLooeuMxn52UmUb61Q8rRNvq41RQdw/j9Q/OVSl+dn+cXvjg2TYdnyWG4oYXl6Q0d5vMWS5x38pZnPldU0rgkJEVm6eBjUqY267Yd94zYIG8DrIcABCAAAQioSwBJVHYS/d/T1g0nz7x9++5MU6uZ1RxXd+8Ln1365tZte0d3DsNV8MTS4brjPT29lfsP6vMs4taldj56fPPrWyTOKmiwprb+3buhfZFa9AEj8sk4duJUb29vSengrY3evqvMrOZIPLFEn2ciMz1tLizp6entuHDRzGpOYHDkz7/cf/iwkxRJpF7pq/Mf6RqHpu8UlTRY2v0VfcgzSRHF+z82t50+2yl+f4PkE0uyxkT//sTSZaegaMECb/KrRRKjidIJ0tjGJf34OeG+Yx+b2+ryBeSOSb61Q/KRlvSGjvkB0VN0DMmzU+zHd2TWMrdflNF4Ia7ymKFgnrGNS8SOA3nnv6IDuqH/9xQRh+HOD4gWn/6cXu6nTyzp8gXCiqMbmi7beQWz/65KHAUtkplEB+Nm7emU+tYZTssMTGcH5u74c8B1aOZ8n5T8wVtv49dP0TGcuWhFan1bzO5DZBTWzit4Q9Pl+P0N02c7TdExXBKbnnioefbSALK7j3SNo/Oqg5Ll3ukrcPBMKTtjvySUdo8uuPjGBCUXTzO2oWuwAAEIQAACEBhPASRRuUlUn2fR0nqOTpP09NmzzA2Dg2oSszjp8yxufn3r5ctXouT1g7MFWc1pbe8gtfr7+7+5dXuplz85o/IaJOOUfX19j5887e/vHxgYePzkKX2iiNT19V99/8FDMmFTV1d3WsbgLJvsWZzoRE+fXrxMqpRXVHd1dZNZnB48+JVMMqXMmOjUaRbR+QcyKtrnLv4rdbmExGU1fzE4kdCfEyGJT38uMYuTzKvzJF/SmZjIArkeLZHhpJMoh+H6pOSTSaPyzn8VsWNoDlH2fEx5526sqzklMaWRzFpLYtPFTZfzO27mnbsRV3k8/URHzJ4jBOpvMyu1Xw/dsofOrESTKIfhGtu4JNedTalvJdMCkLoSR0FWkjs7ZV6dn+cXntF4YbAb578SHTyddKQ58VAzmRaAMTBdtXEnmUwq79yNmD1H2JMDOK+KzTz5GQHMPis5mZRnxIaEbccMpsu4k5XDcF1XxidsO/6xqYy46RdXkFJ2xkjgSHuOBQhAAAIQgMB4CiCJyk2i5DTo8yyC18QMd0p5M6s5oWFr6ZNM7DMqs0E6Tum80NMvYA17e/ayh3cgncKJvV7essx9yduYvZ7RN9HlWbHX0MilyxeYzXWTvmOSvbEKl8moKslq7GYZA1OL+UtoZGQX0dmjJGqRJ+glVtKKunyBxfwldCZRun4sFkxsF0g/zER2pPi4+NYO5vMWS+OTH1JyXh4j3VtG3yQqb7/MB+c5DNcvrkBU0sgznytdEWsgAAEIQAAC4yCAJPqeJDoO50B6nHJ8djqsvdAkOqxa2HjcBLwixcIth6WHRd0CROu2HefPGJrBit0fHa7l2k2H5IVU9pZYhgAEIAABCIyRAJIokqhSAkiiY/Q3UFXNMvomqzN3h6SXTdHh0zZnOq8QlTTaug3+XoD0S0ubJ5jnqWc49CNP0htgDQQgAAEIQGCsBZBEZfwLPdboaB8CYyEwRYdvZDWf3bLB9Jm48s4GwTIEIAABCEw0ASRRJFEIQAACEIAABCAAAfUIIImqx32ifSNBfyAAAQhAAAIQgMD4CyCJIolCAAIQgAAEIAABCKhHAElUPe7j/50De4QABCAAAQhAAAITTQBJFEkUAhCAAAQgAAEIQEA9Akii6nGfaN9I0B8IQAACEIAABCAw/gJIokiiEIAABCAAAQhAAALqEUASVY/7+H/nwB4hAAEIQAACEIDARBPQsCSqpc1bHpvnFiBi/5DMaEz1+NZGAkfy0uNbj6apYdXV4Vp6hovdg5OHVQsbQwACEIAABCAAgQ9JQPOSqOWcxXGF9SuEG7W0eaM/E35xBeKqC+Q1bj/A/ZGu8erM3RHZlRK/iDP6w0ELEIAABCAAAQhAQIMENCyJElm3gHWikkYV/oyhHt9aWFg3bklU4OCZXHra1i1Agz4o6CoEIAABCEAAAhBQuYBGJlH7JaEpu5pnuaxQFcc4J1FH78i03WdtF/qrqv9oBwIQgAAEIAABCGiigEYmUduF/illTconOS1t3oIVwtTdzeKqC5kV51cmbGH0TdhnS2YS1dLmLQvPpLXWrN9jMH0WqfXeBtmNSy+7+gnTy1uV7790C1gDAQhAAAIQgAAEPgABTU6iSl/ddvSOTC9v9Qhfr21gNndJcOquZq9IMfvkyUyijt6RqbtbFqxY+49/Tp+9wC+59HRo+k5yc+p7G2Q3Lr3s6idMKWsymekiXYQ1EIAABCAAAQhAYPIIaGQSHQyOWw6Hb9hLBykVnLCp0yxiC2pDM3fRJ5x8onKEhXXsJ+VlJlHPiA2JO07Rh4o+cV7u4Bn2ka6xMg0q6M90a6e4LUdWZ+7+SNdYwWYoggAEIAABCEAAAh+8gEYmUQ7DNZ3lmrjjpDLXuI0EjillZ4SFdWHicvISbjmcUnbGSOBIz67MJGpoaS/ccjhtT2t4VoWrn1DPUEC2V6ZB2rLEgqufUFx1Ibag9mNTG4kivIUABCAAAQhAAAKTTUAjkygdE6XpUMFpI8FxVUrxokARfbn4xuhwLWktmUmUw3Cn6PBtF/oHJW9PKj2VWdHuFrCOw3CVaZC2LL3An+GAMVFpFqyBAAQgAAEIQGASCmhkEh16Ykm5+0RJylyVUkyvzkufZplJ1G5RkN2iILKxljZvVUoxuaavTIPSu2CvwX2ibA0sQwACEIAABCAwaQU0OYkqPQvSktDUjH3nPMIyp+jwdbiWK4QbQ9LLtPXNOAyX/MaS5ZzF8UVHgxK3Df7YktV88mS9X1xBStkZMleUnqEgIrsyOv/A1GkWHIaroEFlPkl4dl4ZJWwDAQhAAAIQgMAHL6CRSXS484lqafO8Ijdk7G0jv6WUsO34DPtl5NSyf2OJlNJ7T3W4lqtSijMrzourLqyv7IjbWmdm40ZqKWhQmU8M5hNVRgnbQAACEIAABCDwwQtoZBJdEpIygt9Y0tLm8cznsh+ZV+bsTtHh82c4kKFQie1H1iCH4VrYuSeVnrJfEirRIN5CAAIQgAAEIACBSSWgYUlUS5tnPd87cccp37X5mnuetLR5oek747YcmW7tpLlHgZ5DAAIQgAAEIACBUQpoXhL1DBe7BYim6PBHeeTqra7DtfQMF7uujFdvN7B3CEAAAhCAAAQgoEYBDUuiapTCriEAAQhAAAIQgAAEVCuAJMpVLShagwAEIAABCEAAAhBQUgBJFEkUAhCAAAQgAAEIQEA9Akii6nFX8osCNoMABCAAAQhAAAIfsACSKJIoBCAAAQhAAAIQgIB6BJBE1eP+AX+5waFBAAIQgAAEIAABJQWQRJFEIQABCEAAAhCAAATUI4Akqh53Jb8oYDMIQAACEIAABCDwAQsgiSKJQgACEIAABCAAAQioRwBJVK77NGObacY2KvwWose3NhI4kpce31qFLauqKVt717DIOFt7V1U1aGY1JywyLipWFBUrCouMM7OaI69lle9a3o4UrI9PTO+4cPGbW7eP1J9Y6uWvYEtNL7K1d42ITiDnJXhNjD7PYiIfkQ7XMiR1xxz3Vcp0cooOPzRj13yvcGU2xjYQgAAEIKB2ASRRuUk0PGtfeNY+FZ4hv7gCcdUF8vKLK1Bhy6pqqrCo9PXrrsKiUlU1GBUrev26a+DPP69fd0XFiuS1zN51Yor462++3bWnkm58pqn1wmeXnBd60jUjWxAmpD548GtFZY109YrKmr63bx89fnL7zvd3f7gXFhknvc0Hs6awqLSvr4+cl87ORx7egRP20D7SNV6duTtMXM7om0h08h9TDV3tly129JFYb+cWmFR60sZ1pcT68X+rxfBsrJ1Wugezdz3DYm7a6owZFnPZK7EMAQhAYNIKIImOXxIlHzI9vrWwsG6SJFH696qmtl75JEpy0pOnz3z9V5MW7v5wT8nAFBYZ9+jxE5lZk8Nwo2JF//n5l9KyvbRjZGGmnfNP//75Xz/9R4XjwRK7mJhvP714WSZsS+u5e/d+cl+2Yhy6vVSYkXa0fYbTMpn7cvSOFG0/YWQ1n11qYWq3Pnz98YJDpwqPxgfI+HrjF1cQU3BQh2vJrjWeyzxDQZz/urq8mlOFRzcJ//a108F2UW32fgfbRePZH+wLAhCAwIQVQBJFEv1LgD0wqdqP7AiSaH9/f8PJM6QbyidRMgpbU1s/rP57eAd2dj769OLlYdX6ADaWl0TlrR+LQ/ZKzBE3XRIs8JZuXIdruXbTIemvbQWxG0uTij1cVuxJ2ykziZrbLkouPe3oHSnd5visifNfV5Gxx8c1oDBuC5Lo+JhjLxCAgIYKIIn+lcMkTmF41r64rXVxW+vWV3ZkVpwPSt5Orw9O0eH7ROVk7G0TV13I2NvmE5UzRYdPqisoIhvIGxM1s3Ej+1pf2bF28yE6CKSlzVuwQpi6u1lcdWF95fmYgoMmM11IU65+writdR5hmenlreKqC6m7muctWyNxFDLf5m/a9vTZs/4//zx99ix/0zayGUmire0dL1+9GhgY6OvrazzVRG8iTEwRdz56TGp1PnqcmCJm16LX9GXGWZlJNCt302+/PR8YGHj79t0PP97r6uomjZAx0d9+e/702bOg0CgOw2UnUVd372vXb757925gYKCnp/fAwTrSQ/YVZ3LdeWBggEbSuz/ck15JRknp/QN0AxJJq6prf//99+LSPdSwuHTP77//XlVdS9eodoEo7d5b9fTZs4GBgd9//71gy3ayCzb+gwe/RrLuc5B3NiXMJd6SZqUTJxtqWJfv5/mFZzReyO+4mdN+PbL0QEbjBZeQoTsczOa6JVQ35p27kd9xM6Pxwjy/oZs4QwvL8ztusl8SkVTg4JlcetrWLUDC+SMdIw7D1ZtmviulVGYS/UjXODqvOiS9TKLiuL0lPeQw3E3CghEk0eWxeSm7mme5jMeY9LiZYEcQgAAEZAogiSpKounlrW4BIl2e1YIVa9N2n/WKHMpeXpHitN1nXXxjGH0TF98YJYvICZCZRPkzHEQljRHZlVzzOfwZDjEFB+m1RduF/qm7WzzCMqfo8M1tF8VtrYvOPzB12uAjJq5+wsx958Oz9hpZzTeymh+RXZmw7ZjB9FkyzzRdGRYZ9/z5i6vXvlrq5R8UGvXjvX89f/6C3BZJwtyvv3amZeT4B4VfuXq9u7tnfdZGDsMltX6896+g0CjpWuy7S5VMokGhUU+fPfvp3z/HCJMiohN+vPevvr4+dhJtaml7/vxFS+s5dhLV51nc/PrWy1evNhUWz3dZ2tTc1tfXR67Fk6dwCrZs7+rqbjzVRB7HobeW+gWsiYoVkVIaTzkMlzxTlZaR8/jJ0ytXr5Na5L5JX//VT54+u/XtHZJ09XkWt769w75ngJJKLISk7kgpa2K/InOqdHlWEptJv62pre/v7+/p6W0/dyE3v3DvvgOu7oMjhWz8sMi4n3+5//Mv99lFMs+mRPSUeEv2Lp1ECdSVq9cfP3malpETFStS5pGmGU7LMhs/FR08LXD1sXLyiN/fkNN2lSTRj81tk2qbUuvbbJYFGgrmxew5ktn4KbkWz7d2ECzwXineKm667BQULVjgPcNpGWNgSmXcAtYll56m38roerKgIIlyGK5fXEHc1jp9o08kasl8q+CUKSiS2ZTEypEl0eDUHZkV5x08wyRaw1sIQAACH54AkqiiJEqfWNLS5q1KKRZuPqzLs/rY1GbdtuMBoq300xAg2rpu2/GPTW0UFNGNZSZRz4gNiTtO0X9xrR19BoeCFg4+vj11mgV/hgMdc10SkpJSdsZI4EiSaEpZEx0itV8Sqsw4Slbupu7uHjqwFxq29sDBusDgweuYEiEyJT2ru7uH5LYTjWe6urqTUoeyeFKquKur+0Tj4NVziVoSb8mBS8egisqanp7e3PxCsgG7FgnENbX1La3nfvvteVhkHB0TJV06duIUqTXTzvnevZ9++vfPM+2cyRrFV+fllcq7Ot9w8szr113kqGPjkl++ekV3TXYn87/TjG3oJAlkgWc+V0ubJ3Nj9sqa2vo//viDnhpa1Hy2/cWLlxHRCWRNbn7hy1evSGpXcDYlzCXekqakk6ji9bRLEgtLhRlZzV84+EeQ9S4hceKmSySJShRZOXlkNn7qnZRLW1Bwdd4vrkBYWCdvognFSdTVT0j/ptB9yVtQcMoUFMlrjb1+ZEl0ig5fyQzN3heWIQABCGiiAJKoUkmUw3DdAtaRf9gEDp5pu8+6+gnp+R78N29Xs4Wdu4IiurHMJBqetS+lrClMXE5eEdmVGRXtdBdWDh5r1u9JLj2dUtaUtvss/fdV4t9a24X+KWVNJL/S3UkvzLRzvvj5F2/fvvv1187ms+3xiel0G3YcpFeuSRL95tZt9qMtJLpduXZjxEn004uX/zcm6h80dKGWvWuaRMlYYGt7B02iFZU1vb299E4ADsOVaEde1iTHKK9UXhKNiE548eJla3sHh+EeO3Hq+fMXNA5SNBUu1NTW04FhdrN3f7j3+nXXne/u3r7z/e073w+OH799S86LgrMpET0laXHo9wAAD8JJREFU3pL2VZVEQzbtTj/RYTpnIWmWnURDC8uzz16JrzohrDgqrDgaV3k8q+XL0MJyeoATIYnSzqh8YWRJVOXdQIMQgAAEJqwAkuhIkmjq7hYX3xh6Ul18Y2gSlVdEN5aXROO21i0KFLFfxtaD43w2ritTdjUHiLaazV5oJHBcujp9lEmU9CQ+Mb35bHtn56M//vjj29vfkWfG2XFQOon++msnfZjafdmKX3/tHGUSffT4ibfv0CSR7F3TJPq/q+cNJ8+8fPnq8ZOnJAeTJErvnuQw3I4LF9mJVl7WJEctr1ReEiVJ98nTZ/+7SH3/wcMvvrxGz6OChRFfz1WQRDsfPa472sB+xcYl0z7IPJsS0VPiLamrqiQaWliedrR9+qzBoXoOw5VIoutPfea3vtAndSN90VtFOQx3IiRRBadMQRH1V7CAJKoAB0UQgAAEOAwXSVTZJBqUvJ1cKOSZzxWVNPpE5dAPkE9UjqikkWc+V0ER3VhmEvWLK1i3/QTPXMYUgxK3u9Gh2f+7Oj90pZ7DcJUcE42NS66uOUzuMuQw3D0V+3t6hkYZ2XFQIolKXCAmg4XNZ9vJmGhXV3fR9p3kGCUaISulY1B1zeHu7p6U9CzpWuwkSm4nHRgYIElU4mI0uXfzl/sP6P2g8rIm2Yu8UgVJNClV/PLVqyvXbrx89SonbwtpR/F/7RYFsb9RLAoUOXiGfaRrrLgWh+HKS6KfXrz87Nl/g9f89eWHNqXgbNbU1nd1dQsTUsnG0qeA5Gz2UDdtVl5CpRtILHgkZG1oumzrEUTWs5Ood1LuhqbLdt4hElXoWwVJ1DNiA7nvhW7MXlB8dX5JSAr5W8muIm9ZwSlTUCSvNfZ6JFG2BpYhAAEISAsgiSpKoml7Wp2WR0/R4dsvCU3b00rTp+/a/NRdzXaLBv/dtVsUlLqr2XdtPsFVUER+Y8lyzuL4oqNBidsG7yC0mk+ex7ecszhlV3NEdqXB9Jla2rz5XuGxBbVmNm4chusRlpm2+6z9ktB//HO6rVvgn9fo2feJDjuJFhaV9vb2NrW0mVnN+d+L3ApJHkuSCJHs3CZMSH3x4uXX33zr6u7t6u799TffvnjxkqScoNCo3357fu36TVt7V/IwE73ETH9jqfFUU1dXd8GW7VGxIr+AwQf86VM4Pn4hS738v/v+B1qLnUTJZfH+/n4SmGbaOX97+7v//ve3xBSxPs+i9vDRN2/eHDz015xN5DGjO9/ddXX3trV3pYO47CeWyPNM7N98UpBESdgdGBigjy5J/y1S1Rp5STQtI6e7u+fHe//y8QvR51mUV1T/cv8BmbtAwdlcn7Wxu7vnTFOrmdWcpNTBeQ/olK70N5bYTyax57c/duJUb29vSengNXRv31XsH8f6SNc4NH2nqKTB0m4xPXDyxFL8/obps50MBfPiKo/RJ5bM7RelHT+fWt82c9Hgk+AOK8OTj7S4hPx1c8vC8HXZZ6/4phdM0THkWdnr8gW0WfsloUmlpyzs3Oka9oLiJBqSXhadV63MFwB2mypflplED+XsX+a8wsR4Nn1N1fvbFxUX35ig5GLV/sabyg8NDUIAAhBQiQCSqKIkGp61d932E2T6pDDxXj3DoX8jGX2TlQlbMivOi6suZFacX5mwhU7wpKCI/RtL5JeW0stb6W2dsxf4Je44RdcvWpVEnnHRMxSEifeurxzcV1LpqZC00tTdLQKHwV8bGtl9ovo8iwMH63p6eskcPRITIbGfgmcnUQ7DpZMuDQwM/Pbb86zcTfQjWF1z+M2bN2Q+pouff/Hbb8/JrZykBTo7Elm4+8M9UnFTYTGZLqq/v//uD/foUzgSSZTERDp0t9TL/853d/v7+6XnmSLNHq47/vbt4BxP/f39V65eJyulJyeisWww7iucT7Ro+87u7h72dE70wFW7IC+JDk4GVFj84sVLAvjmzZujxxrpE/3yzqY+z+Js23lC0dvb+9nnl//739/Iz1wRYYnzwp5O1dd/9f0HD8kGXV3daRl/XQGYOs0iOv9ARkX73MV/++kg51Wx4tOf53fczDt3I/FQc1bzF3QWp5luvqn1bXnnvyJzPIVu2cOOm7p8wdq99aQ0t+3aosgkqkouMrgH/3UfAi1SPIsTufKwJCSFvb1almUm0WMbB+fkZ798XP82U5VfXAG9CUct3cZOIQABCIybAJKo3CRKz8E0YxsyaxJdQxYYfRP+DAeaQdmlCorYm0kv6/GtZT5nPXWahcz10i0ov8YvYA0ZnlS+yuDkOHJqmVnNCQ1bO9zfKNLnWQQGRw63FofhOi/0ZA9qShwCGYull+wlSof79osvr91/8JDezzDc6irc3sM7UN6cSvLOi629a2jYWvagpvL9kbc7Rt9E5qRUU3QMzea66fIFi6KSN/w5MRN7XwamsyUmaVKm1C+uYO2mQ8P9taR5y9aItp8wneXK3oUGLfvFFSh/a4EGHRe6CgEIQEBaAEn0/UlUWg1rJo9ASWl5d3ePvJ8PnTwOio+Ub+2QUN3okZDFGJia2y9aV3Mq5Wgb39pBcS1lSvkzHNZtO+4m6yc95VU3mD5LuOUwnf1X3mYTdr28X5aasB1GxyAAAQiMRgBJFEkUArIFyPwA/f395BbY0fw1++DrTtEx9BJli5suD16dP/9Van3b7KV/u9w8GgFbt0BRSeNMZ6V+cGiKDj8kvWx15m6ZFytG041xq6ulzRPM86T3Ao3bfrEjCEAAAmoRQBKVnULUcjKw0wklQC7xj+AGhgl1FOPcGb61g4HpbJXv9GMzO+Uv0JvbLqK/BKHynqBBCEAAAhBQrQCSKJIoBCAAAQhAAAIQgIB6BJBE1eOu2u8TaA0CEIAABCAAAQhoogCSKJIoBCAAAQhAAAIQgIB6BJBE1eOuid9a0GcIQAACEIAABCCgWgEkUSRRCEAAAhCAAAQgAAH1CCCJqsddtd8n0BoEIAABCEAAAhDQRAEkUSRRCEAAAhCAAAQgAAH1CCCJqsddE7+1oM8QgAAEIAABCEBAtQIalkS1tHnLY/PcAkSYuVq1nwO0BgEIQAACEIAABMZfQPOSqOWcxXGF9SuEG7W0eePvhT1CAAIQgAAEIAABCKhKQMOSKDlst4B1opJGnvlcVSmgHQhAAAIQgAAEIACB8RfQyCRqvyQ0ZVfzLJcV4++FPUIAAhCAAAQgAAEIqEpAI5Oo7UL/lLIm24X+qlJAOxCAAAQgAAEIQAAC4y+gyUnULWD8vbBHCEAAAhCAAAQgAAFVCWhkEtXjWwu3HA7fsNdg+ixVQaAdCEAAAhCAAAQgAIFxFtDIJMphuKazXBN3nEwvb8U1+nH+xGB3EIAABCAAAQhAQFUCGplE6ZionqFAVRBoBwIQgAAEIAABCEBgnAU0MokOPbGE+0QZ/EAUBCAAAQhAAAIQ0GABTU6ieHYeSRQCEIAABCAAAQhosoBGJlHMJzrOI+fYHQQgAAEIQAACEBgLAY1MoktCUvAbS2PxaUCbEIAABCAAAQhAYDwFNCyJamnzrOd7J+445bs2fzyZsC8IQAACEIAABCAAAZULaF4S9QwXuwWIpujwVW6BBiEAAQhAAAIQgAAExlNAw5LoeNJgXxCAAAQgAAEIQAACYyqAJKrBEx+M6ScDjUMAAhCAAAQgAIGxFkASRRKFAAQgAAEIQAACEFCPAJKoetzH+hsG2ocABCAAAQhAAAITXwBJFEkUAhCAAAQgAAEIQEA9Akii6nGf+N9R0EMIQAACEIAABCAw1gJIokiiEIAABCAAAQhAAALqEUASVY/7WH/DQPsQgAAEIAABCEBg4gsgiSKJQgACEIAABCAAAQioR0AFSZQ/wyEoudh6vrd07jabvTA8a5+R1XzpIqyBAAQgAAEIQAACEJjkAipIooy+yYIVa5NKT9q5BUpoamnzVgg3rt18SI9vLVGEtxCAAAQgAAEIQAACk1xABUmUw3C1tHkR2ZUh6WXSmnp8a2FhnVekWLoIayAAAQhAAAIQgAAEJrOAapIoh+EGJW8Xbj6sy7OS1nQPThaVNPLM50oXYQ0EIAABCEAAAhCAwKQVUFkS9YsrEBbWybwKb2HnnlJ2xtE7UlrZZKaLqLghNHPXR7rG0qVYAwEIQAACEIAABCDwAQuoMonGba3TN/pEGotcoPeL3yxdZOXgkbq7OTr/wNRpFtKlWAMBCEAAAhCAAAQg8AELqCyJ2riuTNnVvDg4ldE3kfYKz9oXnrVPej2H4eryrGRWkbkxVkIAAhCAAAQgAAEIfDACKkuiHIa7MCA+Y985mdfoFSTRD4YSBwIBCEAAAhCAAAQgMCwBlSXRoTHRkJQpOnzpHiCJSptgDQQgAAEIQAACEJjkAipLon5xBfLuE/1I1zg6r1rmHE+TXB+HDwEIQAACEIAABCazgCqTqMzr8hyGyzOfKyppXBKSIg09zdgmKLnYxTdGughrIAABCEAAAhCAAAQ+bAGVJVEF84naLvRP3HHSws5dmtJI4JhSdsYvrkC6CGsgAAEIQAACEIAABD5sAdUkUQXX37W0eUGJ28LEe2XOGEqSqGfEhg9bGUcHAQhAAAIQgAAEICAtoIIkyuibLA5OTdnVbOO6UnoHdm6BiTtOfuLoI13EYbjOy2NEJY2ms1xllmIlBCAAAQhAAAIQgMAHLKCCJMo1nxMg2mo931uaabq1U8K2424B66SLyBqD6TNn2C+TV4r1EIAABCAAAQhAAAIfsIAKkqgCHR2u5XRrJwUboAgCEIAABCAAAQhAYNIK/C2JGvAsJy0EDhwCEIAABCAAAQhAYJwF/pZE5zktHufdY3cQgAAEIAABCEAAApNW4G9JVJiQOmkhcOAQgAAEIAABCEAAAuMs8Lckerzh9DjvHruDAAQgAAEIQAACEJi0An9Lon/88cfHRlaT1gIHDgEIQAACEIAABCAwngJ/S6IDAwMbN28bz91jXxCAAAQgAAEIQAACk1ZAMon+/vvvltb2k5YDBw4BCEAAAhCAAAQgMG4Ckkl0YGDgTHPbuO0eO4IABCAAAQhAAAIQmLQCMpLowMDAjp3lk1YEBw4BCEAAAhCAAAQgMD4CspMowuj46GMvEIAABCAAAQhAYDILyE2i5DI97hmdzB8OHDsEIAABCEAAAhAYUwFFSXRgYOD333/fuHkbpnYa03OAxiEAAQhAAAIQgMAkFPjYyOripS/+38D7/vzxxx/HG04LE1LnOS3Gb9NPwg8KDhkCEIAABCAAAQioRMCAZznPabEwIfV4w+k//vhjYGDg/Un0fUkV5RCAAAQgAAEIQAACEBiJAJLoSNRQBwIQgAAEIAABCEBg9AJIoqM3RAsQgAAEIAABCEAAAiMRQBIdiRrqQAACEIAABCAAAQiMXuD/A/aqfO7gFbD2AAAAAElFTkSuQmCC;" parent="1" vertex="1">
          <mxGeometry x="10" y="180" width="345.77" height="180" as="geometry" />
        </mxCell>
      </root>
    </mxGraphModel>
  </diagram>
</mxfile>
